<svg xmlns="http://www.w3.org/2000/svg" viewBox="0 0 1920 505.35"><defs><style>.cls-1,.cls-2,.cls-3{fill:#c7e9b6;}.cls-1{opacity:0.3;}.cls-2{opacity:0.5;}</style></defs><title>Asset 20</title><g id="Layer_2" data-name="Layer 2"><g id="Layer_2-2" data-name="Layer 2"><path class="cls-1" d="M332,214.35c144.88-24.58,174.72-63.57,336-91,57.86-9.84,192.15-31.64,357-9,192.55,26.45,204.22,83,343,73,60.84-4.37,171.92-12.35,276-82,50.78-34,98.16-81.48,185-99a329,329,0,0,1,91-5.28V505.35H0v-291C75.34,226.73,192.91,238,332,214.35Z"/><path class="cls-2" d="M355,235.35c250.79-53,331.8-143.69,488-104,48.66,12.36,109.21,38.55,216,49,70.91,6.94,69.87-2.1,138,7,94,12.56,127.75,34,208.25,31.05,36.36-1.33,62.4-6.92,89.52-12.72,114.81-24.55,152.57-65,231.23-84.33,43.79-10.77,108.11-16.92,194,7v377H0V264C152.26,270.22,272.51,252.78,355,235.35Z"/><path class="cls-3" d="M1053,211.35c229.06,17.83,255,85.39,395,48,144.59-38.63,223.52-139.22,352-112,54.76,11.6,95.1,41.47,120,64v294H0v-194c204.49-1.4,369.83-17,483-31C802.36,240.88,854.89,195.93,1053,211.35Z"/></g></g></svg>