<svg xmlns="http://www.w3.org/2000/svg" viewBox="0 0 1920 505.35"><defs><style>.cls-1,.cls-2,.cls-3{fill:#3d2167;}.cls-1{opacity:0.3;}.cls-2{opacity:0.5;}</style></defs><title>Asset 3</title><g id="Layer_2" data-name="Layer 2"><g id="Layer_2-2" data-name="Layer 2"><path class="cls-1" d="M1588,214.35c-144.88-24.58-174.72-63.57-336-91-57.86-9.84-192.15-31.64-357-9-192.55,26.45-204.22,83-343,73-60.84-4.37-171.92-12.35-276-82-50.78-34-98.16-81.48-185-99A329,329,0,0,0,0,1.07V505.35H1920v-291C1844.66,226.73,1727.09,238,1588,214.35Z"/><path class="cls-2" d="M1565,235.35c-250.79-53-331.8-143.69-488-104-48.66,12.36-109.21,38.55-216,49-70.91,6.94-69.87-2.1-138,7-94,12.56-127.75,34-208.25,31.05-36.36-1.33-62.4-6.92-89.52-12.72-114.81-24.55-152.57-65-231.23-84.33-43.79-10.77-108.11-16.92-194,7v377H1920V264C1767.74,270.22,1647.49,252.78,1565,235.35Z"/><path class="cls-3" d="M867,211.35c-229.06,17.83-255,85.39-395,48-144.59-38.63-223.52-139.22-352-112-54.76,11.6-95.1,41.47-120,64v294H1920v-194c-204.49-1.4-369.83-17-483-31C1117.64,240.88,1065.11,195.93,867,211.35Z"/></g></g></svg>