<svg xmlns="http://www.w3.org/2000/svg" viewBox="0 0 882.93 768"><defs><style>.cls-1{fill:#dfece3;}.cls-2{fill:#3aa382;}.cls-3{fill:#6b0549;}.cls-4{fill:#fed4b5;}</style></defs><title>Asset 32</title><g id="Layer_2" data-name="Layer 2"><g id="Layer_1-2" data-name="Layer 1"><path class="cls-1" d="M832.87,103.68c-5.94-2.26-8.65-7-11.28-11.6-2.54-4.45-5-8.66-10.29-11.25-5.67-2.75-11.35-1.23-17.35.39-6.45,1.73-13.12,3.52-19.73-.3-5.48-3.17-7.69-7.53-9.63-11.38-1.79-3.55-3.48-6.9-7.67-9.44-8.16-5-19-4-29,2.51a2.59,2.59,0,0,1-3.13-1.24,2.56,2.56,0,0,1,.47-2.85A35.46,35.46,0,0,1,743,52.14a27.26,27.26,0,0,1,16.43,3.78c5.38,3.27,7.56,7.6,9.49,11.42s3.49,6.91,7.72,9.35c4.85,2.81,10,1.42,16-.19,6.29-1.69,13.43-3.61,20.75-.06,6.7,3.24,9.73,8.54,12.4,13.22,2.52,4.39,4.7,8.19,9.5,9.7,4.61,1.45,8.36,0,12.69-1.73s9.49-3.74,15.65-2.06c7.2,2,16.4,7.56,19.22,23.16a2.45,2.45,0,1,1-4.81.87c-.41-2.65-2-11-9.06-16.17a20,20,0,0,0-6.63-3.15c-4.6-1.25-8.47.28-12.58,1.9-4.54,1.78-9.69,3.81-15.95,1.84C833.52,103.91,833.19,103.8,832.87,103.68Z"/><path class="cls-1" d="M146.74,721.35c-5.79,2.6-11.06,1.17-16.17-.22-4.95-1.35-9.63-2.63-15.23-.68-6,2.06-8.9,7.16-12,12.54-3.33,5.79-6.78,11.77-14.15,13.74-6.13,1.64-10.77.11-14.86-1.24-3.78-1.24-7.35-2.41-12.1-1.25C53,746.5,45.94,754.83,43.48,766.53a2.5,2.5,0,0,1-4.78-1,35.51,35.51,0,0,1,8.08-17.1,27.27,27.27,0,0,1,14.29-8.94c6.11-1.49,10.72,0,14.78,1.36s7.36,2.42,12.08,1.16c5.4-1.45,8.08-6.09,11.18-11.46,3.25-5.65,6.94-12,14.63-14.72,7-2.44,12.92-.83,18.12.58,4.88,1.33,9.11,2.47,13.57.15,4.29-2.23,5.9-5.93,7.75-10.2s4.07-9.35,9.61-12.52c6.48-3.71,16.94-6.25,30,2.78a2.45,2.45,0,1,1-2.79,4c-2.16-1.58-9.25-6.37-17.84-5a20.06,20.06,0,0,0-6.91,2.46c-4.14,2.37-5.8,6.19-7.56,10.24-1.94,4.47-4.15,9.55-10,12.58C147.37,721.06,147.06,721.21,146.74,721.35Z"/><path class="cls-1" d="M782.92,533.72c2.6,5.79,1.16,11.06-.23,16.17-1.35,5-2.62,9.63-.67,15.24,2.06,6,7.15,8.89,12.54,12,5.78,3.34,11.76,6.78,13.74,14.16,1.63,6.12.11,10.76-1.24,14.86-1.24,3.77-2.42,7.34-1.26,12.1,2.26,9.27,10.6,16.28,22.3,18.74a2.5,2.5,0,0,1-1,4.78,35.47,35.47,0,0,1-17.1-8.07,27.3,27.3,0,0,1-8.94-14.3c-1.49-6.11,0-10.72,1.36-14.78s2.42-7.35,1.16-12.07c-1.45-5.41-6.09-8.09-11.46-11.19-5.65-3.25-12-6.94-14.72-14.62-2.44-7-.84-12.93.58-18.12,1.33-4.89,2.47-9.12.15-13.58-2.24-4.29-5.93-5.89-10.2-7.75s-9.35-4.07-12.53-9.61c-3.71-6.47-6.24-16.94,2.79-30a2.44,2.44,0,1,1,4,2.78c-1.58,2.17-6.37,9.25-5,17.84a20.29,20.29,0,0,0,2.47,6.91c2.37,4.14,6.19,5.8,10.23,7.56,4.48,1.94,9.55,4.15,12.59,10C782.62,533.09,782.78,533.41,782.92,533.72Z"/><path class="cls-1" d="M46.65,205.86c-2.6-5.8-1.17-11.06.22-16.17,1.35-4.95,2.63-9.63.68-15.24-2.06-5.95-7.16-8.89-12.54-12-5.79-3.34-11.77-6.78-13.74-14.16-1.64-6.12-.11-10.76,1.24-14.86,1.24-3.77,2.41-7.34,1.25-12.1-2.26-9.28-10.59-16.28-22.29-18.74A2.61,2.61,0,0,1,.12,99.51a2.59,2.59,0,0,1,2.35-1.69,35.47,35.47,0,0,1,17.1,8.07,27.3,27.3,0,0,1,8.94,14.3c1.49,6.11,0,10.72-1.36,14.78S24.73,142.32,26,147c1.45,5.41,6.09,8.09,11.46,11.18,5.65,3.26,12,6.95,14.72,14.63,2.44,7,.83,12.93-.58,18.12-1.33,4.89-2.47,9.12-.15,13.58,2.23,4.29,5.93,5.89,10.2,7.75s9.35,4.07,12.52,9.61c3.71,6.47,6.25,16.94-2.78,30a2.44,2.44,0,1,1-4-2.78c1.58-2.17,6.37-9.26,5-17.84a20.18,20.18,0,0,0-2.46-6.92c-2.37-4.13-6.19-5.79-10.24-7.55-4.47-1.95-9.55-4.15-12.58-10C46.94,206.49,46.79,206.17,46.65,205.86Z"/><path class="cls-2" d="M97.44,489.35l-68-2.43a10.77,10.77,0,0,0-9.89,15.81l31.91,60.14a10.76,10.76,0,0,0,18.64.67l36.13-57.72A10.76,10.76,0,0,0,97.44,489.35Z"/><path class="cls-2" d="M625,667.62l-34,59a10.77,10.77,0,0,0,9.32,16.16h68.09a10.78,10.78,0,0,0,9.33-16.16l-34-59A10.77,10.77,0,0,0,625,667.62Z"/><path class="cls-3" d="M294.07,457.08a3.89,3.89,0,0,1-1.9-3.72,9.81,9.81,0,0,1,.84-3.74,7.83,7.83,0,0,0,2.16,1.8,4.59,4.59,0,0,0,2.16.52c2.16,0,3.76-1.2,4.82-3.62a19.68,19.68,0,0,0,1.58-8q0-8.21-6.14-8.21a19.26,19.26,0,0,0-3,.2l-5.3,24.75H280L288.8,416l9.57-1.3-3,14.35h.39a7.58,7.58,0,0,0,4.59-1.58,11.87,11.87,0,0,0,3.42-4,10.32,10.32,0,0,0,1.3-4.88,6.65,6.65,0,0,0-2.1-5q-2.12-2-6.43-2a17.73,17.73,0,0,0-7.7,1.78,14.85,14.85,0,0,0-6.1,5.33,15.12,15.12,0,0,0-2.36,8.59,8.49,8.49,0,0,0,.45,3.33,5.65,5.65,0,0,1,.45,1.07,8.17,8.17,0,0,1-5.17-1.39q-1.74-1.39-1.74-4.56a12.83,12.83,0,0,1,3.29-8.33,23.83,23.83,0,0,1,8.73-6.37,27.83,27.83,0,0,1,11.44-2.42,18.19,18.19,0,0,1,7.62,1.42,10.59,10.59,0,0,1,4.62,3.75,9.08,9.08,0,0,1,1.52,5.1,11,11,0,0,1-1.68,5.76,12.71,12.71,0,0,1-4.78,4.52,8.25,8.25,0,0,1,5.75,3.59,12.18,12.18,0,0,1,1.88,6.81,26.59,26.59,0,0,1-1.39,8,18.08,18.08,0,0,1-4.59,7.46,11.2,11.2,0,0,1-8.18,3.14A9.07,9.07,0,0,1,294.07,457.08Z"/><path class="cls-3" d="M319.37,424.73h9.31l-.84,4a26.06,26.06,0,0,1,4-3,7.54,7.54,0,0,1,3.85-1,4,4,0,0,1,3.26,1.43,5.12,5.12,0,0,1,1.2,3.42,4.9,4.9,0,0,1-1.23,3.3,4.28,4.28,0,0,1-3.43,1.42,2.22,2.22,0,0,1-1.9-.68,5.16,5.16,0,0,1-.75-2,6.08,6.08,0,0,0-.38-1.23.72.72,0,0,0-.71-.39,4.55,4.55,0,0,0-2.3.55,15.94,15.94,0,0,0-2.42,1.91l-5.17,24.56h-9.31Z"/><path class="cls-3" d="M341.08,455q-2.64-2.49-2.64-7.79a32,32,0,0,1,1.74-9.82,22.77,22.77,0,0,1,5.69-9.28,13.63,13.63,0,0,1,10-3.91q7.11,0,7.11,6.21a11.55,11.55,0,0,1-2.07,6.65,15.18,15.18,0,0,1-5.49,4.88,17.67,17.67,0,0,1-7.3,2.1c-.09,1.3-.13,2.16-.13,2.59,0,2.11.37,3.54,1.1,4.3a4.8,4.8,0,0,0,3.55,1.13,10.72,10.72,0,0,0,6-1.62,28.87,28.87,0,0,0,5.46-4.91h2.2q-7.17,12-17.77,11.95C345.33,457.43,342.85,456.61,341.08,455Zm12.12-15.74a11.83,11.83,0,0,0,3.49-3.94,10.32,10.32,0,0,0,1.33-5c0-1.77-.54-2.65-1.62-2.65-1.55,0-3.07,1.35-4.55,4.07a30.65,30.65,0,0,0-3.2,9.24A8.57,8.57,0,0,0,353.2,439.21Z"/><path class="cls-3" d="M365.48,455.5q-1.91-2-1.91-5.82a22.79,22.79,0,0,1,.52-4.2l4.4-20.75h9.3l-4.65,22a6.51,6.51,0,0,0-.2,1.61c0,1.9.65,2.85,1.94,2.85a3.94,3.94,0,0,0,3.1-1.52,11.06,11.06,0,0,0,2.07-4.17l4.4-20.75h9.3l-4.65,22a12.94,12.94,0,0,0-.32,2.32,1.91,1.91,0,0,0,2.19,2.14q3,0,5.53-3.75a32.07,32.07,0,0,0,4.1-8.92,31.59,31.59,0,0,0,1.55-8.92c-.08.22-.36.38-.84.49a6.11,6.11,0,0,1-1.22.16,1.91,1.91,0,0,1-1.72-1,4.33,4.33,0,0,1-.61-2.26,3.35,3.35,0,0,1,1-2.52,4.2,4.2,0,0,1,3-1,3.36,3.36,0,0,1,3.1,1.59,7.66,7.66,0,0,1,1,4,42.9,42.9,0,0,1-2,12.44,29.58,29.58,0,0,1-6.13,11.28,13.21,13.21,0,0,1-10.28,4.65,9.07,9.07,0,0,1-5.17-1.35,6.27,6.27,0,0,1-2.59-4.07q-3.62,5.42-9.17,5.42A6.71,6.71,0,0,1,365.48,455.5Z"/><path class="cls-3" d="M408.2,455.5q-1.9-2-1.91-5.82a22,22,0,0,1,.52-4.2l4.39-20.75h9.31l-4.65,22a7.6,7.6,0,0,0-.26,2.06,2.38,2.38,0,0,0,.61,1.85,3.07,3.07,0,0,0,2,.55,4.92,4.92,0,0,0,3.49-1.59,9,9,0,0,0,2.32-4.1h2.72q-2.4,7-6.14,9.47a13.37,13.37,0,0,1-7.43,2.48A6.71,6.71,0,0,1,408.2,455.5ZM414,419.76a4.94,4.94,0,0,1-1.49-3.62,5,5,0,0,1,1.49-3.65A4.89,4.89,0,0,1,417.6,411a5.19,5.19,0,0,1,5.17,5.17,4.89,4.89,0,0,1-1.52,3.62,5,5,0,0,1-3.65,1.48A4.93,4.93,0,0,1,414,419.76Z"/><path class="cls-3" d="M441.61,455.33a7.59,7.59,0,0,1-1.84-5.2,16.35,16.35,0,0,1,.32-3.07c.21-1.14.44-2.25.68-3.33s.4-1.76.48-2.06c.35-1.51.67-3,1-4.46a18.63,18.63,0,0,0,.45-3.56c0-2.2-.77-3.29-2.32-3.29a3.74,3.74,0,0,0-3,1.64,12.49,12.49,0,0,0-2.07,4.3l-4.4,20.75h-9.3l6.85-32.32h9.3l-.71,3.37a9.85,9.85,0,0,1,7.56-3.62,7.39,7.39,0,0,1,5.24,1.8q1.93,1.82,1.94,5.5a21.13,21.13,0,0,1-.46,4.17q-.45,2.3-1.29,5.59c-.34,1.33-.66,2.64-.93,3.91a14.16,14.16,0,0,0-.42,3,3.1,3.1,0,0,0,.58,2,2.45,2.45,0,0,0,2,.71,3.85,3.85,0,0,0,3.1-1.39,16.36,16.36,0,0,0,2.33-4.3h2.71q-2.39,7.11-5.52,9.53a10.48,10.48,0,0,1-6.5,2.42C444.76,457.43,442.84,456.73,441.61,455.33Z"/><path class="cls-3" d="M462.74,471.23a6.3,6.3,0,0,1-2.29-5,7.3,7.3,0,0,1,1.42-4.65,9.62,9.62,0,0,1,3.68-2.84,49.39,49.39,0,0,1,6.08-2.2l.58-2.71a10.31,10.31,0,0,1-7.76,3.61,8.23,8.23,0,0,1-6.14-2.52c-1.63-1.68-2.45-4.3-2.45-7.88a29.52,29.52,0,0,1,1.9-10,23.2,23.2,0,0,1,5.69-8.92,12.55,12.55,0,0,1,9-3.65,6.87,6.87,0,0,1,3.94.91,2.79,2.79,0,0,1,1.29,2.39v.13l.65-3.11h9.37l-7.89,37.49q-1.29,6.19-4.55,8.59a11.89,11.89,0,0,1-7.21,2.39A7.91,7.91,0,0,1,462.74,471.23Zm6-5a8.86,8.86,0,0,0,1.62-3.85l.77-3.81a16.83,16.83,0,0,0-5.3,2.71,5,5,0,0,0-1.87,4,1.92,1.92,0,0,0,.78,1.45,2.61,2.61,0,0,0,1.8.68A2.94,2.94,0,0,0,468.78,466.26Zm2.88-16.35a6.92,6.92,0,0,0,2.16-3.59l3.3-15.64a2.54,2.54,0,0,0-2.65-2.26c-1.72,0-3.28,1-4.65,3a24,24,0,0,0-3.24,7.24,28.84,28.84,0,0,0-1.16,7.47c0,2.15.31,3.53.94,4.13a3.15,3.15,0,0,0,2.29.91A4.74,4.74,0,0,0,471.66,449.91Z"/><path class="cls-3" d="M517.44,412.78a13,13,0,0,0-6.68,4.88,13.82,13.82,0,0,0-2.3,8,14.84,14.84,0,0,0,.45,3.78,7.93,7.93,0,0,0,1.3,2.82c-2.76,0-4.8-.58-6.11-1.72s-2-2.89-2-5.26a14.74,14.74,0,0,1,2.65-8.44,19,19,0,0,1,7.17-6.23,21.06,21.06,0,0,1,9.82-2.33,15.07,15.07,0,0,1,2.59.19,16,16,0,0,1,2.52.71l7.75,34.58,7.24-35.09h6.27l-10.53,48.34h-8.92L521.19,425l-7.36,32.06h-6.14Z"/><path class="cls-3" d="M546.78,454.85c-1.85-1.64-2.77-4.22-2.77-7.76a30.87,30.87,0,0,1,1.8-9.75,23.15,23.15,0,0,1,5.82-9.28,13.87,13.87,0,0,1,10.08-3.91q8.28,0,8.27,10.34v.07a2.85,2.85,0,0,0,.72.06,13.2,13.2,0,0,0,4.91-1.13,24.36,24.36,0,0,0,5-2.75l.58,1.75a15.34,15.34,0,0,1-4.88,3.39,24.81,24.81,0,0,1-6.56,2,29.23,29.23,0,0,1-2.65,10.28,17.38,17.38,0,0,1-5.49,6.78,12.31,12.31,0,0,1-7.31,2.39A11,11,0,0,1,546.78,454.85ZM560,449.71a15.81,15.81,0,0,0,2.72-4.85,31.72,31.72,0,0,0,1.68-6.81c-1.17-.26-1.75-1.17-1.75-2.72a3.39,3.39,0,0,1,2-3.49,6.77,6.77,0,0,0-.65-2.94,2,2,0,0,0-1.81-.8q-2.13,0-4.14,3.1a27.47,27.47,0,0,0-3.23,7.43,28.4,28.4,0,0,0-1.23,7.62,8.34,8.34,0,0,0,.71,4.17,2.9,2.9,0,0,0,2.59,1.07A4.26,4.26,0,0,0,560,449.71Z"/><path class="cls-3" d="M574.67,455.5q-1.9-2-1.91-5.82a22.79,22.79,0,0,1,.52-4.2l4.39-20.75H587l-4.65,22a6.51,6.51,0,0,0-.2,1.61c0,1.9.65,2.85,1.94,2.85a3.94,3.94,0,0,0,3.1-1.52,11.06,11.06,0,0,0,2.07-4.17l4.4-20.75h9.3l-4.65,22A12.94,12.94,0,0,0,598,449a1.91,1.91,0,0,0,2.19,2.14c2,0,3.83-1.25,5.53-3.75a32.07,32.07,0,0,0,4.1-8.92,31.59,31.59,0,0,0,1.55-8.92c-.08.22-.36.38-.84.49a6.11,6.11,0,0,1-1.22.16,1.91,1.91,0,0,1-1.72-1,4.33,4.33,0,0,1-.61-2.26,3.35,3.35,0,0,1,1-2.52,4.2,4.2,0,0,1,3-1,3.36,3.36,0,0,1,3.1,1.59,7.66,7.66,0,0,1,1,4,42.9,42.9,0,0,1-2,12.44,29.47,29.47,0,0,1-6.14,11.28,13.18,13.18,0,0,1-10.27,4.65,9.07,9.07,0,0,1-5.17-1.35,6.27,6.27,0,0,1-2.59-4.07q-3.61,5.42-9.17,5.42A6.71,6.71,0,0,1,574.67,455.5Z"/><g id="Layer_1-2-2" data-name="Layer 1-2"><path class="cls-3" d="M491.33,328.11v-3.18q.63-8.42-20.2-8.37-16.58.06-36.07,6.79-.48.24-10.61,4.27-8.47,3.45-9.46,3.46-4.32,0-4.34-4.07,0-2.13,8.76-6.65a19.12,19.12,0,0,0,1.87-1.06q9.71-7.55,9.63-35.84,0-15.93-.71-23.6-1.93-23.34-1.93-22.13a14.47,14.47,0,0,1,2.83-8.93,10.18,10.18,0,0,1,8.56-4.44q4.5,0,12,5.53,8,5.85,8,10.59c0,2.73-1.35,4.09-4.07,4.1q-2.94,0-7.49-7.25t-9.2-7.25q-3.1,0-2.68,9.32,1.56,32.4,1.55,32.5l.07,24.9a41.11,41.11,0,0,1-5.35,20.35q22.6-8.31,40-8.34a32.42,32.42,0,0,1,15,4q9.42,4.78,9.43,11.73C497,327,495.09,328.15,491.33,328.11Z"/><path class="cls-3" d="M512.46,369.79q-11.84,0-21.26-10-8.26-8.64-8.29-15.74c0-2.29.92-3.43,2.77-3.44,1,0,1.83.79,2.39,2.44.33,1.2.66,2.39,1,3.68a25.87,25.87,0,0,0,7.71,11.15A21.2,21.2,0,0,0,509,363.08q17.4,1.44,27.48-19.25a83.06,83.06,0,0,0,8.07-37q0-13.95-4.08-34.53-6.9,17.91-11.45,26.57-9.27,17.58-18.08,20.46a9.8,9.8,0,0,1-2.94.5q-7.83,0-7.87-12.07,0-11.1,5.72-31.29,6.08-21.26,10.65-21.67a4.78,4.78,0,0,1,3.39,1.18,3.59,3.59,0,0,1,1.76,2.65,1.55,1.55,0,0,1-.16.73,97.6,97.6,0,0,0-8.93,18.81q-5.76,15.77-5.73,28.92,0,6.94,2.06,6.94c1.68,0,4.43-2.89,8.22-8.68q2.77-4.18,5.53-9.32,11.57-18.24,13.41-30.09a27.7,27.7,0,0,0,.17-7.5c-.44-3.72.88-5.58,4-5.58q4.42,0,5.33,8.24l.08,1.06q2,18.21,4.55,22.53,1.4,2.38,1.44,22.53a91.54,91.54,0,0,1-8,37Q532.62,369.75,512.46,369.79Z"/><path class="cls-3" d="M616.55,245.48c-1.14-.37-1.88-1.41-2.21-3.1-.17-1.41-.33-2.79-.5-4.15a15.34,15.34,0,0,0-2.88-6.94c-1.8-2.66-3.7-4-5.72-4q-8.49,0-13.1,20.52-2.34,10.36-3.59,31.86c.65-.11,2.14-.44,4.48-1a20.83,20.83,0,0,1,4.57-.66q7.17,0,9.49,5.44a5.31,5.31,0,0,1,.41,2c0,1.21-.37,1.94-1.13,2.21s-1.84-.26-3-1.59a7.36,7.36,0,0,0-5.82-2.77,17.64,17.64,0,0,0-5.74,1.17c-2.18.76-3.58,1.58-4.18,2.46-.33.53-.48,2-.47,4.49q0,5,1.26,17.67t1.24,14.57q0,5.38-4.4,5.4t-3.85-5.79v-1.22q0-3.93-.79-32.75c-1.75.88-4.57,2.49-8.49,4.84a7.64,7.64,0,0,1-2.77,1.31c-1.9,0-2.86-1.35-2.87-4.07a2.41,2.41,0,0,1,.65-1.88q2.13-2,12.5-6.73l1.59-.74q2.39-27.77,4.41-35.78,6-24.34,20.88-24.38,5.24,0,9.25,5.77a17.9,17.9,0,0,1,3.63,10.36Q619.32,244.34,616.55,245.48Z"/><path class="cls-3" d="M661.23,266.28a13.07,13.07,0,0,1-3.23-1.46,11.42,11.42,0,0,0-4.13-1.54q-5.58-.48-15.49,8.12-10.27,8.85-10.25,15.14,0,3.34,11.94,3.32,23-.08,23.06,12.74,0,9.06-10.14,16.28-9.29,6.56-18.49,6.58a12.71,12.71,0,0,1-7.58-2.52A8,8,0,0,1,623.84,312a7.55,7.55,0,0,1,.58-.89c1.24-2,2.55-2.95,4-2.95a2.75,2.75,0,0,1,1.12.24,15.84,15.84,0,0,1-.93,4.41,5.07,5.07,0,0,0-.36,1.88q0,3.68,4.41,3.67,6.75,0,15.46-4.45,9.67-4.92,9.66-10.31,0-3.35-3.37-5.58a12.06,12.06,0,0,0-6.14-1.94l-15.71-.54a22.9,22.9,0,0,1-7.62-1.59q-5.05-1.92-5.06-5.19,0-8.08,12.65-20.49t21.41-12.42a13.27,13.27,0,0,1,6,1.86c2.78,1.52,4.17,3.19,4.18,5.06Q664.09,266.28,661.23,266.28Z"/><path class="cls-3" d="M682.23,254.06a3.36,3.36,0,0,1-2,.8c-1.37,0-2.05-.65-2.05-2a3.4,3.4,0,0,1,1.54-2.62q4.58-3.53,4.54-13.82a23.27,23.27,0,0,0-.33-3.91c-.12-.87.47-1.8,1.74-2.78a6.39,6.39,0,0,1,3.88-1.49q3.11,0,3.12,4.49a26.63,26.63,0,0,1-3,11.2Q686.46,250.79,682.23,254.06Z"/><path class="cls-3" d="M291.64,202.07a4.39,4.39,0,0,0,6.16.7h0a4.38,4.38,0,0,0,.69-6.16l-2.35-2.93a14.92,14.92,0,0,1,0-18.66l2.27-2.87a20.14,20.14,0,0,0,0-25.19,4.38,4.38,0,0,0-6.85,5.47,11.43,11.43,0,0,1,0,14.28l-2.27,2.87a23.63,23.63,0,0,0,0,29.55Z"/><path class="cls-3" d="M267.38,212a4.38,4.38,0,0,0,6.85-5.46l-2.34-2.93a14.93,14.93,0,0,1,0-18.67l2.27-2.86a20.14,20.14,0,0,0,0-25.19,4.38,4.38,0,0,0-6.85,5.47h0a11.43,11.43,0,0,1,0,14.28L265,179.48A23.65,23.65,0,0,0,265,209Z"/><path class="cls-3" d="M315.94,211.86a4.38,4.38,0,1,0,6.85-5.46l-2.34-2.94a15,15,0,0,1,0-18.66L322.7,182a20.16,20.16,0,0,0,0-25.18,4.38,4.38,0,0,0-6.85,5.46,11.43,11.43,0,0,1,0,14.28l-2.27,2.87a23.64,23.64,0,0,0,0,29.57Z"/><path class="cls-3" d="M322.82,222.06a4.36,4.36,0,0,0-3.09,1.31,4.31,4.31,0,0,0-1.28,3.1,4.38,4.38,0,1,0,4.37-4.41Z"/><path class="cls-3" d="M227.07,260.26a4.37,4.37,0,0,0-4.37,4.39h0a71.58,71.58,0,0,0,20.75,50,4.38,4.38,0,1,0,6.22-6.18,62.73,62.73,0,0,1-18.21-43.81A4.38,4.38,0,0,0,227.07,260.26Z"/><path class="cls-3" d="M263,318.62a4.39,4.39,0,1,0-4.29,7.65h0l.11.05a4.23,4.23,0,0,0,2.15.56,4.38,4.38,0,0,0,2.13-8.2Z"/><path class="cls-3" d="M215.13,311.7c.31.72.62,1.49.92,2.18a92.68,92.68,0,0,0,20.35,22.6h15.39a83.47,83.47,0,0,1-41.32-71.8l-.08-33.59,90.24-.21a4.39,4.39,0,0,0,4.37-4.41,3,3,0,0,0,0-.42,4.5,4.5,0,0,0-4.56-3.94l-94.44.23a4.39,4.39,0,0,0-4.37,4.39h0v7.17c-3.57-2.5-8.27-3.89-14.14-4.11a39.12,39.12,0,0,0-22.22,5.65,44.93,44.93,0,0,0-16.39,17.77q-6.24,11.66-6.85,27a37.58,37.58,0,0,0,4.13,19.56,32.77,32.77,0,0,0,13.54,13.41q9,4.89,21.38,5.37a80.81,80.81,0,0,0,15.22-.93,71,71,0,0,0,15.54-4.13A14.88,14.88,0,0,0,215.13,311.7ZM184,306.12q-13.64-.53-20.35-7.63t-6.22-19.59q.47-11.94,4.66-20.51t10.61-12.75a22.13,22.13,0,0,1,13.29-4q10.11.41,9.74,9.87a27,27,0,0,1-.8,5,24.85,24.85,0,0,0-.55,3.42,4.86,4.86,0,0,0,1.51,4,7.21,7.21,0,0,0,4.53,1.53,7.63,7.63,0,0,0,2.32-.3c.07.69.15,1.36.24,2.06a172.24,172.24,0,0,0,8.13,33.86A103.62,103.62,0,0,1,197.73,305,57.39,57.39,0,0,1,184,306.14Z"/><path class="cls-3" d="M372.91,311.23a91.87,91.87,0,0,0,12.74-47l-.09-38a4.37,4.37,0,0,0-4.38-4.36H361.69a4.37,4.37,0,0,0-4.37,4.39c0,.13,0,.26,0,.39a4.52,4.52,0,0,0,4.59,4h14.88l.08,33.59a83.46,83.46,0,0,1-41,71.94h15.4A92.38,92.38,0,0,0,372.91,311.23Z"/><path class="cls-3" d="M386.44,336.1H370.91l-14.63,0-114.9.34-40.68.1a4.4,4.4,0,0,0-4.37,4.42,28.94,28.94,0,0,0,29,28.81L362,369.48a29,29,0,0,0,28.84-29,4.4,4.4,0,0,0-4.37-4.42ZM362,360.69,225.29,361a20.17,20.17,0,0,1-19.71-15.72l50-.12,86.44-.21,39.54-.1A20.21,20.21,0,0,1,362,360.69Z"/></g><g id="Page-1"><path id="Shape" class="cls-4" d="M642.81,464.59c2.72,2.8,6.56,4.22,11.39,4.22s8.67-1.42,11.39-4.22a12.92,12.92,0,0,0,1.51-1.86,6.35,6.35,0,0,1,1.53-.55l.74-.16c2.39-.52,6.4-1.38,6.94-5.36a4.15,4.15,0,0,0-1.33-4,5.91,5.91,0,0,0-4.78-.89c0-.53,0-1,0-1.48h0v0c0-1.25-.64-3.07-3.65-4.68a1,1,0,0,0-1.39.43,1,1,0,0,0,.42,1.4c1.65.87,2.55,1.88,2.55,2.85,0,2.44-5.72,5.16-13.93,5.16a26.29,26.29,0,0,1-10.83-2l-.12-.05c-1.87-.91-2.94-2-3-3.05v-.07c0-1.26,1.6-2.6,4.23-3.6a1,1,0,0,0-.73-1.93c-3.59,1.36-5.57,3.33-5.57,5.55,0,0,0,0,0,.07-.08,3.53.43,10,4.62,14.29Zm30.86-10.36a2.21,2.21,0,0,1,.59,2.16c-.31,2.35-2.5,3-5.33,3.61l-.4.09a21.58,21.58,0,0,0,1.53-6.21,4.31,4.31,0,0,1,3.61.35Zm-19.49,3.22c6,0,11.07-1.36,13.8-3.47a15.68,15.68,0,0,1-3.86,9.17c-2.33,2.38-5.67,3.59-9.92,3.59s-7.59-1.21-9.92-3.59a15.56,15.56,0,0,1-3.85-9.14c2.74,2.09,7.75,3.44,13.75,3.44Z"/><path class="cls-4" d="M647.81,448.61a3.35,3.35,0,0,0-1.37,2.65,1,1,0,0,0,2.06,0c0-.47.21-.68.7-1.13a3.26,3.26,0,0,0,0-5.31c-.5-.46-.7-.66-.7-1.14s.21-.67.7-1.12a3.39,3.39,0,0,0,1.37-2.65,1,1,0,0,0-2.07,0c0,.47-.2.67-.69,1.13a3.25,3.25,0,0,0,0,5.3c.49.46.69.66.69,1.14s-.2.67-.69,1.13Z"/><path class="cls-4" d="M654,448.61a3.35,3.35,0,0,0-1.37,2.65,1,1,0,0,0,2.07,0c0-.47.2-.68.69-1.13a3.26,3.26,0,0,0,0-5.31c-.49-.46-.69-.66-.69-1.14s.2-.67.69-1.12a3.39,3.39,0,0,0,1.37-2.65,1,1,0,1,0-2.06,0c0,.47-.21.67-.7,1.13a3.25,3.25,0,0,0,0,5.3c.49.46.7.66.7,1.14s-.21.67-.7,1.13Z"/><path class="cls-4" d="M660.19,448.61a3.38,3.38,0,0,0-1.37,2.65,1,1,0,0,0,2.07,0c0-.47.2-.68.69-1.13a3.26,3.26,0,0,0,0-5.31c-.49-.46-.69-.66-.69-1.14s.2-.67.69-1.12a3.36,3.36,0,0,0,1.37-2.65,1,1,0,0,0-2.06,0c0,.47-.21.67-.7,1.13a3.25,3.25,0,0,0,0,5.3c.5.46.7.66.7,1.14s-.2.67-.7,1.13Z"/><path class="cls-4" d="M634.79,456.72a1,1,0,0,0,1,.25,1,1,0,0,0,.41-1.75A26.83,26.83,0,1,1,677,450.63a1,1,0,0,0-.07,1,1,1,0,0,0,1.78.12,28.89,28.89,0,1,0-44,4.94Z"/><path class="cls-4" d="M654.7,415.14a1,1,0,0,0,1-1v-2.06a1,1,0,1,0-2.07,0v2.06A1,1,0,0,0,654.7,415.14Z"/><path class="cls-4" d="M675.34,435.78a1,1,0,0,0,1,1h2.06a1,1,0,1,0,0-2.06h-2.06A1,1,0,0,0,675.34,435.78Z"/><path class="cls-4" d="M631,434.75a1,1,0,0,0,0,2.06H633a1,1,0,1,0,0-2.06Z"/><path class="cls-4" d="M643.86,418a1,1,0,0,0,.89-.51,1,1,0,0,0,0-1l-1-1.79a1,1,0,0,0-.9-.52,1,1,0,0,0-.89,1.55l1,1.79A1,1,0,0,0,643.86,418Z"/><path class="cls-4" d="M635.41,425.84A1,1,0,0,0,637,425a1,1,0,0,0-.52-.9l-1.78-1a1,1,0,1,0-1,1.79Z"/><path class="cls-4" d="M674.73,448.54a1,1,0,0,0,1.56-.89,1,1,0,0,0-.52-.89l-1.79-1a1,1,0,0,0-1,0,1,1,0,0,0,0,1.79Z"/><path class="cls-4" d="M674.73,423l-1.78,1a1,1,0,0,0-.52.9,1,1,0,0,0,1.55.89l1.79-1a1,1,0,1,0-1-1.79Z"/><path class="cls-4" d="M634.14,448.68a1.07,1.07,0,0,0,.52-.14l1.78-1a1,1,0,0,0,.52-.89,1,1,0,0,0-.51-.9,1,1,0,0,0-1,0l-1.79,1a1,1,0,0,0,.52,1.92Z"/><path class="cls-4" d="M667.08,414.33a1,1,0,0,0-1.41.38l-1,1.79a1,1,0,0,0,0,1,1,1,0,0,0,1.8,0l1-1.79a1.06,1.06,0,0,0,.1-.78A1,1,0,0,0,667.08,414.33Z"/><path class="cls-4" d="M653.66,435.78a1,1,0,0,0,1.54.9l9.28-5.16a1,1,0,1,0-1-1.8L655.73,434V420.3a1,1,0,0,0-2.07,0Z"/></g><g id="Page-1-2" data-name="Page-1"><path id="Shape-2" data-name="Shape" class="cls-4" d="M223,464.59c2.73,2.8,6.57,4.22,11.4,4.22s8.67-1.42,11.39-4.22a12.92,12.92,0,0,0,1.51-1.86,6.35,6.35,0,0,1,1.53-.55l.74-.16c2.39-.52,6.4-1.38,6.94-5.36a4.15,4.15,0,0,0-1.33-4,5.91,5.91,0,0,0-4.78-.89c0-.53,0-1,0-1.48h0v0c0-1.25-.63-3.07-3.64-4.68a1,1,0,0,0-1,1.83c1.65.87,2.55,1.88,2.55,2.85,0,2.44-5.72,5.16-13.93,5.16a26.29,26.29,0,0,1-10.83-2l-.12-.05c-1.87-.91-2.94-2-3-3.05v-.07c0-1.26,1.6-2.6,4.23-3.6a1,1,0,0,0-.73-1.93c-3.59,1.36-5.57,3.33-5.57,5.55,0,0,0,0,0,.07-.08,3.53.43,10,4.61,14.29Zm30.87-10.36a2.24,2.24,0,0,1,.59,2.16c-.32,2.35-2.5,3-5.33,3.61l-.4.09a21.91,21.91,0,0,0,1.53-6.21,4.31,4.31,0,0,1,3.61.35Zm-19.49,3.22c6,0,11.07-1.36,13.8-3.47a15.63,15.63,0,0,1-3.87,9.17c-2.32,2.38-5.66,3.59-9.91,3.59s-7.59-1.21-9.92-3.59a15.56,15.56,0,0,1-3.85-9.14c2.73,2.09,7.75,3.44,13.75,3.44Z"/><path class="cls-4" d="M228,448.61a3.37,3.37,0,0,0-1.36,2.65,1,1,0,0,0,2.06,0c0-.47.21-.68.7-1.13a3.26,3.26,0,0,0,0-5.31c-.5-.46-.7-.66-.7-1.14s.21-.67.7-1.12a3.39,3.39,0,0,0,1.37-2.65,1,1,0,0,0-2.07,0c0,.47-.2.67-.69,1.13a3.25,3.25,0,0,0,0,5.3c.49.46.69.66.69,1.14s-.2.67-.7,1.13Z"/><path class="cls-4" d="M234.16,448.61a3.35,3.35,0,0,0-1.37,2.65,1,1,0,0,0,2.06,0c0-.47.21-.68.7-1.13a3.26,3.26,0,0,0,0-5.31c-.49-.46-.7-.66-.7-1.14s.21-.67.7-1.12a3.39,3.39,0,0,0,1.37-2.65,1,1,0,0,0-2.07,0c0,.47-.2.67-.69,1.13a3.25,3.25,0,0,0,0,5.3c.49.46.7.66.7,1.14s-.21.67-.7,1.13Z"/><path class="cls-4" d="M240.35,448.61a3.38,3.38,0,0,0-1.37,2.65,1,1,0,0,0,2.07,0c0-.47.2-.68.69-1.13a3.26,3.26,0,0,0,0-5.31c-.49-.46-.69-.66-.69-1.14s.2-.67.69-1.12a3.39,3.39,0,0,0,1.37-2.65,1,1,0,1,0-2.06,0c0,.47-.21.67-.7,1.13a3.25,3.25,0,0,0,0,5.3c.5.46.7.66.7,1.14s-.21.67-.7,1.13Z"/><path class="cls-4" d="M215,456.72a1,1,0,0,0,1,.25,1,1,0,0,0,.72-.75,1.06,1.06,0,0,0-.31-1,26.83,26.83,0,1,1,40.83-4.59,1,1,0,0,0-.07,1,1,1,0,0,0,.85.57,1,1,0,0,0,.93-.45,28.89,28.89,0,1,0-44,4.94Z"/><path class="cls-4" d="M234.85,415.14a1,1,0,0,0,1-1v-2.06a1,1,0,1,0-2.07,0v2.06A1,1,0,0,0,234.85,415.14Z"/><path class="cls-4" d="M255.49,435.78a1,1,0,0,0,1,1h2.06a1,1,0,1,0,0-2.06h-2.06A1,1,0,0,0,255.49,435.78Z"/><path class="cls-4" d="M211.12,434.75a1,1,0,1,0,0,2.06h2.06a1,1,0,1,0,0-2.06Z"/><path class="cls-4" d="M224,418a1,1,0,0,0,.89-.51,1,1,0,0,0,0-1l-1-1.79a1,1,0,0,0-.9-.52,1,1,0,0,0-.89,1.55l1,1.79A1,1,0,0,0,224,418Z"/><path class="cls-4" d="M215.57,425.84a1,1,0,0,0,1.55-.89,1,1,0,0,0-.52-.9l-1.79-1a1,1,0,0,0-1,0,1,1,0,0,0,0,1.8Z"/><path class="cls-4" d="M254.89,448.54a1,1,0,0,0,1.56-.89,1,1,0,0,0-.52-.89l-1.79-1a1,1,0,0,0-1,0,1,1,0,0,0-.51.9,1,1,0,0,0,.52.89Z"/><path class="cls-4" d="M254.89,423l-1.78,1a1,1,0,0,0-.52.9,1,1,0,0,0,.51.89,1,1,0,0,0,1,0l1.79-1a1,1,0,1,0-1-1.79Z"/><path class="cls-4" d="M214.3,448.68a1.07,1.07,0,0,0,.52-.14l1.78-1a1,1,0,0,0,0-1.79,1,1,0,0,0-1,0l-1.79,1a1,1,0,0,0,.52,1.92Z"/><path class="cls-4" d="M247.24,414.33a1,1,0,0,0-.79-.1,1,1,0,0,0-.62.48l-1,1.79a1,1,0,0,0,0,1,1,1,0,0,0,.9.52,1,1,0,0,0,.89-.52l1-1.79a1.06,1.06,0,0,0,.1-.78A1,1,0,0,0,247.24,414.33Z"/><path class="cls-4" d="M233.82,435.78a1,1,0,0,0,1.54.9l9.28-5.16a1,1,0,1,0-1-1.8L235.89,434V420.3a1,1,0,0,0-2.07,0Z"/></g><g id="Page-1-3" data-name="Page-1"><path id="Shape-3" data-name="Shape" class="cls-4" d="M571.5,11.75c-2.87,3.3-3.22,7.47-1,11.77a15.07,15.07,0,0,0,1.7,2.87c0,.19-.07.4-.1.63a15.23,15.23,0,0,1-2.58,6.58,26.11,26.11,0,0,0-4.41,19.34,12.32,12.32,0,0,1-2.22,9.77,14.64,14.64,0,0,1-5.44,4.23,11.08,11.08,0,0,1-1.8.57,13.9,13.9,0,0,0-2.41.8A5.46,5.46,0,0,0,550,74.6c.63,2.53,2.52,4.18,5.63,4.94a17.3,17.3,0,0,0,2.58.4,23.69,23.69,0,0,0,4.21-.14,28.81,28.81,0,0,1,2.94-.17A17.5,17.5,0,0,1,572.28,81a15.74,15.74,0,0,1,2.46,1.48l.85.56c3.41,2.19,7.71,3.24,11.52,4.15l1.44.35c3.8.93,8.11,2,12.15,1.6l1-.12a16.1,16.1,0,0,1,2.86-.17,17.33,17.33,0,0,1,6.78,2,29,29,0,0,1,2.53,1.5,23.2,23.2,0,0,0,3.68,2c4.31,1.8,7.6,1.47,9.75-1a5.48,5.48,0,0,0,0-7.08,13.76,13.76,0,0,0-1.77-1.81,12,12,0,0,1-1.34-1.33,14.74,14.74,0,0,1-2.9-6.26,12.31,12.31,0,0,1,2.5-9.7,26.14,26.14,0,0,0,5-19.19,15.2,15.2,0,0,1,.46-6.15,9.82,9.82,0,0,0,5.83-7.06c1.21-6.79-5.48-14.64-14.3-16.78-8.53-2.07-10.46-3.72-12.7-5.63a26.2,26.2,0,0,0-9.79-5.45c-9.18-3.27-21.7-1-26.76,4.82Zm54.59,36.6a23.46,23.46,0,0,1-4.45,17.24,15,15,0,0,0-3,11.85,17.33,17.33,0,0,0,3.44,7.41,14.76,14.76,0,0,0,1.63,1.63,11,11,0,0,1,1.43,1.46,2.83,2.83,0,0,1,.11,3.67c-.48.55-2,2.23-6.69.26A21.26,21.26,0,0,1,615.32,90a29.55,29.55,0,0,0-2.77-1.63,19.85,19.85,0,0,0-7.82-2.25,17.89,17.89,0,0,0-3.35.19l-1,.11c-3.58.34-7.64-.64-11.24-1.53l-1.46-.36c-3.57-.86-7.66-1.85-10.68-3.79l-.8-.53a17.86,17.86,0,0,0-2.89-1.71,20.06,20.06,0,0,0-8-1.59,28.8,28.8,0,0,0-3.21.19,21.24,21.24,0,0,1-3.74.12c-5.11-.41-5.65-2.59-5.83-3.31a2.85,2.85,0,0,1,1.78-3.2,11.12,11.12,0,0,1,2-.64,14.22,14.22,0,0,0,2.21-.71,17.34,17.34,0,0,0,6.44-5,15,15,0,0,0,2.79-11.9,23.42,23.42,0,0,1,4-17.36,18.09,18.09,0,0,0,2.71-6.08c3.85,4,11.11,9.27,24.3,12.47a95.47,95.47,0,0,0,11.76,2.06c7.07.81,12.12.4,15.73-.62a17.66,17.66,0,0,0-.13,5.38ZM597.36,9.46a23.81,23.81,0,0,1,8.94,5c2.4,2,4.66,4,13.81,6.2,8.08,2,13.15,8.85,12.28,13.69-.42,2.36-2.12,4.16-4.89,5.35h0c-3.76,1.6-9.48,2.06-16.67,1.24C579.32,37.32,573,22.62,573,22.46a.61.61,0,0,0-.05-.12c-1.77-3.37-1.56-6.34.6-8.82,4.35-5,15.71-6.93,23.83-4.06Z"/><path class="cls-4" d="M575.49,21.49c0,.1,4.43,9.94,24.57,14.83a89.58,89.58,0,0,0,11,1.92c12.93,1.48,18.12-1.45,18.66-4.4.62-3.52-3.82-9-10.27-10.6C610.4,21,607.57,19,604.55,16.47A21.11,21.11,0,0,0,596.46,12c-.6-.21-1.21-.39-1.82-.54-8-1.94-16.56.59-19.28,4.06-.83,1.06-1.58,2.65-.06,5.57Zm2-4.31c2.17-2.76,9.85-4.72,16.52-3.11.53.13,1,.29,1.56.47a18.54,18.54,0,0,1,7.25,4c3.3,2.82,6.38,5,16,7.34,5.72,1.39,8.55,5.9,8.26,7.52-.12.64-3.3,3.61-15.69,2.19a90.12,90.12,0,0,1-10.71-1.85C582.36,29.25,578,20.52,578,20.51l-.11-.27-.06-.14-.13-.25c-.93-1.76-.52-2.29-.22-2.67Z"/><path class="cls-4" d="M585.24,48.36c-6,3.67-7,13-2.27,20.79a18.64,18.64,0,0,0,11.09,8.62,11,11,0,0,0,8.44-1.11c6-3.67,7-13,2.25-20.78s-13.49-11.17-19.51-7.52Zm0,19.39c-3.23-5.27-3.44-11.3-.89-14.94a9.55,9.55,0,0,0,3.71,2.3,6.38,6.38,0,0,1,4.43,7.28,9.06,9.06,0,0,0,6.12,10,6.87,6.87,0,0,1,2.8,1.7c-.12.08-.23.17-.35.24-4.75,2.88-11.85-.09-15.82-6.62Zm18.07,4.48a9.43,9.43,0,0,0-3.71-2.3,6.38,6.38,0,0,1-4.43-7.29,9.05,9.05,0,0,0-6.11-10,6.83,6.83,0,0,1-2.8-1.69c.12-.08.23-.18.35-.25a8.38,8.38,0,0,1,6.42-.82,16,16,0,0,1,9.41,7.44c3.21,5.27,3.42,11.3.87,14.94Z"/></g><g id="Page-1-4" data-name="Page-1"><path id="Shape-4" data-name="Shape" class="cls-4" d="M326.65,675.4a25.85,25.85,0,0,1,1-4.07,8.42,8.42,0,0,1,1.36-2.41l.35-.43a13.59,13.59,0,0,0,3.51-7.37,9,9,0,0,0-5.14-9.25c-3-1.38-6.22-1-9.53,1l-3.77-10.19v0a.26.26,0,0,1,0-.08c-1.72-3.38-13.68,2.37-17.31,4.21s-15.32,8.12-13.61,11.49a.35.35,0,0,0,.05.08v0l16.11,24.24a1,1,0,0,0,1.31.35l.1-.06a1,1,0,0,0,.44-.65,1.05,1.05,0,0,0-.15-.77L291.11,666.2c4.1-.34,10.81-3.57,13.31-4.84s9.07-4.78,11.76-7.9l5.89,15.95v0l5.64,15.25s0,0,0,.05c0,.21-.44,1.2-2.45,2.9a1,1,0,0,0,1.12,1.69,1.05,1.05,0,0,0,.27-.2c2.5-2.13,3.46-3.79,3-5.08l0-.06-.6-1.64a3.42,3.42,0,0,1,2,.5,2.46,2.46,0,0,1,1.08,1.76c.24,1.83-1.15,3.94-4.15,6.27-.67.52-1.28,1-1.86,1.36a1,1,0,0,0,1,1.75.41.41,0,0,0,.11-.07c.62-.41,1.25-.88,2-1.42,3.66-2.86,5.27-5.52,4.92-8.15a4.51,4.51,0,0,0-2-3.2,5.52,5.52,0,0,0-3.84-.78l-1.7-4.62Zm.18-21.66a7,7,0,0,1,3.95,7.2c-.25,2.76-1.81,4.71-3.1,6.33l-.31.38a10.3,10.3,0,0,0-1.69,3,14.64,14.64,0,0,0-.44,1.47l-1.11-3a13,13,0,0,1,1.63-2.7l.32-.41c1.16-1.43,2.47-3.06,2.67-5.22a5,5,0,0,0-2.77-5.17c-2.49-1.14-4.78.07-6.38,1.23l-.73-2c2.86-1.89,5.47-2.27,8-1.13Zm-6.49,5.09c1.81-1.39,3.29-2.07,4.8-1.38a3,3,0,0,1,1.58,3.12c-.15,1.55-1.16,2.81-2.22,4.13l-.34.42a15.4,15.4,0,0,0-1,1.41ZM298,648.63c8.2-4.16,13.21-5.3,14.46-5-.54,1.15-4.41,4.53-12.61,8.69s-13.2,5.3-14.46,5.06c.54-1.16,4.42-4.53,12.61-8.7Zm17.37,2.51c-.17,1-3.73,4.29-11.82,8.4s-12.9,5-13.76,4.6l-3.21-4.83c4.28-.37,11.52-3.86,14.2-5.22s9.76-5.14,12.59-8.39l2,5.44Z"/><path class="cls-4" d="M316.49,705.54a13.35,13.35,0,0,0,6.32-7.83,13.16,13.16,0,0,0-.44-10,7.83,7.83,0,0,0-4.56-4.09c-4.81-1.55-10.37,2.24-12.39,8.45a13.2,13.2,0,0,0,.44,10,7.56,7.56,0,0,0,10.64,3.47Zm4.38-8.47c-1.67,5.15-6.08,8.36-9.82,7.15l-.21-.1a5.07,5.07,0,0,1,1.62-1.54,6.5,6.5,0,0,0,2.62-8,4.48,4.48,0,0,1,1.87-5.69,6.81,6.81,0,0,0,2.18-2.16,6.52,6.52,0,0,1,1.42,1.92,11.29,11.29,0,0,1,.32,8.45Zm-13.51-4.38a11.32,11.32,0,0,1,5.28-6.66,5.94,5.94,0,0,1,4.54-.48l.21.09a5.18,5.18,0,0,1-1.61,1.55,6.49,6.49,0,0,0-2.63,8,4.48,4.48,0,0,1-1.87,5.7,6.92,6.92,0,0,0-2.18,2.16,6.52,6.52,0,0,1-1.42-1.92,11.31,11.31,0,0,1-.32-8.46Z"/><path class="cls-4" d="M303.59,688.78a1,1,0,0,0,1,.1,1,1,0,0,0,.13-1.78c-3.39-2.31-7.23-2.77-10.3-1.23a8.62,8.62,0,0,0-1.53,1c-4,3.33-4.73,10.09-1.68,16.07,3.43,6.76,10.46,10.12,15.69,7.48a7.91,7.91,0,0,0,1.54-1,1.29,1.29,0,0,0,.16-.17,1,1,0,0,0,.08-1.09A7.31,7.31,0,0,0,305,704.8a5.21,5.21,0,0,1-2.88-2.6,5.3,5.3,0,0,1-.41-3.87,7.44,7.44,0,0,0-4.4-8.66,5.84,5.84,0,0,1-2.35-1.73,4.77,4.77,0,0,1,.44-.24c2.42-1.22,5.42-.83,8.22,1.08Zm-4.32,5.32a5.28,5.28,0,0,1,.4,3.88,7.47,7.47,0,0,0,4.4,8.66,5.78,5.78,0,0,1,2.36,1.73l-.43.24c-4.23,2.13-10-.82-12.95-6.58-2.34-4.6-2.15-9.83.34-12.76a7.7,7.7,0,0,0,3,2.23,5.18,5.18,0,0,1,2.88,2.6Z"/></g><g id="Page-1-5" data-name="Page-1"><path id="Shape-5" data-name="Shape" class="cls-4" d="M63.71,48C61,46.83,60.09,46,59.44,45a10.24,10.24,0,0,1-1.35-5,1.27,1.27,0,0,0-2.54.1,12.66,12.66,0,0,0,1.72,6.2c1,1.7,2.49,2.8,5.43,4.07a1.27,1.27,0,0,0,1-2.33Z"/><path class="cls-4" d="M125.91,45.82a8.15,8.15,0,0,0,1.85-6,7.74,7.74,0,0,0-7.21-6.88l-5.26-.26c.51-1.15,1-2.28,1.49-3.41l1.48-3.4a2.56,2.56,0,0,0-1.33-3.35L65.5.21a2.54,2.54,0,0,0-3.35,1.33C56.81,13.94,53.48,22.93,52,29c-1.66,6.75-2.7,13.83.92,19.85l-8.31-3.6a1.28,1.28,0,1,0-1,2.34L60.35,54.9l.22.1.23.1,19,8.21.45.2,17.12,7.42a1.28,1.28,0,1,0,1-2.34L90,65c6.43-1.38,10.74-6.37,14.37-11.79a11.15,11.15,0,0,1,4.42-2.92,14.14,14.14,0,0,1,5.57-.37,23.53,23.53,0,0,0,4.28,0,11.17,11.17,0,0,0,7.23-4.11Zm-10-21-1.48,3.4q-1.06,2.46-2.19,5l0,0c-.48,1.08-1,2.16-1.47,3.23L59.62,14.32q2.07-5.26,4.87-11.77ZM58.7,16.7l51,22.08A112,112,0,0,1,103,50.7c-.31.48-.63,1-1,1.45l-48-20.81c.12-.57.26-1.13.4-1.69A115.29,115.29,0,0,1,58.7,16.7ZM89.48,62.51c-3.41.72-6.21-.38-9.83-2l-16.39-7.1c-3.65-1.49-6.38-2.78-8.18-5.77-2.53-4.19-2.4-9.06-1.56-13.71l47,20.38C97.73,58.06,94.27,61.48,89.48,62.51ZM108,47.87c-.13,0-.25.11-.37.15a144.18,144.18,0,0,0,6.55-12.88l6.25.32a5.2,5.2,0,0,1,4.8,4.66,5.62,5.62,0,0,1-1.32,4.12,8.66,8.66,0,0,1-5.51,3.17,22.39,22.39,0,0,1-3.84,0A16.16,16.16,0,0,0,108,47.87Z"/><circle id="Oval" class="cls-4" cx="58.53" cy="29.12" r="1.27"/><circle class="cls-4" cx="63.55" cy="27.13" r="1.27"/><circle class="cls-4" cx="65.54" cy="32.16" r="1.27"/><circle class="cls-4" cx="70.57" cy="30.17" r="1.27"/><circle class="cls-4" cx="72.55" cy="35.2" r="1.27"/><circle class="cls-4" cx="77.58" cy="33.21" r="1.27"/><circle class="cls-4" cx="79.57" cy="38.24" r="1.27"/><circle class="cls-4" cx="84.59" cy="36.25" r="1.27"/><circle class="cls-4" cx="86.58" cy="41.28" r="1.27"/><circle class="cls-4" cx="91.6" cy="39.29" r="1.27"/><circle class="cls-4" cx="93.59" cy="44.32" r="1.27"/><circle class="cls-4" cx="98.62" cy="42.33" r="1.27"/><circle class="cls-4" cx="103.64" cy="40.34" r="1.27"/><circle class="cls-4" cx="61.57" cy="22.11" r="1.27"/><circle class="cls-4" cx="68.58" cy="25.15" r="1.27"/><circle class="cls-4" cx="75.59" cy="28.19" r="1.27"/><circle class="cls-4" cx="82.6" cy="31.22" r="1.27"/><circle class="cls-4" cx="89.62" cy="34.26" r="1.27"/><circle class="cls-4" cx="96.63" cy="37.3" r="1.27"/><circle class="cls-4" cx="100.61" cy="47.36" r="1.27"/></g></g></g></svg>