<?xml version="1.0" encoding="utf-8"?>
<!-- Generator: Adobe Illustrator 23.0.5, SVG Export Plug-In . SVG Version: 6.00 Build 0)  -->
<svg version="1.1" id="Layer_1" xmlns="http://www.w3.org/2000/svg" xmlns:xlink="http://www.w3.org/1999/xlink" x="0px" y="0px"
	 viewBox="0 0 842.7 768" style="enable-background:new 0 0 842.7 768;" xml:space="preserve">
<style type="text/css">
	.st0{fill:#AFE5F9;}
	.st1{fill:#364B66;}
	.st2{fill:#B5E0D2;}
	.st3{fill:#198E4D;}
	.st4{opacity:0.35;fill:#1B2735;enable-background:new    ;}
	.st5{fill:#FB9400;}
	.st6{fill:#F57100;}
	.st7{fill:#1B2735;}
	.st8{fill:#FF8D8D;}
	.st9{fill:#FFB7AA;}
	.st10{fill:#00A751;}
	.st11{fill:#FBFBFB;}
	.st12{fill:#FEDDBA;}
	.st13{fill:#533089;}
	.st14{fill:#FFFFFF;}
	.st15{fill:#9CCEDB;}
</style>
<g id="Layer_1-2">
	<circle class="st0" cx="295.7" cy="275.8" r="181.8"/>
	<circle class="st0" cx="128.6" cy="172.3" r="52"/>
	<circle class="st0" cx="222.6" cy="510" r="52"/>
	<circle class="st0" cx="306.7" cy="449.5" r="27.4"/>
	<circle class="st0" cx="109.4" cy="262" r="27.4"/>
	<circle class="st0" cx="440.3" cy="369.4" r="27.4"/>
	
		<ellipse transform="matrix(0.7071 -0.7071 0.7071 0.7071 -264.9718 422.1817)" class="st0" cx="377.1" cy="530.9" rx="52" ry="52"/>
	
		<ellipse transform="matrix(0.7071 -0.7071 0.7071 0.7071 -272.1107 223.489)" class="st0" cx="133.7" cy="440.2" rx="46.8" ry="46.8"/>
	<circle class="st0" cx="442.7" cy="422.4" r="6.3"/>
	<circle class="st0" cx="402.1" cy="420.2" r="16.2"/>
	<circle class="st0" cx="37.8" cy="487.5" r="16.2"/>
	<ellipse class="st1" cx="244.3" cy="649" rx="229.8" ry="13"/>
	<path class="st2" d="M329.8,351.7c-12.3,0-30.8,10.3-30.8,10.3h-25.7c-0.1,1.9,11.3,36.3,11.3,36.3l28.7-17
		c0.5,0.3,1.1,0.4,1.7,0.3c4.7-0.4,6.5-6.4,7.1-9.6c-0.4,3.3-0.8,9.7,2.7,9.6c4.8-0.1,8.5-11.4,8.5-11.4s2.4,15.1,5.2,10
		S342,351.7,329.8,351.7z"/>
	<path class="st3" d="M320.4,359.8l-82.6-2c0,0-8.2-50.4-13.3-57c-2.6-3.4-8.3-11.6-16.9-18.4c-14.4-11.3-32.9-6.6-30.3,7.7
		c3.2,18.5,9.3,47.8,18.3,69.5c5.4,13.2,12,23.5,19.6,26.9c6.1,2.8,15.5,3.8,26.2,3.7c36.9-0.3,90.5-13.5,90.5-13.5L320.4,359.8z"/>
	<path class="st4" d="M320.4,359.8l-82.6-2c0,0-8.2-50.4-13.3-57c-2.6-3.4-8.3-11.6-16.9-18.4c-14.4-11.3-32.9-6.6-30.3,7.7
		c3.2,18.5,9.3,47.8,18.3,69.5c5.4,13.2,12,23.5,19.6,26.9c6.1,2.8,15.5,3.8,26.2,3.7c36.9-0.3,90.5-13.5,90.5-13.5L320.4,359.8z"/>
	<path class="st2" d="M353.6,346.6c-12.1-0.8-31.6,8.5-31.6,8.5l-25.5-1.5c-0.3,1.9,7.5,37,7.5,37l30.1-15.3
		c0.5,0.3,1.1,0.5,1.6,0.4c4.7-0.1,7.1-6.1,8-9.1c-0.8,3.3-1.8,9.7,1.7,9.8c4.7,0.1,9.6-11,9.6-11s0.8,15.3,4.1,10.3
		S365.7,347.3,353.6,346.6z"/>
	<path class="st4" d="M353.6,346.6c-12.1-0.8-31.6,8.5-31.6,8.5l-25.5-1.5c-0.3,1.9,7.5,37,7.5,37l30.1-15.3
		c0.5,0.3,1.1,0.5,1.6,0.4c4.7-0.1,7.1-6.1,8-9.1c-0.8,3.3-1.8,9.7,1.7,9.8c4.7,0.1,9.6-11,9.6-11s0.8,15.3,4.1,10.3
		S365.7,347.3,353.6,346.6z"/>
	<path class="st1" d="M155.8,378.4c0,15,2.3,26.6,8.6,30c5.2,2.8,14.4,3.3,25.5,2.5c0.5-8.6-1.6-16.8-6.8-22.7
		C175.6,380.7,166,378.1,155.8,378.4z"/>
	<path class="st3" d="M284.8,369.8l-84.6,3.6c0,0,13.1-58.2,10.8-65.6c-1.2-3.8-3.6-13-9.5-20.3c-10-12.2-31.1-5.3-34.7,11.2
		c-4.6,21.3-10.9,55.1-10.9,79.8c10.2-0.3,19.8,2.3,27.3,9.9c5.2,5.8,7.3,14.1,6.8,22.7c38.3-2.9,99.5-22.2,99.5-22.2L284.8,369.8z"
		/>
	<path class="st5" d="M143.3,417.1l-86.6,10.8c0,0-14.2-87.2,2.7-166.4c0,0,84.9-15.2,125.3,0L143.3,417.1z"/>
	<circle class="st6" cx="117.4" cy="335.4" r="36.7"/>
	<path class="st6" d="M190.6,273.5c0,0-108.2-5.7-141.9,2.9l2.6-25.2c0,0,70.2-8,144.6,0L190.6,273.5z"/>
	<path class="st7" d="M185.8,229.1c0,0,52.2-5.9,83-19.6C268.8,209.5,211.9,208.6,185.8,229.1z"/>
	<path class="st1" d="M187.2,269.2c1.9-0.8,3.6-2.2,4.8-4c-1.6,0.2-3.3,0.3-4.9,0.1c-1.6-0.2-3.1-1-4-2.3c1.8-0.8,3.7-1.7,4.6-3.5
		c0.4-0.8,0.6-1.7,0.6-2.7c0.2-3.4-1-7.1,1-10.1c1.5-2.2,4.4-3.1,6.9-2c1.2,0.7,2.1,1.8,2.7,3c2.3,4.6,3.4,14.4,0.6,19.5
		c-1.2,2.1-2.8,2.7-5,3.3c-1.4,0.4-2.9,0.6-4.3,0.4C189.8,271,186.6,269.4,187.2,269.2z"/>
	<path class="st8" d="M200.1,258.4l-4.6,12.5c7.5,6.7,16.1,12,25.4,15.7l-0.5-18L200.1,258.4z"/>
	<path class="st9" d="M189.7,286.4l31.5,12.3l-0.4-12.1c-9.3-3.7-17.9-9-25.4-15.7L189.7,286.4z"/>
	<path class="st1" d="M258.4,235.5c0,0,9.1-18.8,3.4-32.3l-10.2-1.8L258.4,235.5z"/>
	<path class="st9" d="M202.8,212.5c0,0-29.4,66.9,28.2,65.8c0,0,29.5-1.7,29.8-21.2c0.3-13.8-3-28.9-2.6-41.4
		c0.3-9.5-6.4-17-15.8-17.5C230.9,197.6,215.9,200.1,202.8,212.5z"/>
	<path class="st7" d="M229.5,233.7c-0.3,2.1-1.7,3.7-3.1,3.7s-2.4-1.7-2.1-3.8s1.6-3.7,3.1-3.7S229.7,231.6,229.5,233.7z"/>
	<path class="st7" d="M250.8,234.2c-0.3,2.1-1.6,3.7-3.1,3.7s-2.4-1.7-2.1-3.8s1.6-3.7,3.1-3.7S251.1,232.1,250.8,234.2z"/>
	<path class="st8" d="M237,244c-0.2-3.3,0-6.7,0.7-9.9c0.3-2.1,0.9-4.1,1.7-6.1c0.4-0.8,0.8-1.6,1.3-2.3c1.2-1.6,3.6-1.2,3.8,0.6
		c0,0.2,0,0.5,0.1,0.7c0.5,5.4,0.9,10.9,1.3,16.4c0,0.3-0.1,0.7-0.4,0.6"/>
	<path class="st7" d="M201.4,221.6c0,0-6.5,58.1,25.1,58.5l1.3-4c0,0-26.8-5.3-21.4-56.2"/>
	<path class="st3" d="M220.8,274.2c0,0-3.2,10.9,9.4,11.6s13.9-11.6,13.9-11.6"/>
	<path class="st7" d="M217,246.3c-1.1,0.2-25.5-9.1-25.5-9.1l2.9-4.5l24.8,8.9L217,246.3z"/>
	<path class="st7" d="M216.3,275.4c-0.7,0.9-8.6,0-8.6,0l-3.6-4.9l10.5,0.3L216.3,275.4z"/>
	<path class="st1" d="M215.7,241.4c0,0,23.9-8.3,45-0.3c3.2,10.7,1.7,22.3-4.1,31.9c0,0-22.9,12.5-43.3,1.6
		C213.3,274.7,204.2,259,215.7,241.4z"/>
	<path class="st7" d="M227.6,251.5c4.6-0.6,9.3-0.9,14-1c2.3,0,4.6,0,6.8,0.1s4.7,0.4,7,0.5c0.9,0,1.2-1.5,0.2-1.7
		c-4.5-0.8-9.5-0.7-14.1-0.6c-4.7,0.1-9.5,0.5-14.2,1.2C226.6,250.2,226.8,251.6,227.6,251.5L227.6,251.5z"/>
	<path class="st7" d="M228.9,259.7c4.1-0.6,8.3-1.1,12.4-1.3c4-0.2,8,0,12.1,0c1.1,0,1.1-1.6,0-1.7c-4.2-0.4-8.4-0.4-12.5,0
		c-4.1,0.3-8.3,0.8-12.3,1.5C227.6,258.4,228,259.8,228.9,259.7L228.9,259.7z"/>
	<path class="st7" d="M226.7,267.1c4.4-0.9,8.9-1.3,13.4-1.3c2.2,0,4.4,0,6.6,0c2.1,0.2,4.2,0.1,6.3-0.1c0.4-0.1,0.7-0.6,0.6-1.1
		c-0.1-0.3-0.3-0.5-0.6-0.6c-2.2-0.2-4.5-0.3-6.8-0.1c-2.2,0-4.4,0-6.6,0c-4.5,0.1-8.9,0.6-13.3,1.6
		C225.3,265.9,225.7,267.3,226.7,267.1L226.7,267.1z"/>
	<path class="st1" d="M202.3,237.3c0.3-2.3,0.3-4.6,0-6.9c0.9,0.9,2.5,0.6,3.4-0.4c0.9-1,1.4-2.2,1.5-3.6c0.1-2.2-0.2-4.5-0.9-6.6
		c-0.8-3.2-1.6-6.4-2.4-9.6c-6.1,2.7-10.6,8.2-12,14.8c-0.9,4.4,0,8.9,2.4,12.6c0.9,1.3,2.3,3.6,4.1,3.8
		C201,241.8,202.1,239.3,202.3,237.3z"/>
	<path class="st9" d="M203.2,250.4c0,0-2.3-23.1-10.4-21.2s-10.1,20.2-1.5,23.6C197.9,255.5,203.2,250.4,203.2,250.4z"/>
	<path class="st8" d="M193.4,236.2c2.7,2,3.2,5.8,3.7,8.9l1.7-1c-1.7-1.4-4.1-2.2-6.2-0.8c-0.9,0.6-1.5,1.6-1.7,2.7
		c-0.1,0.9,0.3,2.6,1.6,2.5c0.4,0,0.8-0.3,0.9-0.7c0-0.4,0-0.7-0.2-1.1c-0.1-0.2-0.1-0.4-0.1-0.6c0.1-0.5,0.4-0.9,0.8-1.1
		c1.1-0.5,2.5-0.3,3.4,0.5c0.4,0.4,1,0.4,1.4,0c0.3-0.3,0.4-0.7,0.3-1c-0.6-3.6-1.5-7.7-4.8-9.7
		C193.3,234.3,192.6,235.6,193.4,236.2L193.4,236.2z"/>
	<path class="st10" d="M268.8,209.5c-42.6,3.2-83,19.6-83,19.6s-4.9-31.7,18.8-48c2.8-1.9,5.8-3.5,9-4.8c2.5-1,5.1-1.8,7.8-2.4
		c1.5-0.4,3-0.7,4.6-1c2.1-0.4,4.2-0.6,6.3-0.6c1.8-0.1,3.5,0,5.3,0.2c3.1,0.3,6.2,1.1,9.1,2.4C265.8,183.5,268.8,209.5,268.8,209.5
		z"/>
	<path class="st3" d="M213.6,176.3c1.6,7,3.1,16.9-0.5,18.7c-3,1.5-6.2-6.3-8.6-13.9C207.4,179.2,210.4,177.6,213.6,176.3z"/>
	<path class="st3" d="M232.3,172.3c0.4,7.3,0.4,20.4-4.4,22.1c-4.6,1.7-6.1-12-6.5-20.5c1.5-0.4,3-0.7,4.6-1
		C228.1,172.5,230.2,172.3,232.3,172.3z"/>
	<path class="st3" d="M244.1,189.6c-3,1-5.4-10.2-6.5-17.1c3.1,0.3,6.2,1.1,9.1,2.4C246.7,181.8,246.2,188.9,244.1,189.6z"/>
	<path class="st7" d="M224.8,215.6c-1.3,0.3-2.5,0.9-3.5,1.6c-1,0.8-1.5,2.1-1.1,3.4c0.5,0.7,1.2,1.2,2.1,1.4
		c3.6,1,7.3,0.9,10.9-0.1c1.4-0.4,3-1,3.6-2.4c0.4-1.2,0.1-2.5-0.8-3.3c-0.9-0.8-2-1.3-3.1-1.6C231.5,214.1,226.3,215.1,224.8,215.6
		z"/>
	<path class="st7" d="M257,215.6c1.2,0.3,2.3,0.8,3.2,1.6c0.9,0.9,1.1,2.3,0.4,3.4c-0.6,0.7-1.4,1.2-2.4,1.4
		c-3.6,1-7.3,0.9-10.9-0.1c-1.4-0.4-2.8-1-3.1-2.4c-0.1-1.3,0.4-2.5,1.5-3.3c1-0.7,2.2-1.3,3.4-1.6
		C250.7,214.1,255.6,215.1,257,215.6z"/>
	<path class="st1" d="M150.1,396.9c0,0-13.6,57.5,20.7,60s102,17.9,102,17.9l0.8,89.1h18.8c0,0,23.8-105.8,13.6-119.9
		S150.1,396.9,150.1,396.9z"/>
	<polyline class="st7" points="275,563.9 272.5,582.5 321.1,585.4 316.6,576.7 286.7,563.9 	"/>
	<path class="st4" d="M321.1,585.4l-4.5-8.7l-29.9-12.8h5.7c0,0,23.8-105.8,13.5-120s-155.9-47-155.9-47s-13.6,57.5,20.7,60
		s102,17.9,102,17.9l0.8,89.1h1.4l-2.5,18.7L321.1,585.4z"/>
	<path class="st1" d="M257.9,559.6h-18.8l13.9-89.1c0,0-65.2-15.4-99.1-17.9c-5.4-0.4-9.4-2.2-12.3-5c-14.8-14.5,1.4-55,1.4-55
		s23.3,5.5,51.5,12.9l0,0c6.4,1.7,13,3.5,19.6,5.3l0.3,0.1c35.9,10,72.8,21.7,76.8,28.7C299,453.8,257.9,559.6,257.9,559.6z"/>
	<path class="st4" d="M214.4,410.9c0,0-31.3,40.5-72.9,36.7c-14.8-14.5,1.4-55,1.4-55s23.3,5.5,51.5,12.9l0,0l19.6,5.3L214.4,410.9z
		"/>
	<polyline class="st7" points="240.4,559.6 234.8,578.3 283,581.1 280,572.5 252.2,559.6 	"/>
	<path class="st10" d="M135.4,424.2c0,0,2.8-65.8,27.2-120.8c8.6-19.4,20.5-29.8,31.4-26.8c0,0,41.9,25.9,41.9,39.7l0,101.5
		L135.4,424.2z"/>
	<polygon class="st6" points="136.4,411.3 172.8,396.9 167.3,385.4 133.7,396.9 	"/>
	<path class="st6" d="M166.3,278.4c0,0,50.6,9.2,43.5,46.7c0,0,29.8-38.5-26.7-56.6"/>
	<path class="st1" d="M155.8,378.4c0,15,2.3,26.6,8.6,30c5.2,2.8,14.4,3.3,25.5,2.5c0.5-8.6-1.6-16.8-6.8-22.7
		C175.6,380.7,166,378.1,155.8,378.4z"/>
	<path class="st3" d="M284.8,369.8l-84.6,3.6c0,0,13.1-58.2,10.8-65.6c-1.2-3.8-3.6-13-9.5-20.3c-10-12.2-31.1-5.3-34.7,11.2
		c-4.6,21.3-10.9,55.1-10.9,79.8c10.2-0.3,19.8,2.3,27.3,9.9c5.2,5.8,7.3,14.1,6.8,22.7c38.3-2.9,99.5-22.2,99.5-22.2L284.8,369.8z"
		/>
	<path class="st11" d="M273.3,362c-0.1,1.9,11.3,36.3,11.3,36.3l33.6-20l-2-16.3H273.3z"/>
	<path class="st1" d="M436.9,454.6l-3.3,21H424l2.6-21h-6.5l-2.2,21h-9.6l1.5-21h-6.5l-1.1,21h-9.6l0.5-21h-6.5l-0.1,21H377l-0.6-21
		H370l1,21l0.2,3.6l0.8,16.7l0.3,6.2h62.6l1.1-6.2l3-16.7l0.6-3.6l3.7-21H436.9z M377.6,495.9l-0.5-16.7h9.5l0,16.7H377.6z
		 M392.2,495.9l0.4-16.7h9.5l-0.9,16.7H392.2z M406.8,495.9l1.2-16.7h9.5l-1.8,16.7H406.8z M430.4,495.9h-9l2.1-16.7h9.5
		L430.4,495.9z"/>
	<path class="st7" d="M445.3,459.7h-77.9c-2.6,0-4.8-2.1-4.8-4.7c0-0.1,0-0.3,0-0.4l0,0c0.2-2.9,2.6-5.1,5.4-5.1h77.9
		c2.6,0,4.8,2.1,4.8,4.7c0,0.1,0,0.3,0,0.4l0,0C450.5,457.4,448.1,459.6,445.3,459.7z"/>
	<path class="st1" d="M152,476.8H70.8c-2.6,0-4.7-2-4.8-4.7c0-0.1,0-0.3,0-0.4l0,0c0.2-2.8,2.6-5.1,5.4-5.1h81.2L152,476.8z"/>
	<path class="st1" d="M74.3,554.3c-7.6,0.1-13.8,6-14.4,13.5l-0.2,2.5c-0.5,6.9,4.6,12.9,11.5,13.5c0.4,0,0.8,0,1.2,0h16l1.9-29.5
		L74.3,554.3z"/>
	
		<ellipse transform="matrix(0.3689 -0.9295 0.9295 0.3689 -458.4326 521.4447)" class="st7" cx="154.8" cy="598.3" rx="55" ry="46.9"/>
	<path class="st11" d="M179.2,602.1c-3.3,15.4-17,26.3-30.4,24.2s-21.7-16.3-18.3-31.7s17-26.3,30.4-24.2S182.5,586.6,179.2,602.1z"
		/>
	
		<ellipse transform="matrix(0.3689 -0.9295 0.9295 0.3689 -303.7643 754.7566)" class="st7" cx="403.9" cy="601.1" rx="52.2" ry="44.5"/>
	
		<ellipse transform="matrix(0.3689 -0.9295 0.9295 0.3689 -303.755 754.7502)" class="st11" cx="403.9" cy="601.1" rx="27.3" ry="23.3"/>
	<path class="st5" d="M73.1,591.6c0,0,6.3-131.9,90.8-131.9s85.3,116.5,85.3,116.5s67.7,9.8,112.8,2.8l-0.9,14.7
		C361.1,593.7,228,614,73.1,591.6z"/>
	<path class="st6" d="M80.7,603.9c0,0,4.7-94,71.1-94s60.7,99.3,60.7,99.3L80.7,603.9z"/>
	<path class="st5" d="M327.5,597.5l58-5c0,0,17.5-115.6-35.9-204.3l-17.7,2.4C331.9,390.7,349.5,527.1,327.5,597.5z"/>
	<path class="st6" d="M344.8,604.4c0,0,9.4-94.8,95.5-58.7l-18.7,33.5c-10.6,19-31.7,30.2-52.7,27.9L344.8,604.4z"/>
	<path class="st5" d="M120.5,557.1h54c1.8,0,3.4-1.4,3.5-3.3l0,0c0.1-1.7-1.1-3.2-2.8-3.3c-0.1,0-0.2,0-0.3,0h-54
		c-1.8,0-3.4,1.5-3.5,3.3l0,0c-0.2,1.6,1,3.1,2.7,3.3C120.3,557.1,120.4,557.1,120.5,557.1z"/>
	<path class="st5" d="M111,572.4h54c1.8,0,3.4-1.5,3.5-3.3l0,0c0.1-1.7-1.1-3.2-2.8-3.3c-0.1,0-0.2,0-0.3,0h-54
		c-1.8,0-3.4,1.5-3.5,3.3l0,0c-0.1,1.7,1.1,3.1,2.8,3.3C110.8,572.4,110.9,572.4,111,572.4z"/>
	<path class="st5" d="M101.4,587.7h54c1.8,0,3.4-1.5,3.5-3.3l0,0c0.1-1.7-1.1-3.2-2.8-3.3c-0.1,0-0.2,0-0.3,0h-54
		c-1.8,0-3.4,1.5-3.5,3.3l0,0c-0.1,1.7,1.1,3.2,2.8,3.3C101.3,587.7,101.3,587.7,101.4,587.7z"/>
	<polygon class="st1" points="344,373.1 333,373.1 335.7,390.1 349.6,388.2 	"/>
	<path class="st1" d="M374.2,351.7l7,40.9c0,0-31.6,10-36.5-15.2S374.2,351.7,374.2,351.7z"/>
	<path class="st12" d="M374.2,351.7c0,0,10.1,5.3,12.1,21.4s-5.2,19.5-5.2,19.5L374.2,351.7z"/>
	<path class="st7" d="M124.5,471.7c0,0-5.3-31.7,41.4-24.4c46.4,7.2,78.4,21.3,59.7,45.6L124.5,471.7z"/>
	<path class="st7" d="M341.7,371.4L341.7,371.4c-0.5-2.3-2.5-4-4.9-4c-8.6-0.3-28.1-0.9-29.4-0.9c-6.6,0.1-12.1,5.2-12.6,11.8
		c-0.5,6.1,4.1,11.3,10.1,11.8c0.3,0,0.7,0,1,0c2.4,0,22.9-8.4,32.2-12.2C340.8,376.8,342.3,374.1,341.7,371.4z"/>
	<path class="st2" d="M3.2,553.7c8.5-4.2,18.6-4.2,27.1,0c4.1,2,8.2,4,12.9,3.9c4.5-0.2,8.8-1.8,12.2-4.6c2.2-1.7-0.9-4.7-3-3
		c-3.5,2.7-7.9,3.8-12.2,3.1c-4.5-0.9-8.4-3.7-12.7-5.2c-8.7-2.8-18.3-2.1-26.5,2.1C-1.4,551.2,0.8,554.9,3.2,553.7L3.2,553.7z"/>
	<path class="st2" d="M26.2,539.8c5-2.8,10.6,2.6,15.4,3.5c5.8,1.2,10.7-2.5,16.4-2.4c2.8,0.1,2.8-4.2,0-4.3
		c-6-0.1-11.5,4.1-17.4,1.9c-2.8-1-5.3-2.7-8.1-3.3c-2.8-0.8-5.8-0.5-8.4,0.9C21.6,537.4,23.8,541.1,26.2,539.8z"/>
	<path class="st2" d="M96.2,617.8c1.1,5.3,3.5,10.3,6.8,14.5c0.8,0.8,2.2,0.8,3,0c0.8-0.8,0.8-2.2,0-3l-0.1-0.1l-0.3-0.4l-0.5-0.8
		c-0.3-0.5-0.7-1-1-1.6c-0.6-1-1.2-2.1-1.7-3.2l-0.3-0.7c0.1,0.2,0,0.1,0-0.1l-0.2-0.4c-0.2-0.6-0.4-1.2-0.6-1.8
		c-0.4-1.2-0.7-2.4-1-3.6c-0.3-1.1-1.5-1.8-2.6-1.5C96.6,615.5,95.9,616.7,96.2,617.8L96.2,617.8z"/>
	<path class="st2" d="M94.9,623.7c-0.4-0.9-0.6-1.9-0.9-2.9c-0.1-0.4-0.2-0.8-0.3-1.3c0-0.3-0.1-0.6-0.1-0.8c0,0.4,0-0.2,0-0.3
		c-0.2-2-0.2-3.9,0.1-5.9c0-1.2-1-2.1-2.1-2.1l0,0c-1.2,0-2.1,1-2.1,2.1c-0.5,4.2-0.1,8.4,1.3,12.3c0.3,1.1,1.5,1.8,2.6,1.5
		C94.5,626,95.2,624.8,94.9,623.7z"/>
	<path class="st2" d="M202.6,632.8c2.9-2.7,5.1-6.1,6.5-9.8c0.3-1.1-0.4-2.3-1.5-2.6c-1.1-0.3-2.3,0.4-2.6,1.5
		c0,0.1-0.1,0.2-0.1,0.3s-0.2,0.5-0.1,0.2s0,0,0,0.1l-0.1,0.3c-0.2,0.4-0.4,0.8-0.6,1.2c-0.4,0.8-0.9,1.5-1.4,2.2
		c-0.2,0.3-0.5,0.7-0.7,1s0.2-0.3,0.1-0.1s-0.1,0.2-0.2,0.3l-0.4,0.5c-0.6,0.7-1.2,1.4-1.9,2c-0.8,0.8-0.8,2.2,0,3
		C200.5,633.6,201.8,633.6,202.6,632.8L202.6,632.8z"/>
	<path class="st2" d="M215.3,627c2.1-3.3,2.9-7.3,2.3-11.2c-0.3-1.1-1.5-1.8-2.6-1.5c-1.1,0.3-1.8,1.5-1.5,2.6c0,0.1,0,0.2,0.1,0.3
		c0-0.3-0.1-0.3,0-0.1s0,0.4,0.1,0.6s0,0.7,0,1.1c0,0.4,0,0.8-0.1,1.3v-0.3c0,0.1,0,0.2-0.1,0.3l-0.1,0.6c-0.2,0.8-0.4,1.6-0.7,2.3
		c0.2-0.5,0,0,0,0.1s-0.2,0.4-0.3,0.6c-0.2,0.4-0.4,0.8-0.7,1.1c-0.6,1-0.2,2.3,0.8,2.9C213.4,628.3,214.7,628,215.3,627L215.3,627z
		"/>
	<path class="st2" d="M352,625.7c-1.3-1.7-2.3-3.7-2.8-5.8c-0.1-0.5-0.3-1.1-0.4-1.7c0-0.2,0-0.3-0.1-0.5c0,0.2,0,0.2,0-0.1
		s0-0.5-0.1-0.8c-0.1-1.2-0.1-2.4,0.1-3.5c0-1.2-1-2.1-2.1-2.1c-1.2,0-2.1,1-2.1,2.1c-0.5,5.1,0.8,10.3,3.9,14.5
		c0.6,1,1.9,1.3,2.9,0.8C352.3,628,352.6,626.7,352,625.7L352,625.7z"/>
	<path class="st2" d="M344,621c-0.4-0.5-0.7-1.1-1-1.7l0.2,0.5c-0.3-0.7-0.5-1.4-0.6-2.2c0,0.2,0,0.4,0.1,0.6
		c-0.1-0.6-0.1-1.2,0-1.8c0-1.2-1-2.1-2.1-2.1c-0.6,0-1.1,0.2-1.5,0.6c-0.4,0.4-0.6,0.9-0.6,1.5c-0.2,2.4,0.5,4.8,1.9,6.7
		c0.3,0.5,0.7,0.8,1.3,1c0.6,0.1,1.1,0.1,1.6-0.2c0.5-0.3,0.8-0.7,1-1.3C344.4,622.1,344.3,621.5,344,621z"/>
	<path class="st2" d="M455.1,589.4c0.8,8.8,1.5,18.5-3.6,26.3c-1.5,2.3,2.2,4.4,3.7,2.2c5.6-8.4,5.1-18.8,4.2-28.4
		c0-1.2-1-2.1-2.1-2.1C456.1,587.3,455.1,588.3,455.1,589.4L455.1,589.4z"/>
	<path class="st2" d="M463,605.8c-1.4,5.1-3.4,10-5.9,14.7c-0.5,1.1-0.1,2.3,1,2.9c1,0.5,2.1,0.2,2.7-0.7c2.7-5,4.8-10.2,6.3-15.7
		C467.8,604.3,463.7,603.2,463,605.8L463,605.8z"/>
	<path class="st11" d="M315.5,366.5c0,0-4.5,15.7,1.9,15.1s7.9-11.4,7.9-11.4s-2.8,11.6,2,11.4s9-11.4,9-11.4s1.8,15.1,4.8,10
		s4.7-28.5-7.5-28.5S302.3,362,302.3,362"/>
	<path class="st13" d="M118,697l-1,5h3.8l-0.6,3.1h-3.8l-1.5,7.5h-2.9l1.5-7.5h-5.2l-1.5,7.5h-2.9l1.5-7.5H101l0.6-3.1h4.2l1-5h-4.1
		l0.6-3.1h4.1l1.4-7.3h3l-1.5,7.3h5.2l1.4-7.3h3l-1.5,7.3h3.9l-0.6,3.1H118z M115,697h-5.2l-1,5h5.2L115,697z"/>
	<path class="st13" d="M130.5,713.5c-1.2-0.5-2.3-1.4-3-2.5c-0.7-1.1-1-2.4-1-3.7c0-1.1,0.2-2.2,0.7-3.2c0.5-0.9,1.1-1.7,2-2.3
		c0.8-0.6,1.8-0.9,2.8-0.8c0.8,0,1.7,0.2,2.4,0.7c0.6,0.5,1.1,1.2,1.2,2c-1.2-0.1-2.4,0.3-3.3,1.1c-0.8,0.8-1.3,1.9-1.3,3
		c-0.1,2,1.4,3.7,3.4,3.8c0.2,0,0.3,0,0.5,0c1.3,0,2.6-0.5,3.5-1.4c0.9-1,1.4-2.3,1.4-3.6c0-1.3-0.3-2.5-1-3.6
		c-0.9-1.4-2-2.8-3.1-4.1c-1.2-1.3-2.3-2.8-3.3-4.3c-0.7-1.2-1.1-2.5-1.1-3.9c0-1.3,0.4-2.7,1.2-3.8c0.8-1.1,1.9-2.1,3.2-2.6
		c1.5-0.7,3-1,4.6-1c1.9-0.1,3.7,0.4,5.2,1.5c1.3,1,2,2.5,1.9,4.1c0,1-0.3,2-0.8,2.7c-0.5,0.7-1.4,1-2.2,1c-1,0-1.9-0.4-2.4-1.2
		c0.5-0.4,0.9-0.9,1.2-1.5c0.3-0.6,0.4-1.3,0.4-1.9c0.1-1.5-1-2.7-2.5-2.8c-0.1,0-0.3,0-0.4,0c-1,0-2,0.4-2.6,1.1
		c-0.7,0.8-1,1.9-1,2.9c0,1.1,0.3,2.1,0.9,3c0.9,1.3,1.8,2.4,2.9,3.6c1.1,1.2,1.9,2.2,2.6,3c0.7,0.9,1.3,1.8,1.7,2.9
		c0.5,1.1,0.7,2.3,0.7,3.5c0,1.7-0.5,3.3-1.4,4.7c-1,1.4-2.3,2.6-3.9,3.3c-1.7,0.8-3.6,1.2-5.5,1.2
		C133.5,714.4,132,714.1,130.5,713.5z"/>
	<path class="st13" d="M148.9,712.8c-0.9-1-1.3-2.3-1.2-3.6c0-0.9,0.1-1.8,0.3-2.6l2.4-11.3h-1.3l0.3-1.6h1.3l1.2-5.6l6-0.8
		l-1.4,6.4h2.3l-0.3,1.6h-2.4l-2.6,12.1c-0.1,0.4-0.2,0.9-0.2,1.3c0,0.4,0.1,0.8,0.4,1.1c0.4,0.3,0.8,0.4,1.3,0.3
		c0.8,0,1.6-0.4,2.2-1c0.7-0.7,1.2-1.6,1.4-2.5h1.7c-1,2.9-2.3,4.9-3.8,5.9c-1.4,1-3,1.5-4.6,1.5C150.9,714,149.8,713.6,148.9,712.8
		z"/>
	<path class="st13" d="M159.8,712.4c-1-1-1.5-2.7-1.5-4.9c0-2.1,0.4-4.3,1.2-6.3c0.7-2.1,2-4,3.6-5.5c1.5-1.5,3.5-2.3,5.6-2.3
		c0.9-0.1,1.7,0.1,2.4,0.6c0.5,0.3,0.8,0.9,0.8,1.5v0.3l0.4-2.1h5.8l-2.9,13.7c-0.1,0.4-0.2,0.9-0.2,1.3c0,1.2,0.6,1.7,1.6,1.7
		c0.8,0,1.5-0.4,2-1c0.6-0.8,1.1-1.7,1.3-2.7h1.7c-1,2.9-2.2,4.9-3.7,5.9c-1.3,1-2.8,1.5-4.4,1.5c-1,0-2-0.3-2.7-0.9
		c-0.7-0.7-1.2-1.7-1.2-2.8c-0.7,1-1.6,1.9-2.6,2.7c-1,0.7-2.2,1-3.4,1C162.2,714,160.8,713.5,159.8,712.4z M168.3,709.1
		c0.7-0.7,1.2-1.6,1.4-2.6l1.9-9.1c0-0.4-0.2-0.7-0.4-1c-0.3-0.4-0.8-0.5-1.2-0.5c-1.2,0.1-2.3,0.8-2.9,1.9c-0.9,1.4-1.6,2.9-2,4.5
		c-0.4,1.5-0.7,3.1-0.7,4.7c-0.1,0.9,0.1,1.8,0.6,2.6c0.4,0.4,0.9,0.6,1.4,0.6C167,710,167.8,709.7,168.3,709.1L168.3,709.1z"/>
	<path class="st13" d="M183,722.5c-0.9-0.8-1.5-1.9-1.4-3.1c0-1,0.3-2.1,0.9-2.9c0.6-0.8,1.4-1.4,2.3-1.8c1.2-0.5,2.5-1,3.8-1.4
		l0.4-1.8c-1.2,1.5-3,2.3-4.9,2.3c-1.2,0.1-2.3-0.4-3.1-1.2c-0.9-1-1.3-2.3-1.2-3.6c0-0.9,0.1-1.8,0.3-2.6l2.7-12.9h5.8l-2.9,13.7
		c-0.1,0.3-0.1,0.7-0.1,1c0,1.2,0.4,1.8,1.2,1.8c0.8,0,1.5-0.4,1.9-1c0.6-0.8,1-1.6,1.3-2.6l2.7-12.9h5.8l-4.9,23.3
		c-0.5,2.6-1.5,4.4-2.8,5.3c-1.3,1-2.9,1.5-4.5,1.5C185.1,723.8,183.9,723.3,183,722.5z M186.8,719.4c0.5-0.7,0.9-1.5,1-2.4l0.5-2.4
		c-1.2,0.4-2.3,0.9-3.3,1.7c-0.8,0.6-1.2,1.5-1.2,2.5c0,0.4,0.2,0.7,0.5,0.9c0.3,0.3,0.7,0.4,1.1,0.4
		C185.9,720.1,186.4,719.9,186.8,719.4L186.8,719.4z"/>
	<path class="st13" d="M204.7,718.1c-0.8-0.2-1.5-0.6-2-1.2c-0.6-0.8-0.9-1.8-0.8-2.9c0.1-2.5,0.7-4.9,1.6-7.2
		c1.2-3.2,2.6-6.2,4.3-9.1c-1.1,0-2.2,0.2-3.2,0.6c-0.7,0.2-1.3,0.8-1.5,1.5c0.1,0,0.2,0.1,0.3,0.4c0.1,0.3,0.2,0.6,0.2,0.8
		c0,0.5-0.2,0.9-0.6,1.2c-0.5,0.3-1,0.4-1.6,0.4c-0.7,0-1.3-0.2-1.8-0.6c-0.5-0.4-0.7-1.1-0.7-1.7c0-0.9,0.4-1.8,1.1-2.5
		c0.8-0.8,1.9-1.4,3-1.8c1.3-0.5,2.8-0.7,4.2-0.7c0.6,0,1.3,0,2.1,0.1c1.9-3.2,4.3-6,7-8.5c2.4-2.2,4.8-3.3,7-3.3
		c1.1,0,2.2,0.2,3.2,0.6l-6.3,29.6h-5.8l3.1-14.6c-1.7-0.8-3.5-1.3-5.4-1.5c-1.5,3.3-2.8,6.7-3.7,10.1c-0.9,2.7-1.3,5.5-1.5,8.3
		c-0.1,0.8,0.1,1.6,0.6,2.3C206.4,718.3,205.5,718.2,204.7,718.1z M220,686.4c-1.4,0.9-2.7,2.1-3.6,3.5c-1.4,1.9-2.6,4-3.6,6.1
		c1.7,0.3,3.3,0.8,4.9,1.4L220,686.4z"/>
	<path class="st13" d="M226.1,712.7c-0.7-1-1.1-2.1-1-3.3c0-0.7,0.1-1.4,0.2-2.1l2.6-12.1h-1.3l0.3-1.6h1.3l1.2-5.6l5.9-0.8
		c-0.2,1-0.4,1.6-0.4,1.8c-0.2,0.8-0.5,2.3-1,4.5h2.4l-0.3,1.6h-2.4l-2.6,12.1c-0.1,0.5-0.2,0.9-0.2,1.4c-0.1,0.7,0.4,1.3,1.1,1.4
		c0.1,0,0.2,0,0.3,0c0.4,0,0.7,0,1.1-0.1c-0.3,1.2-1,2.3-1.9,3.1c-0.7,0.5-1.5,0.8-2.4,0.8C228,714,226.9,713.6,226.1,712.7z"/>
	<path class="st13" d="M246.4,686.3c-1.7,0.7-3.2,1.9-4.2,3.4c-1,1.6-1.5,3.5-1.5,5.4c0,0.7,0.1,1.4,0.3,2.1
		c0.1,0.2,0.2,0.4,0.3,0.7c-1.2,0.1-2.3-0.2-3.2-0.9c-0.8-0.8-1.2-1.9-1.1-3c0.1-1.9,0.8-3.6,2.1-5c3.1-3.4,7.4-5.3,12-5.5
		c0.4,0,0.9,0,1.6,0.1l-2.6,12h5.9l2.6-12h5.8l-6.4,30.1h-5.8l3.2-15.1h-5.9l-3.2,15.1h-5.8L246.4,686.3z"/>
	<path class="st13" d="M264.4,712.3c-1.2-1-1.7-2.6-1.7-4.8c0-2.1,0.4-4.1,1.1-6.1c0.7-2.2,2-4.2,3.6-5.8c1.7-1.6,3.9-2.5,6.3-2.4
		c3.4,0,5.1,2.1,5.1,6.4l0,0c0.1,0,0.3,0.1,0.5,0c1.1,0,2.1-0.3,3-0.7c1.1-0.4,2.2-1,3.1-1.7l0.4,1.1c-0.9,0.9-1.9,1.6-3,2.1
		c-1.3,0.6-2.7,1-4.1,1.2c-0.2,2.2-0.7,4.4-1.6,6.4c-0.8,1.7-1.9,3.1-3.4,4.2c-1.3,1-2.9,1.5-4.5,1.5
		C267.4,713.9,265.8,713.4,264.4,712.3z M272.7,709.1c0.7-0.9,1.3-1.9,1.7-3c0.5-1.4,0.8-2.8,1-4.2c-0.7-0.2-1.1-0.7-1.1-1.7
		c-0.1-0.9,0.4-1.8,1.2-2.2c0-0.6-0.1-1.3-0.4-1.8c-0.3-0.4-0.7-0.5-1.1-0.5c-0.9,0-1.7,0.6-2.6,1.9c-0.9,1.4-1.6,3-2,4.6
		c-0.5,1.5-0.7,3.1-0.8,4.8c-0.1,0.9,0.1,1.8,0.4,2.6c0.4,0.5,1,0.7,1.6,0.7C271.5,710.2,272.2,709.8,272.7,709.1z"/>
	<path class="st13" d="M301.8,712.6c-0.8-0.9-1.2-2.1-1.1-3.2c0-0.6,0.1-1.3,0.2-1.9c0.1-0.7,0.3-1.4,0.4-2.1
		c0.1-0.7,0.3-1.1,0.3-1.3c0.2-0.9,0.4-1.9,0.6-2.8c0.2-0.7,0.3-1.5,0.3-2.2c0-1.4-0.5-2-1.5-2c-0.7,0-1.4,0.4-1.9,1
		c-0.6,0.8-1,1.7-1.3,2.7l-2.7,12.9h-5.8l2.9-13.9c0.1-0.3,0.1-0.7,0.1-1c0-1.2-0.4-1.8-1.2-1.8c-0.8,0-1.5,0.4-2,1
		c-0.6,0.8-1.1,1.7-1.3,2.7l-2.7,12.9h-5.8l4.3-20.1h5.8l-0.5,2.1c1.2-1.5,3-2.3,4.9-2.3c2.1-0.2,3.9,1.3,4.1,3.4c0,0,0,0.1,0,0.1
		c1.5-2.3,3.3-3.4,5.6-3.4c1.2-0.1,2.4,0.3,3.3,1.1c0.9,0.9,1.3,2.2,1.2,3.4c0,0.9-0.1,1.7-0.3,2.6c-0.2,1-0.5,2.1-0.8,3.5
		c-0.2,0.8-0.4,1.6-0.6,2.4c-0.2,0.6-0.2,1.2-0.3,1.9c0,0.4,0.1,0.9,0.4,1.2c0.3,0.3,0.8,0.5,1.3,0.5c0.7,0,1.5-0.3,1.9-0.9
		c0.6-0.8,1.1-1.7,1.5-2.7h1.7c-1,3-2.1,4.9-3.4,5.9c-1.1,0.9-2.6,1.5-4,1.5C304,714.1,302.7,713.6,301.8,712.6z"/>
	<path class="st13" d="M312.3,712.4c-1.1-1-1.6-2.6-1.6-4.8c0-2.1,0.4-4.1,1.1-6.1c0.7-2.2,1.9-4.2,3.5-5.8c1.7-1.6,3.9-2.5,6.2-2.4
		c3,0,4.4,1.3,4.4,3.9c0,1.5-0.4,2.9-1.3,4.1c-0.9,1.3-2.1,2.3-3.4,3c-1.4,0.8-3,1.2-4.5,1.3c0,0.6-0.1,1-0.1,1.2
		c0,2.2,0.8,3.3,2.5,3.3c0.8,0,1.7-0.2,2.4-0.6c0.8-0.4,1.6-0.9,2.3-1.5c-0.7,4-3.1,6-7,6C315.2,714,313.5,713.5,312.3,712.4z
		 M319.8,702.6c0.9-0.6,1.7-1.5,2.2-2.5c0.5-1,0.8-2.1,0.8-3.2c0-1.1-0.3-1.7-1-1.7c-0.9,0-1.9,0.8-2.8,2.5c-1,1.8-1.7,3.7-2.1,5.7
		C318,703.6,319,703.3,319.8,702.6z"/>
	<circle class="st13" cx="677" cy="374.6" r="159.9"/>
	<path class="st14" d="M587.8,412.7c-4.7-2.7-7-7.9-6.7-15.3c0.1-4.9,1.4-8.7,3.9-11.6c2.4-2.8,5.8-4.2,10.2-4.1
		c5.1,0.1,7.9,2.1,8.6,6c-3.8,0.1-6.5,1.3-7.9,3.7c-1.5,2.5-2.3,5.3-2.3,8.1c-0.2,2.8,0.7,5.5,2.6,7.6c1.8,1.8,4.2,2.9,6.8,2.9
		c2.5,0.1,4.9-0.6,7-1.9c2.4-1.5,4.4-3.7,5.6-6.3c1.6-3.3,2.4-6.8,2.4-10.5c0.1-4.5-1-9-3.4-12.8c-2.5-4.1-6.4-7.2-10.9-8.8
		c3.8-0.9,7.4-2.6,10.5-5c2.8-2.1,5.1-4.8,6.8-7.9c1.5-2.6,2.3-5.4,2.5-8.4c0.2-2.4-0.5-4.8-2-6.7c-1.6-1.8-3.9-2.8-6.3-2.7
		c-2.4-0.2-4.7,0.6-6.5,2.2c-1.7,1.6-2.6,3.9-2.6,6.3c-0.1,1.7,0.2,3.5,0.9,5.1c0.5,1.4,1.7,2.5,3.1,3c-2.8,2.5-5.7,3.6-8.6,3.6
		c-2.2,0-4.3-1-5.7-2.7c-1.6-2-2.3-4.5-2.1-7.1c0.1-3.2,1.2-6.4,3.3-8.8c2.3-2.6,5.2-4.6,8.5-5.8c3.8-1.4,7.8-2,11.8-1.8
		c3.9,0,7.7,0.9,11.3,2.6c2.8,1.4,5.2,3.5,6.9,6.1c1.5,2.5,2.3,5.4,2.2,8.3c-0.2,4.1-1.7,8.1-4.3,11.3c-3.1,3.9-7.1,7.1-11.7,9.1
		c4.7,1.7,8.1,4.2,10.4,7.5c2.3,3.3,3.4,7.3,3.2,11.4c-0.2,4.8-1.7,9.5-4.4,13.5c-2.9,4.5-6.8,8.1-11.5,10.6
		c-5.1,2.7-10.8,4-16.5,3.8C597.6,416.9,592.4,415.4,587.8,412.7z"/>
	<path class="st14" d="M646.3,411.4c-3.3-5.1-4.8-12-4.5-20.7c0.2-9.8,2.1-19.4,5.7-28.6c3.5-8.7,8.2-15.6,14.1-20.7
		c5.5-4.9,12.6-7.5,20-7.3c7.2,0.2,12.5,2.8,16,7.6c3.5,4.9,5.1,11.5,4.9,19.9c-0.3,8.8-1.9,17.6-4.6,26
		c-2.5,8.5-6.9,16.3-12.9,22.8c-5.4,6.1-13.3,9.4-21.4,9C655.4,419.2,649.6,416.5,646.3,411.4z M675.5,403.3
		c3.3-5.3,6.1-12.1,8.2-20.5c2.1-8.3,3.4-16.9,3.6-25.5c0.2-4-0.2-7.9-1.3-11.8c-1-3.1-2.6-4.7-4.7-4.8c-3.4-0.1-6.9,2.5-10.3,7.9
		s-6.3,12.2-8.7,20.6c-2.3,8.1-3.6,16.4-3.9,24.8c-0.3,11.2,2,16.9,6.9,17C668.8,411.1,672.2,408.6,675.5,403.3z"/>
	<path class="st14" d="M707.1,364.7c0.1-5.3,1.3-10.5,3.5-15.4c1.9-4.3,4.8-8.1,8.6-10.9c3.3-2.5,7.4-3.9,11.6-3.8
		c4.3,0.1,7.5,1.6,9.6,4.5c2.1,2.9,3.1,7.1,2.9,12.6c-0.1,5.3-1.3,10.5-3.5,15.3c-1.9,4.3-4.9,8.1-8.7,11c-3.3,2.6-7.5,3.9-11.7,3.8
		C710.8,381.5,706.7,375.8,707.1,364.7z M726.7,373.2c2.1-3.4,3.6-7,4.5-10.9c1.2-4.8,1.9-9.7,2-14.6c0.2-2.2,0-4.3-0.6-6.4
		c-0.3-1.2-1.4-2-2.6-2c-1.9-0.1-3.8,1.3-5.7,4c-2.2,3.3-3.8,7-4.8,10.8c-1.3,4.4-2,9-2.1,13.6c-0.2,2.4,0.1,4.8,0.8,7.1
		c0.4,1.4,1.6,2.3,3,2.3C723,377.3,724.9,375.9,726.7,373.2L726.7,373.2z M767.9,337l8.1,0.2l-49.1,82.9l-8.1-0.2L767.9,337z
		 M752.7,404.9c0.1-5.3,1.3-10.5,3.5-15.4c1.9-4.3,4.8-8.1,8.6-10.9c3.3-2.6,7.4-3.9,11.6-3.8c4.3,0.1,7.5,1.6,9.6,4.5
		c2.1,2.9,3.1,7.1,2.9,12.6c-0.1,5.3-1.3,10.5-3.5,15.3c-1.9,4.3-4.9,8.1-8.7,11c-3.3,2.5-7.4,3.9-11.6,3.8
		C756.5,421.7,752.4,416,752.7,404.9L752.7,404.9z M772.3,413.4c2.1-3.4,3.6-7,4.5-10.9c1.2-4.8,1.9-9.7,2-14.6
		c0.2-2.2,0-4.3-0.6-6.4c-0.3-1.2-1.4-2-2.6-2c-1.9,0-3.8,1.3-5.7,4c-2.2,3.3-3.8,7-4.8,10.8c-1.3,4.5-2,9.1-2.1,13.7
		c-0.2,2.4,0.1,4.8,0.7,7.1c0.4,1.3,1.6,2.3,3,2.3C768.6,417.5,770.5,416.1,772.3,413.4L772.3,413.4z"/>
	<path class="st14" d="M565.7,310.8l-0.3,1.5H560l5.2-24.1l5.6-0.8l-4.5,21.3c0.6,0.5,1.4,0.7,2.2,0.8c1.4,0,2.7-0.8,3.8-2.5
		c1.2-2,2.1-4.1,2.6-6.4c0.6-2.6,0.9-5.2,0.9-7.8c0-2.5-0.5-4.3-1.5-5.4c-1-1.2-2.5-1.8-4.1-1.7c-1.8,0-3.5,0.4-5.1,1.1
		c-1.5,0.7-2.7,1.8-3.5,3.2c-0.9,1.5-1.3,3.2-1.3,4.9c0,0.7,0,1.3,0.3,2c0.1,0.2,0.2,0.4,0.3,0.6c-1.1,0.1-2.1-0.2-3-0.8
		c-0.7-0.7-1.1-1.7-1-2.7c0-1.8,0.7-3.5,1.9-4.9c1.4-1.6,3.2-2.9,5.2-3.7c2.2-0.9,4.6-1.4,7-1.4c3.5,0,6,1,7.7,3.1
		c1.7,2.2,2.6,5,2.5,7.9c0,2.9-0.5,5.8-1.5,8.5c-0.8,2.5-2.1,4.8-3.9,6.8c-1.3,1.6-3.1,2.6-5.2,2.6C568.7,312.7,567,312,565.7,310.8
		z"/>
	<path class="st14" d="M590.6,286.6c-1.6,0.6-3,1.7-3.9,3.1c-1,1.5-1.4,3.3-1.4,5.1c0,0.7,0,1.3,0.3,2c0.1,0.2,0.2,0.4,0.3,0.6
		c-1.1,0.1-2.2-0.2-3-0.9c-0.7-0.7-1.1-1.8-1-2.8c0.1-1.8,0.8-3.4,2-4.7c2.9-3.2,7-5,11.3-5.1c0.3,0,0.9,0,1.5,0.1l-6,28.3h-5.5
		L590.6,286.6z"/>
	<path class="st14" d="M600.8,312.1c-1.1-0.5-2.1-1.3-2.8-2.3c-0.7-1-1-2.2-1-3.5c0-1,0.2-2.1,0.7-3c0.4-0.9,1.1-1.6,1.9-2.2
		c0.8-0.5,1.7-0.8,2.6-0.8c0.8,0,1.6,0.2,2.2,0.7c0.6,0.4,1,1.1,1.1,1.8c-1.1-0.1-2.3,0.3-3.1,1c-1.5,1.5-1.6,3.9-0.2,5.4
		c0.7,0.7,1.6,1,2.6,1c1.2,0,2.4-0.5,3.3-1.4c0.9-0.9,1.3-2.1,1.3-3.4c0-1.2-0.4-2.4-1-3.4c-0.9-1.4-1.9-2.7-3-3.9
		c-1.1-1.3-2.2-2.6-3.1-4c-0.7-1.1-1-2.4-1-3.7c0-1.3,0.4-2.5,1.1-3.5c0.8-1.1,1.8-1.9,3-2.5c1.4-0.6,2.9-0.9,4.4-0.9
		c1.7-0.1,3.5,0.4,4.9,1.4c1.2,0.9,1.9,2.4,1.8,3.9c0,0.9-0.2,1.8-0.8,2.6c-0.5,0.6-1.3,1-2.1,1c-0.9,0-1.8-0.4-2.3-1.2
		c0.5-0.4,0.9-0.9,1.1-1.4c0.3-0.6,0.4-1.2,0.4-1.8c0-0.7-0.2-1.4-0.7-1.9c-0.5-0.5-1.3-0.8-2-0.7c-0.9,0-1.9,0.4-2.5,1.1
		c-0.7,0.8-1,1.7-1,2.8c0,1,0.3,2,0.9,2.8c0.8,1.2,1.7,2.3,2.7,3.4c1,1.1,1.8,2,2.4,2.8c0.6,0.8,1.2,1.7,1.6,2.7
		c0.4,1,0.7,2.2,0.7,3.3c0,1.6-0.5,3.1-1.3,4.4c-0.9,1.3-2.2,2.4-3.7,3.1c-1.6,0.7-3.3,1.1-5.1,1.1
		C603.6,313,602.1,312.7,600.8,312.1z"/>
	<path class="st14" d="M620.1,310.7c-1.3-1.4-2-3.8-2-7.2c0-2.9,0.5-5.8,1.3-8.6c0.8-2.9,2.3-5.6,4.3-7.9c1.9-2.1,4.7-3.3,7.5-3.3
		c1.6-0.1,3.2,0.4,4.6,1.3c1.8,1.6,2.3,4.2,1.1,6.4c-0.5,0.6-1.2,1-2,0.9c-0.8,0-1.6-0.3-2.2-1c0.5-0.3,1-0.8,1.2-1.4
		c0.3-0.7,0.5-1.4,0.5-2.1c0-0.6-0.2-1.2-0.5-1.7c-0.5-0.5-1.1-0.7-1.8-0.6c-1.3,0-2.6,0.9-3.8,2.7c-1.3,2.1-2.3,4.5-2.9,6.9
		c-0.7,2.6-1.1,5.3-1.1,8c-0.1,1.5,0.3,3.1,1,4.4c0.7,1,1.8,1.5,3.6,1.5c1.4,0,2.8-0.3,4.1-1c1.3-0.7,2.4-1.6,3.3-2.8l0.9,0.4
		c-0.6,1.5-1.5,2.9-2.8,4c-1.2,1-2.5,1.8-4,2.3c-1.3,0.5-2.6,0.7-4,0.7C623.5,312.9,621.4,312.2,620.1,310.7z"/>
	<path class="st14" d="M603.1,469.4c-0.5-0.1-1.2-0.3-1.9-0.5s-1.7-0.5-2.3-0.6c-2-0.4-4.1-0.1-5.9,0.9h-0.2
		c-0.1-0.6-0.2-1.1-0.2-1.7c0-1,0.3-2.1,0.8-3c0.5-1,1.2-1.9,1.9-2.7c0.8-0.8,1.8-1.9,3.1-3.2c1.3-1.3,2.5-2.5,3.4-3.5
		c0.9-1,1.6-2,2.2-3.2c0.6-1.1,0.9-2.4,0.9-3.7c0.1-1.1-0.2-2.3-0.7-3.3c-0.4-0.8-1.2-1.3-2.1-1.2c-0.8,0-1.6,0.3-2.1,0.9
		c-0.5,0.6-0.8,1.3-0.8,2.1c0,0.8,0.2,1.5,0.5,2.2c0.3,0.6,0.7,1.1,1.3,1.4v0.1c-0.4,0.4-0.9,0.7-1.4,0.9c-0.4,0.2-0.9,0.3-1.4,0.3
		c-0.8,0-1.5-0.4-1.9-1c-0.5-0.8-0.8-1.8-0.8-2.8c0-1.1,0.3-2.1,0.9-3c0.7-1,1.6-1.8,2.7-2.4c1.3-0.6,2.7-1,4.2-0.9
		c1.9-0.1,3.7,0.6,5.2,1.8c1.4,1.3,2.1,3.1,2,4.9c0,1.3-0.3,2.6-1,3.7c-0.7,1.1-1.5,2.1-2.5,3c-1,0.9-2.3,2-3.9,3.2
		s-2.9,2.3-3.9,3.2c-0.9,0.8-1.6,1.7-2.2,2.8c0.7-0.2,1.5-0.3,2.3-0.3c0.6,0,1.2,0.1,1.8,0.1c0.6,0.1,1.2,0.2,1.8,0.3
		c0.1,0,0.4,0.1,1,0.2c0.5,0.1,1,0.2,1.5,0.2c0.6,0,1.3-0.1,1.8-0.4c0.7-0.4,1.3-0.9,1.7-1.5l0.1,0.1c0.3,0.7,0.4,1.5,0.5,2.3
		c0,0.8-0.2,1.6-0.7,2.3c-0.5,0.7-1.1,1.2-1.9,1.5c-0.8,0.4-1.6,0.6-2.4,0.6C604.1,469.6,603.6,469.5,603.1,469.4z"/>
	<path class="st14" d="M617.4,446.2h-3.5l0.5-1.7c1.4,0,2.8-0.2,4.2-0.6c1.8-0.5,3.6-1.3,5.2-2.3l-5.9,27.5h-5.3L617.4,446.2z"/>
	<path class="st14" d="M632.8,458.1h7.4l-0.6,2.9h-7.4L632.8,458.1z"/>
	<path class="st14" d="M652.7,468.1c-1.6-0.9-2.4-2.5-2.4-5c-0.1-1.4,0.3-2.7,1.2-3.8c0.8-1,2-1.5,3.3-1.4c1.7,0,2.6,0.6,2.9,1.9
		c-1,0-2,0.4-2.6,1.3c-0.5,0.8-0.7,1.7-0.7,2.7c-0.1,0.9,0.3,1.8,0.9,2.5c0.6,0.6,1.4,0.9,2.2,0.9c0.8,0,1.6-0.3,2.3-0.7
		c0.8-0.5,1.4-1.3,1.8-2.1c0.5-1.1,0.7-2.3,0.7-3.5c0-1.5-0.4-2.9-1.2-4.2c-0.9-1.3-2.2-2.3-3.7-2.8c1.2-0.3,2.4-0.9,3.4-1.7
		c0.9-0.7,1.6-1.6,2.2-2.6c0.5-0.9,0.7-1.8,0.7-2.8c0-0.8-0.2-1.6-0.7-2.2c-0.5-0.6-1.3-0.9-2.1-0.8c-1.5-0.1-2.8,1-2.9,2.5
		c0,0.1,0,0.2,0,0.3c0,0.6,0.1,1.1,0.3,1.7c0.2,0.5,0.5,0.8,1,1c-0.7,0.8-1.7,1.2-2.8,1.3c-0.7,0-1.4-0.3-1.9-0.8
		c-0.5-0.6-0.8-1.5-0.8-2.3c0-1.1,0.3-2.1,1-2.9c0.7-0.9,1.7-1.6,2.7-2c1.2-0.5,2.5-0.7,3.9-0.7c1.3,0,2.5,0.2,3.7,0.7
		c1,0.4,1.8,1.1,2.3,2c0.5,0.8,0.8,1.7,0.8,2.7c0,1.4-0.5,2.7-1.3,3.8c-1,1.3-2.3,2.4-3.8,3.1c1.4,0.4,2.6,1.2,3.5,2.4
		c0.8,1.1,1.2,2.4,1.2,3.7c0,1.6-0.5,3.1-1.3,4.5c-0.9,1.5-2.1,2.8-3.6,3.6c-1.6,0.9-3.5,1.4-5.4,1.4
		C655.9,469.4,654.2,468.9,652.7,468.1z"/>
	<path class="st14" d="M671.8,467.1c-1.2-2-1.8-4.4-1.7-6.7c0-3.2,0.5-6.4,1.6-9.4c0.9-2.6,2.4-5,4.4-6.9c1.8-1.7,4.1-2.6,6.5-2.6
		c2.1-0.1,4,0.7,5.3,2.4c1.3,1.9,1.9,4.2,1.8,6.5c0,2.9-0.4,5.8-1.3,8.6c-0.7,2.8-2.1,5.4-4,7.6c-1.7,2-4.3,3.2-6.9,3.1
		C674.9,469.5,673,468.7,671.8,467.1z M681.3,464.1c1.2-2.1,2-4.4,2.5-6.8c0.6-2.8,0.9-5.6,0.9-8.4c0-1.3-0.2-2.6-0.5-3.8
		c-0.4-1-0.9-1.5-1.6-1.5c-1.1,0-2.2,0.9-3.3,2.7c-1.2,2.1-2.1,4.4-2.7,6.9c-0.7,2.7-1,5.4-1,8.2c0,3.7,0.8,5.5,2.4,5.5
		C679.2,466.8,680.3,465.9,681.3,464.1z"/>
	<path class="st14" d="M709.3,443.9c-1.7,0.5-3.2,1.6-4.3,3c-1.1,1.5-1.6,3.4-1.5,5.3c0,0.6,0,1.3,0.3,1.9c0.1,0.2,0.2,0.4,0.3,0.6
		c-2.6,0-3.9-1.1-3.9-3.4c0.1-1.7,0.7-3.3,1.8-4.6c1.2-1.6,2.7-2.8,4.5-3.8c1.7-0.9,3.6-1.4,5.5-1.5c1,0,1.9,0.2,2.8,0.5l-0.8,19.4
		l8.1-19.4h5.3l-3.9,27.1h-5.3l2.4-16.5l-6.9,16.5h-5l0.7-16.6l-6.2,16.6h-2.9L709.3,443.9z"/>
	<path class="st14" d="M727.3,468c-1-1.3-1.5-2.9-1.4-4.5c0-2,0.4-3.9,1.1-5.7c0.7-1.9,1.8-3.7,3.2-5.1c1.4-1.4,3.2-2.1,5.1-2.1
		c0.8-0.1,1.6,0.1,2.3,0.5c0.5,0.3,0.7,0.8,0.7,1.4v0.3l0.4-2h5.3l-2.7,12.5c-0.1,0.4-0.2,0.8-0.2,1.2c0,1.1,0.5,1.6,1.5,1.6
		c0.7,0,1.4-0.4,1.8-1c0.6-0.8,1-1.6,1.2-2.5h1.5c-0.9,2.7-2,4.5-3.4,5.4c-1.2,0.9-2.6,1.4-4,1.4c-0.9,0-1.8-0.3-2.5-0.9
		c-0.7-0.7-1.1-1.6-1.1-2.5c-0.6,0.9-1.4,1.8-2.4,2.4c-0.9,0.6-2,1-3.1,0.9C729.6,469.4,728.3,468.9,727.3,468z M735.1,465
		c0.6-0.7,1.1-1.5,1.2-2.4l1.8-8.3c0-0.3-0.1-0.7-0.4-0.9c-0.3-0.3-0.7-0.5-1.1-0.5c-1.1,0.1-2.1,0.7-2.7,1.7
		c-0.8,1.3-1.5,2.7-1.8,4.1c-0.4,1.4-0.6,2.8-0.7,4.3c-0.1,0.8,0.1,1.7,0.5,2.4c0.3,0.3,0.8,0.5,1.3,0.5
		C733.9,465.8,734.6,465.5,735.1,465z"/>
	<path class="st14" d="M748.5,477.3c-0.8-0.7-1.3-1.7-1.3-2.9c0-0.9,0.2-1.9,0.8-2.6c0.6-0.7,1.3-1.3,2.1-1.6
		c1.1-0.5,2.3-0.9,3.5-1.3l0.4-1.6c-1.1,1.3-2.7,2.1-4.5,2.1c-1.1,0-2.1-0.3-2.8-1.1c-0.8-0.9-1.2-2.1-1.1-3.3
		c0-0.8,0.1-1.6,0.3-2.4l2.5-11.8h5.3l-2.7,12.5c-0.1,0.3-0.1,0.6-0.1,0.9c0,1.1,0.4,1.6,1.1,1.6c0.7,0,1.3-0.3,1.8-0.9
		c0.6-0.7,1-1.5,1.2-2.4l2.5-11.8h5.3l-4.5,21.4c-0.5,2.4-1.4,4-2.6,4.9c-1.2,0.9-2.6,1.4-4.1,1.4
		C750.4,478.4,749.3,478,748.5,477.3z M751.9,474.4c0.5-0.6,0.8-1.4,0.9-2.2l0.5-2.2c-1.1,0.3-2.1,0.9-3,1.5
		c-0.7,0.6-1.1,1.4-1.1,2.3c0,0.3,0.2,0.6,0.4,0.8c0.3,0.2,0.6,0.4,1,0.4C751.2,475.1,751.6,474.8,751.9,474.4z"/>
	<path class="st13" d="M54.2,49.3l-6.8-26.7c-3.2,1.1-5.9,3.2-7.8,6c-1.9,2.9-2.9,6.4-2.8,9.9c-0.1,1.2,0.1,2.5,0.5,3.7
		c0.2,0.4,0.4,0.8,0.5,1.2c-2.6,0-4.5-0.5-5.7-1.6c-1.3-1.1-1.9-2.9-1.9-5.4c0-3,1.2-6,3.7-8.9c2.7-3,5.9-5.4,9.6-7
		c3.7-1.7,7.6-2.6,11.7-2.6c0.7,0,1.6,0,2.8,0.1l6.2,25.5l10.5-25.3h4.7L65.6,49.3l-4.7,21.9H49.5L54.2,49.3z"/>
	<path class="st13" d="M75.9,68.8c-2-1.8-3.1-4.6-3.1-8.5c0.1-3.7,0.8-7.3,2-10.8c1.3-3.9,3.5-7.4,6.4-10.2c3-2.9,7-4.4,11.1-4.3
		c6.1,0,9.1,3.8,9.1,11.4v0.1c0.3,0.1,0.5,0.1,0.8,0.1c1.9-0.1,3.7-0.5,5.4-1.2c2-0.8,3.8-1.8,5.6-3l0.7,1.9
		c-1.5,1.6-3.4,2.9-5.4,3.7c-2.3,1.1-4.7,1.8-7.2,2.2c-0.3,3.9-1.3,7.8-2.9,11.3c-1.3,3-3.4,5.5-6,7.5c-2.3,1.7-5.1,2.6-8,2.6
		C80.8,71.5,78,70.6,75.9,68.8z M90.5,63.1c1.3-1.6,2.3-3.4,3-5.3c0.9-2.4,1.5-4.9,1.8-7.5c-1.3-0.3-1.9-1.3-1.9-3
		c0-2,0.7-3.2,2.2-3.8c0-1.1-0.2-2.2-0.7-3.3c-0.5-0.6-1.2-1-2-0.9c-1.6,0-3.1,1.1-4.6,3.4c-1.6,2.5-2.8,5.3-3.6,8.2
		c-0.8,2.7-1.3,5.6-1.4,8.4c0,2.3,0.3,3.8,0.8,4.6c0.7,0.9,1.8,1.3,2.8,1.2C88.5,64.9,89.7,64.2,90.5,63.1L90.5,63.1z"/>
	<path class="st13" d="M106.7,69.5c-1.4-1.4-2.1-3.6-2.1-6.4c0-1.6,0.2-3.1,0.6-4.6l4.9-22.8h10.3l-5.2,24.2
		c-0.1,0.6-0.2,1.2-0.2,1.8c0,2.1,0.7,3.1,2.1,3.1c1.3,0,2.6-0.6,3.4-1.7c1.1-1.4,1.8-2.9,2.3-4.6l4.8-22.8h10.3l-5.1,24.2
		c-0.2,0.7-0.3,1.5-0.3,2.3c-0.1,0.7,0.2,1.5,0.7,2c0.7,0.5,1.5,0.7,2.3,0.6c0.6,0,1.1,0,1.7-0.2c0.2-0.1,0.5-0.1,0.7-0.3
		c0,2.1-0.9,4.1-2.5,5.5c-1.5,1.3-3.4,1.9-5.4,1.8c-1.8,0.1-3.5-0.6-4.8-1.8c-1.3-1.4-2.1-3.1-2.2-5c-1.2,2.2-3,4-5.1,5.3
		c-1.7,0.9-3.6,1.4-5.5,1.4C110.1,71.7,108.1,70.9,106.7,69.5z"/>
	<path class="st13" d="M155.6,70.3c-1.5-0.8-2.7-2-3.5-3.4c-0.7-1.3-1.1-2.8-1.1-4.4c0-1.4,0.4-2.9,1.1-4.1c0.6-1.1,1.6-1.9,2.7-2.5
		c1.8-3.3,3.4-6.6,4.8-10.1c1.4-3.4,2.7-7.1,3.9-11l10.5-1.4c0.2,6.1,0.6,12.7,1.2,19.7c0.2,2.8,0.4,4.9,0.4,6.2
		c0,0.9-0.1,1.8-0.3,2.7c1.8-1,3.6-2.2,5.1-3.6h3c-3.1,3.6-6.8,6.6-10.9,8.9c-1.4,1.5-3.1,2.6-5.1,3.2c-2,0.7-4,1-6.1,1
		C159.4,71.7,157.4,71.2,155.6,70.3z M163.5,64.4c1.2-1,1.8-2.7,1.8-5.1c0-2-0.2-4-0.4-6c-0.5-5.4-0.8-9-0.9-10.9
		c-1.5,4.6-3.4,9.1-5.8,13.5c1,0.4,1.6,1.4,1.6,2.5c0,0.9-0.3,1.8-0.9,2.4c-0.5,0.7-1.4,1.1-2.2,1.1c-1,0-1.6-0.3-1.9-0.9
		c-0.1,1.3,0.2,2.7,1,3.8c0.9,0.9,2.1,1.3,3.3,1.2C160.7,66,162.3,65.5,163.5,64.4z"/>
	<path class="st13" d="M182,69.5c-1.4-1.4-2.1-3.6-2.1-6.4c0-1.6,0.2-3.1,0.6-4.6l4.3-20h-2.4l0.6-2.8h2.4l2.1-9.8l10.6-1.5
		l-2.4,11.2h4.3l-0.6,2.9H195l-4.6,21.3c-0.2,0.7-0.3,1.5-0.3,2.3c-0.1,0.7,0.2,1.5,0.7,2c0.7,0.5,1.4,0.7,2.2,0.6
		c1.5,0,2.8-0.7,3.8-1.7c1.2-1.3,2.1-2.8,2.6-4.5h3c-1.8,5.1-4,8.6-6.8,10.4c-2.4,1.7-5.2,2.7-8.2,2.7
		C185.5,71.7,183.5,70.9,182,69.5z"/>
	<path class="st13" d="M201.3,68.8c-1.8-1.8-2.7-4.7-2.7-8.7c0.1-3.8,0.8-7.5,2.1-11.1c1.3-3.7,3.4-7.1,6.3-9.8
		c2.6-2.6,6.2-4.1,9.9-4c1.5-0.1,3,0.2,4.3,1c0.9,0.6,1.4,1.6,1.4,2.6v0.5l0.8-3.8h10.3l-5.1,24.2c-0.2,0.7-0.3,1.5-0.3,2.3
		c0,2,1,3.1,2.9,3.1c1.4,0,2.7-0.7,3.4-1.9c1.1-1.4,1.9-3.1,2.3-4.8h3c-1.8,5.1-3.9,8.6-6.5,10.4c-2.2,1.7-5,2.7-7.8,2.7
		c-1.8,0.1-3.5-0.5-4.8-1.7c-1.3-1.3-2.1-3-2.2-4.9c-1.3,1.8-2.8,3.4-4.6,4.7c-1.8,1.2-3.9,1.9-6,1.8
		C205.5,71.7,203,70.7,201.3,68.8z M216.2,63c1.2-1.3,2.1-2.9,2.4-4.6l3.4-16.1c0-0.7-0.3-1.3-0.7-1.8c-0.6-0.6-1.4-1-2.2-0.9
		c-1.9,0-3.6,1.1-5.1,3.3c-1.6,2.4-2.8,5.2-3.6,8c-0.8,2.7-1.2,5.4-1.3,8.2c0,2.4,0.3,3.9,1,4.5c0.7,0.7,1.6,1,2.5,1
		C214,64.7,215.3,64.1,216.2,63z"/>
	<path class="st13" d="M242.1,86.8c-1.6-1.4-2.6-3.4-2.5-5.5c-0.1-1.8,0.5-3.7,1.6-5.1c1.1-1.4,2.5-2.4,4.1-3.1
		c2.2-1,4.4-1.8,6.7-2.4l0.7-3.1c-2.1,2.6-5.3,4.1-8.7,4.2c-2.1,0.1-4.1-0.7-5.5-2.1c-1.4-1.4-2.1-3.6-2.1-6.4
		c0-1.6,0.2-3.1,0.6-4.6l4.8-22.8H252l-5.1,24.2c-0.1,0.6-0.2,1.2-0.2,1.8c0,2.1,0.7,3.1,2.1,3.1c1.3,0,2.6-0.6,3.4-1.7
		c1.1-1.4,1.8-2.9,2.3-4.6l4.9-22.8h10.3L261,76.9c-1,4.5-2.6,7.7-5,9.5c-2.3,1.7-5.1,2.7-8,2.6C245.8,89,243.8,88.2,242.1,86.8z
		 M248.8,81.3c0.9-1.3,1.5-2.7,1.8-4.2l0.9-4.2c-2.1,0.6-4.1,1.7-5.8,3c-1.3,1.1-2.1,2.7-2.1,4.4c0,0.6,0.3,1.2,0.9,1.6
		c0.6,0.5,1.3,0.7,2,0.7C247.3,82.6,248.2,82.1,248.8,81.3L248.8,81.3z"/>
	<path class="st13" d="M286.9,68.8c-1.8-1.8-2.7-4.8-2.7-8.7c0.1-3.8,0.8-7.5,2.1-11.1c1.3-3.7,3.4-7.1,6.3-9.8
		c2.6-2.6,6.2-4.1,9.9-4c1.5-0.1,3,0.2,4.3,1c0.9,0.6,1.4,1.6,1.4,2.6v0.5l0.7-3.8h10.3l-5.1,24.2c-0.2,0.7-0.3,1.5-0.3,2.3
		c0,2,1,3.1,2.9,3.1c1.4,0,2.7-0.7,3.5-1.9c1.1-1.5,1.9-3.1,2.3-4.8h3c-1.8,5.1-3.9,8.6-6.5,10.4c-2.2,1.7-5,2.7-7.8,2.7
		c-1.8,0.1-3.5-0.5-4.8-1.7c-1.3-1.3-2.1-3-2.2-4.9c-1.3,1.8-2.8,3.4-4.6,4.7c-1.8,1.2-3.9,1.9-6,1.8
		C291.1,71.7,288.7,70.7,286.9,68.8z M301.8,63c1.2-1.3,2.1-2.9,2.4-4.6l3.4-16.1c0-0.7-0.3-1.3-0.7-1.8c-0.6-0.6-1.4-1-2.2-0.9
		c-1.9,0-3.6,1.1-5.1,3.3c-1.6,2.5-2.8,5.2-3.6,8c-0.8,2.7-1.2,5.4-1.3,8.2c0,2.4,0.3,3.9,1,4.5c0.7,0.7,1.6,1,2.5,1
		C299.6,64.7,300.9,64.1,301.8,63z"/>
	<path class="st13" d="M323.9,69.4c-1.2-1.7-1.9-3.8-1.8-5.8c0-1.3,0.1-2.5,0.4-3.8l4.6-21.4h-2.4l0.6-2.8h2.4l2.1-9.8l10.5-1.4
		c-0.4,1.8-0.7,2.9-0.7,3.2c-0.3,1.3-0.9,4-1.7,8.1h4.3l-0.6,2.8h-4.3l-4.6,21.3c-0.2,0.8-0.3,1.6-0.4,2.5c-0.2,1.2,0.6,2.4,1.8,2.6
		c0.2,0,0.5,0,0.7,0c0.6,0,1.2,0,1.9-0.2c-1,2.8-2.1,4.6-3.4,5.5c-1.2,0.9-2.7,1.4-4.2,1.4C327.2,71.8,325.2,71,323.9,69.4z"/>
	<path class="st13" d="M377,69.3c-1.4-1.6-2.1-3.6-2-5.7c0-1.1,0.1-2.3,0.4-3.4c0.2-1.3,0.5-2.5,0.7-3.7s0.4-1.9,0.5-2.3
		c0.4-1.7,0.7-3.3,1.1-4.9c0.3-1.3,0.5-2.6,0.5-3.9c0-2.4-0.9-3.6-2.6-3.6c-1.3,0-2.5,0.7-3.3,1.8c-1.1,1.4-1.8,3-2.3,4.7l-4.9,22.9
		H355l10.3-48.4l10.5-1.4L372,39.3c2-2.5,5.1-4,8.3-4c2.1-0.1,4.2,0.6,5.8,2c1.4,1.3,2.1,3.3,2.1,6c0,1.5-0.2,3.1-0.5,4.6
		c-0.3,1.7-0.8,3.7-1.4,6.2c-0.4,1.5-0.7,2.9-1,4.3c-0.3,1.1-0.4,2.2-0.5,3.3c-0.1,0.8,0.2,1.6,0.6,2.2c0.6,0.6,1.4,0.9,2.2,0.8
		c1.3,0.1,2.6-0.5,3.4-1.5c1.1-1.4,2-3,2.6-4.7h3c-1.8,5.3-3.8,8.8-6.1,10.6c-2,1.7-4.5,2.6-7.2,2.7C380.5,71.6,378.4,70.9,377,69.3
		z"/>
	<path class="st13" d="M395.7,68.8c-2-1.8-3.1-4.6-3.1-8.5c0.1-3.7,0.8-7.3,2-10.8c1.3-3.9,3.5-7.4,6.4-10.2c3-2.9,7-4.4,11.1-4.3
		c6.1,0,9.1,3.8,9.1,11.4v0.1c0.3,0.1,0.5,0.1,0.8,0.1c1.9-0.1,3.7-0.5,5.4-1.2c2-0.8,3.8-1.8,5.6-3l0.6,1.9
		c-1.5,1.6-3.4,2.9-5.4,3.7c-2.3,1-4.7,1.8-7.2,2.1c-0.3,3.9-1.3,7.8-2.9,11.3c-1.4,3-3.4,5.5-6,7.5c-2.3,1.7-5.1,2.6-8,2.6
		C400.5,71.5,397.7,70.6,395.7,68.8z M410.3,63.1c1.3-1.6,2.3-3.4,3-5.3c0.9-2.4,1.5-4.9,1.9-7.5c-1.3-0.3-1.9-1.3-1.9-3
		c0-2,0.7-3.2,2.2-3.8c0-1.1-0.2-2.2-0.7-3.2c-0.5-0.6-1.2-1-2-0.9c-1.6,0-3.1,1.1-4.6,3.4c-1.6,2.5-2.8,5.3-3.6,8.2
		c-0.8,2.7-1.3,5.6-1.4,8.4c0,2.3,0.3,3.8,0.8,4.6c0.7,0.9,1.8,1.3,2.9,1.2C408.2,65,409.5,64.2,410.3,63.1L410.3,63.1z"/>
	<path class="st13" d="M461.8,69.3c-1.4-1.6-2.1-3.6-2-5.7c0-1.1,0.1-2.3,0.4-3.4c0.2-1.3,0.5-2.5,0.8-3.7s0.4-1.9,0.5-2.3
		c0.4-1.7,0.7-3.3,1.1-4.9c0.3-1.3,0.5-2.6,0.5-3.9c0-2.4-0.9-3.6-2.6-3.6c-1.3,0-2.5,0.7-3.3,1.8c-1,1.4-1.8,3-2.3,4.7L450,71.2
		h-10.2l5.2-24.6c0.1-0.6,0.2-1.2,0.2-1.8c0-2.1-0.7-3.1-2.1-3.1c-1.4,0-2.7,0.7-3.5,1.8c-1.1,1.4-1.9,3.1-2.3,4.8l-4.9,22.9h-10.3
		l7.5-35.6H440l-0.8,3.7c2.2-2.6,5.3-4.1,8.7-4.1c4.2,0,6.6,2,7.3,6.1c2.6-4,5.9-6.1,9.9-6c2.1-0.1,4.2,0.6,5.8,2
		c1.4,1.3,2.1,3.3,2.1,6c0,1.5-0.2,3.1-0.5,4.6c-0.3,1.7-0.8,3.7-1.4,6.2c-0.4,1.5-0.7,2.9-1,4.3c-0.3,1.1-0.4,2.2-0.5,3.3
		c0,0.8,0.2,1.6,0.6,2.2c0.6,0.6,1.4,0.9,2.2,0.8c1.3,0.1,2.6-0.5,3.4-1.5c1.1-1.4,2-3,2.6-4.7h3c-1.7,5.2-3.8,8.7-6.1,10.5
		c-2,1.7-4.5,2.6-7.2,2.7C465.3,71.6,463.1,70.9,461.8,69.3z"/>
	<path class="st13" d="M480.4,68.9c-2-1.8-2.9-4.7-2.9-8.6c0.1-3.7,0.7-7.3,1.9-10.8c1.2-3.9,3.4-7.4,6.3-10.2
		c2.9-2.9,6.9-4.4,11-4.3c5.2,0,7.8,2.3,7.8,6.8c0,2.6-0.8,5.2-2.3,7.3c-1.5,2.3-3.6,4.1-6,5.4c-2.5,1.3-5.2,2.1-8,2.3
		c-0.1,1-0.1,1.8-0.1,2.1c0,3.9,1.5,5.9,4.4,5.9c1.5,0,2.9-0.4,4.3-1.1c1.5-0.7,2.9-1.6,4.1-2.7c-1.3,7-5.4,10.5-12.3,10.5
		C485,71.6,482.3,70.7,480.4,68.9z M493.7,51.6c1.6-1.1,2.9-2.6,3.8-4.4c1-1.7,1.5-3.6,1.5-5.6c0-1.9-0.6-2.9-1.8-2.9
		c-1.7,0-3.3,1.5-5,4.5c-1.7,3.2-2.9,6.6-3.7,10.1C490.4,53.3,492.2,52.7,493.7,51.6z"/>
	<path class="st14" d="M47.8,49.3L41,22.6c-3.2,1.1-5.9,3.2-7.8,6c-1.9,2.9-2.9,6.4-2.8,9.9c-0.1,1.2,0.1,2.5,0.5,3.7
		c0.2,0.4,0.4,0.8,0.5,1.2c-2.6,0-4.5-0.5-5.7-1.6c-1.3-1.1-1.9-2.9-1.9-5.4c0.1-3.3,1.4-6.5,3.7-8.9c2.6-3,5.9-5.4,9.6-7
		c3.7-1.7,7.6-2.6,11.7-2.6c0.7,0,1.6,0,2.8,0.1l6.2,25.5l10.5-25.3H73L59.2,49.3l-4.7,21.9H43.1L47.8,49.3z"/>
	<path class="st14" d="M69.6,68.8c-2-1.8-3.1-4.6-3.1-8.5c0.1-3.7,0.8-7.3,2-10.8c1.3-3.9,3.5-7.4,6.4-10.2c3-2.9,7-4.5,11.1-4.3
		c6.1,0,9.1,3.8,9.1,11.4v0.1c0.3,0.1,0.5,0.1,0.8,0.1c1.9-0.1,3.7-0.5,5.4-1.2c2-0.8,3.8-1.8,5.6-3l0.6,1.9
		c-1.5,1.6-3.4,2.9-5.4,3.7c-2.3,1.1-4.7,1.8-7.2,2.2c-0.3,3.9-1.3,7.7-2.9,11.3c-1.3,3-3.4,5.5-6,7.5c-2.3,1.7-5.2,2.6-8.1,2.6
		C74.4,71.5,71.6,70.6,69.6,68.8z M84.2,63.1c1.3-1.6,2.3-3.4,3-5.3c0.9-2.4,1.5-5,1.8-7.5c-1.3-0.3-1.9-1.3-1.9-3
		c0-2,0.7-3.2,2.2-3.8c0-1.1-0.2-2.2-0.7-3.2c-0.5-0.6-1.2-1-2-0.9c-1.6,0-3.1,1.1-4.6,3.4c-1.6,2.5-2.8,5.3-3.6,8.2
		c-0.8,2.7-1.3,5.6-1.3,8.4c0,2.3,0.3,3.8,0.8,4.6c0.7,0.9,1.8,1.3,2.8,1.2C82.1,65,83.3,64.2,84.2,63.1L84.2,63.1z"/>
	<path class="st14" d="M100.3,69.5c-1.4-1.4-2.1-3.6-2.1-6.4c0-1.6,0.2-3.1,0.6-4.6l4.8-22.8h10.3l-5.1,24.2
		c-0.1,0.6-0.2,1.2-0.2,1.8c0,2.1,0.7,3.1,2.1,3.1c1.3,0,2.6-0.6,3.4-1.7c1.1-1.4,1.8-2.9,2.3-4.6l4.8-22.8h10.3l-5.1,24.2
		c-0.2,0.7-0.3,1.5-0.3,2.3c-0.1,0.7,0.2,1.5,0.7,2c0.7,0.5,1.4,0.7,2.2,0.6c0.6,0,1.1,0,1.7-0.2c0.2-0.1,0.5-0.1,0.7-0.3
		c0,2.1-0.9,4.1-2.5,5.6c-1.5,1.2-3.4,1.9-5.4,1.8c-1.8,0.1-3.5-0.6-4.8-1.8c-1.3-1.4-2.1-3.1-2.2-5c-1.2,2.2-3,4-5.1,5.3
		c-1.7,0.9-3.6,1.4-5.5,1.4C103.7,71.7,101.7,70.9,100.3,69.5z"/>
	<path class="st14" d="M149.2,70.3c-1.5-0.8-2.7-2-3.5-3.4c-0.7-1.3-1.1-2.8-1.1-4.4c0-1.4,0.4-2.9,1.1-4.1c0.6-1.1,1.6-2,2.7-2.5
		c1.8-3.3,3.4-6.6,4.8-10.1c1.4-3.4,2.7-7.1,3.9-11l10.5-1.4c0.2,6.1,0.6,12.7,1.2,19.7c0.2,2.8,0.4,4.9,0.4,6.2
		c0,0.9-0.1,1.8-0.3,2.7c1.8-1,3.6-2.2,5.1-3.6h3c-3.1,3.6-6.8,6.6-10.9,8.9c-1.4,1.5-3.1,2.6-5.1,3.2c-2,0.7-4,1-6.1,1
		C153,71.7,151,71.2,149.2,70.3z M157.1,64.4c1.2-1,1.8-2.7,1.8-5.1c0-2-0.2-4-0.4-6c-0.5-5.4-0.8-9-0.9-10.9
		c-1.5,4.6-3.4,9.1-5.8,13.5c1,0.4,1.6,1.4,1.6,2.5c0,0.9-0.3,1.8-0.9,2.4c-0.5,0.7-1.4,1.1-2.2,1.1c-1,0-1.6-0.3-1.9-0.9
		c-0.1,1.3,0.2,2.7,1,3.8c0.9,0.9,2.1,1.3,3.3,1.2C154.3,66,155.9,65.5,157.1,64.4z"/>
	<path class="st14" d="M175.6,69.5c-1.4-1.4-2.1-3.6-2.1-6.4c0-1.6,0.2-3.1,0.6-4.6l4.3-20H176l0.6-2.8h2.4l2.1-9.8l10.5-1.4
		l-2.4,11.2h4.3l-0.6,2.9h-4.3L184,59.8c-0.2,0.7-0.3,1.5-0.3,2.3c-0.1,0.7,0.2,1.5,0.7,2c0.7,0.5,1.4,0.7,2.2,0.6
		c1.5,0,2.9-0.7,3.9-1.7c1.2-1.3,2.1-2.8,2.6-4.5h3c-1.8,5.1-4,8.6-6.8,10.4c-2.4,1.7-5.2,2.7-8.2,2.7
		C179,71.7,177.1,70.9,175.6,69.5z"/>
	<path class="st14" d="M194.9,68.8c-1.8-1.8-2.7-4.8-2.7-8.7c0.1-3.8,0.8-7.5,2.1-11.1c1.3-3.7,3.4-7.1,6.3-9.8
		c2.6-2.6,6.2-4.1,9.9-4c1.5-0.1,3,0.2,4.4,1c0.9,0.6,1.4,1.6,1.4,2.6v0.5l0.8-3.8h10.3l-5.1,24.2c-0.2,0.7-0.3,1.5-0.3,2.3
		c0,2,1,3.1,2.9,3.1c1.4,0,2.7-0.7,3.5-1.9c1.1-1.5,1.9-3.1,2.3-4.8h3c-1.8,5.1-3.9,8.6-6.5,10.4c-2.2,1.7-5,2.7-7.8,2.7
		c-1.8,0.1-3.5-0.5-4.8-1.7c-1.3-1.3-2.1-3-2.2-4.9c-1.3,1.8-2.8,3.4-4.6,4.7c-1.8,1.2-3.9,1.9-6,1.8
		C199.1,71.7,196.6,70.7,194.9,68.8z M209.8,63c1.2-1.3,2.1-2.9,2.4-4.6l3.4-16.1c0-0.7-0.3-1.3-0.7-1.8c-0.6-0.6-1.4-1-2.2-0.9
		c-1.9,0-3.6,1.1-5.1,3.3c-1.6,2.5-2.8,5.2-3.6,8c-0.8,2.7-1.2,5.4-1.3,8.2c0,2.4,0.4,3.9,1,4.5c0.7,0.7,1.6,1,2.5,1
		C207.6,64.7,208.9,64.1,209.8,63z"/>
	<path class="st14" d="M235.8,86.8c-1.6-1.4-2.6-3.4-2.5-5.5c-0.1-1.8,0.5-3.6,1.6-5.1c1.1-1.4,2.5-2.4,4.1-3.1
		c2.2-1,4.4-1.8,6.7-2.4l0.7-3.1c-2.1,2.6-5.3,4.1-8.7,4.1c-2.1,0.1-4.1-0.7-5.5-2.1c-1.4-1.4-2.1-3.6-2.1-6.4
		c0-1.6,0.2-3.1,0.6-4.6l4.8-22.8h10.3l-5.1,24.2c-0.1,0.6-0.2,1.2-0.2,1.8c0,2.1,0.7,3.1,2.1,3.1c1.3,0,2.6-0.6,3.4-1.7
		c1.1-1.4,1.8-2.9,2.3-4.6l4.9-22.8h10.3l-8.7,41.3c-0.9,4.5-2.6,7.7-5,9.5c-2.3,1.7-5.1,2.6-7.9,2.6
		C239.5,89,237.4,88.2,235.8,86.8z M242.4,81.3c0.9-1.3,1.5-2.7,1.8-4.2l0.9-4.2c-2.1,0.6-4.1,1.7-5.8,3c-1.3,1.1-2.1,2.7-2.1,4.4
		c0,0.6,0.3,1.2,0.9,1.6c0.6,0.5,1.3,0.7,2,0.7C241,82.6,241.8,82.1,242.4,81.3L242.4,81.3z"/>
	<path class="st14" d="M280.5,68.8c-1.8-1.8-2.7-4.7-2.7-8.7c0.1-3.8,0.8-7.5,2.1-11.1c1.3-3.7,3.4-7.1,6.3-9.8
		c2.6-2.6,6.2-4.1,9.9-4c1.5-0.1,3,0.2,4.4,1c0.9,0.6,1.4,1.6,1.4,2.6v0.5l0.8-3.8h10.3l-5.1,24.2c-0.2,0.7-0.3,1.5-0.3,2.3
		c0,2,1,3.1,2.9,3.1c1.4,0,2.7-0.7,3.5-1.9c1.1-1.5,1.9-3.1,2.3-4.8h3c-1.7,5.1-3.9,8.6-6.5,10.4c-2.2,1.7-5,2.7-7.8,2.7
		c-1.8,0.1-3.5-0.5-4.8-1.7c-1.3-1.3-2.1-3-2.2-4.9c-1.3,1.8-2.8,3.4-4.6,4.7c-1.8,1.2-3.9,1.9-6,1.8
		C284.7,71.7,282.3,70.7,280.5,68.8z M295.4,63c1.2-1.3,2.1-2.9,2.4-4.6l3.4-16.1c0-0.7-0.3-1.3-0.7-1.8c-0.6-0.6-1.4-1-2.2-0.9
		c-1.9,0-3.6,1.1-5.1,3.3c-1.6,2.4-2.8,5.2-3.6,8c-0.8,2.7-1.2,5.4-1.3,8.2c0,2.4,0.4,3.9,1,4.5c0.7,0.7,1.6,1,2.5,1
		C293.2,64.7,294.5,64.1,295.4,63L295.4,63z"/>
	<path class="st14" d="M317.5,69.4c-1.2-1.7-1.8-3.8-1.7-5.8c0-1.3,0.1-2.5,0.4-3.8l4.6-21.4h-2.4l0.6-2.8h2.4l2.1-9.8l10.5-1.5
		c-0.4,1.8-0.7,2.9-0.7,3.2c-0.3,1.3-0.9,4-1.7,8h4.3l-0.6,2.9H331l-4.6,21.3c-0.2,0.8-0.3,1.6-0.4,2.5c-0.2,1.2,0.6,2.4,1.9,2.6
		c0.2,0,0.4,0,0.6,0c0.6,0,1.2,0,1.9-0.2c-0.9,2.8-2.1,4.6-3.3,5.6c-1.2,0.9-2.7,1.4-4.2,1.4C320.8,71.8,318.8,71,317.5,69.4z"/>
	<path class="st14" d="M370.6,69.3c-1.4-1.6-2.1-3.6-2-5.7c0-1.1,0.1-2.3,0.4-3.4c0.2-1.3,0.5-2.5,0.8-3.7s0.4-1.9,0.5-2.3
		c0.4-1.7,0.7-3.3,1.1-4.9c0.3-1.3,0.5-2.6,0.5-3.9c0-2.4-0.9-3.6-2.6-3.6c-1.3,0.1-2.5,0.7-3.2,1.8c-1.1,1.4-1.8,3-2.3,4.7
		l-4.9,22.9h-10.3l10.3-48.4l10.5-1.4l-3.9,17.9c2-2.5,5.1-4,8.3-4c2.1-0.1,4.2,0.6,5.8,2c1.4,1.3,2.1,3.4,2.1,6
		c0,1.5-0.2,3.1-0.5,4.6c-0.3,1.7-0.8,3.7-1.4,6.2c-0.4,1.5-0.7,2.9-1,4.3c-0.3,1.1-0.4,2.2-0.5,3.3c-0.1,0.8,0.2,1.6,0.6,2.2
		c0.6,0.6,1.4,0.9,2.2,0.8c1.3,0,2.6-0.5,3.4-1.5c1.1-1.4,2-3,2.6-4.7h3c-1.8,5.2-3.8,8.7-6.1,10.5c-2,1.7-4.5,2.7-7.2,2.7
		C374.1,71.6,372,70.9,370.6,69.3z"/>
	<path class="st14" d="M389.3,68.8c-2-1.8-3.1-4.6-3.1-8.5c0.1-3.7,0.8-7.3,2-10.8c1.3-3.9,3.5-7.4,6.4-10.2c3-2.9,7-4.4,11.1-4.3
		c6.1,0,9.1,3.8,9.1,11.4v0.1c0.3,0.1,0.5,0.1,0.8,0.1c1.9-0.1,3.7-0.5,5.4-1.2c2-0.8,3.8-1.8,5.5-3l0.6,1.9
		c-1.5,1.6-3.4,2.9-5.4,3.7c-2.3,1.1-4.7,1.8-7.2,2.2c-0.3,3.9-1.3,7.8-2.9,11.3c-1.4,3-3.4,5.5-6,7.5c-2.3,1.7-5.2,2.6-8,2.6
		C394.1,71.5,391.3,70.6,389.3,68.8z M403.9,63.1c1.3-1.6,2.3-3.4,3-5.3c0.9-2.4,1.5-4.9,1.9-7.5c-1.3-0.3-1.9-1.3-1.9-3
		c0-2,0.7-3.2,2.2-3.8c0-1.1-0.2-2.2-0.7-3.2c-0.5-0.6-1.2-1-2-0.9c-1.6,0-3.1,1.1-4.6,3.4c-1.6,2.5-2.8,5.3-3.6,8.2
		c-0.8,2.7-1.3,5.6-1.4,8.4c0,2.3,0.3,3.8,0.8,4.6c0.7,0.9,1.8,1.3,2.9,1.2C401.9,65,403.1,64.2,403.9,63.1L403.9,63.1z"/>
	<path class="st14" d="M455.4,69.3c-1.4-1.6-2.1-3.6-2-5.7c0-1.1,0.1-2.3,0.4-3.4c0.2-1.3,0.5-2.5,0.8-3.7s0.4-1.9,0.5-2.3
		c0.4-1.7,0.7-3.3,1.1-4.9c0.3-1.3,0.5-2.6,0.5-3.9c0-2.4-0.9-3.6-2.6-3.6c-1.3,0-2.5,0.7-3.3,1.8c-1.1,1.4-1.8,3-2.3,4.7l-4.8,22.9
		h-10.3l5.2-24.6c0.1-0.6,0.2-1.2,0.2-1.8c0-2.1-0.7-3.1-2.1-3.1c-1.4,0-2.7,0.7-3.5,1.8c-1.1,1.4-1.9,3.1-2.3,4.8L426,71.2h-10.2
		l7.5-35.6h10.3l-0.8,3.7c2.2-2.6,5.3-4.1,8.7-4.1c4.2,0,6.6,2,7.3,6.1c2.6-4,5.9-6.1,9.9-6c2.1-0.1,4.2,0.6,5.8,2
		c1.4,1.3,2.1,3.3,2.1,6c0,1.5-0.2,3.1-0.5,4.6c-0.3,1.7-0.8,3.7-1.4,6.2c-0.4,1.5-0.7,2.9-1,4.3c-0.3,1.1-0.4,2.2-0.5,3.3
		c-0.1,0.8,0.2,1.6,0.6,2.2c0.6,0.6,1.4,0.9,2.2,0.8c1.3,0,2.6-0.5,3.4-1.5c1.1-1.4,1.9-3,2.5-4.7h3c-1.8,5.2-3.8,8.7-6.1,10.5
		c-2,1.7-4.5,2.6-7.2,2.7C458.9,71.6,456.8,70.9,455.4,69.3z"/>
	<path class="st14" d="M474,68.9c-2-1.8-3-4.7-3-8.6c0.1-3.7,0.8-7.3,2-10.8c1.2-3.9,3.4-7.4,6.3-10.2c2.9-2.9,6.9-4.4,11-4.3
		c5.2,0,7.8,2.3,7.8,6.8c0,2.6-0.8,5.2-2.3,7.3c-1.6,2.3-3.6,4.1-6,5.4c-2.5,1.3-5.2,2.1-8,2.3c-0.1,1-0.1,1.8-0.1,2.1
		c0,3.9,1.5,5.9,4.4,5.9c1.5,0,2.9-0.4,4.2-1.1c1.5-0.7,2.9-1.6,4.1-2.7c-1.3,7-5.4,10.5-12.3,10.5C478.6,71.6,475.9,70.7,474,68.9z
		 M487.4,51.6c1.6-1.1,2.9-2.6,3.8-4.4c1-1.7,1.5-3.6,1.5-5.6c0-1.9-0.6-2.9-1.8-2.9c-1.7,0-3.3,1.5-4.9,4.5
		c-1.7,3.2-2.9,6.6-3.7,10.1C484.1,53.3,485.8,52.7,487.4,51.6L487.4,51.6z"/>
	<path class="st13" d="M462.9,108.8c-3,1.1-5.5,3-7.3,5.6c-1.8,2.7-2.7,5.9-2.6,9.2c-0.1,1.2,0.1,2.3,0.5,3.4
		c0.2,0.3,0.3,0.7,0.5,1.1c-1.9,0.1-3.8-0.4-5.4-1.5c-1.2-1-1.8-2.7-1.8-5c0.1-3.1,1.3-6,3.5-8.3c5.1-5.6,12.3-8.8,19.9-9
		c0.6,0,1.5,0,2.7,0.1l0.6,40.9l14-40.7h8.5l0.6,40.7l14-40.7h4.7l-18.5,49.6H487l-0.8-33.9l-12.6,33.9H464L462.9,108.8z"/>
	<path class="st13" d="M512.2,152.1c-1.8-1.7-2.7-4.4-2.7-8c0.1-3.4,0.7-6.9,1.8-10.1c1.2-3.6,3.2-6.9,5.9-9.6
		c2.7-2.7,6.5-4.1,10.3-4c4.9,0,7.3,2.1,7.3,6.4c0,2.4-0.7,4.8-2.1,6.9c-1.5,2.1-3.4,3.8-5.7,5c-2.3,1.3-4.9,2-7.5,2.2
		c-0.1,1-0.1,1.6-0.1,2c0,3.7,1.4,5.5,4.1,5.5c1.4,0,2.8-0.4,4-1c1.4-0.7,2.7-1.5,3.8-2.5c-1.2,6.6-5,9.9-11.5,9.9
		C516.6,154.6,514.1,153.8,512.2,152.1z M524.7,135.9c1.5-1.1,2.7-2.5,3.6-4.1c0.9-1.6,1.4-3.4,1.4-5.2c0-1.8-0.5-2.7-1.7-2.7
		c-1.5,0-3.1,1.4-4.6,4.2c-1.6,3-2.7,6.2-3.4,9.5C521.7,137.5,523.3,136.9,524.7,135.9L524.7,135.9z"/>
	<path class="st13" d="M565.6,151.6l-0.5,2.7h-9.6l9-42.3l9.8-1.3l-8,37.3c1.1,0.8,2.4,1.3,3.8,1.3c2.5,0,4.7-1.5,6.7-4.4
		c2.1-3.4,3.7-7.2,4.5-11.2c1.1-4.5,1.7-9,1.7-13.7c0-4.4-0.9-7.5-2.6-9.6c-1.8-2-4.4-3.2-7.2-3c-3.1,0-6.2,0.6-9,2
		c-2.6,1.2-4.7,3.2-6.2,5.6c-1.5,2.6-2.3,5.6-2.3,8.6c-0.1,1.2,0.1,2.3,0.5,3.4c0.2,0.3,0.4,0.7,0.5,1.1c-1.9,0.1-3.7-0.4-5.3-1.5
		c-1.2-1-1.8-2.6-1.8-4.7c0-3.2,1.2-6.3,3.4-8.7c2.5-2.9,5.6-5.1,9.1-6.5c3.9-1.7,8.1-2.5,12.3-2.5c6.1,0,10.5,1.8,13.4,5.4
		c2.9,3.6,4.3,8.2,4.3,13.8c0,5.1-0.9,10.1-2.6,14.9c-1.4,4.4-3.8,8.5-6.8,12c-2.8,3.1-5.8,4.7-9,4.7
		C571,155.1,568.3,153.9,565.6,151.6z"/>
	<path class="st13" d="M595.2,152.1c-1.8-1.7-2.7-4.4-2.7-8c0.1-3.4,0.7-6.9,1.8-10.1c1.2-3.6,3.2-6.9,5.8-9.6
		c2.7-2.7,6.5-4.1,10.3-4c4.9,0,7.3,2.1,7.3,6.4c0,2.5-0.7,4.8-2.1,6.9c-1.4,2.1-3.4,3.8-5.7,5c-2.3,1.3-4.9,2-7.5,2.2
		c-0.1,1.3-0.1,2.2-0.1,2.7c0,2.2,0.4,3.6,1.1,4.4c1,0.9,2.3,1.3,3.7,1.1c2.2,0.1,4.3-0.5,6.2-1.7c2.1-1.4,4-3.1,5.6-5.1h2.3
		c-4.9,8.2-11,12.3-18.3,12.3C599.6,154.6,597,153.8,595.2,152.1z M607.7,135.9c1.5-1.1,2.7-2.5,3.6-4.1c0.9-1.6,1.4-3.4,1.4-5.2
		c0-1.8-0.6-2.7-1.7-2.7c-1.6,0-3.2,1.4-4.7,4.2c-1.6,3-2.7,6.2-3.3,9.5C604.7,137.5,606.3,136.9,607.7,135.9z"/>
	<path class="st13" d="M620.3,152.6c-1.3-1.3-2-3.3-2-6c0-1.5,0.2-2.9,0.5-4.3L626,109l9.8-1.3l-7.7,35.9c-0.2,0.7-0.3,1.4-0.3,2.1
		c-0.1,0.7,0.2,1.4,0.6,1.9c0.6,0.4,1.4,0.6,2.1,0.6c1.4,0,2.7-0.6,3.6-1.6c1.2-1.2,2-2.6,2.4-4.2h2.8c-1.6,4.8-3.7,8-6.3,9.8
		c-2.2,1.6-4.9,2.5-7.7,2.6C623.5,154.7,621.7,154,620.3,152.6z"/>
	<path class="st13" d="M638.1,152.6c-1.3-1.3-2-3.3-2-6c0-1.5,0.2-2.9,0.5-4.3l4.6-21.3h9.6l-4.7,22.6c-0.2,0.7-0.3,1.4-0.3,2.1
		c-0.1,0.7,0.2,1.4,0.6,1.9c0.6,0.4,1.4,0.6,2.1,0.6c1.4,0,2.7-0.6,3.6-1.6c1.2-1.2,2-2.6,2.4-4.2h2.8c-1.6,4.8-3.7,8-6.3,9.8
		c-2.2,1.6-4.9,2.5-7.7,2.6C641.3,154.7,639.4,154,638.1,152.6z M644,115.8c-1-1-1.6-2.3-1.5-3.7c0-1.4,0.5-2.8,1.5-3.8
		c1-1,2.3-1.6,3.7-1.6c2.9,0,5.3,2.4,5.3,5.3c0,1.4-0.5,2.8-1.6,3.7c-1,1-2.3,1.6-3.8,1.5C646.3,117.4,645,116.8,644,115.8z"/>
	<path class="st13" d="M656,152.6c-1.4-1.3-2.2-3.3-2.2-5.9c0-1.1,0.1-2.1,0.3-3.2l4.7-22.6h9.6l-4.8,22.6c-0.2,0.8-0.3,1.6-0.3,2.4
		c-0.1,1.1,0.7,2.1,1.8,2.2c0.2,0,0.3,0,0.5,0c2,0,3.9-1.3,5.7-3.9c1.9-2.8,3.3-5.9,4.2-9.2c1-3,1.5-6.1,1.6-9.2
		c-0.1,0.2-0.4,0.4-0.9,0.5c-0.4,0.1-0.8,0.2-1.3,0.2c-0.7,0-1.4-0.4-1.8-1.1c-0.4-0.7-0.6-1.5-0.6-2.3c0-1,0.3-1.9,1-2.6
		c0.9-0.7,2-1.1,3.1-1c1.3-0.1,2.5,0.5,3.2,1.6c0.7,1.3,1.1,2.7,1,4.2c-0.1,4.3-0.8,8.7-2.1,12.8c-1.2,4.3-3.4,8.2-6.3,11.6
		c-2.6,3.1-6.5,4.8-10.5,4.8C659.8,154.7,657.7,154,656,152.6z"/>
	<path class="st13" d="M683.8,152.1c-1.8-1.7-2.7-4.4-2.7-8c0.1-3.4,0.7-6.9,1.8-10.1c1.2-3.6,3.2-6.9,5.8-9.6
		c2.7-2.7,6.5-4.1,10.3-4c4.9,0,7.3,2.1,7.3,6.4c0,2.4-0.7,4.8-2.1,6.9c-1.5,2.1-3.4,3.8-5.7,5c-2.3,1.3-4.9,2-7.5,2.2
		c-0.1,1.3-0.1,2.2-0.1,2.7c0,2.2,0.4,3.6,1.1,4.4c1,0.9,2.3,1.3,3.7,1.2c2.2,0.1,4.3-0.5,6.2-1.7c2.1-1.4,4-3.1,5.6-5.1h2.3
		c-4.9,8.2-11,12.3-18.3,12.3C688.2,154.6,685.6,153.8,683.8,152.1z M696.3,135.9c1.5-1.1,2.7-2.5,3.6-4.1c0.9-1.6,1.4-3.4,1.4-5.2
		c0-1.8-0.5-2.7-1.7-2.7c-1.6,0-3.2,1.4-4.7,4.2c-1.6,3-2.7,6.2-3.3,9.5C693.3,137.5,694.9,136.9,696.3,135.9L696.3,135.9z"/>
	<path class="st13" d="M712,121h9.6l-0.9,4.1c1.3-1.1,2.6-2.2,4.1-3.1c1.2-0.7,2.6-1.1,4-1.1c1.3-0.1,2.5,0.5,3.4,1.5
		c0.8,1,1.3,2.2,1.2,3.5c0,1.2-0.4,2.5-1.3,3.4c-0.9,1-2.2,1.5-3.5,1.5c-0.7,0.1-1.5-0.2-2-0.7c-0.4-0.6-0.6-1.3-0.8-2
		c-0.1-0.4-0.2-0.9-0.4-1.3c-0.1-0.3-0.4-0.4-0.7-0.4c-0.8,0-1.6,0.2-2.4,0.6c-0.9,0.6-1.7,1.3-2.5,2l-5.3,25.3H705L712,121z"/>
	<path class="st14" d="M455,108.8c-3,1.1-5.5,3-7.3,5.6c-1.8,2.7-2.7,5.9-2.6,9.2c-0.1,1.2,0.1,2.3,0.5,3.4c0.2,0.3,0.4,0.7,0.5,1.1
		c-1.9,0.1-3.8-0.4-5.4-1.5c-1.2-1-1.8-2.7-1.8-5c0.1-3.1,1.3-6,3.5-8.3c5.1-5.6,12.3-8.8,19.9-9c0.6,0,1.5,0,2.7,0.1l0.6,40.9
		l14-40.7h8.5l0.6,40.7l14-40.7h4.6l-18.5,49.6h-9.6l-0.8-33.9l-12.6,33.9H456L455,108.8z"/>
	<path class="st14" d="M504.3,152.1c-1.8-1.7-2.7-4.4-2.7-8c0.1-3.4,0.7-6.9,1.8-10.1c1.2-3.6,3.2-6.9,5.9-9.6
		c2.7-2.7,6.5-4.1,10.3-4c4.9,0,7.3,2.1,7.3,6.4c0,2.5-0.7,4.8-2.1,6.9c-1.5,2.1-3.4,3.8-5.7,5c-2.3,1.3-4.9,2-7.5,2.2
		c-0.1,1-0.1,1.6-0.1,2c0,3.7,1.4,5.5,4.1,5.5c1.4,0,2.8-0.4,4-1c1.4-0.7,2.7-1.5,3.9-2.5c-1.2,6.6-5,9.9-11.5,9.9
		C508.6,154.6,506.1,153.8,504.3,152.1z M516.8,135.9c1.5-1.1,2.7-2.5,3.6-4.1c0.9-1.6,1.4-3.4,1.4-5.2c0-1.8-0.5-2.7-1.7-2.7
		c-1.5,0-3.1,1.4-4.6,4.2c-1.6,3-2.7,6.2-3.4,9.5C513.7,137.5,515.4,136.9,516.8,135.9z"/>
	<path class="st14" d="M557.6,151.6l-0.5,2.7h-9.6l9-42.3l9.8-1.3l-8,37.3c1.1,0.8,2.4,1.3,3.8,1.3c2.5,0,4.8-1.5,6.7-4.4
		c2.1-3.4,3.7-7.2,4.5-11.2c1.1-4.5,1.6-9.1,1.7-13.7c0-4.4-0.9-7.5-2.6-9.6c-1.8-2-4.4-3.2-7.2-3c-3.1,0-6.2,0.6-9,2
		c-2.6,1.2-4.7,3.2-6.2,5.6c-1.5,2.6-2.3,5.6-2.3,8.6c-0.1,1.2,0.1,2.3,0.5,3.4c0.2,0.3,0.4,0.7,0.5,1.1c-1.9,0.1-3.7-0.4-5.3-1.5
		c-1.2-1-1.8-2.6-1.8-4.7c0.1-3.2,1.3-6.2,3.4-8.6c2.5-2.9,5.6-5.1,9.1-6.5c3.9-1.7,8.1-2.5,12.3-2.5c6.1,0,10.6,1.8,13.4,5.4
		c2.9,3.6,4.3,8.2,4.3,13.8c0,5.1-0.9,10.1-2.6,14.9c-1.4,4.4-3.8,8.5-6.8,12c-2.8,3.1-5.8,4.7-9,4.7
		C563.1,155.1,560.4,153.9,557.6,151.6z"/>
	<path class="st14" d="M587.2,152.1c-1.8-1.7-2.7-4.4-2.7-8c0.1-3.4,0.7-6.9,1.8-10.1c1.2-3.6,3.2-6.9,5.9-9.6
		c2.7-2.7,6.5-4.1,10.3-4c4.9,0,7.3,2.1,7.3,6.4c0,2.5-0.7,4.8-2.1,6.9c-1.5,2.1-3.4,3.8-5.7,5c-2.3,1.3-4.9,2-7.5,2.2
		c-0.1,1.3-0.1,2.2-0.1,2.7c0,2.2,0.4,3.6,1.1,4.4c1,0.9,2.3,1.3,3.7,1.2c2.2,0.1,4.3-0.5,6.2-1.7c2.1-1.4,4-3.1,5.6-5.1h2.3
		c-4.9,8.2-11,12.3-18.3,12.3C591.6,154.6,589.1,153.8,587.2,152.1z M599.7,135.9c1.5-1.1,2.7-2.5,3.6-4.1c0.9-1.6,1.4-3.4,1.4-5.2
		c0-1.8-0.5-2.7-1.7-2.7c-1.6,0-3.2,1.4-4.7,4.2c-1.6,3-2.7,6.2-3.3,9.5C596.7,137.5,598.3,136.9,599.7,135.9L599.7,135.9z"/>
	<path class="st14" d="M612.3,152.6c-1.3-1.3-2-3.3-2-6c0-1.5,0.2-2.9,0.5-4.3L618,109l9.8-1.3l-7.7,35.9c-0.2,0.7-0.3,1.4-0.3,2.1
		c-0.1,0.7,0.2,1.4,0.6,1.9c0.6,0.4,1.3,0.6,2.1,0.6c1.4,0,2.7-0.6,3.6-1.6c1.2-1.2,2-2.6,2.4-4.2h2.8c-1.6,4.8-3.7,8-6.3,9.8
		c-2.2,1.6-4.9,2.5-7.7,2.6C615.6,154.7,613.7,154,612.3,152.6z"/>
	<path class="st14" d="M630.1,152.6c-1.3-1.3-2-3.3-2-6c0-1.5,0.2-2.9,0.5-4.3l4.6-21.3h9.6l-4.8,22.6c-0.2,0.7-0.3,1.4-0.3,2.1
		c-0.1,0.7,0.2,1.4,0.6,1.9c0.6,0.4,1.3,0.6,2.1,0.6c1.4,0,2.7-0.6,3.6-1.6c1.2-1.2,2-2.6,2.4-4.2h2.8c-1.6,4.8-3.7,8-6.3,9.8
		c-2.2,1.6-4.9,2.5-7.7,2.6C633.3,154.7,631.5,154,630.1,152.6z M636.1,115.8c-1-1-1.6-2.3-1.5-3.7c0-1.4,0.5-2.8,1.5-3.8
		c1-1,2.3-1.6,3.7-1.6c2.9,0,5.3,2.4,5.3,5.3c0,1.4-0.5,2.8-1.6,3.7c-1,1-2.4,1.6-3.8,1.5C638.4,117.4,637,116.8,636.1,115.8z"/>
	<path class="st14" d="M648,152.6c-1.4-1.3-2.2-3.3-2.2-5.9c0-1.1,0.1-2.1,0.3-3.2L651,121h9.6l-4.8,22.6c-0.2,0.8-0.3,1.6-0.3,2.4
		c-0.1,1.1,0.7,2.1,1.8,2.2c0.2,0,0.3,0,0.5,0c2,0,3.9-1.3,5.7-3.9c1.9-2.8,3.3-5.9,4.2-9.2c1-3,1.5-6.1,1.6-9.2
		c-0.1,0.2-0.4,0.4-0.9,0.5c-0.4,0.1-0.8,0.2-1.3,0.2c-0.7,0-1.4-0.4-1.8-1.1c-0.4-0.7-0.6-1.5-0.6-2.3c0-1,0.3-1.9,1-2.6
		c0.9-0.7,2-1.1,3.1-1c1.3-0.1,2.5,0.5,3.2,1.6c0.7,1.3,1.1,2.7,1,4.2c-0.1,4.3-0.8,8.7-2.1,12.8c-1.2,4.3-3.4,8.3-6.3,11.6
		c-2.6,3.1-6.5,4.8-10.6,4.8C651.8,154.7,649.7,154,648,152.6z"/>
	<path class="st14" d="M675.8,152.1c-1.8-1.7-2.7-4.4-2.7-8c0.1-3.4,0.7-6.9,1.8-10.1c1.2-3.6,3.2-6.9,5.9-9.6
		c2.7-2.7,6.5-4.1,10.3-4c4.9,0,7.3,2.1,7.3,6.4c0,2.5-0.7,4.8-2.1,6.9c-1.5,2.1-3.4,3.8-5.7,5c-2.3,1.3-4.9,2-7.5,2.2
		c-0.1,1.3-0.1,2.2-0.1,2.7c0,2.2,0.4,3.6,1.1,4.4c1,0.9,2.3,1.3,3.7,1.2c2.2,0.1,4.3-0.5,6.2-1.7c2.1-1.4,4-3.1,5.6-5.1h2.3
		c-4.9,8.2-11,12.3-18.3,12.3C680.2,154.6,677.7,153.8,675.8,152.1z M688.3,135.9c1.5-1.1,2.7-2.5,3.6-4.1c0.9-1.6,1.4-3.4,1.4-5.2
		c0-1.8-0.5-2.7-1.7-2.7c-1.6,0-3.2,1.4-4.7,4.2c-1.6,3-2.7,6.2-3.3,9.5C685.3,137.5,687,136.9,688.3,135.9z"/>
	<path class="st14" d="M704,121h9.6l-0.9,4.1c1.3-1.2,2.6-2.2,4.1-3.1c1.2-0.7,2.6-1.1,4-1.1c1.3-0.1,2.5,0.5,3.4,1.5
		c0.8,1,1.3,2.2,1.2,3.5c0,1.2-0.4,2.5-1.3,3.4c-0.9,1-2.2,1.5-3.5,1.5c-0.7,0.1-1.5-0.2-2-0.7c-0.4-0.6-0.6-1.3-0.8-2
		c-0.1-0.4-0.2-0.9-0.4-1.3c-0.1-0.3-0.4-0.4-0.7-0.4c-0.8,0-1.6,0.2-2.4,0.6c-0.9,0.6-1.7,1.2-2.5,2l-5.3,25.3H697L704,121z"/>
	<path class="st13" d="M555.3,553.2c-2.5,0-4.9,1.1-6.4,3.2c-1.5,2-2.2,5.6-2.2,10.6c-0.1,1.2,0.1,2.3,0.5,3.4
		c0.2,0.3,0.4,0.7,0.5,1.1c-1.9,0.1-3.8-0.4-5.4-1.5c-1.2-1-1.8-2.7-1.8-5c-0.2-6.5,3.7-12.4,9.7-14.9c3.4-1.6,7.7-2.4,12.9-2.4
		c1.4,0,2.8,0.1,4.3,0.3c3.2,0.3,5.5,0.5,6.8,0.5c2,0,4.1-0.2,6-0.8c-0.1,0.4-0.4,1.3-0.7,2.6c-0.3,1.3-1,2.5-1.9,3.5
		c-1,1-2.3,1.7-3.7,1.9c-3.1-0.1-6.3-0.5-9.3-1.3l-2.8,13.2h9.7l-1.1,4.9h-9.7l-5.4,25h-9.6L555.3,553.2z"/>
	<path class="st13" d="M572.3,595.4c-1.9-1.7-2.9-4.4-2.9-8c0.1-3.4,0.7-6.8,1.9-10c1.2-3.6,3.3-6.9,6-9.5c2.8-2.7,6.5-4.1,10.4-4
		c5.7,0,8.5,3.5,8.5,10.6v0.1c0.2,0,0.5,0.1,0.7,0.1c1.7-0.1,3.5-0.5,5.1-1.2c1.8-0.7,3.6-1.7,5.2-2.8l0.6,1.8
		c-1.4,1.5-3.1,2.7-5,3.5c-2.1,1-4.4,1.6-6.8,2c-0.3,3.7-1.2,7.2-2.7,10.6c-1.3,2.8-3.2,5.2-5.7,7c-2.2,1.6-4.8,2.5-7.5,2.5
		C577.3,598.1,574.5,597.2,572.3,595.4z M585.9,590.1c1.2-1.5,2.2-3.2,2.8-5c0.8-2.3,1.4-4.6,1.7-7c-1.2-0.3-1.8-1.2-1.8-2.8
		c-0.2-1.5,0.7-3,2.1-3.6c0-1-0.2-2.1-0.7-3c-0.4-0.6-1.1-0.9-1.9-0.8c-1.5,0-2.9,1.1-4.3,3.2c-1.5,2.4-2.6,4.9-3.3,7.7
		c-0.8,2.5-1.2,5.2-1.3,7.8c0,2.1,0.2,3.6,0.7,4.3c0.6,0.8,1.6,1.2,2.7,1.1C584,591.9,585.2,591.2,585.9,590.1z"/>
	<path class="st13" d="M604.1,564.4h9.6l-0.9,4.1c1.3-1.1,2.6-2.2,4.1-3.1c1.2-0.7,2.6-1.1,4-1.1c1.3-0.1,2.5,0.5,3.4,1.5
		c0.8,1,1.3,2.2,1.2,3.5c0,1.3-0.4,2.5-1.3,3.4c-0.9,1-2.2,1.5-3.5,1.5c-0.7,0.1-1.5-0.1-2-0.7c-0.4-0.6-0.7-1.3-0.8-2
		c-0.1-0.4-0.2-0.9-0.4-1.3c-0.1-0.3-0.4-0.4-0.7-0.4c-0.8,0-1.6,0.2-2.4,0.6c-0.9,0.6-1.7,1.2-2.5,2l-5.3,25.3H597L604.1,564.4z"/>
	<path class="st13" d="M640.7,595.5c-1.7-1.7-2.5-4.4-2.5-8.1c0.1-3.5,0.7-7,2-10.3c1.2-3.5,3.2-6.6,5.8-9.2
		c2.5-2.4,5.8-3.8,9.3-3.8c1.4-0.1,2.8,0.2,4.1,0.9c0.8,0.5,1.3,1.5,1.3,2.5v0.5l0.7-3.5h9.6l-4.8,22.6c-0.2,0.7-0.3,1.4-0.3,2.1
		c0,1.9,0.9,2.9,2.7,2.9c1.3,0,2.5-0.7,3.2-1.7c1-1.4,1.7-2.9,2.2-4.5h2.8c-1.6,4.8-3.7,8-6.1,9.8c-2.1,1.6-4.6,2.5-7.3,2.6
		c-1.6,0.1-3.2-0.5-4.4-1.5c-1.2-1.2-1.9-2.8-2-4.5c-1.2,1.7-2.6,3.2-4.3,4.4c-1.6,1.2-3.6,1.7-5.6,1.7
		C644.7,598.1,642.4,597.2,640.7,595.5z M654.6,590c1.2-1.2,1.9-2.7,2.2-4.3l3.2-15c0-0.6-0.3-1.2-0.7-1.7c-0.5-0.6-1.3-0.9-2.1-0.8
		c-1.8,0-3.4,1-4.8,3.1c-1.5,2.3-2.6,4.8-3.3,7.5c-0.7,2.5-1.1,5.1-1.2,7.7c0,2.2,0.3,3.6,1,4.3c0.6,0.6,1.5,1,2.4,0.9
		C652.6,591.6,653.8,591,654.6,590z"/>
	<path class="st13" d="M675.5,596.1c-1.3-1.3-2-3.3-2-6c0-1.5,0.2-2.9,0.5-4.3l7.1-33.3l9.9-1.3l-7.7,35.9c-0.2,0.7-0.3,1.4-0.3,2.1
		c-0.1,0.7,0.2,1.4,0.6,1.9c0.6,0.4,1.4,0.6,2.1,0.6c1.4,0,2.7-0.6,3.6-1.6c1.2-1.2,2-2.6,2.4-4.2h2.8c-1.6,4.8-3.7,8-6.3,9.8
		c-2.2,1.6-4.9,2.5-7.7,2.6C678.7,598.1,676.8,597.4,675.5,596.1z"/>
	<path class="st13" d="M693.1,596c-1.3-1.3-2-3.4-2-6.1c0-1.5,0.2-2.9,0.5-4.3l7.1-33.3l9.8-1.3l-7.6,36c-0.2,0.6-0.3,1.3-0.3,1.9
		c0,1.8,0.9,2.7,2.7,2.7c0.7,0,1.5-0.1,2.1-0.4c-0.1,3.9-3.3,7.1-7.3,7c0,0,0,0,0,0C696.3,598.2,694.4,597.4,693.1,596z"/>
	<path class="st14" d="M549.8,553.2c-2.5,0-4.9,1.1-6.4,3.2c-1.5,2-2.2,5.6-2.2,10.6c-0.1,1.2,0.1,2.3,0.5,3.4
		c0.2,0.3,0.3,0.7,0.5,1.1c-1.9,0.1-3.8-0.4-5.3-1.5c-1.2-1-1.8-2.7-1.8-5c-0.2-6.5,3.7-12.4,9.7-14.9c3.4-1.6,7.7-2.4,12.9-2.4
		c1.4,0,2.8,0.1,4.3,0.3c3.2,0.3,5.5,0.5,6.8,0.5c2,0,4.1-0.2,6-0.8c-0.1,0.4-0.4,1.3-0.7,2.6c-0.3,1.3-1,2.5-1.9,3.5
		c-1,1-2.3,1.7-3.7,1.9c-3.1-0.1-6.3-0.5-9.3-1.3l-2.8,13.2h9.7l-1.1,4.9h-9.7l-5.4,25h-9.6L549.8,553.2z"/>
	<path class="st14" d="M566.9,595.4c-1.9-1.7-2.9-4.3-2.9-8c0.1-3.4,0.7-6.8,1.9-10c1.2-3.6,3.3-6.9,6-9.5c2.8-2.7,6.5-4.1,10.4-4
		c5.7,0,8.5,3.5,8.5,10.6v0.1c0.2,0.1,0.5,0.1,0.7,0.1c1.7-0.1,3.4-0.5,5-1.2c1.8-0.7,3.6-1.7,5.2-2.8l0.6,1.8
		c-1.4,1.5-3.1,2.7-5,3.5c-2.2,1-4.4,1.6-6.8,2c-0.3,3.7-1.2,7.2-2.7,10.6c-1.3,2.8-3.2,5.2-5.7,7c-2.2,1.6-4.8,2.5-7.5,2.5
		C571.8,598.1,569.1,597.2,566.9,595.4z M580.5,590.1c1.2-1.5,2.2-3.2,2.8-5c0.8-2.3,1.4-4.6,1.7-7c-1.2-0.3-1.8-1.2-1.8-2.8
		c-0.2-1.5,0.7-3,2.1-3.6c0-1-0.2-2.1-0.7-3c-0.4-0.6-1.1-0.9-1.9-0.8c-1.5,0-2.9,1.1-4.3,3.2c-1.5,2.4-2.6,5-3.3,7.7
		c-0.8,2.5-1.2,5.2-1.3,7.8c0,2.1,0.3,3.6,0.7,4.3c0.6,0.8,1.6,1.2,2.7,1.1C578.6,591.9,579.8,591.2,580.5,590.1z"/>
	<path class="st14" d="M598.7,564.4h9.6l-0.9,4.1c1.3-1.2,2.6-2.2,4.1-3.1c1.2-0.7,2.6-1.1,4-1.1c1.3-0.1,2.5,0.5,3.4,1.5
		c0.8,1,1.3,2.2,1.2,3.5c0,1.3-0.4,2.5-1.3,3.4c-0.9,1-2.2,1.5-3.5,1.5c-0.7,0.1-1.5-0.2-2-0.7c-0.4-0.6-0.6-1.3-0.8-2
		c-0.1-0.4-0.2-0.9-0.4-1.3c-0.1-0.3-0.4-0.4-0.7-0.4c-0.8,0-1.6,0.2-2.4,0.6c-0.9,0.6-1.7,1.2-2.5,2l-5.3,25.3h-9.6L598.7,564.4z"
		/>
	<path class="st14" d="M635.3,595.5c-1.7-1.7-2.5-4.4-2.5-8.1c0.1-3.5,0.7-7,2-10.3c1.2-3.5,3.2-6.6,5.8-9.2
		c2.5-2.4,5.8-3.8,9.3-3.8c1.4-0.1,2.8,0.2,4.1,0.9c0.8,0.5,1.3,1.5,1.3,2.5v0.5l0.7-3.5h9.6l-4.8,22.6c-0.2,0.7-0.3,1.4-0.3,2.1
		c0,1.9,0.9,2.9,2.7,2.9c1.3,0,2.5-0.7,3.2-1.7c1-1.4,1.7-2.9,2.2-4.5h2.8c-1.7,4.8-3.7,8-6.1,9.8c-2.1,1.6-4.7,2.5-7.3,2.6
		c-1.6,0.1-3.3-0.5-4.5-1.6c-1.2-1.2-1.9-2.8-2-4.5c-1.2,1.7-2.6,3.2-4.3,4.4c-1.6,1.2-3.6,1.7-5.6,1.7
		C639.2,598.1,636.9,597.2,635.3,595.5z M649.2,590c1.2-1.2,1.9-2.7,2.2-4.3l3.2-15c0-0.6-0.2-1.3-0.6-1.8c-0.5-0.6-1.3-0.9-2.1-0.8
		c-1.8,0-3.4,1-4.8,3.1c-1.5,2.3-2.6,4.8-3.3,7.5c-0.7,2.5-1.1,5.1-1.2,7.7c0,2.2,0.3,3.6,1,4.3c0.6,0.6,1.5,1,2.4,0.9
		C647.2,591.5,648.4,590.9,649.2,590z"/>
	<path class="st14" d="M670,596.1c-1.3-1.3-2-3.3-2-6c0-1.5,0.2-2.9,0.5-4.3l7.1-33.3l9.8-1.3l-7.6,35.9c-0.2,0.7-0.3,1.4-0.3,2.1
		c-0.1,0.7,0.2,1.4,0.6,1.9c0.6,0.4,1.4,0.6,2.1,0.6c1.4,0,2.7-0.6,3.6-1.6c1.2-1.2,2-2.6,2.4-4.2h2.8c-1.6,4.8-3.7,8-6.3,9.8
		c-2.2,1.6-4.9,2.5-7.7,2.6C673.3,598.2,671.4,597.4,670,596.1z"/>
	<path class="st14" d="M687.7,596c-1.3-1.3-2-3.4-2-6.1c0-1.5,0.2-2.9,0.5-4.3l7.1-33.3l9.8-1.3l-7.7,35.9c-0.2,0.6-0.3,1.3-0.3,1.9
		c0,1.8,0.9,2.7,2.7,2.7c0.7,0,1.4-0.1,2.1-0.4c-0.1,3.9-3.3,7.1-7.3,7c0,0,0,0,0,0C690.9,598.1,689,597.4,687.7,596z"/>
	<path class="st13" d="M697.4,662.2c-2.1-2.1-3.2-5.5-3.2-10.2c0.1-4.5,0.8-9,2.1-13.3c1.2-4.6,3.4-8.9,6.2-12.6
		c2.7-3.5,6-5.3,9.7-5.3c1.2,0,2.3,0.2,3.5,0.5c-1.9,1.2-3.8,3.5-5.6,7.1c-1.9,3.8-3.3,7.9-4.4,12c-1,3.8-1.6,7.8-1.7,11.8
		c-0.1,1.9,0.2,3.9,0.9,5.7c0.4,1.3,1.6,2.1,2.9,2.1c2.2,0,4.3-1.6,6.5-4.7c2.4-3.6,4.2-7.6,5.3-11.8c1.3-4.4,2-9.1,2.1-13.7
		c0.1-2.2-0.2-4.5-0.7-6.6c-0.4-1.5-1.3-2.9-2.6-3.8c-1.6-0.9-3.4-1.4-5.3-1.3c-3.3,0-6.5,0.7-9.5,2.1c-2.8,1.3-5.3,3.4-7,6
		c-1.8,2.7-2.7,5.8-2.6,9c0,0.9,0.1,1.8,0.3,2.6c0.1,0.3,0.3,0.7,0.3,1c-1.8,0.1-3.5-0.3-5-1.3c-1.2-1.1-1.8-2.7-1.7-4.3
		c0.1-3.3,1.4-6.4,3.8-8.8c2.8-3,6.2-5.3,10-6.8c4.1-1.7,8.6-2.6,13-2.6c5.5,0,9.5,1.5,12,4.5c2.5,3,3.7,7.2,3.7,12.5
		c0,5.1-0.9,10.1-2.6,14.9c-1.7,4.9-4.5,9.4-8.2,13c-3.7,3.5-8.6,5.5-13.7,5.3C702.5,665.4,699.6,664.3,697.4,662.2z"/>
	<path class="st13" d="M735.9,631.7h9.6l-0.9,4.1c1.3-1.2,2.6-2.2,4.1-3.1c1.2-0.7,2.6-1.1,4-1.1c1.3-0.1,2.5,0.5,3.4,1.5
		c0.8,1,1.3,2.2,1.2,3.5c0,1.2-0.4,2.5-1.3,3.4c-0.9,1-2.2,1.5-3.5,1.5c-0.7,0.1-1.5-0.2-2-0.7c-0.4-0.6-0.6-1.3-0.8-2
		c-0.1-0.4-0.2-0.9-0.4-1.3c-0.1-0.3-0.4-0.4-0.7-0.4c-0.8,0-1.6,0.2-2.4,0.6c-0.9,0.6-1.7,1.2-2.5,2l-5.3,25.2h-9.6L735.9,631.7z"
		/>
	<path class="st13" d="M758,662.8c-1.7-1.7-2.5-4.4-2.5-8.1c0.1-3.5,0.7-7,2-10.3c1.2-3.5,3.2-6.6,5.8-9.2c2.5-2.5,5.8-3.8,9.3-3.8
		c1.4-0.1,2.8,0.2,4.1,0.9c0.8,0.5,1.3,1.5,1.3,2.5v0.3l3.3-15.3l9.8-1.3l-7.7,35.9c-0.2,0.7-0.3,1.4-0.3,2.1
		c-0.1,0.7,0.2,1.4,0.6,1.9c0.6,0.4,1.4,0.6,2.1,0.6c1.3,0,2.5-0.6,3.2-1.6c1-1.3,1.7-2.7,2.2-4.3h2.8c-2.7,7.9-7.2,11.9-13.4,11.9
		c-1.6,0.1-3.2-0.5-4.4-1.5c-1.2-1.1-2-2.6-2.1-4.3c-1.1,1.7-2.5,3.2-4.2,4.4c-1.7,1.2-3.7,1.8-5.7,1.7
		C762,665.5,759.7,664.5,758,662.8z M771.9,657.5c1.1-1.1,1.9-2.5,2.2-4.1v-0.3l3.3-15.2c-0.2-1.4-1.3-2.4-2.7-2.3
		c-1.8,0-3.4,1-4.8,3.1c-1.5,2.3-2.6,4.8-3.3,7.5c-0.7,2.5-1.1,5.1-1.2,7.7c0,2.2,0.3,3.6,1,4.3c0.6,0.6,1.5,1,2.4,0.9
		C769.9,658.9,771,658.3,771.9,657.5L771.9,657.5z"/>
	<path class="st13" d="M793.1,662.8c-1.8-1.7-2.7-4.4-2.7-8c0.1-3.4,0.7-6.9,1.8-10.1c1.2-3.6,3.2-6.9,5.8-9.5
		c2.7-2.7,6.5-4.1,10.3-4c4.9,0,7.3,2.1,7.3,6.4c0,2.4-0.7,4.8-2.1,6.8c-1.4,2.1-3.4,3.8-5.7,5c-2.3,1.3-4.9,2-7.5,2.2
		c-0.1,1.3-0.1,2.2-0.1,2.7c0,2.2,0.4,3.7,1.1,4.4c1,0.9,2.3,1.3,3.7,1.2c2.2,0.1,4.3-0.5,6.2-1.7c2.1-1.4,4-3.1,5.6-5h2.3
		c-4.9,8.2-11,12.3-18.3,12.3C797.5,665.4,795,664.5,793.1,662.8z M805.6,646.6c1.5-1,2.7-2.4,3.6-4c0.9-1.6,1.4-3.4,1.4-5.2
		c0-1.8-0.5-2.7-1.7-2.7c-1.6,0-3.2,1.4-4.7,4.2c-1.6,3-2.7,6.2-3.3,9.5C802.6,648.3,804.3,647.7,805.6,646.6z"/>
	<path class="st13" d="M821.3,631.7h9.6l-0.9,4.1c1.3-1.1,2.6-2.2,4.1-3.1c1.2-0.7,2.6-1.1,4-1.1c1.3-0.1,2.5,0.5,3.4,1.5
		c0.8,1,1.3,2.2,1.2,3.5c0,1.2-0.4,2.5-1.3,3.4c-0.9,1-2.2,1.5-3.5,1.5c-0.7,0.1-1.5-0.2-2-0.7c-0.4-0.6-0.6-1.3-0.8-2
		c-0.1-0.4-0.2-0.9-0.4-1.3c-0.1-0.3-0.4-0.4-0.7-0.4c-0.8,0-1.6,0.2-2.4,0.6c-0.9,0.6-1.7,1.3-2.5,2l-5.3,25.2h-9.6L821.3,631.7z"
		/>
	<path class="st14" d="M692.8,662.2c-2.1-2.1-3.2-5.5-3.2-10.2c0.1-4.5,0.8-9,2.1-13.3c1.2-4.6,3.3-8.9,6.2-12.6
		c2.7-3.5,6-5.3,9.7-5.3c1.2,0,2.3,0.2,3.5,0.5c-1.9,1.2-3.8,3.5-5.6,7.1c-1.9,3.8-3.3,7.9-4.4,12c-1,3.8-1.6,7.8-1.7,11.8
		c-0.1,1.9,0.2,3.9,0.9,5.7c0.4,1.3,1.6,2.1,3,2.1c2.2,0,4.3-1.6,6.5-4.7c2.4-3.6,4.2-7.6,5.3-11.8c1.3-4.4,2-9.1,2.1-13.7
		c0.1-2.2-0.2-4.5-0.7-6.6c-0.4-1.5-1.3-2.9-2.6-3.8c-1.6-0.9-3.4-1.4-5.3-1.3c-3.3,0-6.5,0.7-9.5,2.1c-2.8,1.3-5.3,3.4-7,6
		c-1.8,2.7-2.7,5.8-2.6,9c0,0.9,0.1,1.8,0.3,2.6c0.1,0.3,0.3,0.7,0.3,1c-1.8,0.1-3.5-0.3-5-1.3c-1.2-1.1-1.8-2.7-1.7-4.3
		c0.1-3.3,1.4-6.4,3.8-8.8c2.8-3,6.2-5.3,10-6.8c4.1-1.7,8.6-2.6,13.1-2.6c5.5,0,9.5,1.5,12,4.5s3.7,7.2,3.7,12.5
		c-0.1,5.1-1,10.1-2.7,14.8c-1.7,4.9-4.5,9.4-8.2,13c-3.7,3.5-8.6,5.5-13.7,5.3C697.9,665.4,695,664.3,692.8,662.2z"/>
	<path class="st14" d="M731.3,631.7h9.6l-0.9,4.1c1.3-1.2,2.6-2.2,4.1-3.1c1.2-0.7,2.6-1.1,4-1.1c1.3-0.1,2.5,0.5,3.4,1.5
		c0.8,1,1.3,2.2,1.2,3.5c0,1.2-0.4,2.5-1.3,3.4c-0.9,1-2.2,1.5-3.5,1.5c-0.7,0.1-1.5-0.2-2-0.7c-0.4-0.6-0.6-1.3-0.8-2
		c-0.1-0.4-0.2-0.9-0.4-1.3c-0.1-0.3-0.4-0.4-0.7-0.4c-0.8,0-1.6,0.2-2.4,0.6c-0.9,0.6-1.7,1.2-2.5,2l-5.3,25.2h-9.6L731.3,631.7z"
		/>
	<path class="st14" d="M753.4,662.8c-1.7-1.7-2.5-4.4-2.5-8.1c0.1-3.5,0.7-7,2-10.3c1.2-3.5,3.2-6.6,5.8-9.2
		c2.5-2.5,5.8-3.8,9.3-3.8c1.4-0.1,2.8,0.2,4.1,0.9c0.8,0.5,1.3,1.5,1.3,2.5v0.3l3.3-15.3l9.8-1.3l-7.7,35.9
		c-0.2,0.7-0.3,1.4-0.3,2.1c-0.1,0.7,0.2,1.4,0.6,1.9c0.6,0.4,1.4,0.6,2.1,0.6c1.3,0,2.5-0.6,3.2-1.6c1-1.3,1.7-2.7,2.2-4.3h2.8
		c-2.7,7.9-7.2,11.9-13.4,11.9c-1.6,0.1-3.2-0.5-4.4-1.5c-1.2-1.1-2-2.6-2.1-4.3c-1.1,1.7-2.5,3.2-4.2,4.4c-1.7,1.2-3.7,1.8-5.7,1.7
		C757.4,665.4,755.1,664.5,753.4,662.8z M767.3,657.5c1.1-1.1,1.9-2.5,2.2-4.1v-0.3l3.3-15.2c-0.2-1.4-1.3-2.4-2.7-2.3
		c-1.8,0-3.4,1-4.8,3.1c-1.5,2.3-2.6,4.8-3.3,7.5c-0.7,2.5-1.1,5.1-1.2,7.7c0,2.2,0.3,3.6,1,4.3c0.6,0.6,1.5,1,2.4,0.9
		C765.3,658.9,766.4,658.3,767.3,657.5z"/>
	<path class="st14" d="M788.5,662.8c-1.8-1.7-2.7-4.4-2.7-8c0.1-3.4,0.7-6.9,1.8-10.1c1.2-3.6,3.2-6.9,5.8-9.5
		c2.7-2.7,6.5-4.1,10.3-4c4.9,0,7.3,2.1,7.3,6.4c0,2.4-0.7,4.8-2.1,6.8c-1.4,2.1-3.4,3.8-5.7,5c-2.3,1.3-4.9,2-7.5,2.2
		c-0.1,1.3-0.1,2.2-0.1,2.7c0,2.2,0.4,3.7,1.1,4.4c1,0.9,2.3,1.3,3.7,1.2c2.2,0.1,4.3-0.5,6.2-1.7c2.1-1.4,4-3.1,5.6-5h2.3
		c-4.9,8.2-11,12.3-18.3,12.3C792.9,665.4,790.4,664.5,788.5,662.8z M801,646.6c1.5-1,2.7-2.4,3.6-4c0.9-1.6,1.4-3.4,1.4-5.2
		c0-1.8-0.6-2.7-1.7-2.7c-1.6,0-3.2,1.4-4.7,4.2c-1.6,3-2.7,6.2-3.3,9.5C798,648.3,799.6,647.7,801,646.6z"/>
	<path class="st14" d="M816.8,631.7h9.6l-0.9,4.1c1.3-1.1,2.6-2.2,4.1-3.1c1.2-0.7,2.6-1.1,4-1.1c1.3-0.1,2.5,0.5,3.4,1.5
		c0.8,1,1.3,2.2,1.2,3.5c0,1.2-0.4,2.5-1.3,3.4c-0.9,1-2.2,1.5-3.5,1.5c-0.7,0.1-1.5-0.2-2-0.7c-0.4-0.6-0.6-1.3-0.8-2
		c-0.1-0.4-0.2-0.9-0.4-1.3c-0.1-0.3-0.4-0.4-0.7-0.4c-0.8,0-1.6,0.2-2.4,0.6c-0.9,0.6-1.7,1.3-2.5,2l-5.3,25.2h-9.6L816.8,631.7z"
		/>
	<g>
		<path class="st15" d="M413.3,408c-6.9-5.7-17.1-4.7-22.7,2.2c-5.2,6.3-4.8,15.4,0.6,21.2c9-5.5,17.7-11.9,25.8-19.1
			C416,410.7,414.8,409.3,413.3,408z"/>
		<path class="st15" d="M307.6,422.4c-15.1,0-27.4,12.2-27.4,27.4c0,2.6,0.4,5.1,1.1,7.5c17.8,1.5,35.8,0.4,53.3-3.4
			c0.2-1.4,0.3-2.7,0.3-4.2C335,434.6,322.7,422.4,307.6,422.4z"/>
		<path class="st15" d="M461.9,351.9c-5-5.8-12.4-9.5-20.7-9.5c-15.1,0-27.3,12.2-27.3,27.4c0,12.4,8.2,22.8,19.5,26.2
			C445.2,382.4,454.8,367.5,461.9,351.9z"/>
		<path class="st15" d="M122.4,224.1c26.2,3.7,51.5-13.1,57.8-39.4c3.6-14.9,0.4-29.8-7.6-41.5c-1.5,1.4-3,2.8-4.4,4.3
			C145.9,169.6,130.7,196,122.4,224.1z"/>
	</g>
</g>
</svg>
