<svg xmlns="http://www.w3.org/2000/svg" viewBox="0 0 280.46 235.99"><defs><style>.cls-1{fill:#3d2167;}</style></defs><title>Asset 9</title><g id="Layer_2" data-name="Layer 2"><g id="Layer_4" data-name="Layer 4"><path class="cls-1" d="M265.62,120.79c4.46-44.26-31.07-76.95-36.77-82C184.72-.47,107.07-3.85,57,38.06,13.4,74.59-11,147,21.67,192.21c36.82,51,120.54,32.09,155.56,18.39C191.7,204.93,259.83,178.27,265.62,120.79Z"/><path class="cls-1" d="M266.3,147.73c-1.13-.47,9.54-16.41,8-39-1.46-21.55-13.1-35.39-12-36s16.31,14.21,18,35C282.11,130.05,267.54,148.24,266.3,147.73Z"/><path class="cls-1" d="M1.3,135.73c1.11-.18-2.5,41.24,23,69,36.65,39.88,109,25,109,26s-75.68,20.32-113-22C-5.43,179.55.16,135.91,1.3,135.73Z"/><path class="cls-1" d="M93.3,12.73c.36.78,10.49-5.49,27-8,17.63-2.68,29.87.85,30,0S136-2,119.3.73C104,3.23,92.91,11.89,93.3,12.73Z"/></g></g></svg>