<?xml version="1.0" encoding="utf-8"?>
<!-- Generator: Adobe Illustrator 23.0.5, SVG Export Plug-In . SVG Version: 6.00 Build 0)  -->
<svg version="1.1" id="Layer_1" xmlns="http://www.w3.org/2000/svg" xmlns:xlink="http://www.w3.org/1999/xlink" x="0px" y="0px"
	 viewBox="0 0 512 512" style="enable-background:new 0 0 512 512;" xml:space="preserve">
<style type="text/css">
	.st0{fill:#C7E9B6;}
</style>
<g id="Page-1">
	<g transform="translate(0 -1)">
		<path id="Shape" class="st0" d="M57.6,482c1.5,17.6,16.3,31,33.9,31h107c10.8,0,21-5.2,27.5-13.9c1.8-2.5,2.1-5.7,0.9-8.5
			c-1.2-2.8-3.9-4.7-6.9-5c-3-0.3-6,1-7.8,3.5c-3.2,4.3-8.3,6.9-13.7,6.9h-107c-8.8,0-16.2-6.7-16.9-15.5L52.1,239.9h186l-7,74.4
			c-0.4,4.7,3,8.9,7.7,9.3c4.7,0.4,8.9-3,9.3-7.7l7.1-75.9h0.8c9.4,0,17.1-7.6,17.1-17.1v-25.6c0-6.2-3.5-12-8.9-14.9
			c-3.6-42-42.4-76.5-93.5-85.3V77.4L232.3,50c9.5-4.2,15.5-13.7,15.2-24c-0.3-10.4-6.7-19.5-16.4-23.3c-6.3-2.5-13.4-2.3-19.6,0.5
			l-76.8,34.1c-9.2,4.1-15.2,13.3-15.2,23.4v36.4c-51,8.8-89.8,43.3-93.5,85.3c-5.5,3-8.9,8.7-8.9,14.9v25.6
			c0,9.4,7.6,17.1,17.1,17.1h0.8L57.6,482z M136.5,60.7c0-3.4,2-6.5,5.1-7.8l76.8-34.1c2.1-0.9,4.4-1,6.5-0.2
			c2.1,0.8,3.8,2.5,4.8,4.6c0.9,2.1,0.9,4.4,0.1,6.5c-0.8,2.1-2.5,3.8-4.6,4.7L158.6,64c-3.1,1.4-5,4.4-5,7.8v23.4
			c-2.8-0.2-5.6-0.3-8.5-0.3c-2.9,0-5.7,0.2-8.5,0.3V60.7z M145.1,111.9c52.6,0,96,29.9,101.7,68.3H43.3
			C49,141.9,92.5,111.9,145.1,111.9z M34.1,197.3H256v25.6H34.1V197.3z"/>
		<path class="st0" d="M107.1,461.8l-3.2-34.3c-0.3-3.1-2.1-5.8-4.9-7c-2.8-1.3-6.1-1-8.6,0.8c-2.5,1.8-3.8,4.8-3.5,7.8l3.9,42
			c0.4,4.4,4.1,7.8,8.5,7.7h37.1c4.7,0,8.5-3.8,8.5-8.5c0-4.7-3.8-8.5-8.5-8.5H107.1z"/>
		<path class="st0" d="M145.1,270.5l-11-11c-3.3-3.2-8.7-3.2-12,0.1c-3.3,3.3-3.3,8.6-0.1,12l14.6,14.6v24.4l-21.1-12.2l-5.4-19.9
			c-1.2-4.5-5.9-7.2-10.4-6c-4.5,1.2-7.2,5.9-6,10.4l4,15.1l-15.1,4c-4.1,1.1-6.8,5.1-6.2,9.3c0.6,4.2,4.2,7.4,8.4,7.4
			c0.8,0,1.5-0.1,2.3-0.3l19.9-5.3l21.1,12.2l-21.1,12.2L87,332.1c-3-0.9-6.2-0.1-8.4,2.1s-3.1,5.4-2.2,8.4c0.8,3,3.2,5.3,6.2,6
			l15.1,4l-4,15.1c-1.2,4.5,1.5,9.2,6,10.4c0.7,0.2,1.5,0.3,2.2,0.3c3.9,0,7.2-2.6,8.2-6.3l5.3-19.9l21.1-12.2v24.4L122,379
			c-3.2,3.3-3.2,8.7,0.1,12c3.3,3.3,8.6,3.3,12,0.1l11-11l11,11c3.3,3.2,8.7,3.2,12-0.1c3.3-3.3,3.3-8.6,0.1-12l-14.6-14.6V340
			l21.1,12.2l5.3,19.9c1,3.7,4.4,6.3,8.2,6.3c0.7,0,1.5-0.1,2.2-0.3c4.5-1.2,7.2-5.9,6-10.4l-4-15.1l15.1-4c2.9-0.8,5.2-3.1,6-6
			c0.8-2.9-0.1-6.1-2.2-8.2c-2.2-2.2-5.3-3-8.3-2.2l-19.9,5.3l-21.1-12.2l21.1-12.2l19.9,5.4c0.7,0.2,1.5,0.3,2.2,0.3
			c4.3,0,7.9-3.2,8.4-7.4c0.6-4.2-2.1-8.2-6.2-9.3l-15.1-4l4-15.1c1.2-4.5-1.5-9.2-6-10.4c-4.5-1.2-9.2,1.5-10.4,6l-5.3,19.9
			l-21.1,12.2v-24.4l14.6-14.6c3.2-3.3,3.2-8.7-0.1-12c-3.3-3.3-8.6-3.3-12-0.1L145.1,270.5z"/>
		<path class="st0" d="M316.3,512.8c17.7,0.5,34.9-6.1,47.7-18.4c12.4-12.8,19.1-30,18.5-47.8c-1.1-29-13.5-56.4-34.7-76.4
			c-38.6-38.6-94.5-45.9-124.5-16.1c-12.4,12.8-19.1,30-18.5,47.8c1.1,29,13.5,56.5,34.7,76.4C259.6,499.4,287.2,511.8,316.3,512.8z
			 M271.1,352.7c24.6,1.1,47.8,11.8,64.6,29.6c17.8,16.8,28.4,39.9,29.6,64.3c0.1,6.7-1.1,13.4-3.4,19.7c-7.5-4.4-15.8-7.1-24.4-7.8
			c-19.2-1-34.5-16.3-35.5-35.4c-2.1-26.7-23.3-47.8-50-49.9c-6.3-0.4-12.4-2.3-17.9-5.4c0.4-0.5,0.7-1,1.2-1.5
			C245,357.2,257.9,352.3,271.1,352.7L271.1,352.7z M225.2,382.3c7.5,4.4,15.8,7.1,24.4,7.8c19.2,1,34.5,16.3,35.5,35.5
			c2.1,26.7,23.3,47.8,50,49.9c6.3,0.4,12.4,2.3,17.9,5.4c-0.4,0.5-0.7,1-1.2,1.5c-23.3,23.2-68.4,16-100.4-16.1
			c-17.8-16.8-28.4-39.9-29.7-64.3C221.8,395.3,222.9,388.6,225.2,382.3z"/>
		<path class="st0" d="M384.4,502.8c-0.1,3.3,1.8,6.4,4.7,7.8c0.6,0.3,1.2,0.5,1.8,0.7c5,1.2,10.2,1.8,15.4,1.8
			c49-0.1,88.7-51.8,88.7-115.2c0.1-56.2-30.8-104-73.4-113.5c-5-1.1-10.2-1.7-15.4-1.7c-28.7,0.1-55.6,18.1-72.1,48.2
			c-1.5,2.7-1.5,6,0.1,8.6c1.6,2.7,4.5,4.2,7.6,4.1c3.1-0.1,5.9-1.9,7.3-4.6c13.7-24.9,34.5-39.2,57.2-39.3c1.4,0,2.7,0.1,4.1,0.2
			c-1.7,8.1-5.5,15.6-11,21.8c-20.1,23.4-20.1,57.9,0,81.3c7.6,8.3,11.8,19.2,11.6,30.5c0.2,11.2-4,22.1-11.6,30.3
			C389.9,474.5,384.6,488.4,384.4,502.8L384.4,502.8z M413.1,474c20.1-23.4,20.1-57.9,0-81.3c-7.6-8.3-11.8-19.2-11.7-30.4
			c-0.2-11.2,4-22.1,11.6-30.3c6.9-8.1,11.6-17.7,13.9-28c29.6,12.4,50.9,50.7,50.9,93.9c0.1,54-32.1,98-71.6,98.1
			c-1.4,0-2.8-0.1-4.1-0.2C403.8,487.7,407.6,480.1,413.1,474L413.1,474z"/>
	</g>
</g>
</svg>
