<svg xmlns="http://www.w3.org/2000/svg" viewBox="0 0 1921 358.99"><defs><style>.cls-1,.cls-2,.cls-3{fill:#c7e9b6;}.cls-1{opacity:0.3;}.cls-2{opacity:0.5;}</style></defs><title>Asset 8</title><g id="Layer_2" data-name="Layer 2"><g id="Layer_4" data-name="Layer 4"><path class="cls-1" d="M1921,359H1V123.25C16.33,99.54,44,63.71,89,37,192.12-24.18,314,5.43,378,21,496.51,49.8,499.51,87.73,600,94c95,5.93,157-4,157-4,46.35-7.42,66-16.46,101-9,39.62,8.44,41.21,25.67,97,50,50.29,21.94,93.43,27.33,113,29.63,51.13,6,63-2.93,112-2.63,41.58.26,94.28,15.18,198,45,146.06,42,144.6,41.81,146,42,123.24,16.86,167.73-33.83,275-13,54.7,10.63,96.25,34.13,122,51.5Z"/><path class="cls-2" d="M1920,359H0V153.4A678.5,678.5,0,0,1,152,82c75.79-24.66,172-56,267-21,75.32,27.71,62.7,64.94,131,88,100.28,33.87,149.73-38.87,284-36,83.49,1.79,85.14,30.36,233,73,122.52,35.34,121.64,15.79,316,53,195.88,37.51,241.64,65.95,374,67a948.32,948.32,0,0,0,163-12.84Z"/><path class="cls-3" d="M1920,359H0V206C35.3,154.83,90.35,94.58,169,78c90.38-19.06,151.28,32.32,261,70,145.91,50.12,195.44,13.26,404,28,223.21,15.78,263.94,64.78,494,108,135.67,25.49,335.76,48.67,592,26Z"/></g></g></svg>