<?xml version="1.0" encoding="utf-8"?>
<!-- Generator: Adobe Illustrator 23.0.5, SVG Export Plug-In . SVG Version: 6.00 Build 0)  -->
<svg version="1.1" id="Layer_1" xmlns="http://www.w3.org/2000/svg" xmlns:xlink="http://www.w3.org/1999/xlink" x="0px" y="0px"
	 viewBox="0 0 234.4 234.5" style="enable-background:new 0 0 234.4 234.5;" xml:space="preserve">
<style type="text/css">
	.st0{fill:#3D2167;}
</style>
<title>Asset 12</title>
<g>
	<g id="Facebook">
		<path class="st0" d="M202.9,0H31.6C14.1,0,0,14.1,0,31.6v171.3c0,17.4,14.1,31.6,31.6,31.6h84.5l0.1-83.8H94.4
			c-2.8,0-5.1-2.3-5.1-5.1l-0.1-27c0-2.8,2.3-5.1,5.1-5.1c0,0,0,0,0,0h21.7V87.3c0-30.3,18.5-46.8,45.5-46.8h22.2
			c2.8,0,5.1,2.3,5.1,5.1c0,0,0,0,0,0v22.8c0,2.8-2.3,5.1-5.1,5.1h-13.6c-14.7,0-17.5,7-17.5,17.2v22.6h32.3c2.8,0,5.1,2.3,5.1,5.1
			c0,0.2,0,0.4,0,0.6l-3.2,27c-0.3,2.6-2.5,4.5-5.1,4.5h-28.9l-0.1,83.8h50.3c17.4,0,31.6-14.1,31.6-31.6c0,0,0,0,0,0V31.6
			C234.4,14.1,220.3,0,202.9,0z"/>
		<path class="st0" d="M116.1,234.4l0.1-83.8h-0.3v83.8H116.1z"/>
	</g>
</g>
</svg>
