<?xml version="1.0" encoding="utf-8"?>
<!-- Generator: Adobe Illustrator 23.0.5, SVG Export Plug-In . SVG Version: 6.00 Build 0)  -->
<svg version="1.1" id="Layer_1" xmlns="http://www.w3.org/2000/svg" xmlns:xlink="http://www.w3.org/1999/xlink" x="0px" y="0px"
	 viewBox="0 0 673 768" style="enable-background:new 0 0 673 768;" xml:space="preserve">
<style type="text/css">
	.st0{fill:#774212;}
	.st1{fill:#7144B7;}
</style>
<title>Asset 34</title>
<g id="Page-1_5_">
	<g transform="translate(0 -1)">
		<path id="Shape_5_" class="st0" d="M208.2,119.8c2.5,0,4.6-2.1,4.6-4.7v-4.7c0-2.6-2-4.7-4.6-4.7s-4.6,2.1-4.6,4.7v4.7
			C203.6,117.7,205.6,119.8,208.2,119.8z"/>
		<path class="st0" d="M162.5,119.8c2.5,0,4.6-2.1,4.6-4.7v-4.7c0-2.6-2-4.7-4.6-4.7s-4.6,2.1-4.6,4.7v4.7
			C157.9,117.7,160,119.8,162.5,119.8z"/>
		<path class="st0" d="M235.6,138.8h2.3c11.4,0,20.6-9.6,20.6-21.3s-9.2-21.3-20.6-21.3h-2.3v-6c9.2-1.3,18.2-3.8,26.8-7.5
			c4.1-1.8,8.2-3.9,12-6.2c1.6-1,2.5-3,2.1-4.9c-0.3-1.9-1.8-3.5-3.7-3.8c-0.2,0-24.5-4.5-28.3-20.3c-4.1-17.3-22.2-26.6-32.7-30.7
			c-12.4-4.7-25.7-6.6-38.9-5.7c-11.6,0.7-26.2,2.2-36.8,8.5c-6.4,3.4-10.6,10-11.3,17.4c0,6.7,2.7,13,7.4,17.6
			c0.9,0.9,1.8,1.8,2.7,2.7v39.1h-2.3c-11.4,0-20.6,9.6-20.6,21.3s9.2,21.3,20.6,21.3h2.3v51.8c-1,0.6-2,1.1-3.1,1.5l-47.1,17.3
			c-10.9,4-18.3,14.8-18.3,26.9V281c0,7.9,6.1,14.2,13.7,14.2h31.7c0.1,0,0.2,0,0.3,0c0.1,0,0.2,0,0.3,0h145.6c0.1,0,0.2,0,0.3,0
			s0.2,0,0.3,0h31.7c7.6,0,13.7-6.4,13.7-14.2v-44.8c0-12.1-7.4-22.8-18.3-26.9l-47.1-17.2c-1.1-0.4-2.1-0.9-3.1-1.6L235.6,138.8z
			 M249.3,252.6v9.5h-22.8v-9.5H249.3z M221.9,244.5c-2.8,1.7-4.6,4.8-4.6,8.2h-63.9c0-3.4-1.8-6.5-4.6-8.2v-34.5c1.7,0,3.4-0.3,5-1
			c1,3.8,3.5,7,6.9,8.9c3.4,1.8,7.3,2.1,10.9,0.8v0.8c0,7.9,6.1,14.2,13.7,14.2s13.7-6.4,13.7-14.2v-0.8c3.6,1.3,7.6,1,10.9-0.8
			s5.9-5.1,6.9-8.9c1.6,0.7,3.3,1,5,1L221.9,244.5z M144.2,262.1h-22.8v-9.5h22.8V262.1z M237.8,105.6c6.3,0,11.4,5.3,11.4,11.9
			s-5.1,11.9-11.4,11.9h-2.3v-23.7H237.8z M140.8,27.6c8.9-5.3,22.2-6.7,32.7-7.3c11.9-0.8,23.9,0.9,35.2,5.1
			c7.1,2.7,23.8,10.6,27,24.1c3.1,13.1,14.8,20.2,24,23.9c-0.3,0.1-0.5,0.2-0.8,0.4c-30.7,12.2-65,10-94.1-6.1
			c-9.5-5.3-18.3-12.1-25.9-20.1c-2.9-2.7-4.6-6.4-4.8-10.4C134.6,33.1,137.1,29.5,140.8,27.6L140.8,27.6z M160.5,76.1
			c18,10,38.1,15.2,58.4,15.2c2.5,0,5-0.1,7.5-0.3v28.8c0,15.7-18.4,28.5-41.1,28.5s-41.1-12.8-41.1-28.5V65.1
			C149.3,69.2,154.8,72.9,160.5,76.1z M132.8,129.3c-6.3,0-11.4-5.3-11.4-11.9s5.1-11.9,11.4-11.9h2.3v23.7H132.8z M144.2,141.5
			c11.1,10.8,25.9,16.7,41.1,16.2c15.2,0.5,30-5.4,41.1-16.2v54.2c0,2.6-2,4.7-4.6,4.7s-4.6-2.1-4.6-4.7s-2-4.7-4.6-4.7
			c-2.5,0-4.6,2.1-4.6,4.7v9.5c0,2.6-2,4.7-4.6,4.7s-4.6-2.1-4.6-4.7s-2-4.7-4.6-4.7s-4.6,2.1-4.6,4.7v14.2c0,2.6-2,4.7-4.6,4.7
			c-2.5,0-4.6-2.1-4.6-4.7v-14.2c0-2.6-2-4.7-4.6-4.7s-4.6,2.1-4.6,4.7s-2,4.7-4.6,4.7c-2.5,0-4.6-2.1-4.6-4.7v-9.5
			c0-2.6-2-4.7-4.6-4.7s-4.6,2.1-4.6,4.7s-2,4.7-4.6,4.7s-4.6-2.1-4.6-4.7V141.5z M135.1,201c0.3-0.1,0.6-0.3,0.9-0.4
			c0.8,2.2,2,4.1,3.7,5.6v36.9h-13.7v-38.8L135.1,201z M75.7,281v-44.8c0-8,4.9-15.2,12.2-17.9l28.9-10.6v36.8
			c-2.8,1.7-4.6,4.8-4.6,8.2v9.5c0,1.9,0.6,3.8,1.6,5.3l-5,18.3H80.3C77.7,285.8,75.7,283.7,75.7,281L75.7,281z M118.3,285.8
			l3.9-14.2h22c5,0,9.1-4.2,9.1-9.5h63.9c0,5.2,4.1,9.5,9.1,9.5h22l3.9,14.2H118.3z M294.9,236.2V281c0,2.6-2,4.7-4.6,4.7h-28.5
			l-5-18.3c1-1.6,1.6-3.4,1.6-5.3v-9.5c0-3.4-1.8-6.5-4.6-8.2v-36.8l28.9,10.6C290,221,294.9,228.2,294.9,236.2z M244.7,204.4v38.8
			H231v-36.9c1.6-1.5,2.9-3.5,3.7-5.6c0.3,0.1,0.6,0.3,0.9,0.4L244.7,204.4z"/>
		<path class="st0" d="M185.3,186.2c14.5,0,18.3-9.3,18.3-14.2c0-2.5-2-4.6-4.4-4.7H199c-2.4,0-4.4,2-4.6,4.5
			c-0.1,0.8-0.7,4.9-9.1,4.9c-8.4,0-9.1-4.1-9.1-4.7c0-2.6-2-4.7-4.6-4.7s-4.6,2.1-4.6,4.7C167,176.9,170.9,186.2,185.3,186.2z"/>
		<path class="st0" d="M180.8,138.8h5.2c3.4,0,6.5-1.9,8.1-5c1.6-3.1,1.4-6.8-0.4-9.7l-4.4-6.9c-1.4-2.2-4.2-2.8-6.3-1.3
			c-2.1,1.5-2.7,4.4-1.3,6.6l4.4,6.9h-5.2c-2.5,0-4.6,2.1-4.6,4.7S178.2,138.8,180.8,138.8L180.8,138.8z"/>
	</g>
</g>
<g id="Page-1_6_">
	<g>
		<path id="Shape_6_" class="st0" d="M455,85.8h-10.8l1.9-13.6c8.8-1,15.4-8.7,15.5-17.9V40.8c0-9.9-7.8-18-17.3-18h-95.4
			c-9.6,0-17.3,8.1-17.3,18v13.5c0,9.2,6.7,16.9,15.4,17.9l8.1,58.6h-12.7c-6,0-10.8,5-10.8,11.3v11.3c0,2.5,1.9,4.5,4.3,4.5h121.4
			c2.4,0,4.3-2,4.3-4.5v-11.3c0-6.2-4.9-11.2-10.8-11.3H438l3.1-22.5H455c3.6,0,6.5-3,6.5-6.8v-9C461.5,88.8,458.5,85.8,455,85.8z
			 M422.5,85.8c-2.7,0-5.2,1.8-6.1,4.5h-2.6v-6.8c3.6,0,6.5-3,6.5-6.8v-4.5h21.3l-1.9,13.5H422.5z M402.9,99.3h-2.2
			c-1.2,0-2.2-1-2.2-2.3c0-0.6,0.2-1.2,0.7-1.6c0.4-0.4,0.9-0.7,1.5-0.6h15.2v4.5H402.9z M383.4,83.5h26v6.8h-8.7
			c-3.6,0-6.5,3-6.5,6.8c0,0.8,0.1,1.5,0.4,2.3h-4.7c-3.6,0-6.5-3-6.5-6.8V83.5z M376.9,72.3h39v4.5c0,1.2-1,2.3-2.2,2.3h-34.7
			c-1.2,0-2.2-1-2.2-2.3V72.3z M396.4,103.8c5.2,0,9.9,3.2,11.9,8.2l0,0.1c-3.9-1-8-1.5-12-1.5c-4,0-8,0.4-11.9,1.4
			C386.5,107,391.2,103.8,396.4,103.8z M335.8,54.3v-4.5h8.7c1.2,0,2.2-1,2.2-2.3c0-1.2-1-2.3-2.2-2.3h-8.7v-4.5
			c0-7.5,5.8-13.5,13-13.5h95.4c7.2,0,13,6,13,13.5v4.5h-8.7c-1.2,0-2.2,1-2.2,2.3c0,1.2,1,2.3,2.2,2.3h8.7v4.5
			c0,7.5-5.8,13.5-13,13.5h-95.4C341.6,67.8,335.8,61.7,335.8,54.3z M456.7,139.8H442c-1.2,0-2.2,1-2.2,2.3c0,1.2,1,2.3,2.2,2.3
			h15.2v9H335.8v-9h15.2c1.2,0,2.2-1,2.2-2.3c0-1.2-1-2.3-2.2-2.3h-14.8c0.9-2.7,3.4-4.5,6.1-4.5h108.4
			C453.4,135.3,455.8,137.1,456.7,139.8z M433.6,130.8h-74.3l-8-58.5h21.3v4.5c0,3.7,2.9,6.8,6.5,6.8v9c0,4.6,2.7,8.8,6.9,10.5
			c-2.4,1.9-4.3,4.4-5.5,7.2c-0.7,1.6-0.4,3.5,0.7,4.8c0.8,1,2,1.5,3.2,1.5c0.4,0,0.8-0.1,1.2-0.2c7.1-1.7,14.6-1.7,21.7,0
			c1.6,0.5,3.3-0.1,4.4-1.4c1.1-1.3,1.4-3.2,0.7-4.8c-1-2.4-2.5-4.6-4.5-6.4h8.4c0.9,2.7,3.4,4.5,6.1,4.5h14.2L433.6,130.8z
			 M457.1,92.5v9c0,1.2-1,2.3-2.2,2.3h-32.5c-1.2,0-2.2-1-2.2-2.3v-9c0-1.2,1-2.3,2.2-2.3H455C456.2,90.3,457.1,91.3,457.1,92.5z"/>
		<path class="st0" d="M396.4,65.5c9.6,0,17.3-8.1,17.3-18s-7.8-18-17.3-18s-17.3,8.1-17.3,18C379.1,57.5,386.9,65.5,396.4,65.5z
			 M394.3,34.2v2c0,1.2,1,2.3,2.2,2.3c1.2,0,2.2-1,2.2-2.3v-2c5.4,1,9.7,5.4,10.6,11.1h-2c-1.2,0-2.2,1-2.2,2.3c0,1.2,1,2.3,2.2,2.3
			h2c-0.9,5.7-5.2,10.1-10.6,11.1v-2c0-1.2-1-2.3-2.2-2.3c-1.2,0-2.2,1-2.2,2.3v2c-5.4-1-9.7-5.4-10.6-11.1h2c1.2,0,2.2-1,2.2-2.3
			c0-1.2-1-2.3-2.2-2.3h-2C384.6,39.6,388.8,35.2,394.3,34.2z"/>
		<path class="st0" d="M396.4,49.8c0.6,0,1.1-0.2,1.5-0.7l4.3-4.5c0.8-0.9,0.8-2.3,0-3.2c-0.8-0.9-2.2-0.9-3,0l-4.3,4.5
			c-0.6,0.6-0.8,1.6-0.5,2.5S395.6,49.8,396.4,49.8z"/>
		<path class="st0" d="M431.1,56.5c4.8,0,8.7-4,8.7-9s-3.9-9-8.7-9s-8.7,4-8.7,9S426.3,56.5,431.1,56.5z M431.1,43
			c2.4,0,4.3,2,4.3,4.5c0,2.5-1.9,4.5-4.3,4.5s-4.3-2-4.3-4.5C426.8,45,428.7,43,431.1,43z"/>
		<path class="st0" d="M361.8,56.5c4.8,0,8.7-4,8.7-9s-3.9-9-8.7-9s-8.7,4-8.7,9S357,56.5,361.8,56.5z M361.8,43
			c2.4,0,4.3,2,4.3,4.5c0,2.5-1.9,4.5-4.3,4.5c-2.4,0-4.3-2-4.3-4.5C357.4,45,359.4,43,361.8,43z"/>
	</g>
</g>
<g>
	<g>
		<g id="Layer_1-2_9_">
			<path class="st1" d="M622.4,66.7v-0.8c0.1-1.5-1.6-2.2-5.1-2.2c-2.8,0-5.8,0.6-9.1,1.8c-0.1,0-1,0.4-2.7,1.1
				c-1.4,0.6-2.2,0.9-2.4,0.9c-0.7,0-1.1-0.4-1.1-1.1c0-0.4,0.7-1,2.2-1.7c0.2-0.1,0.3-0.2,0.5-0.3c1.6-1.3,2.4-4.5,2.4-9.4
				c0-2.8-0.1-4.8-0.2-6.2c-0.3-4.1-0.5-6-0.5-5.8c0-0.8,0.2-1.7,0.7-2.3c0.5-0.7,1.3-1.2,2.2-1.2c0.8,0,1.8,0.5,3,1.4
				c1.3,1,2,1.9,2,2.8c0,0.7-0.3,1.1-1,1.1c-0.5,0-1.1-0.6-1.9-1.9c-0.8-1.3-1.5-1.9-2.3-1.9c-0.5,0-0.7,0.8-0.7,2.4
				c0.3,5.7,0.4,8.5,0.4,8.5l0,6.5c0,1.9-0.5,3.7-1.3,5.3c3.8-1.5,7.2-2.2,10.1-2.2c1.2,0,2.5,0.4,3.8,1.1c1.6,0.8,2.4,1.9,2.4,3.1
				C623.8,66.4,623.3,66.7,622.4,66.7z"/>
			<path class="st1" d="M627.7,77.6c-2,0-3.8-0.9-5.4-2.6c-1.4-1.5-2.1-2.9-2.1-4.1c0-0.6,0.2-0.9,0.7-0.9c0.3,0,0.5,0.2,0.6,0.6
				c0.1,0.3,0.2,0.6,0.3,1c0.4,1.1,1.1,2.1,1.9,2.9c0.9,0.8,1.9,1.3,3.1,1.4c2.9,0.3,5.2-1.4,6.9-5c1.4-2.9,2-6.1,2-9.7
				c0-2.4-0.3-5.5-1-9.1c-1.2,3.1-2.1,5.5-2.9,7c-1.6,3.1-3.1,4.9-4.6,5.4c-0.2,0.1-0.5,0.1-0.7,0.1c-1.3,0-2-1.1-2-3.2
				c0-1.9,0.5-4.7,1.4-8.2c1-3.7,1.9-5.6,2.7-5.7c0.3,0,0.6,0.1,0.9,0.3c0.3,0.2,0.4,0.5,0.4,0.7c0,0.1,0,0.1,0,0.2
				c-0.9,1.6-1.7,3.2-2.3,4.9c-1,2.8-1.5,5.3-1.4,7.6c0,1.2,0.2,1.8,0.5,1.8c0.4,0,1.1-0.8,2.1-2.3c0.5-0.7,0.9-1.5,1.4-2.4
				c1.9-3.2,3.1-5.8,3.4-7.9c0.1-0.7,0.1-1.3,0-2c-0.1-1,0.2-1.5,1-1.5c0.7,0,1.2,0.7,1.3,2.2l0,0.3c0.3,3.2,0.7,5.2,1.1,5.9
				c0.2,0.4,0.4,2.4,0.4,5.9c0,3.3-0.7,6.6-2,9.7C633.7,75.4,631.1,77.6,627.7,77.6z"/>
			<path class="st1" d="M654,45c-0.3-0.1-0.5-0.4-0.6-0.8c0-0.4-0.1-0.7-0.1-1.1c-0.1-0.7-0.3-1.3-0.7-1.8c-0.5-0.7-0.9-1-1.4-1
				c-1.4,0-2.5,1.8-3.3,5.4c-0.4,1.8-0.7,4.6-0.9,8.4c0.2,0,0.5-0.1,1.1-0.3c0.4-0.1,0.8-0.2,1.2-0.2c1.2,0,2,0.5,2.4,1.4
				c0.1,0.2,0.1,0.4,0.1,0.5c0,0.3-0.1,0.5-0.3,0.6c-0.2,0.1-0.5-0.1-0.8-0.4c-0.4-0.5-0.9-0.7-1.5-0.7c-0.5,0-1,0.1-1.4,0.3
				c-0.6,0.2-0.9,0.4-1.1,0.6c-0.1,0.1-0.1,0.5-0.1,1.2c0,0.9,0.1,2.4,0.3,4.6c0.2,2.2,0.3,3.5,0.3,3.8c0,0.9-0.4,1.4-1.1,1.4
				c-0.7,0-1.1-0.5-1-1.5c0-0.2,0-0.4,0-0.3c0-0.7-0.1-3.5-0.2-8.6c-0.4,0.2-1.2,0.7-2.1,1.3c-0.4,0.2-0.6,0.3-0.7,0.3
				c-0.5,0-0.7-0.4-0.7-1.1c0-0.2,0-0.4,0.2-0.5c0.4-0.3,1.4-0.9,3.2-1.8l0.4-0.2c0.4-4.9,0.8-8,1.1-9.4c1-4.3,2.8-6.4,5.3-6.4
				c0.9,0,1.7,0.5,2.3,1.5c0.6,0.8,0.9,1.7,0.9,2.7C654.7,44.2,654.5,44.8,654,45z"/>
			<path class="st1" d="M665.3,50.5c-0.3-0.1-0.6-0.2-0.8-0.4c-0.3-0.2-0.7-0.3-1-0.4c-0.9-0.1-2.2,0.6-3.9,2.1
				c-1.7,1.5-2.6,2.9-2.6,4c0,0.6,1,0.9,3,0.9c3.9,0,5.8,1.1,5.8,3.3c0,1.6-0.9,3-2.6,4.3c-1.6,1.1-3.1,1.7-4.7,1.7
				c-0.7,0-1.4-0.2-1.9-0.7c-1-0.6-1.3-1.9-0.8-2.9c0-0.1,0.1-0.2,0.1-0.2c0.3-0.5,0.6-0.8,1-0.8c0.1,0,0.2,0,0.3,0.1
				c0,0.4-0.1,0.8-0.2,1.2c-0.1,0.2-0.1,0.3-0.1,0.5c0,0.6,0.4,1,1.1,1c1.1,0,2.4-0.4,3.9-1.2c1.6-0.9,2.4-1.8,2.4-2.7
				c0-0.6-0.3-1.1-0.9-1.5c-0.5-0.3-1-0.5-1.5-0.5l-4-0.1c-0.7,0-1.3-0.2-1.9-0.4c-0.9-0.3-1.3-0.8-1.3-1.4c0-1.4,1.1-3.2,3.2-5.4
				s3.9-3.3,5.4-3.3c0.5,0,1,0.2,1.5,0.5c0.7,0.4,1.1,0.8,1.1,1.3C666,50.2,665.8,50.5,665.3,50.5z"/>
			<path class="st1" d="M670.6,47.3c-0.1,0.1-0.3,0.2-0.5,0.2c-0.3,0-0.5-0.2-0.5-0.5c0-0.3,0.2-0.5,0.4-0.7
				c0.8-0.6,1.1-1.8,1.1-3.6c0-0.3,0-0.7-0.1-1c0-0.2,0.1-0.5,0.4-0.7c0.3-0.2,0.6-0.4,1-0.4c0.5,0,0.8,0.4,0.8,1.2
				c0,0.9-0.3,1.8-0.8,2.9C671.9,45.8,671.3,46.7,670.6,47.3z"/>
			<path class="st1" d="M572,33.6c0.4,0.5,1.1,0.6,1.6,0.2c0,0,0,0,0,0c0.5-0.4,0.6-1.1,0.2-1.6l-0.6-0.8c-1.1-1.4-1.1-3.5,0-4.9
				l0.6-0.8c1.5-1.9,1.5-4.7,0-6.6c-0.4-0.5-1.1-0.6-1.6-0.2s-0.6,1.1-0.2,1.6c0.8,1.1,0.8,2.6,0,3.7l-0.6,0.8
				c-1.7,2.3-1.7,5.5,0,7.7L572,33.6z"/>
			<path class="st1" d="M565.9,36.2c0.4,0.5,1.1,0.6,1.6,0.2s0.6-1.1,0.2-1.6L567,34c-1.1-1.4-1.1-3.5,0-4.9l0.6-0.8
				c1.5-1.9,1.5-4.7,0-6.6c-0.4-0.5-1.1-0.6-1.6-0.2c-0.5,0.4-0.6,1.1-0.2,1.6l0,0c0.8,1.1,0.8,2.6,0,3.7l-0.6,0.8
				c-1.7,2.3-1.7,5.5,0,7.7L565.9,36.2z"/>
			<path class="st1" d="M578.1,36.2c0.4,0.5,1.1,0.6,1.6,0.2c0.5-0.4,0.6-1.1,0.2-1.6l-0.6-0.8c-1.1-1.4-1.1-3.5,0-4.9l0.6-0.7
				c1.5-1.9,1.5-4.7,0-6.6c-0.4-0.5-1.1-0.6-1.6-0.2c-0.5,0.4-0.6,1.1-0.2,1.6c0.8,1.1,0.8,2.6,0,3.7l-0.6,0.8
				c-1.7,2.3-1.7,5.5,0,7.8L578.1,36.2z"/>
			<path class="st1" d="M579.9,38.9c-0.3,0-0.6,0.1-0.8,0.3c-0.2,0.2-0.3,0.5-0.3,0.8c0,0.6,0.5,1.1,1.1,1.1c0.6,0,1.1-0.5,1.1-1.1
				c0-0.3-0.1-0.6-0.3-0.8C580.5,39,580.2,38.9,579.9,38.9z"/>
			<path class="st1" d="M555.7,48.9c-0.6,0-1.1,0.5-1.1,1.2v0c0,4.9,1.9,9.6,5.2,13.1c0.4,0.4,1.1,0.5,1.6,0s0.4-1.2,0-1.6
				c-2.9-3.1-4.6-7.2-4.6-11.5C556.8,49.4,556.3,48.9,555.7,48.9z"/>
			<path class="st1" d="M564.8,64.2c-0.5-0.3-1.2-0.1-1.5,0.4s-0.1,1.3,0.4,1.6l0,0l0,0c0.2,0.1,0.4,0.1,0.5,0.1
				c0.6,0,1.1-0.5,1.1-1.2C565.4,64.8,565.2,64.4,564.8,64.2L564.8,64.2z"/>
			<path class="st1" d="M552.7,62.4c0.1,0.2,0.2,0.4,0.2,0.6c1.4,2.3,3.1,4.3,5.1,5.9h3.9c-6.4-3.9-10.4-11.1-10.4-18.8l0-8.8
				l22.8-0.1c0.6,0,1.1-0.5,1.1-1.2c0,0,0-0.1,0-0.1c-0.1-0.6-0.6-1-1.2-1L550.4,39c-0.6,0-1.1,0.5-1.1,1.2v0V42
				c-0.9-0.7-2.1-1-3.6-1.1c-2-0.1-3.9,0.4-5.6,1.5c-1.7,1.1-3.1,2.6-4.1,4.7c-1.1,2-1.6,4.4-1.7,7.1c-0.1,1.9,0.3,3.6,1,5.1
				c0.8,1.5,2,2.7,3.4,3.5c1.5,0.9,3.3,1.3,5.4,1.4c1.3,0,2.6,0,3.8-0.2c1.3-0.2,2.7-0.6,3.9-1.1C552.2,62.7,552.4,62.6,552.7,62.4z
				 M544.8,60.9c-2.3-0.1-4-0.8-5.1-2s-1.7-3-1.6-5.1c0.1-2.1,0.5-3.9,1.2-5.4c0.7-1.5,1.6-2.6,2.7-3.3c1-0.7,2.2-1.1,3.4-1
				c1.7,0.1,2.5,0.9,2.5,2.6c0,0.4-0.1,0.9-0.2,1.3c-0.1,0.3-0.1,0.6-0.1,0.9c0,0.4,0.1,0.8,0.4,1.1c0.3,0.3,0.7,0.4,1.1,0.4
				c0.2,0,0.4,0,0.6-0.1c0,0.2,0,0.4,0.1,0.5c0.4,3,1.1,6,2.1,8.9c-1.1,0.4-2.2,0.8-3.4,1C547.2,60.9,546,61,544.8,60.9L544.8,60.9z
				"/>
			<path class="st1" d="M592.5,62.3c2.1-3.7,3.2-8,3.2-12.3l0-10c0-0.6-0.5-1.1-1.1-1.1c0,0,0,0,0,0h-4.9c-0.6,0-1.1,0.5-1.1,1.2
				c0,0,0,0.1,0,0.1c0.1,0.6,0.6,1.1,1.2,1h3.8l0,8.8c0,7.7-3.9,14.9-10.4,18.9h3.9C589.2,67,591.1,64.8,592.5,62.3z"/>
			<path class="st1" d="M595.9,68.8H592l-3.7,0l-29,0.1l-10.3,0c-0.6,0-1.1,0.5-1.1,1.2c0,4.2,3.3,7.6,7.3,7.6l34.5-0.1
				c4,0,7.3-3.4,7.3-7.6C597,69.3,596.5,68.8,595.9,68.8C595.9,68.8,595.9,68.8,595.9,68.8z M589.8,75.2l-34.5,0.1
				c-2.4,0-4.4-1.7-5-4.1l12.6,0l21.8-0.1l10,0C594.2,73.5,592.1,75.2,589.8,75.2z"/>
		</g>
	</g>
</g>
<g>
	<path class="st0" d="M23.8,325.8c-4.7,1.8-8.3,4.7-10.8,8.5c-2.6,3.9-3.8,8.6-3.8,14.2c0,2.5,0.2,4.3,0.7,5.3
		c0.5,1,0.7,1.6,0.7,1.7c-3.5,0-6.2-0.8-7.9-2.3C0.9,351.6,0,349,0,345.5c0-4.4,1.7-8.6,5.2-12.7c3.4-4.1,7.9-7.5,13.2-10
		c5.4-2.6,10.8-3.8,16.1-3.8c0.9,0,2.2,0.1,3.9,0.2l0.9,62.9L60,319.4h12.5l0.9,62.6l20.7-62.6h6.9l-27.4,76.2H59.4l-1.2-52
		l-18.7,52H25.4L23.8,325.8z"/>
	<path class="st0" d="M96.7,392.3c-2.7-2.6-4-6.7-4-12.3c0-4.7,0.9-9.9,2.7-15.5c1.8-5.7,4.7-10.5,8.7-14.7c4-4.1,9.1-6.2,15.3-6.2
		c7.2,0,10.8,3.3,10.8,9.8c0,3.8-1.1,7.3-3.1,10.5c-2.1,3.2-4.9,5.8-8.4,7.7c-3.5,1.9-7.2,3.1-11.1,3.3c-0.1,1.5-0.2,2.5-0.2,3.1
		c0,5.7,2,8.5,6.1,8.5c1.8,0,3.8-0.5,5.9-1.5c2.1-1,4-2.3,5.7-3.9c-1.8,10.1-7.4,15.1-17,15.1C103.2,396.2,99.4,394.9,96.7,392.3z
		 M115.2,367.5c2.2-1.6,4-3.7,5.3-6.3c1.3-2.6,2-5.2,2-8c0-2.8-0.8-4.2-2.5-4.2c-2.3,0-4.6,2.2-6.8,6.5c-2.3,4.3-4,9.2-5.1,14.6
		C110.7,370,113,369.1,115.2,367.5z"/>
	<path class="st0" d="M153.9,392.2c-2.5-2.7-3.7-6.8-3.7-12.5c0-5,1-10.3,2.9-15.9c1.9-5.6,4.8-10.3,8.7-14.1
		c3.8-3.8,8.4-5.8,13.7-5.8c2.7,0,4.7,0.5,6,1.4c1.3,1,2,2.2,2,3.8v0.7l1.1-5.4h14.2l-7.1,34.8c-0.3,1-0.4,2.1-0.4,3.3
		c0,2.9,1.3,4.4,4,4.4c1.8,0,3.4-0.9,4.8-2.7c1.3-1.8,2.4-4.1,3.2-7h4.1c-2.4,7.4-5.4,12.4-9,15c-3.6,2.6-7.2,3.9-10.8,3.9
		c-2.8,0-5-0.8-6.6-2.4c-1.7-1.6-2.7-3.9-3-7c-1.9,2.8-4,5.1-6.3,6.8c-2.3,1.7-5.1,2.6-8.3,2.6C159.5,396.2,156.4,394.9,153.9,392.2
		z M174.6,383.9c1.6-1.6,2.7-3.8,3.3-6.6l4.7-23.1c0-0.9-0.3-1.8-1-2.6c-0.7-0.9-1.7-1.3-3.1-1.3c-2.6,0-5,1.6-7.1,4.8
		c-2.1,3.2-3.7,7-4.9,11.4c-1.2,4.5-1.8,8.4-1.8,11.8c0,3.4,0.5,5.6,1.4,6.5c1,1,2.1,1.4,3.5,1.4
		C171.3,386.3,172.9,385.5,174.6,383.9z"/>
	<path class="st0" d="M209.9,344.5h14.2l-1.3,6.3c2.2-2,4.2-3.6,6.1-4.7c1.8-1.1,3.8-1.6,5.9-1.6c2.1,0,3.8,0.8,5,2.2
		c1.2,1.5,1.8,3.3,1.8,5.4c0,2-0.6,3.7-1.9,5.2c-1.2,1.5-3,2.2-5.2,2.2c-1.4,0-2.4-0.4-2.9-1.1c-0.5-0.7-0.9-1.8-1.1-3.1
		c-0.2-0.9-0.4-1.5-0.6-1.9c-0.2-0.4-0.6-0.6-1.1-0.6c-1.4,0-2.5,0.3-3.5,0.9c-1,0.6-2.2,1.6-3.7,3l-7.9,38.8h-14.2L209.9,344.5z"/>
	<path class="st0" d="M242.9,392.3c-2.7-2.6-4-6.7-4-12.3c0-4.7,0.9-9.9,2.7-15.5c1.8-5.7,4.7-10.5,8.7-14.7c4-4.1,9.1-6.2,15.3-6.2
		c7.2,0,10.8,3.3,10.8,9.8c0,3.8-1.1,7.3-3.1,10.5c-2.1,3.2-4.9,5.8-8.4,7.7c-3.5,1.9-7.2,3.1-11.1,3.3c-0.1,1.5-0.2,2.5-0.2,3.1
		c0,5.7,2,8.5,6.1,8.5c1.8,0,3.8-0.5,5.9-1.5c2.1-1,4-2.3,5.7-3.9c-1.8,10.1-7.4,15.1-17,15.1C249.3,396.2,245.6,394.9,242.9,392.3z
		 M261.4,367.5c2.2-1.6,4-3.7,5.3-6.3c1.3-2.6,2-5.2,2-8c0-2.8-0.8-4.2-2.5-4.2c-2.3,0-4.6,2.2-6.8,6.5c-2.3,4.3-4,9.2-5.1,14.6
		C256.8,370,259.2,369.1,261.4,367.5z"/>
	<path class="st0" d="M324.4,392.9c-1.9-2.2-2.8-5-2.8-8.2c0-1.4,0.2-3,0.5-4.9c0.3-1.8,0.7-3.6,1-5.3c0.4-1.7,0.6-2.8,0.7-3.3
		c0.5-2.4,1-4.7,1.5-7.1c0.5-2.3,0.7-4.2,0.7-5.6c0-3.5-1.2-5.2-3.5-5.2c-1.7,0-3.2,0.9-4.5,2.6c-1.3,1.7-2.4,4-3.1,6.8l-6.7,32.8
		h-14.2l14.3-69.5l14.6-2l-5.3,25.8c3.3-3.8,7.1-5.7,11.5-5.7c3.3,0,6,1,8,2.9c2,1.9,3,4.8,3,8.7c0,2-0.2,4.2-0.7,6.6
		c-0.5,2.4-1.1,5.4-2,8.8c-0.5,2.1-1,4.2-1.4,6.2c-0.4,2-0.6,3.6-0.6,4.8c0,1.4,0.3,2.4,0.9,3.2c0.6,0.8,1.6,1.1,3.1,1.1
		c2,0,3.5-0.7,4.7-2.2c1.2-1.5,2.4-3.7,3.5-6.8h4.1c-2.4,7.5-5.2,12.5-8.4,15.1c-3.2,2.6-6.5,3.8-9.9,3.8
		C329.2,396.2,326.2,395.1,324.4,392.9z"/>
	<path class="st0" d="M349.4,393.1c-1.9-2-2.9-5.1-2.9-9.2c0-1.7,0.3-3.9,0.8-6.6l6.7-32.8h14.2l-7.1,34.8c-0.3,1-0.4,2.1-0.4,3.3
		c0,1.4,0.3,2.3,0.9,2.9c0.6,0.6,1.7,0.9,3.1,0.9c1.9,0,3.7-0.8,5.3-2.5c1.6-1.7,2.8-3.8,3.5-6.5h4.1c-2.4,7.4-5.5,12.4-9.4,15
		c-3.8,2.6-7.6,3.9-11.3,3.9C353.9,396.2,351.4,395.2,349.4,393.1z M358.3,336.6c-1.5-1.6-2.3-3.5-2.3-5.7s0.8-4.2,2.3-5.8
		c1.5-1.6,3.3-2.4,5.5-2.4c2.2,0,4,0.8,5.6,2.4c1.5,1.6,2.3,3.5,2.3,5.8s-0.8,4.2-2.3,5.7c-1.5,1.6-3.4,2.4-5.6,2.4
		C361.6,339,359.8,338.2,358.3,336.6z"/>
	<path class="st0" d="M380.3,344.5h14.2l-1.3,6.3c2.2-2,4.2-3.6,6.1-4.7c1.8-1.1,3.8-1.6,5.9-1.6c2.1,0,3.8,0.8,5,2.2
		c1.2,1.5,1.8,3.3,1.8,5.4c0,2-0.6,3.7-1.9,5.2c-1.2,1.5-3,2.2-5.2,2.2c-1.4,0-2.4-0.4-2.9-1.1c-0.5-0.7-0.9-1.8-1.1-3.1
		c-0.2-0.9-0.4-1.5-0.6-1.9c-0.2-0.4-0.6-0.6-1.1-0.6c-1.4,0-2.5,0.3-3.5,0.9c-1,0.6-2.2,1.6-3.7,3l-7.9,38.8h-14.2L380.3,344.5z"/>
	<path class="st0" d="M412.7,393.1c-1.9-2-2.9-5.1-2.9-9.2c0-1.7,0.3-3.9,0.8-6.6l6.7-32.8h14.2l-7.1,34.8c-0.3,1-0.4,2.1-0.4,3.3
		c0,1.4,0.3,2.3,0.9,2.9c0.6,0.6,1.7,0.9,3.1,0.9c1.9,0,3.7-0.8,5.3-2.5c1.6-1.7,2.8-3.8,3.5-6.5h4.1c-2.4,7.4-5.5,12.4-9.4,15
		c-3.8,2.6-7.6,3.9-11.3,3.9C417.2,396.2,414.7,395.2,412.7,393.1z M421.5,336.6c-1.5-1.6-2.3-3.5-2.3-5.7s0.8-4.2,2.3-5.8
		c1.5-1.6,3.3-2.4,5.5-2.4c2.2,0,4,0.8,5.6,2.4c1.5,1.6,2.3,3.5,2.3,5.8s-0.8,4.2-2.3,5.7c-1.5,1.6-3.4,2.4-5.6,2.4
		C424.9,339,423.1,338.2,421.5,336.6z"/>
	<path class="st0" d="M463.6,392.9c-1.9-2.2-2.8-5-2.8-8.2c0-1.4,0.2-3,0.5-4.9c0.3-1.8,0.7-3.6,1-5.3c0.4-1.7,0.6-2.8,0.7-3.3
		c0.5-2.4,1-4.7,1.5-7.1c0.5-2.3,0.7-4.2,0.7-5.6c0-3.5-1.2-5.2-3.5-5.2c-1.7,0-3.2,0.9-4.5,2.6c-1.3,1.7-2.4,4-3.1,6.8l-6.7,32.8
		h-14.2l10.4-51.1h14.2l-1.1,5.3c3.3-3.8,7.1-5.7,11.5-5.7c3.3,0,6,1,8,2.9c2,1.9,3,4.8,3,8.7c0,2-0.2,4.2-0.7,6.6
		c-0.5,2.4-1.1,5.4-2,8.8c-0.5,2.1-1,4.2-1.4,6.2c-0.4,2-0.6,3.6-0.6,4.8c0,1.4,0.3,2.4,0.9,3.2c0.6,0.8,1.6,1.1,3.1,1.1
		c2,0,3.5-0.7,4.7-2.2c1.2-1.5,2.4-3.7,3.5-6.8h4.1c-2.4,7.5-5.2,12.5-8.4,15.1c-3.2,2.6-6.5,3.8-9.9,3.8
		C468.4,396.2,465.5,395.1,463.6,392.9z"/>
	<path class="st0" d="M495.8,418c-2.3-2.1-3.5-4.7-3.5-7.9c0-3,0.7-5.5,2.2-7.4c1.4-1.9,3.3-3.4,5.6-4.5c2.3-1.1,5.4-2.2,9.3-3.5
		l0.9-4.3c-3.4,3.8-7.3,5.7-11.8,5.7c-3.7,0-6.9-1.3-9.4-4c-2.5-2.7-3.7-6.8-3.7-12.5c0-5,1-10.3,2.9-15.9
		c1.9-5.6,4.8-10.3,8.7-14.1c3.8-3.8,8.4-5.8,13.7-5.8c2.7,0,4.7,0.5,6,1.4c1.3,1,2,2.2,2,3.8v0.2l1-4.9h14.3l-12,59.3
		c-1.3,6.5-3.6,11.1-6.9,13.6c-3.3,2.5-7,3.8-11,3.8C500.8,421.1,498.1,420.1,495.8,418z M505,410.2c1-1.3,1.9-3.3,2.5-6.1l1.2-6
		c-3.5,1.2-6.2,2.7-8.1,4.3c-1.9,1.6-2.9,3.7-2.9,6.3c0,0.8,0.4,1.6,1.2,2.3c0.8,0.7,1.7,1.1,2.8,1.1C502.8,412,504,411.4,505,410.2
		z M509.4,384.3c1.5-1.3,2.6-3.2,3.3-5.7l5-24.7c-0.5-2.4-1.9-3.6-4-3.6c-2.6,0-5,1.6-7.1,4.8c-2.1,3.2-3.7,7-4.9,11.4
		c-1.2,4.5-1.8,8.4-1.8,11.8c0,3.4,0.5,5.6,1.4,6.5c1,1,2.1,1.4,3.5,1.4C506.3,386.3,507.8,385.6,509.4,384.3z"/>
</g>
<g>
	<path d="M195.7,446.7c0.9,0.5,2.1,1.2,2.8,1.9c2.2,2.3,3.3,5.1,3.3,8.4c0,3.3-1.1,6.1-3.3,8.4c-2.2,2.3-4.9,3.5-8,3.5h-13.5v-37.8
		h7.6h2.5c2.8,0,5.2,1,7.2,3.1c1.9,2,2.9,4.4,2.9,7.2C197.2,443.3,196.4,445.4,195.7,446.7z M187.1,438.5h-2.9v6.9
		c0.6,0,1.6-0.1,2.7-0.2c1.7-0.2,3.2-1.5,3.2-3.5C190.2,440,188.8,438.5,187.1,438.5z M194.7,457c0-2.5-2-4.5-4.2-4.6
		c-2.2-0.1-4,0-6.2,0v9.2h1.4h4.8C192.8,461.5,194.7,459.5,194.7,457z"/>
	<path d="M218,430.3l16.6,38.6h-7.9l-2.5-5.7h-12.5l-2.5,5.7h-7.9L218,430.3z M221.3,456.4l-3.3-8l-3.4,8H221.3z"/>
	<path d="M237.7,431.1h11.9c4.1,0,7.3,1.6,9.5,3.8c2.2,2.3,3.5,4.4,3.5,8.6v1c0,2.5-0.8,4.9-2.3,7.2c-1.3,1.9-2.3,2.6-4.4,3.5
		l8.5,13.7h-8.9l-10.4-16.7v16.7h-7.3L237.7,431.1z M255.1,443.8c0-1.4-0.5-2.6-1.4-3.6c-0.9-1-2.8-1.5-4.5-1.5H245v10.4h2.8v0h2.4
		C253,449.1,255.1,446.6,255.1,443.8z"/>
	<path d="M267.6,431.1h7.3v37.8h-7.3V431.1z"/>
	<path d="M289.6,461.5c2,0,4.2-1.7,4.2-3.8c0-3.5-4.5-3.9-7-4.8c-4.4-1.6-8.4-5.4-8.4-10.5c0-6.4,5-11.5,11.1-11.5
		c5.6,0,10.2,4.3,11,9.9l-7.3,1.6c0-2.1-1.7-3.8-3.7-3.8c-2,0-3.7,1.7-3.7,3.8c0,3.4,4.1,4.3,6.7,5.1c4.6,1.4,8.6,5,8.6,10.3
		c0,6.4-5.5,11.5-11.6,11.5c-5.6,0-10.7-4.3-11.5-9.9l7.3-1.6C285.3,459.8,287.5,461.5,289.6,461.5L289.6,461.5z"/>
	<path d="M328.3,431.1v7.5h-8.9v30.3H312v-30.3h-9v-7.5H328.3z"/>
	<path d="M341,430.3l16.6,38.6h-7.9l-2.5-5.7h-12.5l-2.5,5.7h-7.9L341,430.3z M344.4,456.4l-3.3-8l-3.4,8H344.4z"/>
</g>
<g>
	<path class="st0" d="M22.4,500.7H30c1.2,0,2.4,0.2,3.4,0.7c1,0.4,1.9,1,2.7,1.8c0.8,0.9,1.4,1.7,1.7,2.5c0.3,0.8,0.5,1.8,0.5,3v0.7
		c0,0.9-0.1,1.7-0.4,2.4c-0.2,0.7-0.6,1.4-1.1,2.2c-0.4,0.6-0.8,1.1-1.2,1.3c-0.4,0.3-0.9,0.6-1.5,0.8l-1.1,0.5l0.7,1.1l5.1,8.3
		h-4.1l-5.5-8.9h-3.6v8.9h-3.3L22.4,500.7z M30.4,513.8L30.4,513.8c0.7,0,1.3-0.1,1.8-0.3c0.4-0.2,0.9-0.6,1.4-1.1
		c0.5-0.5,0.8-1.1,1-1.6c0.2-0.5,0.3-1.2,0.3-1.9c0-0.7-0.1-1.3-0.3-1.8c-0.2-0.5-0.5-1-1-1.5v0c-0.4-0.5-1-0.8-1.8-1.1
		c-0.7-0.2-1.4-0.4-2.2-0.4h-3h-1v1.1v7.6v1.1h1l1.2,0h0.8H30.4z"/>
	<path class="st0" d="M55,500.7v3.4h-9.6h-1v1.1v5.5v1.1h1h6.9v3.4h-6.9h-1v1.1v5.5v1.1h1H55v3.4h-9.6h-4.3v-25.4H55z"/>
	<path class="st0" d="M73.4,501.5c1.4,0.6,2.8,1.6,4,2.8c1.2,1.3,2.1,2.7,2.7,4.2c0.6,1.5,0.9,3.2,0.9,4.9c0,1.6-0.2,3-0.7,4.4
		c-0.5,1.4-1.2,2.6-2.1,3.8l-1,1.2l1.4,0.5c0.6,0.2,1.2,0.4,1.9,0.5c0.4,0.1,0.9,0.2,1.3,0.2l-0.3,3.3c-1.5-0.1-2.7-0.4-3.7-0.7
		c-1.1-0.4-2.1-0.8-3-1.4l-0.5-0.3l-0.5,0.3c-0.8,0.4-1.6,0.7-2.5,0.9c-0.9,0.2-1.8,0.3-2.7,0.3c-1.7,0-3.3-0.3-4.7-0.9
		c-1.5-0.6-2.8-1.6-4-2.8c-1.2-1.3-2.1-2.7-2.7-4.1c-0.6-1.5-0.9-3.1-0.9-4.9c0-1.8,0.3-3.4,0.9-4.9c0.6-1.5,1.5-2.9,2.7-4.2
		c1.2-1.3,2.6-2.2,4-2.8c1.4-0.6,3-0.9,4.7-0.9C70.4,500.5,71.9,500.8,73.4,501.5z M69.6,516.1c0.5,0.3,1.1,0.7,1.6,1.1
		c0.4,0.3,1,0.8,1.7,1.5c0.1,0.1,0.2,0.2,0.2,0.3c0.1,0.1,0.2,0.2,0.2,0.2c0,0.1,0.1,0.1,0.2,0.2c0.1,0.1,0.2,0.2,0.3,0.3l0.8,0.9
		l0.8-0.9c0.8-0.9,1.4-1.8,1.8-2.9c0.4-1.1,0.6-2.2,0.6-3.4c0-1.2-0.2-2.4-0.7-3.6c-0.5-1.1-1.1-2.1-2-3c-0.9-0.9-1.8-1.6-2.9-2.1
		c-1.1-0.5-2.3-0.7-3.5-0.7c-1.2,0-2.4,0.2-3.5,0.7c-1.1,0.5-2,1.1-2.9,2.1c-0.9,0.9-1.5,2-2,3c-0.4,1.1-0.7,2.3-0.7,3.6
		c0,1.3,0.2,2.5,0.7,3.6c0.4,1.1,1.1,2.1,2,3h0c0.8,0.9,1.8,1.6,2.9,2.1c1,0.5,2.2,0.7,3.5,0.7c0.3,0,0.5,0,0.7,0
		c0.2,0,0.4,0,0.7-0.1l2.2-0.3l-1.6-1.5c-0.5-0.5-0.9-0.8-1.2-1.1c-0.5-0.4-0.8-0.6-1.2-0.8c-0.4-0.2-0.8-0.4-1.2-0.5
		c-0.1,0-0.1,0-0.2,0c-0.1,0-0.1,0-0.1,0l0.2-3.3c0.5,0.1,0.8,0.2,1,0.2C68.5,515.5,69.1,515.8,69.6,516.1z"/>
	<path class="st0" d="M103.4,500.7v10v5.5c0,1.4-0.2,2.7-0.7,3.8c-0.5,1.2-1.2,2.3-2.1,3.2v0c-1,1-2,1.7-3.1,2.2
		c-1.1,0.5-2.4,0.7-3.7,0.7c-1.4,0-2.6-0.2-3.7-0.7c-1.2-0.5-2.2-1.2-3.1-2.2c-0.9-1-1.7-2.1-2.1-3.2c-0.5-1.2-0.7-2.4-0.7-3.8v-5.5
		v-10h3.3v10v4.9v0.6c0,0.9,0.2,1.7,0.5,2.5c0.3,0.7,0.8,1.5,1.4,2.1c0.6,0.6,1.3,1.1,2.1,1.4c0.7,0.3,1.5,0.5,2.4,0.5
		c0.8,0,1.6-0.2,2.4-0.5c0.8-0.3,1.4-0.8,2-1.4c0.6-0.6,1.1-1.3,1.4-2.1c0.3-0.8,0.5-1.6,0.5-2.5v-0.6v-4.9v-10H103.4z"/>
	<path class="st0" d="M106.7,500.7h3.3V526h-3.3V500.7z"/>
	<path class="st0" d="M113.2,500.7h7.6c1.2,0,2.4,0.2,3.4,0.7c1,0.4,1.9,1,2.7,1.8c0.8,0.9,1.4,1.7,1.7,2.5c0.3,0.8,0.5,1.8,0.5,3
		v0.7c0,0.9-0.1,1.7-0.4,2.4c-0.2,0.7-0.6,1.4-1.1,2.2c-0.4,0.6-0.8,1.1-1.2,1.3c-0.4,0.3-0.9,0.6-1.5,0.8l-1.1,0.5l0.7,1.1l5.1,8.3
		h-4.1l-5.5-8.9h-3.6v8.9h-3.3L113.2,500.7z M121.3,513.8L121.3,513.8c0.7,0,1.3-0.1,1.8-0.3c0.4-0.2,0.9-0.6,1.4-1.1
		c0.5-0.5,0.8-1.1,1-1.6c0.2-0.5,0.3-1.2,0.3-1.9c0-0.7-0.1-1.3-0.3-1.8c-0.2-0.5-0.5-1-1-1.5v0c-0.4-0.5-1-0.8-1.8-1.1
		c-0.7-0.2-1.4-0.4-2.2-0.4h-3h-1v1.1v7.6v1.1h1l1.2,0h0.8H121.3z"/>
	<path class="st0" d="M145.8,500.7v3.4h-9.6h-1v1.1v5.5v1.1h1h6.9v3.4h-6.9h-1v1.1v5.5v1.1h1h9.6v3.4h-9.6H132v-25.4H145.8z"/>
	<path class="st0" d="M160,519.4l11.9-18.9V526h-3.3v-14.4l-8.6,13.8l-8.6-13.8V526h-3.3v-25.5L160,519.4z"/>
	<path class="st0" d="M189.1,500.7v3.4h-9.6h-1v1.1v5.5v1.1h1h6.9v3.4h-6.9h-1v1.1v5.5v1.1h1h9.6v3.4h-9.6h-4.3v-25.4H189.1z"/>
	<path class="st0" d="M207.2,517.8v-3v-14.1h3.3v25.8l-15.9-17.6v1.9v15.3h-3.3v-25.6L207.2,517.8z"/>
	<path class="st0" d="M223.6,500.7h5.5v3.3h-5.5h-1v1.1V526h-3.3v-20.9v-1.1h-1h-5.5v-3.3h5.5H223.6z"/>
</g>
<g>
	<path d="M22.6,554.4v-1.4H27v1.4H22.6z"/>
	<path d="M40.9,558.9h-1.6V545h7.4v1.4h-5.9v5.1h5.5v1.4h-5.5V558.9z"/>
	<path d="M50.2,548.5v6.7c0,0.8,0.2,1.5,0.6,1.9c0.4,0.4,1,0.6,1.7,0.6c1,0,1.8-0.3,2.3-0.9c0.5-0.6,0.7-1.6,0.7-2.9v-5.5h1.5v10.4
		h-1.3l-0.2-1.4h-0.1c-0.3,0.5-0.7,0.9-1.3,1.2c-0.6,0.3-1.2,0.4-1.9,0.4c-1.2,0-2.1-0.3-2.7-0.9c-0.6-0.6-0.9-1.6-0.9-2.9v-6.8
		H50.2z"/>
	<path d="M61.8,558.9h-1.5v-14.8h1.5V558.9z"/>
	<path d="M66.5,558.9H65v-14.8h1.5V558.9z"/>
	<path d="M79,558.9h-1.6v-12.4h-4.2V545h10v1.4H79V558.9z"/>
	<path d="M84.8,545.7c0-0.4,0.1-0.6,0.3-0.8c0.2-0.2,0.4-0.3,0.6-0.3c0.2,0,0.5,0.1,0.6,0.3c0.2,0.2,0.3,0.4,0.3,0.8
		c0,0.4-0.1,0.6-0.3,0.8c-0.2,0.2-0.4,0.3-0.6,0.3c-0.3,0-0.5-0.1-0.6-0.3C84.9,546.3,84.8,546,84.8,545.7z M86.5,558.9H85v-10.4
		h1.5V558.9z"/>
	<path d="M102.5,558.9v-6.8c0-0.8-0.2-1.5-0.5-1.9c-0.3-0.4-0.9-0.6-1.6-0.6c-0.9,0-1.6,0.3-2.1,0.8c-0.5,0.6-0.7,1.4-0.7,2.6v5.8
		h-1.5v-6.8c0-0.8-0.2-1.5-0.5-1.9c-0.3-0.4-0.9-0.6-1.6-0.6c-1,0-1.6,0.3-2.1,0.9c-0.4,0.6-0.7,1.6-0.7,2.9v5.5h-1.5v-10.4h1.2
		l0.2,1.4h0.1c0.3-0.5,0.7-0.9,1.2-1.2c0.5-0.3,1.1-0.4,1.7-0.4c1.6,0,2.6,0.6,3.1,1.8h0.1c0.3-0.5,0.7-1,1.3-1.3
		c0.6-0.3,1.2-0.5,1.9-0.5c1.1,0,2,0.3,2.5,0.9c0.6,0.6,0.8,1.6,0.8,2.9v6.8H102.5z"/>
	<path d="M111.3,559.1c-1.5,0-2.6-0.5-3.5-1.4c-0.9-0.9-1.3-2.2-1.3-3.9c0-1.7,0.4-3,1.2-4c0.8-1,1.9-1.5,3.2-1.5
		c1.3,0,2.2,0.4,3,1.3c0.7,0.9,1.1,2,1.1,3.4v1h-6.9c0,1.2,0.3,2.1,0.9,2.8c0.6,0.6,1.4,0.9,2.4,0.9c1.1,0,2.1-0.2,3.2-0.7v1.4
		c-0.5,0.2-1,0.4-1.5,0.5C112.6,559,112,559.1,111.3,559.1z M110.9,549.6c-0.8,0-1.4,0.3-1.9,0.8c-0.5,0.5-0.8,1.3-0.8,2.3h5.2
		c0-1-0.2-1.8-0.6-2.3C112.3,549.9,111.7,549.6,110.9,549.6z"/>
	<path d="M134.3,551.9c0,2.2-0.5,4-1.6,5.2c-1.1,1.3-2.6,1.9-4.5,1.9c-2,0-3.5-0.6-4.6-1.9c-1.1-1.2-1.6-3-1.6-5.3
		c0-2.3,0.5-4,1.6-5.3c1.1-1.2,2.6-1.9,4.6-1.9c1.9,0,3.4,0.6,4.5,1.9C133.7,547.9,134.3,549.7,134.3,551.9z M123.6,551.9
		c0,1.9,0.4,3.3,1.2,4.3c0.8,1,1.9,1.5,3.4,1.5c1.5,0,2.6-0.5,3.4-1.5c0.8-1,1.1-2.4,1.1-4.3c0-1.9-0.4-3.3-1.1-4.2
		c-0.8-1-1.9-1.4-3.3-1.4c-1.5,0-2.6,0.5-3.4,1.5C124,548.7,123.6,550.1,123.6,551.9z"/>
	<path d="M143.9,558.9v-6.7c0-0.8-0.2-1.5-0.6-1.9c-0.4-0.4-1-0.6-1.7-0.6c-1,0-1.8,0.3-2.3,0.9c-0.5,0.6-0.7,1.6-0.7,2.9v5.5H137
		v-10.4h1.2l0.2,1.4h0.1c0.3-0.5,0.7-0.9,1.3-1.2c0.6-0.3,1.2-0.4,1.9-0.4c1.2,0,2.1,0.3,2.7,0.9c0.6,0.6,0.9,1.6,0.9,2.9v6.8H143.9
		z"/>
	<path d="M150,558.9h-1.5v-14.8h1.5V558.9z"/>
	<path d="M151.7,548.5h1.6l2.2,5.9c0.5,1.4,0.8,2.3,0.9,2.9h0.1c0.1-0.3,0.2-0.9,0.5-1.7c0.3-0.8,1.1-3.2,2.5-7.2h1.6l-4.3,11.8
		c-0.4,1.2-0.9,2-1.5,2.5c-0.6,0.5-1.3,0.7-2.1,0.7c-0.5,0-0.9-0.1-1.4-0.2v-1.3c0.3,0.1,0.7,0.1,1.1,0.1c1,0,1.8-0.6,2.2-1.8
		l0.6-1.5L151.7,548.5z"/>
	<path d="M278.2,554.6v-1.4h4.5v1.4H278.2z"/>
	<path d="M300.9,559.1l-4.5-12.3h-0.1c0.1,1,0.1,2.1,0.1,3.5v8.8H295v-13.9h2.3l4.2,11.4h0.1l4.3-11.4h2.3v13.9h-1.6v-8.9
		c0-1,0-2.1,0.1-3.3h-0.1l-4.6,12.3H300.9z"/>
	<path d="M317.8,559.1l-0.3-1.5h-0.1c-0.5,0.7-1,1.1-1.5,1.3c-0.5,0.2-1.1,0.3-1.9,0.3c-1,0-1.8-0.3-2.3-0.8
		c-0.6-0.5-0.8-1.3-0.8-2.3c0-2.1,1.6-3.2,4.9-3.3l1.7-0.1v-0.6c0-0.8-0.2-1.4-0.5-1.8c-0.3-0.4-0.9-0.6-1.6-0.6
		c-0.8,0-1.8,0.3-2.8,0.8l-0.5-1.2c0.5-0.3,1-0.5,1.6-0.7c0.6-0.2,1.2-0.2,1.8-0.2c1.2,0,2.1,0.3,2.7,0.8c0.6,0.6,0.9,1.4,0.9,2.6
		v7.1H317.8z M314.4,558c0.9,0,1.7-0.3,2.2-0.8c0.5-0.5,0.8-1.3,0.8-2.3V554l-1.5,0.1c-1.2,0-2.1,0.2-2.6,0.6
		c-0.5,0.3-0.8,0.9-0.8,1.6c0,0.6,0.2,1,0.5,1.3C313.3,557.9,313.8,558,314.4,558z"/>
	<path d="M324.5,553.8l-3.5-5.1h1.7l2.6,4l2.6-4h1.7l-3.5,5.1l3.7,5.3h-1.7l-2.8-4.2l-2.8,4.2h-1.7L324.5,553.8z"/>
	<path d="M342.9,559.1l-0.3-1.5h-0.1c-0.5,0.7-1,1.1-1.5,1.3c-0.5,0.2-1.1,0.3-1.9,0.3c-1,0-1.8-0.3-2.3-0.8
		c-0.6-0.5-0.8-1.3-0.8-2.3c0-2.1,1.6-3.2,4.9-3.3l1.7-0.1v-0.6c0-0.8-0.2-1.4-0.5-1.8c-0.3-0.4-0.9-0.6-1.6-0.6
		c-0.8,0-1.8,0.3-2.8,0.8l-0.5-1.2c0.5-0.3,1-0.5,1.6-0.7c0.6-0.2,1.2-0.2,1.8-0.2c1.2,0,2.1,0.3,2.7,0.8c0.6,0.6,0.9,1.4,0.9,2.6
		v7.1H342.9z M339.5,558c0.9,0,1.7-0.3,2.2-0.8c0.5-0.5,0.8-1.3,0.8-2.3V554l-1.5,0.1c-1.2,0-2.1,0.2-2.6,0.6
		c-0.5,0.3-0.8,0.9-0.8,1.6c0,0.6,0.2,1,0.5,1.3C338.4,557.9,338.9,558,339.5,558z"/>
	<path d="M355.3,548.7v1l-1.9,0.2c0.2,0.2,0.3,0.5,0.5,0.9c0.1,0.4,0.2,0.8,0.2,1.2c0,1-0.3,1.8-1,2.4c-0.7,0.6-1.6,0.9-2.8,0.9
		c-0.3,0-0.6,0-0.8-0.1c-0.6,0.4-1,0.8-1,1.3c0,0.3,0.1,0.5,0.3,0.6c0.2,0.1,0.6,0.2,1.2,0.2h1.8c1.1,0,1.9,0.2,2.5,0.7
		c0.6,0.5,0.9,1.2,0.9,2.1c0,1.2-0.4,2-1.3,2.6c-0.9,0.6-2.2,0.9-3.9,0.9c-1.3,0-2.3-0.3-3-0.8c-0.7-0.5-1.1-1.2-1.1-2.1
		c0-0.6,0.2-1.2,0.6-1.6c0.4-0.5,0.9-0.8,1.6-0.9c-0.3-0.1-0.5-0.3-0.6-0.6c-0.2-0.3-0.3-0.5-0.3-0.9c0-0.4,0.1-0.7,0.3-1
		c0.2-0.3,0.5-0.6,0.9-0.8c-0.5-0.2-0.9-0.6-1.3-1.1c-0.3-0.5-0.5-1.1-0.5-1.8c0-1.1,0.3-2,1-2.6c0.7-0.6,1.6-0.9,2.8-0.9
		c0.5,0,1,0.1,1.4,0.2H355.3z M347.4,560.9c0,0.6,0.2,1,0.7,1.3c0.5,0.3,1.1,0.4,2,0.4c1.3,0,2.2-0.2,2.8-0.6
		c0.6-0.4,0.9-0.9,0.9-1.6c0-0.6-0.2-1-0.5-1.2c-0.3-0.2-1-0.3-1.9-0.3h-1.8c-0.7,0-1.2,0.2-1.6,0.5
		C347.5,559.7,347.4,560.2,347.4,560.9z M348.2,552.1c0,0.7,0.2,1.3,0.6,1.7c0.4,0.4,0.9,0.6,1.7,0.6c1.5,0,2.2-0.7,2.2-2.2
		c0-1.6-0.7-2.3-2.2-2.3c-0.7,0-1.3,0.2-1.6,0.6C348.4,550.7,348.2,551.3,348.2,552.1z"/>
	<path d="M361.6,559.3c-1.5,0-2.6-0.5-3.5-1.4c-0.9-0.9-1.3-2.2-1.3-3.9c0-1.7,0.4-3,1.2-4c0.8-1,1.9-1.5,3.2-1.5
		c1.3,0,2.2,0.4,3,1.3c0.7,0.9,1.1,2,1.1,3.4v1h-6.9c0,1.2,0.3,2.1,0.9,2.8c0.6,0.6,1.4,0.9,2.4,0.9c1.1,0,2.1-0.2,3.2-0.7v1.4
		c-0.5,0.2-1,0.4-1.5,0.5C362.9,559.3,362.3,559.3,361.6,559.3z M361.2,549.9c-0.8,0-1.4,0.3-1.9,0.8c-0.5,0.5-0.8,1.3-0.8,2.3h5.2
		c0-1-0.2-1.8-0.6-2.3C362.6,550.1,362,549.9,361.2,549.9z"/>
	<path d="M112,580.1c0-0.9,0.4-1.3,1.1-1.3c0.7,0,1.1,0.4,1.1,1.3c0,0.4-0.1,0.7-0.3,0.9c-0.2,0.2-0.5,0.3-0.8,0.3
		c-0.3,0-0.6-0.1-0.8-0.3C112.1,580.9,112,580.6,112,580.1z M112,588.5c0-0.4,0.1-0.7,0.3-1c0.2-0.2,0.5-0.3,0.8-0.3
		c0.4,0,0.6,0.1,0.8,0.3c0.2,0.2,0.3,0.5,0.3,1c0,0.4-0.1,0.7-0.3,0.9c-0.2,0.2-0.5,0.3-0.8,0.3c-0.3,0-0.6-0.1-0.8-0.3
		C112.1,589.3,112,589,112,588.5z"/>
	<path d="M385.8,559.1H377v-1.4l3.5-3.7c1.1-1.1,1.8-1.9,2.1-2.4c0.3-0.5,0.6-0.9,0.8-1.4c0.2-0.5,0.3-0.9,0.3-1.5
		c0-0.7-0.2-1.3-0.6-1.8c-0.4-0.4-1-0.7-1.8-0.7c-0.6,0-1.1,0.1-1.6,0.3c-0.5,0.2-1,0.5-1.7,1l-0.8-1.1c1.2-1.1,2.6-1.6,4-1.6
		c1.3,0,2.2,0.3,3,1c0.7,0.7,1.1,1.6,1.1,2.7c0,0.9-0.2,1.7-0.7,2.6c-0.5,0.9-1.4,1.9-2.7,3.3l-2.9,3v0.1h6.9V559.1z"/>
	<path d="M391.9,550.7c1.4,0,2.5,0.4,3.3,1.1c0.8,0.7,1.2,1.7,1.2,3c0,1.4-0.4,2.6-1.3,3.4c-0.9,0.8-2.1,1.2-3.6,1.2
		c-1.5,0-2.7-0.2-3.4-0.7v-1.5c0.4,0.3,1,0.5,1.6,0.7c0.6,0.2,1.3,0.2,1.9,0.2c1.1,0,1.9-0.3,2.5-0.8c0.6-0.5,0.9-1.3,0.9-2.3
		c0-1.9-1.1-2.9-3.4-2.9c-0.6,0-1.4,0.1-2.3,0.3l-0.8-0.5l0.5-6.5h6.6v1.5h-5.3l-0.3,4.2C390.5,550.7,391.2,550.7,391.9,550.7z"/>
	<path d="M22.6,626.9v-1.4H27v1.4H22.6z"/>
	<path d="M49.5,631.4H48v-6.5h-7v6.5h-1.6v-13.9h1.6v5.9h7v-5.9h1.6V631.4z"/>
	<path d="M59.1,631.4l-0.3-1.5h-0.1c-0.5,0.7-1,1.1-1.5,1.3c-0.5,0.2-1.1,0.3-1.9,0.3c-1,0-1.8-0.3-2.3-0.8
		c-0.6-0.5-0.8-1.3-0.8-2.3c0-2.1,1.6-3.2,4.9-3.3l1.7-0.1v-0.6c0-0.8-0.2-1.4-0.5-1.8c-0.3-0.4-0.9-0.6-1.6-0.6
		c-0.8,0-1.8,0.3-2.8,0.8l-0.5-1.2c0.5-0.3,1-0.5,1.6-0.7c0.6-0.2,1.2-0.2,1.8-0.2c1.2,0,2.1,0.3,2.7,0.8c0.6,0.6,0.9,1.4,0.9,2.6
		v7.1H59.1z M55.7,630.3c0.9,0,1.7-0.3,2.2-0.8c0.5-0.5,0.8-1.3,0.8-2.3v-0.9l-1.5,0.1c-1.2,0-2.1,0.2-2.6,0.6
		c-0.5,0.3-0.8,0.9-0.8,1.6c0,0.6,0.2,1,0.5,1.3C54.6,630.1,55.1,630.3,55.7,630.3z"/>
	<path d="M65.5,631.4L61.7,621h1.6l2.2,6.2c0.5,1.4,0.8,2.4,0.9,2.8h0.1c0.1-0.3,0.3-1,0.6-2.1c0.4-1.1,1.2-3.4,2.4-6.9h1.6
		l-3.8,10.4H65.5z"/>
	<path d="M77,631.6c-1.5,0-2.6-0.5-3.5-1.4c-0.9-0.9-1.3-2.2-1.3-3.9c0-1.7,0.4-3,1.2-4c0.8-1,1.9-1.5,3.2-1.5c1.3,0,2.2,0.4,3,1.3
		c0.7,0.9,1.1,2,1.1,3.4v1h-6.9c0,1.2,0.3,2.1,0.9,2.8c0.6,0.6,1.4,0.9,2.4,0.9c1.1,0,2.1-0.2,3.2-0.7v1.4c-0.5,0.2-1,0.4-1.5,0.5
		C78.2,631.5,77.6,631.6,77,631.6z M76.5,622.1c-0.8,0-1.4,0.3-1.9,0.8c-0.5,0.5-0.8,1.3-0.8,2.3H79c0-1-0.2-1.8-0.6-2.3
		C77.9,622.4,77.3,622.1,76.5,622.1z"/>
	<path d="M94.2,631.4l-0.3-1.5h-0.1c-0.5,0.7-1,1.1-1.5,1.3c-0.5,0.2-1.1,0.3-1.9,0.3c-1,0-1.8-0.3-2.3-0.8
		c-0.6-0.5-0.8-1.3-0.8-2.3c0-2.1,1.6-3.2,4.9-3.3l1.7-0.1v-0.6c0-0.8-0.2-1.4-0.5-1.8c-0.3-0.4-0.9-0.6-1.6-0.6
		c-0.8,0-1.8,0.3-2.8,0.8l-0.5-1.2c0.5-0.3,1-0.5,1.6-0.7c0.6-0.2,1.2-0.2,1.8-0.2c1.2,0,2.1,0.3,2.7,0.8c0.6,0.6,0.9,1.4,0.9,2.6
		v7.1H94.2z M90.8,630.3c0.9,0,1.7-0.3,2.2-0.8c0.5-0.5,0.8-1.3,0.8-2.3v-0.9l-1.5,0.1c-1.2,0-2.1,0.2-2.6,0.6
		c-0.5,0.3-0.8,0.9-0.8,1.6c0,0.6,0.2,1,0.5,1.3C89.8,630.1,90.2,630.3,90.8,630.3z"/>
	<path d="M103.2,620.8c1.3,0,2.3,0.5,3.1,1.4s1.1,2.3,1.1,4c0,1.7-0.4,3-1.1,4c-0.7,0.9-1.8,1.4-3.1,1.4c-0.7,0-1.2-0.1-1.8-0.4
		s-1-0.6-1.4-1.2h-0.1l-0.3,1.3h-1.1v-14.8h1.5v3.6c0,0.8,0,1.5-0.1,2.2h0.1C100.7,621.3,101.8,620.8,103.2,620.8z M102.9,622.1
		c-1,0-1.8,0.3-2.2,0.9c-0.5,0.6-0.7,1.7-0.7,3.1c0,1.5,0.2,2.5,0.7,3.1c0.5,0.6,1.2,0.9,2.3,0.9c0.9,0,1.6-0.4,2.1-1.1
		c0.5-0.7,0.7-1.7,0.7-3c0-1.4-0.2-2.4-0.7-3C104.6,622.4,103.9,622.1,102.9,622.1z"/>
	<path d="M109.8,618.1c0-0.4,0.1-0.6,0.3-0.8c0.2-0.2,0.4-0.3,0.6-0.3c0.2,0,0.5,0.1,0.6,0.3c0.2,0.2,0.3,0.4,0.3,0.8
		c0,0.4-0.1,0.6-0.3,0.8c-0.2,0.2-0.4,0.3-0.6,0.3c-0.3,0-0.5-0.1-0.6-0.3C109.9,618.8,109.8,618.5,109.8,618.1z M111.5,631.4H110
		V621h1.5V631.4z"/>
	<path d="M116.2,631.4h-1.5v-14.8h1.5V631.4z"/>
	<path d="M119.3,618.1c0-0.4,0.1-0.6,0.3-0.8c0.2-0.2,0.4-0.3,0.6-0.3c0.2,0,0.5,0.1,0.6,0.3c0.2,0.2,0.3,0.4,0.3,0.8
		c0,0.4-0.1,0.6-0.3,0.8c-0.2,0.2-0.4,0.3-0.6,0.3c-0.3,0-0.5-0.1-0.6-0.3C119.4,618.8,119.3,618.5,119.3,618.1z M120.9,631.4h-1.5
		V621h1.5V631.4z"/>
	<path d="M127.4,630.3c0.3,0,0.5,0,0.8-0.1c0.2,0,0.4-0.1,0.6-0.1v1.2c-0.2,0.1-0.4,0.2-0.7,0.2c-0.3,0.1-0.6,0.1-0.9,0.1
		c-1.9,0-2.9-1.1-2.9-3.2v-6.2h-1.4v-0.8l1.4-0.7l0.6-2.2h0.9v2.4h2.9v1.2h-2.9v6.1c0,0.6,0.1,1.1,0.4,1.4
		C126.5,630.1,126.9,630.3,127.4,630.3z"/>
	<path d="M129.2,621h1.6l2.2,5.9c0.5,1.4,0.8,2.3,0.9,2.9h0.1c0.1-0.3,0.2-0.9,0.5-1.7c0.3-0.8,1.1-3.2,2.5-7.2h1.6l-4.3,11.8
		c-0.4,1.2-0.9,2-1.5,2.5c-0.6,0.5-1.3,0.7-2.1,0.7c-0.5,0-0.9-0.1-1.4-0.2v-1.3c0.3,0.1,0.7,0.1,1.1,0.1c1,0,1.8-0.6,2.2-1.8
		l0.6-1.5L129.2,621z"/>
	<path d="M148.3,630.3c0.3,0,0.5,0,0.8-0.1c0.2,0,0.4-0.1,0.6-0.1v1.2c-0.2,0.1-0.4,0.2-0.7,0.2c-0.3,0.1-0.6,0.1-0.9,0.1
		c-1.9,0-2.9-1.1-2.9-3.2v-6.2h-1.4v-0.8l1.4-0.7l0.6-2.2h0.9v2.4h2.9v1.2h-2.9v6.1c0,0.6,0.1,1.1,0.4,1.4
		C147.4,630.1,147.8,630.3,148.3,630.3z"/>
	<path d="M160.3,626.2c0,1.7-0.4,3-1.2,4c-0.8,1-2,1.4-3.4,1.4c-0.9,0-1.7-0.2-2.4-0.7c-0.7-0.4-1.2-1.1-1.6-1.9
		c-0.4-0.8-0.6-1.8-0.6-2.9c0-1.7,0.4-3,1.2-4c0.8-0.9,1.9-1.4,3.4-1.4c1.4,0,2.5,0.5,3.3,1.5C159.9,623.2,160.3,624.5,160.3,626.2z
		 M152.7,626.2c0,1.3,0.3,2.3,0.8,3c0.5,0.7,1.3,1,2.3,1c1,0,1.7-0.3,2.3-1c0.5-0.7,0.8-1.7,0.8-3c0-1.3-0.3-2.3-0.8-3
		c-0.5-0.7-1.3-1-2.3-1c-1,0-1.7,0.3-2.2,1C152.9,623.8,152.7,624.8,152.7,626.2z"/>
	<path d="M176,631.4l-1.8-6.1c-0.1-0.4-0.3-1.2-0.6-2.5h-0.1c-0.2,1.1-0.5,2-0.6,2.6l-1.9,6.1h-1.8l-2.7-10.4h1.6
		c0.6,2.6,1.1,4.6,1.5,6c0.3,1.4,0.5,2.3,0.6,2.8h0.1c0.1-0.4,0.2-0.8,0.3-1.4c0.1-0.6,0.3-1,0.4-1.4l1.8-6h1.6l1.8,6
		c0.3,1.1,0.6,2,0.7,2.7h0.1c0-0.2,0.1-0.6,0.2-1.1c0.1-0.5,0.7-3,1.9-7.7h1.6l-2.8,10.4H176z"/>
	<path d="M191,626.2c0,1.7-0.4,3-1.2,4c-0.8,1-2,1.4-3.4,1.4c-0.9,0-1.7-0.2-2.4-0.7c-0.7-0.4-1.2-1.1-1.6-1.9
		c-0.4-0.8-0.6-1.8-0.6-2.9c0-1.7,0.4-3,1.2-4c0.8-0.9,1.9-1.4,3.4-1.4c1.4,0,2.5,0.5,3.3,1.5C190.6,623.2,191,624.5,191,626.2z
		 M183.4,626.2c0,1.3,0.3,2.3,0.8,3c0.5,0.7,1.3,1,2.3,1c1,0,1.7-0.3,2.3-1c0.5-0.7,0.8-1.7,0.8-3c0-1.3-0.3-2.3-0.8-3
		c-0.5-0.7-1.3-1-2.3-1c-1,0-1.7,0.3-2.2,1C183.7,623.8,183.4,624.8,183.4,626.2z"/>
	<path d="M198.3,620.8c0.4,0,0.8,0,1.2,0.1l-0.2,1.5c-0.4-0.1-0.8-0.1-1.1-0.1c-0.8,0-1.5,0.3-2.1,1c-0.6,0.7-0.9,1.5-0.9,2.6v5.6
		h-1.5V621h1.3l0.2,1.9h0.1c0.4-0.7,0.8-1.2,1.3-1.6S197.6,620.8,198.3,620.8z"/>
	<path d="M202.8,626c0.3-0.4,0.7-0.9,1.2-1.5l3.2-3.6h1.8l-4.1,4.4l4.3,6h-1.8l-3.5-4.9l-1.1,1v3.9h-1.5v-14.8h1.5v7.8
		C202.8,624.8,202.8,625.3,202.8,626L202.8,626z"/>
	<path d="M39.6,642.9c0-0.4,0.1-0.6,0.3-0.8c0.2-0.2,0.4-0.3,0.6-0.3c0.2,0,0.5,0.1,0.6,0.3c0.2,0.2,0.3,0.4,0.3,0.8
		c0,0.4-0.1,0.6-0.3,0.8c-0.2,0.2-0.4,0.3-0.6,0.3c-0.3,0-0.5-0.1-0.6-0.3C39.6,643.6,39.6,643.3,39.6,642.9z M41.2,656.2h-1.5
		v-10.4h1.5V656.2z"/>
	<path d="M51.3,656.2v-6.7c0-0.8-0.2-1.5-0.6-1.9c-0.4-0.4-1-0.6-1.7-0.6c-1,0-1.8,0.3-2.3,0.9c-0.5,0.6-0.7,1.6-0.7,2.9v5.5h-1.5
		v-10.4h1.2l0.2,1.4H46c0.3-0.5,0.7-0.9,1.3-1.2c0.6-0.3,1.2-0.4,1.9-0.4c1.2,0,2.1,0.3,2.7,0.9s0.9,1.6,0.9,2.9v6.8H51.3z"/>
	<path d="M62.7,654.8L62.7,654.8c-0.8,1.1-1.8,1.6-3.2,1.6c-1.3,0-2.3-0.5-3.1-1.4c-0.7-0.9-1.1-2.3-1.1-4c0-1.7,0.4-3,1.1-4
		c0.7-0.9,1.7-1.4,3.1-1.4c1.4,0,2.4,0.5,3.1,1.5h0.1l-0.1-0.7l0-0.7v-4.2h1.5v14.8h-1.2L62.7,654.8z M59.7,655c1,0,1.8-0.3,2.3-0.9
		c0.5-0.6,0.7-1.5,0.7-2.8V651c0-1.5-0.2-2.5-0.7-3.2c-0.5-0.6-1.2-0.9-2.3-0.9c-0.9,0-1.6,0.4-2,1.1c-0.5,0.7-0.7,1.7-0.7,3
		c0,1.3,0.2,2.3,0.7,3S58.8,655,59.7,655z"/>
	<path d="M67.2,642.9c0-0.4,0.1-0.6,0.3-0.8c0.2-0.2,0.4-0.3,0.6-0.3c0.2,0,0.5,0.1,0.6,0.3c0.2,0.2,0.3,0.4,0.3,0.8
		c0,0.4-0.1,0.6-0.3,0.8c-0.2,0.2-0.4,0.3-0.6,0.3c-0.3,0-0.5-0.1-0.6-0.3C67.3,643.6,67.2,643.3,67.2,642.9z M68.9,656.2h-1.5
		v-10.4h1.5V656.2z"/>
	<path d="M74.3,656.2l-3.8-10.4h1.6l2.2,6.2c0.5,1.4,0.8,2.4,0.9,2.8h0.1c0.1-0.3,0.3-1,0.6-2.1c0.4-1.1,1.2-3.4,2.4-6.9h1.6
		l-3.8,10.4H74.3z"/>
	<path d="M81.4,642.9c0-0.4,0.1-0.6,0.3-0.8c0.2-0.2,0.4-0.3,0.6-0.3c0.2,0,0.5,0.1,0.6,0.3c0.2,0.2,0.3,0.4,0.3,0.8
		c0,0.4-0.1,0.6-0.3,0.8c-0.2,0.2-0.4,0.3-0.6,0.3c-0.3,0-0.5-0.1-0.6-0.3C81.4,643.6,81.4,643.3,81.4,642.9z M83,656.2h-1.5v-10.4
		H83V656.2z"/>
	<path d="M93,654.8L93,654.8c-0.8,1.1-1.8,1.6-3.2,1.6c-1.3,0-2.3-0.5-3.1-1.4c-0.7-0.9-1.1-2.3-1.1-4c0-1.7,0.4-3,1.1-4
		s1.7-1.4,3.1-1.4c1.4,0,2.4,0.5,3.1,1.5h0.1l-0.1-0.7l0-0.7v-4.2h1.5v14.8h-1.2L93,654.8z M90,655c1,0,1.8-0.3,2.3-0.9
		c0.5-0.6,0.7-1.5,0.7-2.8V651c0-1.5-0.2-2.5-0.7-3.2c-0.5-0.6-1.2-0.9-2.3-0.9c-0.9,0-1.6,0.4-2,1.1c-0.5,0.7-0.7,1.7-0.7,3
		c0,1.3,0.2,2.3,0.7,3C88.4,654.7,89.1,655,90,655z"/>
	<path d="M99.1,645.8v6.7c0,0.8,0.2,1.5,0.6,1.9c0.4,0.4,1,0.6,1.7,0.6c1,0,1.8-0.3,2.3-0.9c0.5-0.6,0.7-1.6,0.7-2.9v-5.5h1.5v10.4
		h-1.3l-0.2-1.4h-0.1c-0.3,0.5-0.7,0.9-1.3,1.2c-0.6,0.3-1.2,0.4-1.9,0.4c-1.2,0-2.1-0.3-2.7-0.9c-0.6-0.6-0.9-1.6-0.9-2.9v-6.8
		H99.1z"/>
	<path d="M115.3,656.2l-0.3-1.5H115c-0.5,0.7-1,1.1-1.5,1.3c-0.5,0.2-1.1,0.3-1.9,0.3c-1,0-1.8-0.3-2.3-0.8
		c-0.6-0.5-0.8-1.3-0.8-2.3c0-2.1,1.6-3.2,4.9-3.3l1.7-0.1v-0.6c0-0.8-0.2-1.4-0.5-1.8c-0.3-0.4-0.9-0.6-1.6-0.6
		c-0.8,0-1.8,0.3-2.8,0.8l-0.5-1.2c0.5-0.3,1-0.5,1.6-0.7c0.6-0.2,1.2-0.2,1.8-0.2c1.2,0,2.1,0.3,2.7,0.8c0.6,0.6,0.9,1.4,0.9,2.6
		v7.1H115.3z M111.9,655.1c0.9,0,1.7-0.3,2.2-0.8c0.5-0.5,0.8-1.3,0.8-2.3V651l-1.5,0.1c-1.2,0-2.1,0.2-2.6,0.6
		c-0.5,0.3-0.8,0.9-0.8,1.6c0,0.6,0.2,1,0.5,1.3C110.8,654.9,111.3,655.1,111.9,655.1z"/>
	<path d="M121.1,656.2h-1.5v-14.8h1.5V656.2z"/>
	<path d="M125.8,656.2h-1.5v-14.8h1.5V656.2z"/>
	<path d="M127.5,645.8h1.6l2.2,5.9c0.5,1.4,0.8,2.3,0.9,2.9h0.1c0.1-0.3,0.2-0.9,0.5-1.7c0.3-0.8,1.1-3.2,2.5-7.2h1.6l-4.3,11.8
		c-0.4,1.2-0.9,2-1.5,2.5c-0.6,0.5-1.3,0.7-2.1,0.7c-0.5,0-0.9-0.1-1.4-0.2v-1.3c0.3,0.1,0.7,0.1,1.1,0.1c1,0,1.8-0.6,2.2-1.8
		l0.6-1.5L127.5,645.8z"/>
	<path d="M149.5,656.2l-0.3-1.5h-0.1c-0.5,0.7-1,1.1-1.5,1.3c-0.5,0.2-1.1,0.3-1.9,0.3c-1,0-1.8-0.3-2.3-0.8
		c-0.6-0.5-0.8-1.3-0.8-2.3c0-2.1,1.6-3.2,4.9-3.3l1.7-0.1v-0.6c0-0.8-0.2-1.4-0.5-1.8c-0.3-0.4-0.9-0.6-1.6-0.6
		c-0.8,0-1.8,0.3-2.8,0.8l-0.5-1.2c0.5-0.3,1-0.5,1.6-0.7c0.6-0.2,1.2-0.2,1.8-0.2c1.2,0,2.1,0.3,2.7,0.8c0.6,0.6,0.9,1.4,0.9,2.6
		v7.1H149.5z M146.1,655.1c0.9,0,1.7-0.3,2.2-0.8c0.5-0.5,0.8-1.3,0.8-2.3V651l-1.5,0.1c-1.2,0-2.1,0.2-2.6,0.6
		c-0.5,0.3-0.8,0.9-0.8,1.6c0,0.6,0.2,1,0.5,1.3C145,654.9,145.5,655.1,146.1,655.1z"/>
	<path d="M160.6,656.2v-6.7c0-0.8-0.2-1.5-0.6-1.9c-0.4-0.4-1-0.6-1.7-0.6c-1,0-1.8,0.3-2.3,0.9c-0.5,0.6-0.7,1.6-0.7,2.9v5.5h-1.5
		v-10.4h1.2l0.2,1.4h0.1c0.3-0.5,0.7-0.9,1.3-1.2c0.6-0.3,1.2-0.4,1.9-0.4c1.2,0,2.1,0.3,2.7,0.9c0.6,0.6,0.9,1.6,0.9,2.9v6.8H160.6
		z"/>
	<path d="M172,654.8L172,654.8c-0.8,1.1-1.8,1.6-3.2,1.6c-1.3,0-2.3-0.5-3.1-1.4c-0.7-0.9-1.1-2.3-1.1-4c0-1.7,0.4-3,1.1-4
		s1.7-1.4,3.1-1.4c1.4,0,2.4,0.5,3.1,1.5h0.1l-0.1-0.7l0-0.7v-4.2h1.5v14.8h-1.2L172,654.8z M169,655c1,0,1.8-0.3,2.3-0.9
		c0.5-0.6,0.7-1.5,0.7-2.8V651c0-1.5-0.2-2.5-0.7-3.2c-0.5-0.6-1.2-0.9-2.3-0.9c-0.9,0-1.6,0.4-2,1.1c-0.5,0.7-0.7,1.7-0.7,3
		c0,1.3,0.2,2.3,0.7,3C167.4,654.7,168.1,655,169,655z"/>
	<path d="M181.4,642.9c0-0.4,0.1-0.6,0.3-0.8c0.2-0.2,0.4-0.3,0.6-0.3c0.2,0,0.5,0.1,0.6,0.3c0.2,0.2,0.3,0.4,0.3,0.8
		c0,0.4-0.1,0.6-0.3,0.8c-0.2,0.2-0.4,0.3-0.6,0.3c-0.3,0-0.5-0.1-0.6-0.3C181.5,643.6,181.4,643.3,181.4,642.9z M183.1,656.2h-1.5
		v-10.4h1.5V656.2z"/>
	<path d="M193.1,656.2v-6.7c0-0.8-0.2-1.5-0.6-1.9c-0.4-0.4-1-0.6-1.7-0.6c-1,0-1.8,0.3-2.3,0.9c-0.5,0.6-0.7,1.6-0.7,2.9v5.5h-1.5
		v-10.4h1.2l0.2,1.4h0.1c0.3-0.5,0.7-0.9,1.3-1.2c0.6-0.3,1.2-0.4,1.9-0.4c1.2,0,2.1,0.3,2.7,0.9c0.6,0.6,0.9,1.6,0.9,2.9v6.8H193.1
		z"/>
	<path d="M208.8,656.2l-0.3-1.5h-0.1c-0.5,0.7-1,1.1-1.5,1.3c-0.5,0.2-1.1,0.3-1.9,0.3c-1,0-1.8-0.3-2.3-0.8
		c-0.6-0.5-0.8-1.3-0.8-2.3c0-2.1,1.6-3.2,4.9-3.3l1.7-0.1v-0.6c0-0.8-0.2-1.4-0.5-1.8c-0.3-0.4-0.9-0.6-1.6-0.6
		c-0.8,0-1.8,0.3-2.8,0.8l-0.5-1.2c0.5-0.3,1-0.5,1.6-0.7c0.6-0.2,1.2-0.2,1.8-0.2c1.2,0,2.1,0.3,2.7,0.8c0.6,0.6,0.9,1.4,0.9,2.6
		v7.1H208.8z M205.4,655.1c0.9,0,1.7-0.3,2.2-0.8c0.5-0.5,0.8-1.3,0.8-2.3V651l-1.5,0.1c-1.2,0-2.1,0.2-2.6,0.6
		c-0.5,0.3-0.8,0.9-0.8,1.6c0,0.6,0.2,1,0.5,1.3C204.3,654.9,204.8,655.1,205.4,655.1z"/>
	<path d="M221.1,655.1c0.3,0,0.5,0,0.8-0.1c0.2,0,0.4-0.1,0.6-0.1v1.2c-0.2,0.1-0.4,0.2-0.7,0.2c-0.3,0.1-0.6,0.1-0.9,0.1
		c-1.9,0-2.9-1.1-2.9-3.2V647h-1.4v-0.8l1.4-0.7l0.6-2.2h0.9v2.4h2.9v1.2h-2.9v6.1c0,0.6,0.1,1.1,0.4,1.4
		C220.2,654.9,220.6,655.1,221.1,655.1z"/>
	<path d="M228.7,656.4c-1.5,0-2.6-0.5-3.5-1.4s-1.3-2.2-1.3-3.9c0-1.7,0.4-3,1.2-4c0.8-1,1.9-1.5,3.2-1.5c1.3,0,2.2,0.4,3,1.3
		c0.7,0.9,1.1,2,1.1,3.4v1h-6.9c0,1.2,0.3,2.1,0.9,2.8c0.6,0.6,1.4,0.9,2.4,0.9c1.1,0,2.1-0.2,3.2-0.7v1.4c-0.5,0.2-1,0.4-1.5,0.5
		C230,656.3,229.4,656.4,228.7,656.4z M228.3,646.9c-0.8,0-1.4,0.3-1.9,0.8c-0.5,0.5-0.8,1.3-0.8,2.3h5.2c0-1-0.2-1.8-0.6-2.3
		C229.7,647.2,229.1,646.9,228.3,646.9z"/>
	<path d="M241.2,656.2l-0.3-1.5h-0.1c-0.5,0.7-1,1.1-1.5,1.3c-0.5,0.2-1.1,0.3-1.9,0.3c-1,0-1.8-0.3-2.3-0.8
		c-0.6-0.5-0.8-1.3-0.8-2.3c0-2.1,1.6-3.2,4.9-3.3l1.7-0.1v-0.6c0-0.8-0.2-1.4-0.5-1.8c-0.3-0.4-0.9-0.6-1.6-0.6
		c-0.8,0-1.8,0.3-2.8,0.8l-0.5-1.2c0.5-0.3,1-0.5,1.6-0.7c0.6-0.2,1.2-0.2,1.8-0.2c1.2,0,2.1,0.3,2.7,0.8c0.6,0.6,0.9,1.4,0.9,2.6
		v7.1H241.2z M237.7,655.1c0.9,0,1.7-0.3,2.2-0.8c0.5-0.5,0.8-1.3,0.8-2.3V651l-1.5,0.1c-1.2,0-2.1,0.2-2.6,0.6
		c-0.5,0.3-0.8,0.9-0.8,1.6c0,0.6,0.2,1,0.5,1.3C236.7,654.9,237.1,655.1,237.7,655.1z"/>
	<path d="M258.2,656.2v-6.8c0-0.8-0.2-1.5-0.5-1.9c-0.3-0.4-0.9-0.6-1.6-0.6c-0.9,0-1.6,0.3-2.1,0.8c-0.5,0.6-0.7,1.4-0.7,2.6v5.8
		h-1.5v-6.8c0-0.8-0.2-1.5-0.5-1.9c-0.3-0.4-0.9-0.6-1.6-0.6c-1,0-1.6,0.3-2.1,0.9c-0.4,0.6-0.7,1.6-0.7,2.9v5.5h-1.5v-10.4h1.2
		l0.2,1.4h0.1c0.3-0.5,0.7-0.9,1.2-1.2c0.5-0.3,1.1-0.4,1.7-0.4c1.6,0,2.6,0.6,3.1,1.8h0.1c0.3-0.5,0.7-1,1.3-1.3
		c0.6-0.3,1.2-0.5,1.9-0.5c1.1,0,2,0.3,2.5,0.9c0.6,0.6,0.8,1.6,0.8,2.9v6.8H258.2z"/>
	<path d="M22.6,578.4v-1.4H27v1.4H22.6z"/>
	<path d="M47.8,582.8l-1.7-4.4h-5.4l-1.6,4.4h-1.6l5.3-13.9h1.3l5.3,13.9H47.8z M45.6,577l-1.6-4.3c-0.2-0.5-0.4-1.2-0.6-2
		c-0.1,0.6-0.3,1.3-0.6,2l-1.6,4.3H45.6z"/>
	<path d="M53.2,582.8l-3.8-10.4H51l2.2,6.2c0.5,1.4,0.8,2.4,0.9,2.8h0.1c0.1-0.3,0.3-1,0.6-2.1c0.4-1.1,1.2-3.4,2.4-6.9h1.6
		l-3.8,10.4H53.2z"/>
	<path d="M66.5,582.8l-0.3-1.5h-0.1c-0.5,0.7-1,1.1-1.5,1.3c-0.5,0.2-1.1,0.3-1.9,0.3c-1,0-1.8-0.3-2.3-0.8
		c-0.6-0.5-0.8-1.3-0.8-2.3c0-2.1,1.6-3.2,4.9-3.3l1.7-0.1V576c0-0.8-0.2-1.4-0.5-1.8c-0.3-0.4-0.9-0.6-1.6-0.6
		c-0.8,0-1.8,0.3-2.8,0.8l-0.5-1.2c0.5-0.3,1-0.5,1.6-0.7c0.6-0.2,1.2-0.2,1.8-0.2c1.2,0,2.1,0.3,2.7,0.8c0.6,0.6,0.9,1.4,0.9,2.6
		v7.1H66.5z M63.1,581.7c0.9,0,1.7-0.3,2.2-0.8c0.5-0.5,0.8-1.3,0.8-2.3v-0.9l-1.5,0.1c-1.2,0-2.1,0.2-2.6,0.6
		c-0.5,0.3-0.8,0.9-0.8,1.6c0,0.6,0.2,1,0.5,1.3C62,581.6,62.5,581.7,63.1,581.7z"/>
	<path d="M70.6,569.6c0-0.4,0.1-0.6,0.3-0.8c0.2-0.2,0.4-0.3,0.6-0.3c0.2,0,0.5,0.1,0.6,0.3c0.2,0.2,0.3,0.4,0.3,0.8
		c0,0.4-0.1,0.6-0.3,0.8c-0.2,0.2-0.4,0.3-0.6,0.3c-0.3,0-0.5-0.1-0.6-0.3C70.7,570.2,70.6,570,70.6,569.6z M72.3,582.8h-1.5v-10.4
		h1.5V582.8z"/>
	<path d="M77,582.8h-1.5v-14.8H77V582.8z"/>
	<path d="M86.4,582.8l-0.3-1.5H86c-0.5,0.7-1,1.1-1.5,1.3c-0.5,0.2-1.1,0.3-1.9,0.3c-1,0-1.8-0.3-2.3-0.8c-0.6-0.5-0.8-1.3-0.8-2.3
		c0-2.1,1.6-3.2,4.9-3.3l1.7-0.1V576c0-0.8-0.2-1.4-0.5-1.8c-0.3-0.4-0.9-0.6-1.6-0.6c-0.8,0-1.8,0.3-2.8,0.8l-0.5-1.2
		c0.5-0.3,1-0.5,1.6-0.7c0.6-0.2,1.2-0.2,1.8-0.2c1.2,0,2.1,0.3,2.7,0.8c0.6,0.6,0.9,1.4,0.9,2.6v7.1H86.4z M83,581.7
		c0.9,0,1.7-0.3,2.2-0.8c0.5-0.5,0.8-1.3,0.8-2.3v-0.9l-1.5,0.1c-1.2,0-2.1,0.2-2.6,0.6c-0.5,0.3-0.8,0.9-0.8,1.6
		c0,0.6,0.2,1,0.5,1.3C81.9,581.6,82.4,581.7,83,581.7z"/>
	<path d="M95.3,572.3c1.3,0,2.3,0.5,3.1,1.4s1.1,2.3,1.1,4c0,1.7-0.4,3-1.1,4c-0.7,0.9-1.8,1.4-3.1,1.4c-0.7,0-1.2-0.1-1.8-0.4
		s-1-0.6-1.4-1.2H92l-0.3,1.3h-1.1v-14.8h1.5v3.6c0,0.8,0,1.5-0.1,2.2h0.1C92.9,572.8,93.9,572.3,95.3,572.3z M95.1,573.6
		c-1,0-1.8,0.3-2.2,0.9c-0.5,0.6-0.7,1.7-0.7,3.1c0,1.5,0.2,2.5,0.7,3.1c0.5,0.6,1.2,0.9,2.3,0.9c0.9,0,1.6-0.4,2.1-1.1
		c0.5-0.7,0.7-1.7,0.7-3c0-1.4-0.2-2.4-0.7-3C96.7,573.9,96,573.6,95.1,573.6z"/>
	<path d="M103.6,582.8h-1.5v-14.8h1.5V582.8z"/>
	<path d="M111.1,583c-1.5,0-2.6-0.5-3.5-1.4c-0.9-0.9-1.3-2.2-1.3-3.9c0-1.7,0.4-3,1.2-4c0.8-1,1.9-1.5,3.2-1.5c1.3,0,2.2,0.4,3,1.3
		s1.1,2,1.1,3.4v1h-6.9c0,1.2,0.3,2.1,0.9,2.8c0.6,0.6,1.4,0.9,2.4,0.9c1.1,0,2.1-0.2,3.2-0.7v1.4c-0.5,0.2-1,0.4-1.5,0.5
		C112.3,583,111.7,583,111.1,583z M110.7,573.6c-0.8,0-1.4,0.3-1.9,0.8c-0.5,0.5-0.8,1.3-0.8,2.3h5.2c0-1-0.2-1.8-0.6-2.3
		C112.1,573.8,111.4,573.6,110.7,573.6z"/>
	<path d="M125.4,581.7c0.3,0,0.5,0,0.8-0.1c0.2,0,0.4-0.1,0.6-0.1v1.2c-0.2,0.1-0.4,0.2-0.7,0.2c-0.3,0.1-0.6,0.1-0.9,0.1
		c-1.9,0-2.9-1.1-2.9-3.2v-6.2h-1.4v-0.8l1.4-0.7l0.6-2.2h0.9v2.4h2.9v1.2h-2.9v6.1c0,0.6,0.1,1.1,0.4,1.4
		C124.5,581.6,124.9,581.7,125.4,581.7z"/>
	<path d="M137.4,577.6c0,1.7-0.4,3-1.2,4c-0.8,1-2,1.4-3.4,1.4c-0.9,0-1.7-0.2-2.4-0.7c-0.7-0.4-1.2-1.1-1.6-1.9
		c-0.4-0.8-0.6-1.8-0.6-2.9c0-1.7,0.4-3,1.2-4c0.8-0.9,1.9-1.4,3.4-1.4c1.4,0,2.5,0.5,3.3,1.5C137,574.7,137.4,576,137.4,577.6z
		 M129.8,577.6c0,1.3,0.3,2.3,0.8,3c0.5,0.7,1.3,1,2.3,1c1,0,1.7-0.3,2.3-1c0.5-0.7,0.8-1.7,0.8-3c0-1.3-0.3-2.3-0.8-3
		c-0.5-0.7-1.3-1-2.3-1c-1,0-1.7,0.3-2.2,1C130.1,575.3,129.8,576.3,129.8,577.6z"/>
	<path d="M153.1,582.8l-1.8-6.1c-0.1-0.4-0.3-1.2-0.6-2.5h-0.1c-0.2,1.1-0.5,2-0.6,2.6l-1.9,6.1h-1.8l-2.7-10.4h1.6
		c0.6,2.6,1.1,4.6,1.5,6c0.3,1.4,0.5,2.3,0.6,2.8h0.1c0.1-0.4,0.2-0.8,0.3-1.4c0.1-0.6,0.3-1,0.4-1.4l1.8-6h1.6l1.8,6
		c0.3,1.1,0.6,2,0.7,2.7h0.1c0-0.2,0.1-0.6,0.2-1.1s0.7-3,1.9-7.7h1.6l-2.8,10.4H153.1z"/>
	<path d="M168.2,577.6c0,1.7-0.4,3-1.2,4c-0.8,1-2,1.4-3.4,1.4c-0.9,0-1.7-0.2-2.4-0.7c-0.7-0.4-1.2-1.1-1.6-1.9
		c-0.4-0.8-0.6-1.8-0.6-2.9c0-1.7,0.4-3,1.2-4c0.8-0.9,1.9-1.4,3.4-1.4c1.4,0,2.5,0.5,3.3,1.5C167.8,574.7,168.2,576,168.2,577.6z
		 M160.5,577.6c0,1.3,0.3,2.3,0.8,3c0.5,0.7,1.3,1,2.3,1c1,0,1.7-0.3,2.3-1c0.5-0.7,0.8-1.7,0.8-3c0-1.3-0.3-2.3-0.8-3
		c-0.5-0.7-1.3-1-2.3-1c-1,0-1.7,0.3-2.2,1C160.8,575.3,160.5,576.3,160.5,577.6z"/>
	<path d="M175.4,572.3c0.4,0,0.8,0,1.2,0.1l-0.2,1.5c-0.4-0.1-0.8-0.1-1.1-0.1c-0.8,0-1.5,0.3-2.1,1c-0.6,0.7-0.9,1.5-0.9,2.6v5.6
		h-1.5v-10.4h1.3l0.2,1.9h0.1c0.4-0.7,0.8-1.2,1.3-1.6S174.8,572.3,175.4,572.3z"/>
	<path d="M180,577.5c0.3-0.4,0.7-0.9,1.2-1.5l3.2-3.6h1.8l-4.1,4.4l4.3,6h-1.8l-3.5-4.9l-1.1,1v3.9h-1.5v-14.8h1.5v7.8
		C180,576.3,179.9,576.8,180,577.5L180,577.5z"/>
	<path d="M201.3,582.8l-1.8-6.1c-0.1-0.4-0.3-1.2-0.6-2.5h-0.1c-0.2,1.1-0.5,2-0.6,2.6l-1.9,6.1h-1.8l-2.7-10.4h1.6
		c0.6,2.6,1.1,4.6,1.5,6c0.3,1.4,0.5,2.3,0.6,2.8h0.1c0.1-0.4,0.2-0.8,0.3-1.4c0.1-0.6,0.3-1,0.4-1.4l1.8-6h1.6l1.8,6
		c0.3,1.1,0.6,2,0.7,2.7h0.1c0-0.2,0.1-0.6,0.2-1.1c0.1-0.5,0.7-3,1.9-7.7h1.6l-2.8,10.4H201.3z"/>
	<path d="M207.6,569.6c0-0.4,0.1-0.6,0.3-0.8c0.2-0.2,0.4-0.3,0.6-0.3c0.2,0,0.5,0.1,0.6,0.3c0.2,0.2,0.3,0.4,0.3,0.8
		c0,0.4-0.1,0.6-0.3,0.8c-0.2,0.2-0.4,0.3-0.6,0.3c-0.3,0-0.5-0.1-0.6-0.3C207.7,570.2,207.6,570,207.6,569.6z M209.2,582.8h-1.5
		v-10.4h1.5V582.8z"/>
	<path d="M215.7,581.7c0.3,0,0.5,0,0.8-0.1c0.2,0,0.4-0.1,0.6-0.1v1.2c-0.2,0.1-0.4,0.2-0.7,0.2c-0.3,0.1-0.6,0.1-0.9,0.1
		c-1.9,0-2.9-1.1-2.9-3.2v-6.2h-1.4v-0.8l1.4-0.7l0.6-2.2h0.9v2.4h2.9v1.2h-2.9v6.1c0,0.6,0.1,1.1,0.4,1.4
		C214.8,581.6,215.2,581.7,215.7,581.7z"/>
	<path d="M225.9,582.8v-6.7c0-0.8-0.2-1.5-0.6-1.9c-0.4-0.4-1-0.6-1.7-0.6c-1.1,0-1.8,0.3-2.3,0.9c-0.5,0.6-0.7,1.6-0.7,2.9v5.4H219
		v-14.8h1.5v4.5c0,0.5,0,1-0.1,1.3h0.1c0.3-0.5,0.7-0.9,1.3-1.2c0.6-0.3,1.2-0.4,1.9-0.4c1.2,0,2.1,0.3,2.8,0.9
		c0.6,0.6,0.9,1.6,0.9,2.9v6.8H225.9z"/>
	<path d="M43.6,594.5H41v9.2h-1.5v-9.2h-1.8v-0.7l1.8-0.6v-0.6c0-2.6,1.1-3.8,3.2-3.8c0.5,0,1.2,0.1,1.9,0.3l-0.4,1.3
		c-0.6-0.2-1.1-0.3-1.5-0.3c-0.6,0-1,0.2-1.3,0.6c-0.3,0.4-0.4,1-0.4,1.9v0.7h2.5V594.5z M46.9,603.6h-1.5v-14.8h1.5V603.6z"/>
	<path d="M54.4,603.8c-1.5,0-2.6-0.5-3.5-1.4s-1.3-2.2-1.3-3.9c0-1.7,0.4-3,1.2-4c0.8-1,1.9-1.5,3.2-1.5c1.3,0,2.2,0.4,3,1.3
		c0.7,0.9,1.1,2,1.1,3.4v1h-6.9c0,1.2,0.3,2.1,0.9,2.8c0.6,0.6,1.4,0.9,2.4,0.9c1.1,0,2.1-0.2,3.2-0.7v1.4c-0.5,0.2-1,0.4-1.5,0.5
		C55.6,603.8,55,603.8,54.4,603.8z M53.9,594.4c-0.8,0-1.4,0.3-1.9,0.8c-0.5,0.5-0.8,1.3-0.8,2.3h5.2c0-1-0.2-1.8-0.6-2.3
		C55.3,594.6,54.7,594.4,53.9,594.4z"/>
	<path d="M63,598.3l-3.5-5.1h1.7l2.6,4l2.6-4h1.7l-3.5,5.1l3.7,5.3h-1.7l-2.8-4.2l-2.8,4.2h-1.7L63,598.3z"/>
	<path d="M70.3,590.4c0-0.4,0.1-0.6,0.3-0.8c0.2-0.2,0.4-0.3,0.6-0.3c0.2,0,0.5,0.1,0.6,0.3c0.2,0.2,0.3,0.4,0.3,0.8
		c0,0.4-0.1,0.6-0.3,0.8c-0.2,0.2-0.4,0.3-0.6,0.3c-0.3,0-0.5-0.1-0.6-0.3C70.4,591,70.3,590.8,70.3,590.4z M71.9,603.6h-1.5v-10.4
		h1.5V603.6z"/>
	<path d="M79.8,593.1c1.3,0,2.3,0.5,3.1,1.4s1.1,2.3,1.1,4c0,1.7-0.4,3-1.1,4c-0.7,0.9-1.8,1.4-3.1,1.4c-0.7,0-1.2-0.1-1.8-0.4
		c-0.5-0.2-1-0.6-1.4-1.2h-0.1l-0.3,1.3h-1.1v-14.8h1.5v3.6c0,0.8,0,1.5-0.1,2.2h0.1C77.4,593.6,78.4,593.1,79.8,593.1z M79.6,594.4
		c-1,0-1.8,0.3-2.2,0.9c-0.5,0.6-0.7,1.7-0.7,3.1c0,1.5,0.2,2.5,0.7,3.1c0.5,0.6,1.2,0.9,2.3,0.9c0.9,0,1.6-0.4,2.1-1.1
		c0.5-0.7,0.7-1.7,0.7-3c0-1.4-0.2-2.4-0.7-3C81.3,594.7,80.6,594.4,79.6,594.4z"/>
	<path d="M88.1,603.6h-1.5v-14.8h1.5V603.6z"/>
	<path d="M95.6,603.8c-1.5,0-2.6-0.5-3.5-1.4c-0.9-0.9-1.3-2.2-1.3-3.9c0-1.7,0.4-3,1.2-4c0.8-1,1.9-1.5,3.2-1.5
		c1.3,0,2.2,0.4,3,1.3c0.7,0.9,1.1,2,1.1,3.4v1h-6.9c0,1.2,0.3,2.1,0.9,2.8c0.6,0.6,1.4,0.9,2.4,0.9c1.1,0,2.1-0.2,3.2-0.7v1.4
		c-0.5,0.2-1,0.4-1.5,0.5C96.8,603.8,96.3,603.8,95.6,603.8z M95.2,594.4c-0.8,0-1.4,0.3-1.9,0.8c-0.5,0.5-0.8,1.3-0.8,2.3h5.2
		c0-1-0.2-1.8-0.6-2.3C96.6,594.6,96,594.4,95.2,594.4z"/>
	<path d="M113.6,603.6v-6.7c0-0.8-0.2-1.5-0.6-1.9c-0.4-0.4-1-0.6-1.7-0.6c-1.1,0-1.8,0.3-2.3,0.9c-0.5,0.6-0.7,1.6-0.7,2.9v5.4
		h-1.5v-14.8h1.5v4.5c0,0.5,0,1-0.1,1.3h0.1c0.3-0.5,0.7-0.9,1.3-1.2c0.6-0.3,1.2-0.4,1.9-0.4c1.2,0,2.1,0.3,2.8,0.9
		c0.6,0.6,0.9,1.6,0.9,2.9v6.8H113.6z"/>
	<path d="M126.9,598.4c0,1.7-0.4,3-1.2,4c-0.8,1-2,1.4-3.4,1.4c-0.9,0-1.7-0.2-2.4-0.7c-0.7-0.4-1.2-1.1-1.6-1.9
		c-0.4-0.8-0.6-1.8-0.6-2.9c0-1.7,0.4-3,1.2-4c0.8-0.9,1.9-1.4,3.4-1.4c1.4,0,2.5,0.5,3.3,1.5C126.4,595.5,126.9,596.8,126.9,598.4z
		 M119.2,598.4c0,1.3,0.3,2.3,0.8,3c0.5,0.7,1.3,1,2.3,1c1,0,1.7-0.3,2.3-1c0.5-0.7,0.8-1.7,0.8-3c0-1.3-0.3-2.3-0.8-3
		c-0.5-0.7-1.3-1-2.3-1c-1,0-1.7,0.3-2.2,1C119.5,596.1,119.2,597.1,119.2,598.4z"/>
	<path d="M130.9,593.2v6.7c0,0.8,0.2,1.5,0.6,1.9c0.4,0.4,1,0.6,1.7,0.6c1,0,1.8-0.3,2.3-0.9c0.5-0.6,0.7-1.6,0.7-2.9v-5.5h1.5v10.4
		h-1.3l-0.2-1.4h-0.1c-0.3,0.5-0.7,0.9-1.3,1.2c-0.6,0.3-1.2,0.4-1.9,0.4c-1.2,0-2.1-0.3-2.7-0.9c-0.6-0.6-0.9-1.6-0.9-2.9v-6.8
		H130.9z"/>
	<path d="M145.6,593c0.4,0,0.8,0,1.2,0.1l-0.2,1.5c-0.4-0.1-0.8-0.1-1.1-0.1c-0.8,0-1.5,0.3-2.1,1c-0.6,0.7-0.9,1.5-0.9,2.6v5.6H141
		v-10.4h1.3l0.2,1.9h0.1c0.4-0.7,0.8-1.2,1.3-1.6S144.9,593,145.6,593z"/>
	<path d="M155.1,600.8c0,1-0.3,1.7-1,2.2c-0.7,0.5-1.7,0.8-2.9,0.8c-1.3,0-2.4-0.2-3.1-0.7v-1.5c0.5,0.3,1,0.5,1.5,0.6
		c0.6,0.1,1.1,0.2,1.6,0.2c0.8,0,1.4-0.1,1.8-0.4c0.4-0.3,0.6-0.7,0.6-1.2c0-0.4-0.2-0.8-0.5-1c-0.3-0.3-1-0.6-2-1
		c-0.9-0.4-1.6-0.7-2-0.9c-0.4-0.3-0.7-0.6-0.9-0.9c-0.2-0.3-0.3-0.7-0.3-1.2c0-0.8,0.3-1.5,1-2c0.7-0.5,1.6-0.7,2.7-0.7
		c1.1,0,2.1,0.2,3.2,0.7l-0.5,1.3c-1-0.4-1.9-0.6-2.7-0.6c-0.7,0-1.3,0.1-1.6,0.4c-0.4,0.2-0.5,0.6-0.5,1c0,0.3,0.1,0.5,0.2,0.7
		c0.1,0.2,0.4,0.4,0.7,0.6c0.3,0.2,0.9,0.4,1.8,0.8c1.2,0.4,2,0.9,2.4,1.4C154.9,599.5,155.1,600.1,155.1,600.8z"/>
	<path d="M278.2,578.6v-1.4h4.5v1.4H278.2z"/>
	<path d="M296.6,583.1H295v-13.9h7.4v1.4h-5.9v5.1h5.5v1.4h-5.5V583.1z"/>
	<path d="M309,572.5c0.4,0,0.8,0,1.2,0.1l-0.2,1.5c-0.4-0.1-0.8-0.1-1.1-0.1c-0.8,0-1.5,0.3-2.1,1c-0.6,0.7-0.9,1.5-0.9,2.6v5.6
		h-1.5v-10.4h1.3l0.2,1.9h0.1c0.4-0.7,0.8-1.2,1.3-1.6C307.8,572.7,308.4,572.5,309,572.5z"/>
	<path d="M316.3,583.3c-1.5,0-2.6-0.5-3.5-1.4c-0.9-0.9-1.3-2.2-1.3-3.9c0-1.7,0.4-3,1.2-4c0.8-1,1.9-1.5,3.2-1.5
		c1.3,0,2.2,0.4,3,1.3c0.7,0.9,1.1,2,1.1,3.4v1h-6.9c0,1.2,0.3,2.1,0.9,2.8c0.6,0.6,1.4,0.9,2.4,0.9c1.1,0,2.1-0.2,3.2-0.7v1.4
		c-0.5,0.2-1,0.4-1.5,0.5C317.6,583.2,317,583.3,316.3,583.3z M315.9,573.8c-0.8,0-1.4,0.3-1.9,0.8c-0.5,0.5-0.8,1.3-0.8,2.3h5.2
		c0-1-0.2-1.8-0.6-2.3C317.3,574.1,316.7,573.8,315.9,573.8z"/>
	<path d="M329,580.3c0,1-0.3,1.7-1,2.2c-0.7,0.5-1.7,0.8-2.9,0.8c-1.3,0-2.4-0.2-3.1-0.7v-1.5c0.5,0.3,1,0.5,1.5,0.6
		c0.6,0.1,1.1,0.2,1.6,0.2c0.8,0,1.4-0.1,1.8-0.4c0.4-0.3,0.6-0.7,0.6-1.2c0-0.4-0.2-0.8-0.5-1c-0.3-0.3-1-0.6-2-1
		c-0.9-0.4-1.6-0.7-2-0.9c-0.4-0.3-0.7-0.6-0.9-0.9c-0.2-0.3-0.3-0.7-0.3-1.2c0-0.8,0.3-1.5,1-2c0.7-0.5,1.6-0.7,2.7-0.7
		c1.1,0,2.1,0.2,3.2,0.7l-0.5,1.3c-1-0.4-1.9-0.6-2.7-0.6c-0.7,0-1.3,0.1-1.6,0.4c-0.4,0.2-0.5,0.6-0.5,1c0,0.3,0.1,0.5,0.2,0.7
		c0.1,0.2,0.4,0.4,0.7,0.6c0.3,0.2,0.9,0.4,1.8,0.8c1.2,0.4,2,0.9,2.4,1.4S329,579.6,329,580.3z"/>
	<path d="M338.3,583.1v-6.7c0-0.8-0.2-1.5-0.6-1.9c-0.4-0.4-1-0.6-1.7-0.6c-1.1,0-1.8,0.3-2.3,0.9c-0.5,0.6-0.7,1.6-0.7,2.9v5.4
		h-1.5v-14.8h1.5v4.5c0,0.5,0,1-0.1,1.3h0.1c0.3-0.5,0.7-0.9,1.3-1.2c0.6-0.3,1.2-0.4,1.9-0.4c1.2,0,2.1,0.3,2.8,0.9
		c0.6,0.6,0.9,1.6,0.9,2.9v6.8H338.3z"/>
	<path d="M354.7,581.7L354.7,581.7c-0.8,1.1-1.8,1.6-3.2,1.6c-1.3,0-2.3-0.5-3.1-1.4c-0.7-0.9-1.1-2.3-1.1-4c0-1.7,0.4-3,1.1-4
		c0.7-0.9,1.7-1.4,3.1-1.4c1.4,0,2.4,0.5,3.1,1.5h0.1l-0.1-0.7l0-0.7v-4.2h1.5v14.8h-1.2L354.7,581.7z M351.6,582
		c1,0,1.8-0.3,2.3-0.9s0.7-1.5,0.7-2.8v-0.3c0-1.5-0.2-2.5-0.7-3.2c-0.5-0.6-1.2-0.9-2.3-0.9c-0.9,0-1.6,0.4-2,1.1
		c-0.5,0.7-0.7,1.7-0.7,3c0,1.3,0.2,2.3,0.7,3C350,581.6,350.7,582,351.6,582z"/>
	<path d="M359.2,569.9c0-0.4,0.1-0.6,0.3-0.8c0.2-0.2,0.4-0.3,0.6-0.3c0.2,0,0.5,0.1,0.6,0.3c0.2,0.2,0.3,0.4,0.3,0.8
		c0,0.4-0.1,0.6-0.3,0.8c-0.2,0.2-0.4,0.3-0.6,0.3c-0.3,0-0.5-0.1-0.6-0.3C359.3,570.5,359.2,570.2,359.2,569.9z M360.8,583.1h-1.5
		v-10.4h1.5V583.1z"/>
	<path d="M368.7,583.3c-0.7,0-1.2-0.1-1.8-0.4c-0.5-0.2-1-0.6-1.4-1.2h-0.1c0.1,0.6,0.1,1.2,0.1,1.7v4.3H364v-15.1h1.2l0.2,1.4h0.1
		c0.4-0.6,0.8-1,1.4-1.2c0.5-0.3,1.1-0.4,1.8-0.4c1.3,0,2.4,0.5,3.1,1.4c0.7,0.9,1.1,2.3,1.1,4c0,1.7-0.4,3-1.1,4
		C371,582.8,370,583.3,368.7,583.3z M368.5,573.9c-1,0-1.8,0.3-2.2,0.9c-0.5,0.6-0.7,1.5-0.7,2.8v0.4c0,1.5,0.2,2.5,0.7,3.1
		c0.5,0.6,1.2,0.9,2.3,0.9c0.9,0,1.5-0.4,2-1.1c0.5-0.7,0.7-1.7,0.7-3c0-1.3-0.2-2.3-0.7-3C370.1,574.2,369.4,573.9,368.5,573.9z"/>
	<path d="M377,583.1h-1.5v-14.8h1.5V583.1z"/>
	<path d="M388.9,577.9c0,1.7-0.4,3-1.2,4c-0.8,1-2,1.4-3.4,1.4c-0.9,0-1.7-0.2-2.4-0.7c-0.7-0.4-1.2-1.1-1.6-1.9
		c-0.4-0.8-0.6-1.8-0.6-2.9c0-1.7,0.4-3,1.2-4c0.8-0.9,1.9-1.4,3.4-1.4c1.4,0,2.5,0.5,3.3,1.5C388.5,574.9,388.9,576.2,388.9,577.9z
		 M381.3,577.9c0,1.3,0.3,2.3,0.8,3c0.5,0.7,1.3,1,2.3,1c1,0,1.7-0.3,2.3-1c0.5-0.7,0.8-1.7,0.8-3c0-1.3-0.3-2.3-0.8-3
		c-0.5-0.7-1.3-1-2.3-1c-1,0-1.7,0.3-2.2,1C381.5,575.5,381.3,576.6,381.3,577.9z"/>
	<path d="M404.3,583.1v-6.8c0-0.8-0.2-1.5-0.5-1.9c-0.3-0.4-0.9-0.6-1.6-0.6c-0.9,0-1.6,0.3-2.1,0.8c-0.5,0.6-0.7,1.4-0.7,2.6v5.8
		h-1.5v-6.8c0-0.8-0.2-1.5-0.5-1.9c-0.3-0.4-0.9-0.6-1.6-0.6c-1,0-1.6,0.3-2.1,0.9c-0.4,0.6-0.7,1.6-0.7,2.9v5.5h-1.5v-10.4h1.2
		l0.2,1.4h0.1c0.3-0.5,0.7-0.9,1.2-1.2c0.5-0.3,1.1-0.4,1.7-0.4c1.6,0,2.6,0.6,3.1,1.8h0.1c0.3-0.5,0.7-1,1.3-1.3
		c0.6-0.3,1.2-0.5,1.9-0.5c1.1,0,2,0.3,2.5,0.9c0.6,0.6,0.8,1.6,0.8,2.9v6.8H404.3z"/>
	<path d="M415.1,583.1l-0.3-1.5h-0.1c-0.5,0.7-1,1.1-1.5,1.3c-0.5,0.2-1.1,0.3-1.9,0.3c-1,0-1.8-0.3-2.3-0.8
		c-0.6-0.5-0.8-1.3-0.8-2.3c0-2.1,1.6-3.2,4.9-3.3l1.7-0.1v-0.6c0-0.8-0.2-1.4-0.5-1.8c-0.3-0.4-0.9-0.6-1.6-0.6
		c-0.8,0-1.8,0.3-2.8,0.8l-0.5-1.2c0.5-0.3,1-0.5,1.6-0.7c0.6-0.2,1.2-0.2,1.8-0.2c1.2,0,2.1,0.3,2.7,0.8c0.6,0.6,0.9,1.4,0.9,2.6
		v7.1H415.1z M411.7,582c0.9,0,1.7-0.3,2.2-0.8c0.5-0.5,0.8-1.3,0.8-2.3V578l-1.5,0.1c-1.2,0-2.1,0.2-2.6,0.6
		c-0.5,0.3-0.8,0.9-0.8,1.6c0,0.6,0.2,1,0.5,1.3C410.6,581.8,411.1,582,411.7,582z"/>
	<path d="M432.4,572.7v1l-1.9,0.2c0.2,0.2,0.3,0.5,0.5,0.9c0.1,0.4,0.2,0.8,0.2,1.2c0,1-0.3,1.8-1,2.4c-0.7,0.6-1.6,0.9-2.8,0.9
		c-0.3,0-0.6,0-0.8-0.1c-0.6,0.4-1,0.8-1,1.3c0,0.3,0.1,0.5,0.3,0.6c0.2,0.1,0.6,0.2,1.2,0.2h1.8c1.1,0,1.9,0.2,2.5,0.7
		c0.6,0.5,0.9,1.2,0.9,2.1c0,1.2-0.4,2-1.3,2.6c-0.9,0.6-2.2,0.9-3.9,0.9c-1.3,0-2.3-0.3-3-0.8c-0.7-0.5-1.1-1.2-1.1-2.1
		c0-0.6,0.2-1.2,0.6-1.6c0.4-0.5,0.9-0.8,1.6-0.9c-0.3-0.1-0.5-0.3-0.6-0.6c-0.2-0.3-0.3-0.5-0.3-0.9c0-0.4,0.1-0.7,0.3-1
		c0.2-0.3,0.5-0.6,0.9-0.8c-0.5-0.2-0.9-0.6-1.3-1.1c-0.3-0.5-0.5-1.1-0.5-1.8c0-1.1,0.3-2,1-2.6c0.7-0.6,1.6-0.9,2.8-0.9
		c0.5,0,1,0.1,1.4,0.2H432.4z M424.4,584.9c0,0.6,0.2,1,0.7,1.3c0.5,0.3,1.1,0.4,2,0.4c1.3,0,2.2-0.2,2.8-0.6
		c0.6-0.4,0.9-0.9,0.9-1.6c0-0.6-0.2-1-0.5-1.2c-0.3-0.2-1-0.3-1.9-0.3h-1.8c-0.7,0-1.2,0.2-1.6,0.5
		C424.6,583.7,424.4,584.2,424.4,584.9z M425.3,576c0,0.7,0.2,1.3,0.6,1.7c0.4,0.4,0.9,0.6,1.7,0.6c1.5,0,2.2-0.7,2.2-2.2
		c0-1.6-0.7-2.3-2.2-2.3c-0.7,0-1.3,0.2-1.6,0.6C425.4,574.7,425.3,575.2,425.3,576z"/>
	<path d="M439,572.5c0.4,0,0.8,0,1.2,0.1l-0.2,1.5c-0.4-0.1-0.8-0.1-1.1-0.1c-0.8,0-1.5,0.3-2.1,1c-0.6,0.7-0.9,1.5-0.9,2.6v5.6
		h-1.5v-10.4h1.3l0.2,1.9h0.1c0.4-0.7,0.8-1.2,1.3-1.6C437.8,572.7,438.4,572.5,439,572.5z"/>
	<path d="M448.3,583.1l-0.3-1.5h-0.1c-0.5,0.7-1,1.1-1.5,1.3c-0.5,0.2-1.1,0.3-1.9,0.3c-1,0-1.8-0.3-2.3-0.8
		c-0.6-0.5-0.8-1.3-0.8-2.3c0-2.1,1.6-3.2,4.9-3.3l1.7-0.1v-0.6c0-0.8-0.2-1.4-0.5-1.8c-0.3-0.4-0.9-0.6-1.6-0.6
		c-0.8,0-1.8,0.3-2.8,0.8l-0.5-1.2c0.5-0.3,1-0.5,1.6-0.7c0.6-0.2,1.2-0.2,1.8-0.2c1.2,0,2.1,0.3,2.7,0.8c0.6,0.6,0.9,1.4,0.9,2.6
		v7.1H448.3z M444.8,582c0.9,0,1.7-0.3,2.2-0.8c0.5-0.5,0.8-1.3,0.8-2.3V578l-1.5,0.1c-1.2,0-2.1,0.2-2.6,0.6
		c-0.5,0.3-0.8,0.9-0.8,1.6c0,0.6,0.2,1,0.5,1.3C443.8,581.8,444.2,582,444.8,582z"/>
	<path d="M459.3,581.7L459.3,581.7c-0.8,1.1-1.8,1.6-3.2,1.6c-1.3,0-2.3-0.5-3.1-1.4c-0.7-0.9-1.1-2.3-1.1-4c0-1.7,0.4-3,1.1-4
		c0.7-0.9,1.7-1.4,3.1-1.4c1.4,0,2.4,0.5,3.1,1.5h0.1l-0.1-0.7l0-0.7v-4.2h1.5v14.8h-1.2L459.3,581.7z M456.3,582
		c1,0,1.8-0.3,2.3-0.9c0.5-0.6,0.7-1.5,0.7-2.8v-0.3c0-1.5-0.2-2.5-0.7-3.2c-0.5-0.6-1.2-0.9-2.3-0.9c-0.9,0-1.6,0.4-2,1.1
		c-0.5,0.7-0.7,1.7-0.7,3c0,1.3,0.2,2.3,0.7,3C454.7,581.6,455.4,582,456.3,582z"/>
	<path d="M465.4,572.7v6.7c0,0.8,0.2,1.5,0.6,1.9c0.4,0.4,1,0.6,1.7,0.6c1,0,1.8-0.3,2.3-0.9c0.5-0.6,0.7-1.6,0.7-2.9v-5.5h1.5v10.4
		H471l-0.2-1.4h-0.1c-0.3,0.5-0.7,0.9-1.3,1.2c-0.6,0.3-1.2,0.4-1.9,0.4c-1.2,0-2.1-0.3-2.7-0.9c-0.6-0.6-0.9-1.6-0.9-2.9v-6.8
		H465.4z"/>
	<path d="M481.6,583.1l-0.3-1.5h-0.1c-0.5,0.7-1,1.1-1.5,1.3c-0.5,0.2-1.1,0.3-1.9,0.3c-1,0-1.8-0.3-2.3-0.8
		c-0.6-0.5-0.8-1.3-0.8-2.3c0-2.1,1.6-3.2,4.9-3.3l1.7-0.1v-0.6c0-0.8-0.2-1.4-0.5-1.8c-0.3-0.4-0.9-0.6-1.6-0.6
		c-0.8,0-1.8,0.3-2.8,0.8l-0.5-1.2c0.5-0.3,1-0.5,1.6-0.7c0.6-0.2,1.2-0.2,1.8-0.2c1.2,0,2.1,0.3,2.7,0.8c0.6,0.6,0.9,1.4,0.9,2.6
		v7.1H481.6z M478.2,582c0.9,0,1.7-0.3,2.2-0.8c0.5-0.5,0.8-1.3,0.8-2.3V578l-1.5,0.1c-1.2,0-2.1,0.2-2.6,0.6
		c-0.5,0.3-0.8,0.9-0.8,1.6c0,0.6,0.2,1,0.5,1.3C477.1,581.8,477.6,582,478.2,582z"/>
	<path d="M489.1,582c0.3,0,0.5,0,0.8-0.1c0.2,0,0.4-0.1,0.6-0.1v1.2c-0.2,0.1-0.4,0.2-0.7,0.2c-0.3,0.1-0.6,0.1-0.9,0.1
		c-1.9,0-2.9-1.1-2.9-3.2v-6.2h-1.4v-0.8l1.4-0.7l0.6-2.2h0.9v2.4h2.9v1.2h-2.9v6.1c0,0.6,0.1,1.1,0.4,1.4
		C488.2,581.8,488.6,582,489.1,582z"/>
	<path d="M496.7,583.3c-1.5,0-2.6-0.5-3.5-1.4c-0.9-0.9-1.3-2.2-1.3-3.9c0-1.7,0.4-3,1.2-4c0.8-1,1.9-1.5,3.2-1.5
		c1.3,0,2.2,0.4,3,1.3s1.1,2,1.1,3.4v1h-6.9c0,1.2,0.3,2.1,0.9,2.8c0.6,0.6,1.4,0.9,2.4,0.9c1.1,0,2.1-0.2,3.2-0.7v1.4
		c-0.5,0.2-1,0.4-1.5,0.5C498,583.2,497.4,583.3,496.7,583.3z M496.3,573.8c-0.8,0-1.4,0.3-1.9,0.8c-0.5,0.5-0.8,1.3-0.8,2.3h5.2
		c0-1-0.2-1.8-0.6-2.3C497.7,574.1,497.1,573.8,496.3,573.8z"/>
	<path d="M304,600.3c0,1.7-0.4,3-1.2,4c-0.8,1-2,1.4-3.4,1.4c-0.9,0-1.7-0.2-2.4-0.7c-0.7-0.4-1.2-1.1-1.6-1.9
		c-0.4-0.8-0.6-1.8-0.6-2.9c0-1.7,0.4-3,1.2-4c0.8-0.9,1.9-1.4,3.4-1.4c1.4,0,2.5,0.5,3.3,1.5C303.6,597.3,304,598.6,304,600.3z
		 M296.3,600.3c0,1.3,0.3,2.3,0.8,3c0.5,0.7,1.3,1,2.3,1c1,0,1.7-0.3,2.3-1c0.5-0.7,0.8-1.7,0.8-3c0-1.3-0.3-2.3-0.8-3
		c-0.5-0.7-1.3-1-2.3-1c-1,0-1.7,0.3-2.2,1C296.6,597.9,296.3,598.9,296.3,600.3z"/>
	<path d="M311.2,594.9c0.4,0,0.8,0,1.2,0.1l-0.2,1.5c-0.4-0.1-0.8-0.1-1.1-0.1c-0.8,0-1.5,0.3-2.1,1c-0.6,0.7-0.9,1.5-0.9,2.6v5.6
		h-1.5v-10.4h1.3l0.2,1.9h0.1c0.4-0.7,0.8-1.2,1.3-1.6C310,595.1,310.6,594.9,311.2,594.9z"/>
	<path d="M326,605.5v-6.7c0-0.8-0.2-1.5-0.6-1.9c-0.4-0.4-1-0.6-1.7-0.6c-1.1,0-1.8,0.3-2.3,0.9c-0.5,0.6-0.7,1.6-0.7,2.9v5.4h-1.5
		v-14.8h1.5v4.5c0,0.5,0,1-0.1,1.3h0.1c0.3-0.5,0.7-0.9,1.3-1.2c0.6-0.3,1.2-0.4,1.9-0.4c1.2,0,2.1,0.3,2.8,0.9
		c0.6,0.6,0.9,1.6,0.9,2.9v6.8H326z"/>
	<path d="M330.5,592.3c0-0.4,0.1-0.6,0.3-0.8c0.2-0.2,0.4-0.3,0.6-0.3c0.2,0,0.5,0.1,0.6,0.3c0.2,0.2,0.3,0.4,0.3,0.8
		c0,0.4-0.1,0.6-0.3,0.8s-0.4,0.3-0.6,0.3c-0.3,0-0.5-0.1-0.6-0.3S330.5,592.6,330.5,592.3z M332.1,605.5h-1.5v-10.4h1.5V605.5z"/>
	<path d="M343.6,595.1v1l-1.9,0.2c0.2,0.2,0.3,0.5,0.5,0.9c0.1,0.4,0.2,0.8,0.2,1.2c0,1-0.3,1.8-1,2.4c-0.7,0.6-1.6,0.9-2.8,0.9
		c-0.3,0-0.6,0-0.8-0.1c-0.6,0.4-1,0.8-1,1.3c0,0.3,0.1,0.5,0.3,0.6c0.2,0.1,0.6,0.2,1.2,0.2h1.8c1.1,0,1.9,0.2,2.5,0.7
		c0.6,0.5,0.9,1.2,0.9,2.1c0,1.2-0.4,2-1.3,2.6c-0.9,0.6-2.2,0.9-3.9,0.9c-1.3,0-2.3-0.3-3-0.8c-0.7-0.5-1.1-1.2-1.1-2.1
		c0-0.6,0.2-1.2,0.6-1.6c0.4-0.5,0.9-0.8,1.6-0.9c-0.3-0.1-0.5-0.3-0.6-0.6s-0.3-0.5-0.3-0.9c0-0.4,0.1-0.7,0.3-1
		c0.2-0.3,0.5-0.6,0.9-0.8c-0.5-0.2-0.9-0.6-1.3-1.1c-0.3-0.5-0.5-1.1-0.5-1.8c0-1.1,0.3-2,1-2.6c0.7-0.6,1.6-0.9,2.8-0.9
		c0.5,0,1,0.1,1.4,0.2H343.6z M335.6,607.2c0,0.6,0.2,1,0.7,1.3c0.5,0.3,1.1,0.4,2,0.4c1.3,0,2.2-0.2,2.8-0.6
		c0.6-0.4,0.9-0.9,0.9-1.6c0-0.6-0.2-1-0.5-1.2c-0.3-0.2-1-0.3-1.9-0.3h-1.8c-0.7,0-1.2,0.2-1.6,0.5
		C335.8,606.1,335.6,606.6,335.6,607.2z M336.4,598.4c0,0.7,0.2,1.3,0.6,1.7c0.4,0.4,0.9,0.6,1.7,0.6c1.5,0,2.2-0.7,2.2-2.2
		c0-1.6-0.7-2.3-2.2-2.3c-0.7,0-1.3,0.2-1.6,0.6C336.6,597,336.4,597.6,336.4,598.4z"/>
	<path d="M352.5,605.5v-6.7c0-0.8-0.2-1.5-0.6-1.9c-0.4-0.4-1-0.6-1.7-0.6c-1.1,0-1.8,0.3-2.3,0.9c-0.5,0.6-0.7,1.6-0.7,2.9v5.4
		h-1.5v-14.8h1.5v4.5c0,0.5,0,1-0.1,1.3h0.1c0.3-0.5,0.7-0.9,1.3-1.2c0.6-0.3,1.2-0.4,1.9-0.4c1.2,0,2.1,0.3,2.8,0.9
		c0.6,0.6,0.9,1.6,0.9,2.9v6.8H352.5z"/>
	<path d="M361.3,605.7c-1.5,0-2.6-0.5-3.5-1.4c-0.9-0.9-1.3-2.2-1.3-3.9c0-1.7,0.4-3,1.2-4c0.8-1,1.9-1.5,3.2-1.5
		c1.3,0,2.2,0.4,3,1.3c0.7,0.9,1.1,2,1.1,3.4v1h-6.9c0,1.2,0.3,2.1,0.9,2.8c0.6,0.6,1.4,0.9,2.4,0.9c1.1,0,2.1-0.2,3.2-0.7v1.4
		c-0.5,0.2-1,0.4-1.5,0.5C362.6,605.6,362,605.7,361.3,605.7z M360.9,596.2c-0.8,0-1.4,0.3-1.9,0.8c-0.5,0.5-0.8,1.3-0.8,2.3h5.2
		c0-1-0.2-1.8-0.6-2.3C362.3,596.5,361.7,596.2,360.9,596.2z"/>
	<path d="M372.2,594.9c0.4,0,0.8,0,1.2,0.1l-0.2,1.5c-0.4-0.1-0.8-0.1-1.1-0.1c-0.8,0-1.5,0.3-2.1,1c-0.6,0.7-0.9,1.5-0.9,2.6v5.6
		h-1.5v-10.4h1.3l0.2,1.9h0.1c0.4-0.7,0.8-1.2,1.3-1.6C371,595.1,371.5,594.9,372.2,594.9z"/>
	<path d="M386.9,604.1L386.9,604.1c-0.8,1.1-1.8,1.6-3.2,1.6c-1.3,0-2.3-0.5-3.1-1.4c-0.7-0.9-1.1-2.3-1.1-4c0-1.7,0.4-3,1.1-4
		c0.7-0.9,1.7-1.4,3.1-1.4c1.4,0,2.4,0.5,3.1,1.5h0.1l-0.1-0.7l0-0.7v-4.2h1.5v14.8h-1.2L386.9,604.1z M383.9,604.4
		c1,0,1.8-0.3,2.3-0.9c0.5-0.6,0.7-1.5,0.7-2.8v-0.3c0-1.5-0.2-2.5-0.7-3.2c-0.5-0.6-1.2-0.9-2.3-0.9c-0.9,0-1.6,0.4-2,1.1
		c-0.5,0.7-0.7,1.7-0.7,3c0,1.3,0.2,2.3,0.7,3S383,604.4,383.9,604.4z"/>
	<path d="M395.8,605.7c-1.5,0-2.6-0.5-3.5-1.4c-0.9-0.9-1.3-2.2-1.3-3.9c0-1.7,0.4-3,1.2-4c0.8-1,1.9-1.5,3.2-1.5
		c1.3,0,2.2,0.4,3,1.3c0.7,0.9,1.1,2,1.1,3.4v1h-6.9c0,1.2,0.3,2.1,0.9,2.8c0.6,0.6,1.4,0.9,2.4,0.9c1.1,0,2.1-0.2,3.2-0.7v1.4
		c-0.5,0.2-1,0.4-1.5,0.5C397,605.6,396.5,605.7,395.8,605.7z M395.4,596.2c-0.8,0-1.4,0.3-1.9,0.8c-0.5,0.5-0.8,1.3-0.8,2.3h5.2
		c0-1-0.2-1.8-0.6-2.3C396.8,596.5,396.2,596.2,395.4,596.2z"/>
	<path d="M410.3,595.1v1l-1.9,0.2c0.2,0.2,0.3,0.5,0.5,0.9c0.1,0.4,0.2,0.8,0.2,1.2c0,1-0.3,1.8-1,2.4c-0.7,0.6-1.6,0.9-2.8,0.9
		c-0.3,0-0.6,0-0.8-0.1c-0.6,0.4-1,0.8-1,1.3c0,0.3,0.1,0.5,0.3,0.6c0.2,0.1,0.6,0.2,1.2,0.2h1.8c1.1,0,1.9,0.2,2.5,0.7
		c0.6,0.5,0.9,1.2,0.9,2.1c0,1.2-0.4,2-1.3,2.6c-0.9,0.6-2.2,0.9-3.9,0.9c-1.3,0-2.3-0.3-3-0.8c-0.7-0.5-1.1-1.2-1.1-2.1
		c0-0.6,0.2-1.2,0.6-1.6c0.4-0.5,0.9-0.8,1.6-0.9c-0.3-0.1-0.5-0.3-0.6-0.6s-0.3-0.5-0.3-0.9c0-0.4,0.1-0.7,0.3-1
		c0.2-0.3,0.5-0.6,0.9-0.8c-0.5-0.2-0.9-0.6-1.3-1.1c-0.3-0.5-0.5-1.1-0.5-1.8c0-1.1,0.3-2,1-2.6c0.7-0.6,1.6-0.9,2.8-0.9
		c0.5,0,1,0.1,1.4,0.2H410.3z M402.3,607.2c0,0.6,0.2,1,0.7,1.3c0.5,0.3,1.1,0.4,2,0.4c1.3,0,2.2-0.2,2.8-0.6
		c0.6-0.4,0.9-0.9,0.9-1.6c0-0.6-0.2-1-0.5-1.2c-0.3-0.2-1-0.3-1.9-0.3h-1.8c-0.7,0-1.2,0.2-1.6,0.5
		C402.5,606.1,402.3,606.6,402.3,607.2z M403.1,598.4c0,0.7,0.2,1.3,0.6,1.7c0.4,0.4,0.9,0.6,1.7,0.6c1.5,0,2.2-0.7,2.2-2.2
		c0-1.6-0.7-2.3-2.2-2.3c-0.7,0-1.3,0.2-1.6,0.6C403.3,597,403.1,597.6,403.1,598.4z"/>
	<path d="M416.9,594.9c0.4,0,0.8,0,1.2,0.1l-0.2,1.5c-0.4-0.1-0.8-0.1-1.1-0.1c-0.8,0-1.5,0.3-2.1,1c-0.6,0.7-0.9,1.5-0.9,2.6v5.6
		h-1.5v-10.4h1.3l0.2,1.9h0.1c0.4-0.7,0.8-1.2,1.3-1.6C415.7,595.1,416.3,594.9,416.9,594.9z"/>
	<path d="M424.2,605.7c-1.5,0-2.6-0.5-3.5-1.4c-0.9-0.9-1.3-2.2-1.3-3.9c0-1.7,0.4-3,1.2-4c0.8-1,1.9-1.5,3.2-1.5
		c1.3,0,2.2,0.4,3,1.3c0.7,0.9,1.1,2,1.1,3.4v1H421c0,1.2,0.3,2.1,0.9,2.8c0.6,0.6,1.4,0.9,2.4,0.9c1.1,0,2.1-0.2,3.2-0.7v1.4
		c-0.5,0.2-1,0.4-1.5,0.5C425.4,605.6,424.9,605.7,424.2,605.7z M423.8,596.2c-0.8,0-1.4,0.3-1.9,0.8c-0.5,0.5-0.8,1.3-0.8,2.3h5.2
		c0-1-0.2-1.8-0.6-2.3C425.2,596.5,424.6,596.2,423.8,596.2z"/>
	<path d="M434.7,605.7c-1.5,0-2.6-0.5-3.5-1.4c-0.9-0.9-1.3-2.2-1.3-3.9c0-1.7,0.4-3,1.2-4c0.8-1,1.9-1.5,3.2-1.5
		c1.3,0,2.2,0.4,3,1.3c0.7,0.9,1.1,2,1.1,3.4v1h-6.9c0,1.2,0.3,2.1,0.9,2.8c0.6,0.6,1.4,0.9,2.4,0.9c1.1,0,2.1-0.2,3.2-0.7v1.4
		c-0.5,0.2-1,0.4-1.5,0.5C435.9,605.6,435.4,605.7,434.7,605.7z M434.3,596.2c-0.8,0-1.4,0.3-1.9,0.8c-0.5,0.5-0.8,1.3-0.8,2.3h5.2
		c0-1-0.2-1.8-0.6-2.3C435.7,596.5,435.1,596.2,434.3,596.2z"/>
	<path d="M278.2,626.9v-1.4h4.5v1.4H278.2z"/>
	<path d="M300.7,618.7c-1.5,0-2.6,0.5-3.5,1.5c-0.8,1-1.3,2.4-1.3,4.2c0,1.8,0.4,3.2,1.2,4.2s2,1.5,3.5,1.5c0.9,0,2-0.2,3.2-0.5v1.4
		c-0.9,0.4-2.1,0.5-3.4,0.5c-2,0-3.5-0.6-4.6-1.9c-1.1-1.2-1.6-3-1.6-5.3c0-1.4,0.3-2.7,0.8-3.8c0.5-1.1,1.3-1.9,2.2-2.5
		c1-0.6,2.1-0.9,3.4-0.9c1.4,0,2.6,0.3,3.7,0.8l-0.7,1.4C302.7,619,301.7,618.7,300.7,618.7z"/>
	<path d="M312.7,631.3l-0.3-1.5h-0.1c-0.5,0.7-1,1.1-1.5,1.3c-0.5,0.2-1.1,0.3-1.9,0.3c-1,0-1.8-0.3-2.3-0.8
		c-0.6-0.5-0.8-1.3-0.8-2.3c0-2.1,1.6-3.2,4.9-3.3l1.7-0.1v-0.6c0-0.8-0.2-1.4-0.5-1.8c-0.3-0.4-0.9-0.6-1.6-0.6
		c-0.8,0-1.8,0.3-2.8,0.8l-0.5-1.2c0.5-0.3,1-0.5,1.6-0.7c0.6-0.2,1.2-0.2,1.8-0.2c1.2,0,2.1,0.3,2.7,0.8c0.6,0.6,0.9,1.4,0.9,2.6
		v7.1H312.7z M309.3,630.2c0.9,0,1.7-0.3,2.2-0.8c0.5-0.5,0.8-1.3,0.8-2.3v-0.9l-1.5,0.1c-1.2,0-2.1,0.2-2.6,0.6
		c-0.5,0.3-0.8,0.9-0.8,1.6c0,0.6,0.2,1,0.5,1.3C308.2,630.1,308.7,630.2,309.3,630.2z"/>
	<path d="M323.8,631.3v-6.7c0-0.8-0.2-1.5-0.6-1.9c-0.4-0.4-1-0.6-1.7-0.6c-1,0-1.8,0.3-2.3,0.9c-0.5,0.6-0.7,1.6-0.7,2.9v5.5H317
		v-10.4h1.2l0.2,1.4h0.1c0.3-0.5,0.7-0.9,1.3-1.2c0.6-0.3,1.2-0.4,1.9-0.4c1.2,0,2.1,0.3,2.7,0.9c0.6,0.6,0.9,1.6,0.9,2.9v6.8H323.8
		z"/>
	<path d="M339.8,628.5c0,1-0.3,1.7-1,2.2c-0.7,0.5-1.7,0.8-2.9,0.8c-1.3,0-2.4-0.2-3.1-0.7v-1.5c0.5,0.3,1,0.5,1.5,0.6
		c0.6,0.1,1.1,0.2,1.6,0.2c0.8,0,1.4-0.1,1.8-0.4c0.4-0.3,0.6-0.7,0.6-1.2c0-0.4-0.2-0.8-0.5-1c-0.3-0.3-1-0.6-2-1
		c-0.9-0.4-1.6-0.7-2-0.9c-0.4-0.3-0.7-0.6-0.9-0.9c-0.2-0.3-0.3-0.7-0.3-1.2c0-0.8,0.3-1.5,1-2c0.7-0.5,1.6-0.7,2.7-0.7
		c1.1,0,2.1,0.2,3.2,0.7l-0.5,1.3c-1-0.4-1.9-0.6-2.7-0.6c-0.7,0-1.3,0.1-1.6,0.4s-0.5,0.6-0.5,1c0,0.3,0.1,0.5,0.2,0.7
		c0.1,0.2,0.4,0.4,0.7,0.6c0.3,0.2,0.9,0.4,1.8,0.8c1.2,0.4,2,0.9,2.4,1.4C339.6,627.2,339.8,627.8,339.8,628.5z"/>
	<path d="M346.9,631.5c-0.7,0-1.2-0.1-1.8-0.4c-0.5-0.2-1-0.6-1.4-1.2h-0.1c0.1,0.6,0.1,1.2,0.1,1.7v4.3h-1.5v-15.1h1.2l0.2,1.4h0.1
		c0.4-0.6,0.8-1,1.4-1.2c0.5-0.3,1.1-0.4,1.8-0.4c1.3,0,2.4,0.5,3.1,1.4c0.7,0.9,1.1,2.3,1.1,4c0,1.7-0.4,3-1.1,4
		C349.2,631.1,348.2,631.5,346.9,631.5z M346.7,622.1c-1,0-1.8,0.3-2.2,0.9c-0.5,0.6-0.7,1.5-0.7,2.8v0.4c0,1.5,0.2,2.5,0.7,3.1
		c0.5,0.6,1.2,0.9,2.3,0.9c0.9,0,1.5-0.4,2-1.1c0.5-0.7,0.7-1.7,0.7-3c0-1.3-0.2-2.3-0.7-3C348.3,622.4,347.6,622.1,346.7,622.1z"/>
	<path d="M358,631.5c-1.5,0-2.6-0.5-3.5-1.4c-0.9-0.9-1.3-2.2-1.3-3.9c0-1.7,0.4-3,1.2-4c0.8-1,1.9-1.5,3.2-1.5c1.3,0,2.2,0.4,3,1.3
		c0.7,0.9,1.1,2,1.1,3.4v1h-6.9c0,1.2,0.3,2.1,0.9,2.8c0.6,0.6,1.4,0.9,2.4,0.9c1.1,0,2.1-0.2,3.2-0.7v1.4c-0.5,0.2-1,0.4-1.5,0.5
		C359.2,631.5,358.6,631.5,358,631.5z M357.5,622.1c-0.8,0-1.4,0.3-1.9,0.8c-0.5,0.5-0.8,1.3-0.8,2.3h5.2c0-1-0.2-1.8-0.6-2.3
		C358.9,622.3,358.3,622.1,357.5,622.1z"/>
	<path d="M370.4,631.3l-0.3-1.5H370c-0.5,0.7-1,1.1-1.5,1.3c-0.5,0.2-1.1,0.3-1.9,0.3c-1,0-1.8-0.3-2.3-0.8
		c-0.6-0.5-0.8-1.3-0.8-2.3c0-2.1,1.6-3.2,4.9-3.3l1.7-0.1v-0.6c0-0.8-0.2-1.4-0.5-1.8c-0.3-0.4-0.9-0.6-1.6-0.6
		c-0.8,0-1.8,0.3-2.8,0.8l-0.5-1.2c0.5-0.3,1-0.5,1.6-0.7c0.6-0.2,1.2-0.2,1.8-0.2c1.2,0,2.1,0.3,2.7,0.8c0.6,0.6,0.9,1.4,0.9,2.6
		v7.1H370.4z M367,630.2c0.9,0,1.7-0.3,2.2-0.8c0.5-0.5,0.8-1.3,0.8-2.3v-0.9l-1.5,0.1c-1.2,0-2.1,0.2-2.6,0.6
		c-0.5,0.3-0.8,0.9-0.8,1.6c0,0.6,0.2,1,0.5,1.3C365.9,630.1,366.4,630.2,367,630.2z"/>
	<path d="M376.1,626c0.3-0.4,0.7-0.9,1.2-1.5l3.2-3.6h1.8l-4.1,4.4l4.3,6h-1.8l-3.5-4.9l-1.1,1v3.9h-1.5v-14.8h1.5v7.8
		C376.1,624.8,376.1,625.3,376.1,626L376.1,626z"/>
	<path d="M402.1,631.3v-6.8c0-0.8-0.2-1.5-0.5-1.9c-0.3-0.4-0.9-0.6-1.6-0.6c-0.9,0-1.6,0.3-2.1,0.8c-0.5,0.6-0.7,1.4-0.7,2.6v5.8
		h-1.5v-6.8c0-0.8-0.2-1.5-0.5-1.9c-0.3-0.4-0.9-0.6-1.6-0.6c-1,0-1.6,0.3-2.1,0.9c-0.4,0.6-0.7,1.6-0.7,2.9v5.5h-1.5v-10.4h1.2
		l0.2,1.4h0.1c0.3-0.5,0.7-0.9,1.2-1.2c0.5-0.3,1.1-0.4,1.7-0.4c1.6,0,2.6,0.6,3.1,1.8h0.1c0.3-0.5,0.7-1,1.3-1.3
		c0.6-0.3,1.2-0.5,1.9-0.5c1.1,0,2,0.3,2.5,0.9c0.6,0.6,0.8,1.6,0.8,2.9v6.8H402.1z"/>
	<path d="M406.6,618.1c0-0.4,0.1-0.6,0.3-0.8c0.2-0.2,0.4-0.3,0.6-0.3c0.2,0,0.5,0.1,0.6,0.3c0.2,0.2,0.3,0.4,0.3,0.8
		c0,0.4-0.1,0.6-0.3,0.8c-0.2,0.2-0.4,0.3-0.6,0.3c-0.3,0-0.5-0.1-0.6-0.3C406.7,618.7,406.6,618.5,406.6,618.1z M408.2,631.3h-1.5
		v-10.4h1.5V631.3z"/>
	<path d="M418.3,631.3v-6.7c0-0.8-0.2-1.5-0.6-1.9c-0.4-0.4-1-0.6-1.7-0.6c-1,0-1.8,0.3-2.3,0.9c-0.5,0.6-0.7,1.6-0.7,2.9v5.5h-1.5
		v-10.4h1.2l0.2,1.4h0.1c0.3-0.5,0.7-0.9,1.3-1.2c0.6-0.3,1.2-0.4,1.9-0.4c1.2,0,2.1,0.3,2.7,0.9c0.6,0.6,0.9,1.6,0.9,2.9v6.8H418.3
		z"/>
	<path d="M422.8,618.1c0-0.4,0.1-0.6,0.3-0.8c0.2-0.2,0.4-0.3,0.6-0.3c0.2,0,0.5,0.1,0.6,0.3c0.2,0.2,0.3,0.4,0.3,0.8
		c0,0.4-0.1,0.6-0.3,0.8c-0.2,0.2-0.4,0.3-0.6,0.3c-0.3,0-0.5-0.1-0.6-0.3C422.9,618.7,422.8,618.5,422.8,618.1z M424.5,631.3h-1.5
		v-10.4h1.5V631.3z"/>
	<path d="M440.4,631.3v-6.8c0-0.8-0.2-1.5-0.5-1.9c-0.3-0.4-0.9-0.6-1.6-0.6c-0.9,0-1.6,0.3-2.1,0.8c-0.5,0.6-0.7,1.4-0.7,2.6v5.8
		h-1.5v-6.8c0-0.8-0.2-1.5-0.5-1.9c-0.3-0.4-0.9-0.6-1.6-0.6c-1,0-1.6,0.3-2.1,0.9c-0.4,0.6-0.7,1.6-0.7,2.9v5.5h-1.5v-10.4h1.2
		l0.2,1.4h0.1c0.3-0.5,0.7-0.9,1.2-1.2c0.5-0.3,1.1-0.4,1.7-0.4c1.6,0,2.6,0.6,3.1,1.8h0.1c0.3-0.5,0.7-1,1.3-1.3
		c0.6-0.3,1.2-0.5,1.9-0.5c1.1,0,2,0.3,2.5,0.9c0.6,0.6,0.8,1.6,0.8,2.9v6.8H440.4z"/>
	<path d="M446.5,620.9v6.7c0,0.8,0.2,1.5,0.6,1.9c0.4,0.4,1,0.6,1.7,0.6c1,0,1.8-0.3,2.3-0.9c0.5-0.6,0.7-1.6,0.7-2.9v-5.5h1.5v10.4
		h-1.3l-0.2-1.4h-0.1c-0.3,0.5-0.7,0.9-1.3,1.2c-0.6,0.3-1.2,0.4-1.9,0.4c-1.2,0-2.1-0.3-2.7-0.9c-0.6-0.6-0.9-1.6-0.9-2.9v-6.8
		H446.5z"/>
	<path d="M469.3,631.3v-6.8c0-0.8-0.2-1.5-0.5-1.9c-0.3-0.4-0.9-0.6-1.6-0.6c-0.9,0-1.6,0.3-2.1,0.8c-0.5,0.6-0.7,1.4-0.7,2.6v5.8
		h-1.5v-6.8c0-0.8-0.2-1.5-0.5-1.9c-0.3-0.4-0.9-0.6-1.6-0.6c-1,0-1.6,0.3-2.1,0.9c-0.4,0.6-0.7,1.6-0.7,2.9v5.5h-1.5v-10.4h1.2
		l0.2,1.4h0.1c0.3-0.5,0.7-0.9,1.2-1.2c0.5-0.3,1.1-0.4,1.7-0.4c1.6,0,2.6,0.6,3.1,1.8h0.1c0.3-0.5,0.7-1,1.3-1.3
		c0.6-0.3,1.2-0.5,1.9-0.5c1.1,0,2,0.3,2.5,0.9c0.6,0.6,0.8,1.6,0.8,2.9v6.8H469.3z"/>
	<path d="M301,644c1.3,0,2.3,0.5,3.1,1.4s1.1,2.3,1.1,4c0,1.7-0.4,3-1.1,4c-0.7,0.9-1.8,1.4-3.1,1.4c-0.7,0-1.2-0.1-1.8-0.4
		c-0.5-0.2-1-0.6-1.4-1.2h-0.1l-0.3,1.3h-1.1v-14.8h1.5v3.6c0,0.8,0,1.5-0.1,2.2h0.1C298.6,644.5,299.6,644,301,644z M300.8,645.3
		c-1,0-1.8,0.3-2.2,0.9c-0.5,0.6-0.7,1.7-0.7,3.1c0,1.5,0.2,2.5,0.7,3.1c0.5,0.6,1.2,0.9,2.3,0.9c0.9,0,1.6-0.4,2.1-1.1
		c0.5-0.7,0.7-1.7,0.7-3c0-1.4-0.2-2.4-0.7-3C302.5,645.6,301.7,645.3,300.8,645.3z"/>
	<path d="M314,654.5l-0.3-1.5h-0.1c-0.5,0.7-1,1.1-1.5,1.3c-0.5,0.2-1.1,0.3-1.9,0.3c-1,0-1.8-0.3-2.3-0.8c-0.6-0.5-0.8-1.3-0.8-2.3
		c0-2.1,1.6-3.2,4.9-3.3l1.7-0.1v-0.6c0-0.8-0.2-1.4-0.5-1.8c-0.3-0.4-0.9-0.6-1.6-0.6c-0.8,0-1.8,0.3-2.8,0.8l-0.5-1.2
		c0.5-0.3,1-0.5,1.6-0.7c0.6-0.2,1.2-0.2,1.8-0.2c1.2,0,2.1,0.3,2.7,0.8c0.6,0.6,0.9,1.4,0.9,2.6v7.1H314z M310.6,653.4
		c0.9,0,1.7-0.3,2.2-0.8c0.5-0.5,0.8-1.3,0.8-2.3v-0.9l-1.5,0.1c-1.2,0-2.1,0.2-2.6,0.6c-0.5,0.3-0.8,0.9-0.8,1.6
		c0,0.6,0.2,1,0.5,1.3C309.5,653.3,310,653.4,310.6,653.4z"/>
	<path d="M324.7,651.7c0,1-0.3,1.7-1,2.2c-0.7,0.5-1.7,0.8-2.9,0.8c-1.3,0-2.4-0.2-3.1-0.7v-1.5c0.5,0.3,1,0.5,1.5,0.6
		c0.6,0.1,1.1,0.2,1.6,0.2c0.8,0,1.4-0.1,1.8-0.4s0.6-0.7,0.6-1.2c0-0.4-0.2-0.8-0.5-1c-0.3-0.3-1-0.6-2-1c-0.9-0.4-1.6-0.7-2-0.9
		c-0.4-0.3-0.7-0.6-0.9-0.9c-0.2-0.3-0.3-0.7-0.3-1.2c0-0.8,0.3-1.5,1-2c0.7-0.5,1.6-0.7,2.7-0.7c1.1,0,2.1,0.2,3.2,0.7l-0.5,1.3
		c-1-0.4-1.9-0.6-2.7-0.6c-0.7,0-1.3,0.1-1.6,0.4c-0.4,0.2-0.5,0.6-0.5,1c0,0.3,0.1,0.5,0.2,0.7c0.1,0.2,0.4,0.4,0.7,0.6
		c0.3,0.2,0.9,0.4,1.8,0.8c1.2,0.4,2,0.9,2.4,1.4C324.5,650.4,324.7,651,324.7,651.7z"/>
	<path d="M327,641.3c0-0.4,0.1-0.6,0.3-0.8c0.2-0.2,0.4-0.3,0.6-0.3c0.2,0,0.5,0.1,0.6,0.3c0.2,0.2,0.3,0.4,0.3,0.8
		c0,0.4-0.1,0.6-0.3,0.8c-0.2,0.2-0.4,0.3-0.6,0.3c-0.3,0-0.5-0.1-0.6-0.3C327.1,641.9,327,641.7,327,641.3z M328.7,654.5h-1.5
		v-10.4h1.5V654.5z"/>
	<path d="M335.9,654.7c-1.4,0-2.6-0.5-3.4-1.4c-0.8-0.9-1.2-2.2-1.2-3.9c0-1.7,0.4-3.1,1.2-4c0.8-0.9,2-1.4,3.4-1.4
		c0.5,0,1,0.1,1.4,0.2s0.9,0.2,1.1,0.4l-0.5,1.3c-0.3-0.1-0.7-0.3-1.1-0.3c-0.4-0.1-0.7-0.1-1.1-0.1c-2,0-3.1,1.3-3.1,4
		c0,1.3,0.2,2.3,0.7,2.9c0.5,0.7,1.2,1,2.2,1c0.8,0,1.7-0.2,2.6-0.6v1.4C337.8,654.5,336.9,654.7,335.9,654.7z"/>
	<path d="M353.3,654.5h-7.4v-13.9h7.4v1.4h-5.9v4.5h5.5v1.4h-5.5v5.1h5.9V654.5z"/>
	<path d="M362.9,654.5v-6.7c0-0.8-0.2-1.5-0.6-1.9c-0.4-0.4-1-0.6-1.7-0.6c-1,0-1.8,0.3-2.3,0.9c-0.5,0.6-0.7,1.6-0.7,2.9v5.5h-1.5
		v-10.4h1.2l0.2,1.4h0.1c0.3-0.5,0.7-0.9,1.3-1.2c0.6-0.3,1.2-0.4,1.9-0.4c1.2,0,2.1,0.3,2.7,0.9s0.9,1.6,0.9,2.9v6.8H362.9z"/>
	<path d="M375.7,644.1v1l-1.9,0.2c0.2,0.2,0.3,0.5,0.5,0.9c0.1,0.4,0.2,0.8,0.2,1.2c0,1-0.3,1.8-1,2.4c-0.7,0.6-1.6,0.9-2.8,0.9
		c-0.3,0-0.6,0-0.8-0.1c-0.6,0.4-1,0.8-1,1.3c0,0.3,0.1,0.5,0.3,0.6c0.2,0.1,0.6,0.2,1.2,0.2h1.8c1.1,0,1.9,0.2,2.5,0.7
		c0.6,0.5,0.9,1.2,0.9,2.1c0,1.2-0.4,2-1.3,2.6c-0.9,0.6-2.2,0.9-3.9,0.9c-1.3,0-2.3-0.3-3-0.8c-0.7-0.5-1.1-1.2-1.1-2.1
		c0-0.6,0.2-1.2,0.6-1.6c0.4-0.5,0.9-0.8,1.6-0.9c-0.3-0.1-0.5-0.3-0.6-0.6c-0.2-0.3-0.3-0.5-0.3-0.9c0-0.4,0.1-0.7,0.3-1
		c0.2-0.3,0.5-0.6,0.9-0.8c-0.5-0.2-0.9-0.6-1.3-1.1c-0.3-0.5-0.5-1.1-0.5-1.8c0-1.1,0.3-2,1-2.6c0.7-0.6,1.6-0.9,2.8-0.9
		c0.5,0,1,0.1,1.4,0.2H375.7z M367.8,656.3c0,0.6,0.2,1,0.7,1.3c0.5,0.3,1.1,0.4,2,0.4c1.3,0,2.2-0.2,2.8-0.6
		c0.6-0.4,0.9-0.9,0.9-1.6c0-0.6-0.2-1-0.5-1.2c-0.3-0.2-1-0.3-1.9-0.3h-1.8c-0.7,0-1.2,0.2-1.6,0.5
		C368,655.2,367.8,655.6,367.8,656.3z M368.6,647.5c0,0.7,0.2,1.3,0.6,1.7c0.4,0.4,0.9,0.6,1.7,0.6c1.5,0,2.2-0.7,2.2-2.2
		c0-1.6-0.7-2.3-2.2-2.3c-0.7,0-1.3,0.2-1.6,0.6C368.8,646.1,368.6,646.7,368.6,647.5z"/>
	<path d="M379.3,654.5h-1.5v-14.8h1.5V654.5z"/>
	<path d="M382.4,641.3c0-0.4,0.1-0.6,0.3-0.8c0.2-0.2,0.4-0.3,0.6-0.3c0.2,0,0.5,0.1,0.6,0.3c0.2,0.2,0.3,0.4,0.3,0.8
		c0,0.4-0.1,0.6-0.3,0.8c-0.2,0.2-0.4,0.3-0.6,0.3c-0.3,0-0.5-0.1-0.6-0.3C382.5,641.9,382.4,641.7,382.4,641.3z M384.1,654.5h-1.5
		v-10.4h1.5V654.5z"/>
	<path d="M393.7,651.7c0,1-0.3,1.7-1,2.2c-0.7,0.5-1.7,0.8-2.9,0.8c-1.3,0-2.4-0.2-3.1-0.7v-1.5c0.5,0.3,1,0.5,1.5,0.6
		c0.6,0.1,1.1,0.2,1.6,0.2c0.8,0,1.4-0.1,1.8-0.4c0.4-0.3,0.6-0.7,0.6-1.2c0-0.4-0.2-0.8-0.5-1c-0.3-0.3-1-0.6-2-1
		c-0.9-0.4-1.6-0.7-2-0.9c-0.4-0.3-0.7-0.6-0.9-0.9c-0.2-0.3-0.3-0.7-0.3-1.2c0-0.8,0.3-1.5,1-2c0.7-0.5,1.6-0.7,2.7-0.7
		c1.1,0,2.1,0.2,3.2,0.7l-0.5,1.3c-1-0.4-1.9-0.6-2.7-0.6c-0.7,0-1.3,0.1-1.6,0.4c-0.4,0.2-0.5,0.6-0.5,1c0,0.3,0.1,0.5,0.2,0.7
		c0.1,0.2,0.4,0.4,0.7,0.6c0.3,0.2,0.9,0.4,1.8,0.8c1.2,0.4,2,0.9,2.4,1.4C393.5,650.4,393.7,651,393.7,651.7z"/>
	<path d="M403.1,654.5v-6.7c0-0.8-0.2-1.5-0.6-1.9c-0.4-0.4-1-0.6-1.7-0.6c-1.1,0-1.8,0.3-2.3,0.9c-0.5,0.6-0.7,1.6-0.7,2.9v5.4
		h-1.5v-14.8h1.5v4.5c0,0.5,0,1-0.1,1.3h0.1c0.3-0.5,0.7-0.9,1.3-1.2c0.6-0.3,1.2-0.4,1.9-0.4c1.2,0,2.1,0.3,2.8,0.9
		c0.6,0.6,0.9,1.6,0.9,2.9v6.8H403.1z"/>
</g>
<g>
	<path d="M108.7,695.7h-9.2v-17.1h9.2v1.8h-7.2v5.5h6.8v1.8h-6.8v6.3h7.2V695.7z"/>
	<path d="M127.8,695.7v-8.3c0-1-0.2-1.8-0.6-2.3c-0.4-0.5-1.1-0.8-2-0.8c-1.2,0-2,0.3-2.6,1c-0.6,0.7-0.8,1.8-0.8,3.2v7.1h-1.9v-8.3
		c0-1-0.2-1.8-0.6-2.3c-0.4-0.5-1.1-0.8-2-0.8c-1.2,0-2,0.4-2.6,1.1c-0.5,0.7-0.8,1.9-0.8,3.6v6.7h-1.9v-12.8h1.5l0.3,1.8h0.1
		c0.4-0.6,0.8-1.1,1.5-1.5c0.6-0.3,1.4-0.5,2.2-0.5c1.9,0,3.2,0.7,3.8,2.2h0.1c0.4-0.7,0.9-1.2,1.6-1.6c0.7-0.4,1.5-0.6,2.4-0.6
		c1.4,0,2.4,0.4,3.1,1.1c0.7,0.7,1,1.9,1,3.6v8.3H127.8z"/>
	<path d="M141.1,695.7l-0.4-1.8h-0.1c-0.6,0.8-1.2,1.3-1.8,1.6c-0.6,0.3-1.4,0.4-2.3,0.4c-1.2,0-2.2-0.3-2.9-1c-0.7-0.7-1-1.6-1-2.8
		c0-2.6,2-3.9,6-4.1l2.1-0.1v-0.8c0-1-0.2-1.7-0.6-2.2c-0.4-0.5-1.1-0.7-2-0.7c-1,0-2.2,0.3-3.5,1l-0.6-1.5c0.6-0.3,1.3-0.6,2-0.8
		c0.7-0.2,1.4-0.3,2.2-0.3c1.5,0,2.6,0.3,3.3,1c0.7,0.7,1.1,1.8,1.1,3.3v8.7H141.1z M136.8,694.4c1.2,0,2.1-0.3,2.7-1
		c0.7-0.7,1-1.6,1-2.8v-1.2l-1.9,0.1c-1.5,0.1-2.6,0.3-3.2,0.7c-0.7,0.4-1,1.1-1,2c0,0.7,0.2,1.2,0.6,1.6
		C135.5,694.2,136.1,694.4,136.8,694.4z"/>
	<path d="M146.1,679.5c0-0.4,0.1-0.8,0.3-1c0.2-0.2,0.5-0.3,0.8-0.3c0.3,0,0.6,0.1,0.8,0.3c0.2,0.2,0.3,0.5,0.3,1s-0.1,0.8-0.3,1
		c-0.2,0.2-0.5,0.3-0.8,0.3c-0.3,0-0.6-0.1-0.8-0.3C146.2,680.2,146.1,679.9,146.1,679.5z M148.1,695.7h-1.9v-12.8h1.9V695.7z"/>
	<path d="M154,695.7h-1.9v-18.2h1.9V695.7z"/>
	<path d="M167.9,694.4c0.3,0,0.6,0,1-0.1c0.3-0.1,0.6-0.1,0.7-0.2v1.5c-0.2,0.1-0.5,0.2-0.9,0.3c-0.4,0.1-0.7,0.1-1.1,0.1
		c-2.4,0-3.6-1.3-3.6-3.9v-7.6h-1.8v-0.9l1.8-0.8l0.8-2.7h1.1v3h3.6v1.5h-3.6v7.5c0,0.8,0.2,1.4,0.5,1.8
		C166.8,694.1,167.3,694.4,167.9,694.4z"/>
	<path d="M182.6,689.3c0,2.1-0.5,3.7-1.5,4.9c-1,1.2-2.4,1.8-4.2,1.8c-1.1,0-2.1-0.3-2.9-0.8c-0.9-0.5-1.5-1.3-2-2.3
		c-0.5-1-0.7-2.2-0.7-3.5c0-2.1,0.5-3.7,1.5-4.9c1-1.2,2.4-1.7,4.2-1.7c1.7,0,3.1,0.6,4.1,1.8C182.1,685.7,182.6,687.3,182.6,689.3z
		 M173.3,689.3c0,1.6,0.3,2.9,0.9,3.7s1.6,1.3,2.8,1.3c1.2,0,2.1-0.4,2.8-1.3c0.6-0.9,0.9-2.1,0.9-3.7c0-1.6-0.3-2.9-0.9-3.7
		c-0.6-0.8-1.6-1.3-2.8-1.3c-1.2,0-2.1,0.4-2.8,1.2C173.6,686.4,173.3,687.7,173.3,689.3z"/>
	<path d="M185.6,684.2c0-1,0.4-1.6,1.3-1.6c0.9,0,1.4,0.5,1.4,1.6c0,0.5-0.1,0.9-0.4,1.2c-0.2,0.3-0.6,0.4-1,0.4
		c-0.4,0-0.7-0.1-0.9-0.4C185.8,685.1,185.6,684.7,185.6,684.2z M185.6,694.5c0-0.5,0.1-0.9,0.3-1.2c0.2-0.3,0.6-0.4,1-0.4
		c0.4,0,0.8,0.1,1,0.4c0.2,0.3,0.4,0.7,0.4,1.2c0,0.5-0.1,0.9-0.4,1.2c-0.2,0.3-0.6,0.4-1,0.4c-0.4,0-0.7-0.1-0.9-0.4
		C185.8,695.4,185.6,695,185.6,694.5z"/>
	<path d="M198.3,695.7v-17.1h1.9v15.3h7.2v1.8H198.3z"/>
	<path d="M208,682.9h2l2.7,7.3c0.6,1.7,1,2.9,1.1,3.6h0.1c0.1-0.4,0.3-1.1,0.6-2c0.3-1,1.3-3.9,3.1-8.9h2l-5.3,14.6
		c-0.5,1.4-1.1,2.5-1.8,3.1c-0.7,0.6-1.6,0.9-2.6,0.9c-0.6,0-1.1-0.1-1.7-0.2v-1.6c0.4,0.1,0.9,0.1,1.4,0.1c1.3,0,2.2-0.7,2.7-2.2
		l0.7-1.8L208,682.9z"/>
	<path d="M227.1,684.4H224v11.3h-1.9v-11.3h-2.2v-0.9l2.2-0.7v-0.7c0-3.1,1.3-4.7,4-4.7c0.7,0,1.4,0.1,2.3,0.4l-0.5,1.6
		c-0.7-0.2-1.3-0.4-1.8-0.4c-0.7,0-1.2,0.2-1.6,0.7c-0.3,0.5-0.5,1.3-0.5,2.3v0.8h3.1V684.4z"/>
	<path d="M237.3,692.2c0,1.2-0.4,2.1-1.3,2.8c-0.9,0.6-2.1,1-3.6,1c-1.6,0-2.9-0.3-3.8-0.8v-1.8c0.6,0.3,1.2,0.6,1.9,0.7
		c0.7,0.2,1.3,0.3,2,0.3c1,0,1.7-0.2,2.2-0.5c0.5-0.3,0.8-0.8,0.8-1.5c0-0.5-0.2-0.9-0.6-1.3c-0.4-0.4-1.2-0.8-2.4-1.3
		c-1.1-0.4-2-0.8-2.4-1.2c-0.5-0.3-0.8-0.7-1.1-1.1c-0.2-0.4-0.4-0.9-0.4-1.5c0-1,0.4-1.9,1.2-2.5c0.8-0.6,1.9-0.9,3.4-0.9
		c1.3,0,2.6,0.3,3.9,0.8l-0.7,1.6c-1.2-0.5-2.4-0.8-3.4-0.8c-0.9,0-1.6,0.1-2,0.4c-0.4,0.3-0.7,0.7-0.7,1.2c0,0.3,0.1,0.6,0.3,0.9
		c0.2,0.2,0.4,0.5,0.8,0.7c0.4,0.2,1.1,0.5,2.2,0.9c1.5,0.6,2.4,1.1,3,1.7C237,690.7,237.3,691.4,237.3,692.2z"/>
	<path d="M245.7,695.7h-1.9v-15.3h-5.2v-1.8h12.3v1.8h-5.2V695.7z"/>
	<path d="M258.3,696c-1.8,0-3.3-0.6-4.3-1.7c-1.1-1.2-1.6-2.7-1.6-4.8c0-2.1,0.5-3.7,1.5-4.9c1-1.2,2.3-1.8,3.9-1.8
		c1.5,0,2.8,0.5,3.7,1.6c0.9,1.1,1.3,2.4,1.3,4.2v1.2h-8.5c0,1.5,0.4,2.6,1.1,3.4c0.7,0.8,1.7,1.2,2.9,1.2c1.3,0,2.6-0.3,3.9-0.9
		v1.7c-0.7,0.3-1.3,0.5-1.9,0.6C259.8,695.9,259.1,696,258.3,696z M257.8,684.3c-1,0-1.8,0.3-2.4,1c-0.6,0.7-0.9,1.6-1,2.8h6.4
		c0-1.2-0.3-2.2-0.8-2.8C259.5,684.6,258.7,684.3,257.8,684.3z"/>
	<path d="M273.5,695.7l-0.4-1.8h-0.1c-0.6,0.8-1.2,1.3-1.8,1.6c-0.6,0.3-1.4,0.4-2.3,0.4c-1.2,0-2.2-0.3-2.9-1c-0.7-0.7-1-1.6-1-2.8
		c0-2.6,2-3.9,6-4.1l2.1-0.1v-0.8c0-1-0.2-1.7-0.6-2.2c-0.4-0.5-1.1-0.7-2-0.7c-1,0-2.2,0.3-3.5,1l-0.6-1.5c0.6-0.3,1.3-0.6,2-0.8
		c0.7-0.2,1.4-0.3,2.2-0.3c1.5,0,2.6,0.3,3.3,1c0.7,0.7,1.1,1.8,1.1,3.3v8.7H273.5z M269.3,694.4c1.2,0,2.1-0.3,2.7-1
		c0.7-0.7,1-1.6,1-2.8v-1.2l-1.9,0.1c-1.5,0.1-2.6,0.3-3.2,0.7c-0.7,0.4-1,1.1-1,2c0,0.7,0.2,1.2,0.6,1.6
		C268,694.2,268.6,694.4,269.3,694.4z"/>
	<path d="M296.1,687.2c0,1.1-0.2,2.1-0.5,3c-0.3,0.9-0.8,1.6-1.4,2.1c-0.6,0.5-1.3,0.8-2.1,0.8c-0.6,0-1.2-0.2-1.6-0.6
		s-0.7-0.9-0.8-1.6h-0.1c-0.3,0.7-0.7,1.2-1.3,1.6c-0.6,0.4-1.2,0.6-2,0.6c-1.1,0-2-0.4-2.6-1.2c-0.6-0.8-0.9-1.9-0.9-3.3
		c0-1.6,0.4-2.9,1.3-3.9c0.9-1,2-1.5,3.5-1.5c0.5,0,1.1,0,1.7,0.1c0.6,0.1,1.2,0.2,1.7,0.4l-0.3,5.5v0.3c0,1.4,0.5,2.1,1.5,2.1
		c0.7,0,1.2-0.4,1.7-1.3c0.4-0.8,0.6-1.9,0.6-3.3c0-1.4-0.3-2.6-0.8-3.7c-0.6-1.1-1.3-1.9-2.4-2.4c-1-0.6-2.2-0.9-3.5-0.9
		c-1.7,0-3.1,0.4-4.4,1.1c-1.2,0.7-2.2,1.7-2.8,3.1c-0.7,1.3-1,2.9-1,4.6c0,2.4,0.6,4.2,1.8,5.5c1.2,1.3,2.9,1.9,5.2,1.9
		c1.6,0,3.2-0.3,4.9-1v1.6c-1.4,0.7-3.1,1-4.9,1c-2.7,0-4.8-0.8-6.3-2.3c-1.5-1.6-2.3-3.7-2.3-6.5c0-2,0.4-3.8,1.2-5.4
		c0.8-1.6,1.9-2.8,3.4-3.7c1.5-0.9,3.2-1.3,5.1-1.3c1.6,0,3,0.4,4.3,1.1c1.3,0.7,2.2,1.7,2.9,3C295.8,684,296.1,685.5,296.1,687.2z
		 M284.5,688.7c0,2,0.7,3,2.2,3c1.6,0,2.4-1.2,2.5-3.7l0.2-3c-0.5-0.2-1.1-0.2-1.8-0.2c-1,0-1.7,0.3-2.3,1
		C284.8,686.5,284.5,687.5,284.5,688.7z"/>
	<path d="M307.9,695.7v-8.3c0-1-0.2-1.8-0.7-2.3c-0.5-0.5-1.2-0.8-2.1-0.8c-1.3,0-2.2,0.4-2.8,1.1c-0.6,0.7-0.9,1.9-0.9,3.6v6.7
		h-1.9v-12.8h1.5l0.3,1.8h0.1c0.4-0.6,0.9-1.1,1.6-1.5c0.7-0.3,1.5-0.5,2.3-0.5c1.5,0,2.6,0.4,3.3,1.1c0.7,0.7,1.1,1.9,1.1,3.6v8.3
		H307.9z"/>
	<path d="M324.2,689.3c0,2.1-0.5,3.7-1.5,4.9c-1,1.2-2.4,1.8-4.2,1.8c-1.1,0-2.1-0.3-2.9-0.8c-0.9-0.5-1.5-1.3-2-2.3
		c-0.5-1-0.7-2.2-0.7-3.5c0-2.1,0.5-3.7,1.5-4.9c1-1.2,2.4-1.7,4.2-1.7c1.7,0,3.1,0.6,4.1,1.8S324.2,687.3,324.2,689.3z
		 M314.8,689.3c0,1.6,0.3,2.9,0.9,3.7s1.6,1.3,2.8,1.3c1.2,0,2.1-0.4,2.8-1.3c0.6-0.9,0.9-2.1,0.9-3.7c0-1.6-0.3-2.9-0.9-3.7
		c-0.6-0.8-1.6-1.3-2.8-1.3c-1.2,0-2.1,0.4-2.8,1.2C315.1,686.4,314.8,687.7,314.8,689.3z"/>
	<path d="M331.5,694.4c0.3,0,0.6,0,1-0.1c0.3-0.1,0.6-0.1,0.7-0.2v1.5c-0.2,0.1-0.5,0.2-0.9,0.3c-0.4,0.1-0.7,0.1-1.1,0.1
		c-2.4,0-3.6-1.3-3.6-3.9v-7.6h-1.8v-0.9l1.8-0.8l0.8-2.7h1.1v3h3.6v1.5h-3.6v7.5c0,0.8,0.2,1.4,0.5,1.8S330.8,694.4,331.5,694.4z"
		/>
	<path d="M337.8,688.6v7.1h-1.9v-17.1h4.5c2,0,3.5,0.4,4.5,1.2c1,0.8,1.4,2,1.4,3.6c0,2.3-1.1,3.8-3.3,4.6l4.5,7.7h-2.3l-4-7.1
		H337.8z M337.8,686.9h2.6c1.3,0,2.3-0.3,3-0.8c0.6-0.6,0.9-1.4,0.9-2.5c0-1.1-0.3-1.9-1-2.4c-0.6-0.5-1.7-0.7-3.1-0.7h-2.5V686.9z"
		/>
	<path d="M355,696c-1.8,0-3.3-0.6-4.3-1.7c-1.1-1.2-1.6-2.7-1.6-4.8c0-2.1,0.5-3.7,1.5-4.9c1-1.2,2.3-1.8,3.9-1.8
		c1.5,0,2.8,0.5,3.7,1.6c0.9,1.1,1.3,2.4,1.3,4.2v1.2h-8.5c0,1.5,0.4,2.6,1.1,3.4c0.7,0.8,1.7,1.2,2.9,1.2c1.3,0,2.6-0.3,3.9-0.9
		v1.7c-0.7,0.3-1.3,0.5-1.9,0.6C356.6,695.9,355.9,696,355,696z M354.5,684.3c-1,0-1.8,0.3-2.4,1c-0.6,0.7-0.9,1.6-1,2.8h6.4
		c0-1.2-0.3-2.2-0.8-2.8C356.2,684.6,355.5,684.3,354.5,684.3z"/>
	<path d="M370.3,695.7l-0.4-1.8h-0.1c-0.6,0.8-1.2,1.3-1.8,1.6c-0.6,0.3-1.4,0.4-2.3,0.4c-1.2,0-2.2-0.3-2.9-1c-0.7-0.7-1-1.6-1-2.8
		c0-2.6,2-3.9,6-4.1l2.1-0.1v-0.8c0-1-0.2-1.7-0.6-2.2c-0.4-0.5-1.1-0.7-2-0.7c-1,0-2.2,0.3-3.5,1l-0.6-1.5c0.6-0.3,1.3-0.6,2-0.8
		c0.7-0.2,1.4-0.3,2.2-0.3c1.5,0,2.6,0.3,3.3,1c0.7,0.7,1.1,1.8,1.1,3.3v8.7H370.3z M366.1,694.4c1.2,0,2.1-0.3,2.7-1
		c0.7-0.7,1-1.6,1-2.8v-1.2l-1.9,0.1c-1.5,0.1-2.6,0.3-3.2,0.7c-0.7,0.4-1,1.1-1,2c0,0.7,0.2,1.2,0.6,1.6
		C364.8,694.2,365.4,694.4,366.1,694.4z"/>
	<path d="M377.4,695.7h-1.9v-18.2h1.9V695.7z"/>
	<path d="M381.1,694.5c0-0.5,0.1-0.9,0.3-1.2c0.2-0.3,0.6-0.4,1-0.4c0.4,0,0.8,0.1,1,0.4c0.2,0.3,0.4,0.7,0.4,1.2
		c0,0.5-0.1,0.9-0.4,1.2c-0.2,0.3-0.6,0.4-1,0.4c-0.4,0-0.7-0.1-0.9-0.4C381.2,695.4,381.1,695,381.1,694.5z"/>
	<path d="M392.4,696c-1.8,0-3.2-0.6-4.1-1.7c-1-1.1-1.5-2.8-1.5-4.8c0-2.1,0.5-3.8,1.5-5s2.4-1.8,4.2-1.8c0.6,0,1.2,0.1,1.8,0.2
		c0.6,0.1,1.1,0.3,1.4,0.5l-0.6,1.6c-0.4-0.2-0.9-0.3-1.3-0.4c-0.5-0.1-0.9-0.2-1.3-0.2c-2.5,0-3.8,1.7-3.8,5c0,1.6,0.3,2.8,0.9,3.6
		s1.5,1.3,2.7,1.3c1,0,2.1-0.2,3.2-0.7v1.7C394.7,695.7,393.7,696,392.4,696z"/>
	<path d="M409.1,689.3c0,2.1-0.5,3.7-1.5,4.9s-2.4,1.8-4.2,1.8c-1.1,0-2.1-0.3-2.9-0.8c-0.9-0.5-1.5-1.3-2-2.3
		c-0.5-1-0.7-2.2-0.7-3.5c0-2.1,0.5-3.7,1.5-4.9s2.4-1.7,4.2-1.7c1.7,0,3.1,0.6,4.1,1.8S409.1,687.3,409.1,689.3z M399.7,689.3
		c0,1.6,0.3,2.9,0.9,3.7s1.6,1.3,2.8,1.3c1.2,0,2.1-0.4,2.8-1.3c0.6-0.9,0.9-2.1,0.9-3.7c0-1.6-0.3-2.9-0.9-3.7
		c-0.6-0.8-1.6-1.3-2.8-1.3c-1.2,0-2.1,0.4-2.8,1.2C400,686.4,399.7,687.7,399.7,689.3z"/>
	<path d="M412.1,694.5c0-0.5,0.1-0.9,0.3-1.2c0.2-0.3,0.6-0.4,1-0.4c0.4,0,0.8,0.1,1,0.4c0.2,0.3,0.4,0.7,0.4,1.2
		c0,0.5-0.1,0.9-0.4,1.2c-0.2,0.3-0.6,0.4-1,0.4c-0.4,0-0.7-0.1-0.9-0.4C412.2,695.4,412.1,695,412.1,694.5z"/>
	<path d="M418.3,679.5c0-0.4,0.1-0.8,0.3-1c0.2-0.2,0.5-0.3,0.8-0.3c0.3,0,0.6,0.1,0.8,0.3c0.2,0.2,0.3,0.5,0.3,1s-0.1,0.8-0.3,1
		c-0.2,0.2-0.5,0.3-0.8,0.3c-0.3,0-0.6-0.1-0.8-0.3C418.4,680.2,418.3,679.9,418.3,679.5z M420.3,695.7h-1.9v-12.8h1.9V695.7z"/>
	<path d="M432.7,694h-0.1c-0.9,1.3-2.1,1.9-3.9,1.9c-1.6,0-2.9-0.6-3.8-1.7c-0.9-1.1-1.3-2.8-1.3-4.9c0-2.1,0.4-3.7,1.3-4.9
		c0.9-1.2,2.1-1.8,3.8-1.8c1.7,0,3,0.6,3.8,1.9h0.1l-0.1-0.9l0-0.9v-5.2h1.9v18.2h-1.5L432.7,694z M428.9,694.3
		c1.3,0,2.2-0.4,2.8-1.1c0.6-0.7,0.9-1.9,0.9-3.5v-0.4c0-1.8-0.3-3.1-0.9-3.9c-0.6-0.8-1.5-1.2-2.8-1.2c-1.1,0-1.9,0.4-2.5,1.3
		c-0.6,0.9-0.9,2.1-0.9,3.7c0,1.6,0.3,2.9,0.9,3.7C427,693.9,427.8,694.3,428.9,694.3z"/>
</g>
</svg>
