<svg height="512" viewBox="0 0 60 60" width="512" xmlns="http://www.w3.org/2000/svg"><g id="Page-1" fill="none" fill-rule="evenodd"><g id="060---Chocolate-Stencil" fill="rgb(0,0,0)" fill-rule="nonzero" transform="translate(-1)"><path id="Shape" d="m17.035 22.231c-9.47603455 1.4939979-16.35191118 9.8174257-16.03031813 19.4051177.32159304 9.5876921 7.73976115 17.431665 17.29460853 18.2873238 9.5548474.8556587 18.2486952-5.5454458 20.2687096-14.9234415h7.432c2.209139 0 4-1.790861 4-4s-1.790861-4-4-4h-7.424c-.1-.461-.214-.917-.348-1.366-.0963269-.3492253-.3739933-.6190452-.7258357-.7053244-.3518424-.0862791-.722834.0244762-.9697927.2895206s-.3312613.6429261-.2203716.9878038c.4603246 1.5562409.692079 3.1711113.688 4.794-.0002373 9.0437279-7.0810082 16.5041781-16.1124008 16.9763666-9.0313927.4721885-16.85154154-6.2091964-17.79486653-15.203592-.94332498-8.9943957 5.32042938-17.1528891 14.25326733-18.5647746.5459335-.0858803.9188803-.5980665.833-1.144s-.5980665-.9188803-1.144-.833zm28.965 16.769c1.1045695 0 2 .8954305 2 2s-.8954305 2-2 2h-7.107c.1456761-1.3295237.1426575-2.6711453-.009-4z"/><path id="Shape" d="m50.859 22.517c.382862-.926901 1.2911955-1.5275731 2.294-1.517h3.347c2.4852813-.0000001 4.4999999-2.0147187 4.4999999-4.5s-2.0147186-4.4999999-4.4999999-4.5h-3.349c-1.0146842-.0005398-1.9274617-.6169713-2.307-1.558-2.8579762-7.23023551-10.3754177-11.48446883-18.0451802-10.21203918s-13.4107141 7.72625812-13.7808198 15.49203918c-.3772555 8.0662865 5.1389069 15.2204861 13.0359332 16.906984s15.8544007-2.5902779 18.8050668-10.106984zm-15.359 8.483c-3.9649052.0000776-7.7568977-1.6234548-10.4933147-4.4926874-2.7364169-2.8692325-4.1785398-6.7338601-3.9906853-10.6943126.3881181-7.50165049 6.4172241-13.47792276 13.922-13.8 6.1502333-.23178902 11.7780299 3.44032522 14.043 9.163.6714459 1.7137498 2.3294512 2.8365812 4.17 2.824h3.349c1.3807119 0 2.5 1.1192881 2.5 2.5s-1.1192881 2.5-2.5 2.5h-3.347c-1.8242284-.0054755-3.4684089 1.0990907-4.153 2.79-2.1517895 5.5747831-7.5244249 9.2401143-13.5 9.21z"/><path id="Shape" d="m40.75 8c-1.9684645.0007709-3.8563547.78181805-5.25 2.172-1.3936453-1.39018195-3.2815355-2.1712291-5.25-2.172-3.505 0-6.25 3.075-6.25 7 0 2.723 1.436 8.019 11.048 12.892.2830476.1426286.6169524.1426286.9 0 9.616-4.873 11.052-10.169 11.052-12.892 0-3.925-2.745-7-6.25-7zm-5.25 17.875c-8.252-4.313-9.5-8.65-9.5-10.875 0-2.851 1.827-5 4.25-5 1.7449015.0096361 3.3823076.8444722 4.415 2.251.1848695.2785366.4966965.4462703.831.447h.004c.3341993-.001239.6459656-.1683637.832-.446 1.033533-1.4072521 2.6720167-2.2424412 4.418-2.252 2.423 0 4.25 2.149 4.25 5 0 2.225-1.248 6.562-9.5 10.875z"/><path id="Shape" d="m10 39.333c0 2.442 1.238 7.19 9.534 11.552.2916759.1536204.6403241.1536204.932 0 8.296-4.362 9.534-9.11 9.534-11.552 0-3.551-2.416-6.333-5.5-6.333-1.6868748.0048095-3.3038161.6745826-4.5 1.864-1.1961839-1.1894174-2.8131252-1.8591905-4.5-1.864-3.084 0-5.5 2.782-5.5 6.333zm9.156-2.4c.1827005.290031.5012217.4662745.844.467.3444765.0099351.6679523-.1651538.848-.459.8367394-1.1939572 2.194257-1.9154637 3.652-1.941 2 0 3.5 1.862 3.5 4.333 0 1.948-1.053 5.742-8 9.532-6.947-3.79-8-7.584-8-9.532 0-2.471 1.505-4.333 3.5-4.333 1.4585195.0230182 2.8177888.743178 3.656 1.937z"/><path id="Shape" d="m19.016 26.032c-8.1387668.5350556-14.35843166 7.4753205-14.00164165 15.6238486.35679 8.1485282 7.15925925 14.5186082 15.31364455 14.3402548 8.1543853-.1783535 14.6718285-6.8397678 14.6719971-14.9961034.0052003-1.8957997-.3553885-3.7748002-1.062-5.534-.1336173-.3315425-.4339606-.5666163-.7878935-.6166716-.3539329-.0500552-.7076845.0925128-.928.374-.2203155.2814873-.2737238.6591291-.1401065.9906716.6110874 1.5214082.9227879 3.1464612.918 4.786-.0000798 7.0685543-5.6480605 12.8417162-12.7149149 12.9967269-7.0668544.1550108-12.96254834-5.3649418-13.27257504-12.4266939s5.07924014-13.0771396 12.13248994-13.542033c.5522847-.0356224.9711223-.5122153.9355-1.0645-.0356224-.5522847-.5122153-.9711223-1.0645-.9355z"/></g></g></svg>