<svg id="Group_1" data-name="Group 1" xmlns="http://www.w3.org/2000/svg" width="648.001" height="768" viewBox="0 0 648.001 768">
  <defs>
    <style>
      .cls-1 {
        fill: #3d2167;
      }

      .cls-2 {
        fill: #c7e9b6;
      }
    </style>
  </defs>
  <path id="Path_1" data-name="Path 1" class="cls-1" d="M537.03,768H0V0H614.562c15.044,9.835,32.983,25.024,33.431,44.089.832,35.442-59.692,43.989-80.377,97.422-14.546,37.582,8.358,51.556,2.134,101.689-8.735,70.4-57.857,74.887-71.13,129.422C475.8,466.4,603.771,524.245,598.913,639.289,596.516,696.014,562.922,740.594,537.03,768Z"/>
  <path id="Path_2" data-name="Path 2" class="cls-2" d="M85.08,407.944l14.208-1.92-6.816,32.064a13.763,13.763,0,0,0,8.448-4.032,25.11,25.11,0,0,0,6.144-9.024,27.666,27.666,0,0,0,2.208-10.56,14.4,14.4,0,0,0-2.976-9.408q-2.976-3.648-8.928-3.648-11.712,0-18.336,6.144Q72.5,413.7,72.5,424.744a12.984,12.984,0,0,0,.672,4.992,7.732,7.732,0,0,1,.672,1.536q-5.184,0-7.776-2.112-2.5-2.208-2.5-7.2,0-6.144,4.992-11.9a37.048,37.048,0,0,1,12.96-9.408A37.167,37.167,0,0,1,97.272,397a27.751,27.751,0,0,1,12.672,2.592,17.149,17.149,0,0,1,7.488,6.912,18.146,18.146,0,0,1,2.5,9.408,24,24,0,0,1-3.456,12.192,26.807,26.807,0,0,1-9.7,9.792,28.139,28.139,0,0,1-14.592,3.744H91.7L85.848,469H72.024Zm84.983,61.632q-7.68,0-10.56-3.648a14.6,14.6,0,0,1-2.784-9.12,9.762,9.762,0,0,1,2.112-6.528,6.121,6.121,0,0,1,4.8-2.592q4.992,0,4.992,4.032a4.229,4.229,0,0,1-1.344,3.072,4.623,4.623,0,0,1-3.264,1.248q-2.016,0-2.592-1.248a9.272,9.272,0,0,0,1.344,5.376,5.058,5.058,0,0,0,4.224,1.824q3.264,0,4.608-1.92,1.44-2.016,1.44-7.008a58.451,58.451,0,0,0-.576-7.3q-.96-9.216-1.536-18.816Q164.111,437.416,154.8,440.2a41.9,41.9,0,0,1-3.744,15.456,25.794,25.794,0,0,1-8.16,10.176,18.05,18.05,0,0,1-10.848,3.552q-7.1,0-11.232-3.648t-4.128-11.52a46.639,46.639,0,0,1,2.592-14.5,33.489,33.489,0,0,1,8.448-13.728q5.856-5.856,14.976-5.856,12.192,0,12.288,15.072,7.1-.384,15.648-15.264l14.208-1.92q.48,12.288,1.632,26.592.48,5.76.48,8.352a20.472,20.472,0,0,1-.288,3.552,58.049,58.049,0,0,0,6.816-4.7h4.032a58.714,58.714,0,0,1-13.344,11.232,13.7,13.7,0,0,1-6.144,4.992A20.326,20.326,0,0,1,170.063,469.576Zm-34.176-8.832q3.552,0,6.624-5.664a42.28,42.28,0,0,0,4.224-14.208q-2.3-.864-2.3-4.32,0-3.744,2.688-4.992a8.952,8.952,0,0,0-1.056-4.32,2.8,2.8,0,0,0-2.592-1.248q-3.168,0-6.048,4.608a40.946,40.946,0,0,0-4.7,11.04,44.382,44.382,0,0,0-1.728,11.328q0,4.608,1.056,6.24Q133.1,460.744,135.887,460.744Zm73.645-44.928a7.6,7.6,0,0,1-5.376-12.96,7.6,7.6,0,1,1,10.752,10.752A7.317,7.317,0,0,1,209.532,415.816ZM203,469.576a10.13,10.13,0,0,1-7.488-2.88q-2.784-2.88-2.784-8.64a33.288,33.288,0,0,1,.768-6.24L200.028,421h13.824l-6.912,32.64a11.882,11.882,0,0,0-.384,3.072,3.817,3.817,0,0,0,.864,2.784,4.922,4.922,0,0,0,3.072.768,7.381,7.381,0,0,0,5.184-2.3,13.786,13.786,0,0,0,3.456-6.144h4.032q-3.552,10.368-9.12,14.112A20.062,20.062,0,0,1,203,469.576Zm25.594,0a10.13,10.13,0,0,1-7.488-2.88q-2.784-2.88-2.784-8.64a33.288,33.288,0,0,1,.768-6.24l5.76-26.976h-3.168l.768-3.84h3.168l2.88-13.248,14.208-1.92L239.446,421h5.76l-.768,3.84h-5.76l-6.144,28.8a11.882,11.882,0,0,0-.384,3.072,3.817,3.817,0,0,0,.864,2.784,4.921,4.921,0,0,0,3.072.768,7.381,7.381,0,0,0,5.184-2.3,13.786,13.786,0,0,0,3.456-6.144h4.032q-3.552,10.368-9.12,14.112A20.062,20.062,0,0,1,228.6,469.576Zm32.122-53.76a7.6,7.6,0,0,1-5.376-12.96A7.6,7.6,0,1,1,266.1,413.608,7.317,7.317,0,0,1,260.72,415.816Zm-6.528,53.76a10.13,10.13,0,0,1-7.488-2.88q-2.784-2.88-2.785-8.64a33.218,33.218,0,0,1,.769-6.24L251.216,421H265.04l-6.912,32.64a11.882,11.882,0,0,0-.384,3.072,3.818,3.818,0,0,0,.864,2.784,4.921,4.921,0,0,0,3.072.768,7.381,7.381,0,0,0,5.184-2.3,13.787,13.787,0,0,0,3.456-6.144h4.032q-3.552,10.368-9.12,14.112A20.062,20.062,0,0,1,254.192,469.576Zm27.033,0q-5.568,0-8.736-2.784-3.072-2.88-3.072-8.544a22.538,22.538,0,0,1,.48-4.608L276.809,421h13.824l-6.912,32.64a20.149,20.149,0,0,0-.48,3.456q0,3.168,3.264,3.168,4.416,0,8.16-5.568a53.675,53.675,0,0,0,8.448-26.5q-.192.48-1.248.768a10.405,10.405,0,0,1-1.824.192,2.933,2.933,0,0,1-2.592-1.536,6.737,6.737,0,0,1-.864-3.36,5.065,5.065,0,0,1,1.44-3.744,6.368,6.368,0,0,1,4.512-1.44,4.971,4.971,0,0,1,4.608,2.4,11.077,11.077,0,0,1,1.44,5.952,64.462,64.462,0,0,1-2.976,18.528,44.017,44.017,0,0,1-9.12,16.7A19.6,19.6,0,0,1,281.225,469.576Zm44.838-53.76a7.6,7.6,0,0,1-5.376-12.96,7.6,7.6,0,1,1,10.752,10.752A7.317,7.317,0,0,1,326.063,415.816Zm-6.528,53.76a10.13,10.13,0,0,1-7.488-2.88q-2.784-2.88-2.784-8.64a33.288,33.288,0,0,1,.768-6.24L316.559,421h13.824l-6.912,32.64a11.881,11.881,0,0,0-.384,3.072,3.818,3.818,0,0,0,.864,2.784,4.922,4.922,0,0,0,3.072.768,7.735,7.735,0,0,0,3.072-.576,10.275,10.275,0,0,1-3.456,7.392A10.7,10.7,0,0,1,319.535,469.576ZM358.8,405.448h-1.152q-8.544,0-13.344,4.32-4.7,4.224-4.7,15.072a12.984,12.984,0,0,0,.672,4.992,7.732,7.732,0,0,1,.672,1.536q-5.184,0-7.776-2.112-2.5-2.208-2.5-7.2a23.506,23.506,0,0,1,3.36-12.384q3.36-5.664,10.656-9.12,7.392-3.456,18.72-3.456a87.7,87.7,0,0,1,13.632,1.152,65.389,65.389,0,0,0,10.944,1.056,29.5,29.5,0,0,0,11.136-2.016q-.192,6.24-3.168,9.216t-8.832,2.976a39.741,39.741,0,0,1-6.144-.48q-3.072-.48-8.736-1.632L358.99,469H345.166Zm31.243,64.128q-7.1,0-11.04-3.648-3.936-3.744-3.937-11.616a47.494,47.494,0,0,1,2.593-14.592,33.489,33.489,0,0,1,8.448-13.728,20.159,20.159,0,0,1,14.879-5.856q10.561,0,10.561,9.216a17.2,17.2,0,0,1-3.072,9.888,23.081,23.081,0,0,1-8.161,7.3,26.775,26.775,0,0,1-10.847,3.072q-.192,2.88-.192,3.84,0,4.7,1.632,6.432,1.632,1.632,5.28,1.632a15.712,15.712,0,0,0,8.832-2.4,42.171,42.171,0,0,0,8.16-7.3h3.264Q405.785,469.576,390.041,469.576ZM390.233,445a12.413,12.413,0,0,0,6.72-2.5,16.909,16.909,0,0,0,5.184-5.856,14.947,14.947,0,0,0,2.016-7.488q0-3.936-2.4-3.936-3.456,0-6.816,6.048A46.934,46.934,0,0,0,390.233,445Zm34.443,24.576a12.21,12.21,0,0,1-9.12-3.744q-3.648-3.744-3.648-11.712a44.114,44.114,0,0,1,2.784-14.88,34.645,34.645,0,0,1,8.448-13.248,18.686,18.686,0,0,1,13.44-5.472q3.936,0,5.856,1.344a4.143,4.143,0,0,1,1.92,3.552v.672L445.412,421h13.824l-6.912,32.64a11.881,11.881,0,0,0-.384,3.072,3.818,3.818,0,0,0,.864,2.784,4.922,4.922,0,0,0,3.072.768,4.789,4.789,0,0,0,2.112-.384,27.379,27.379,0,0,1-4.032,7.584,7.143,7.143,0,0,1-5.568,2.112,9.109,9.109,0,0,1-6.432-2.3,11.2,11.2,0,0,1-2.976-6.624Q433.124,469.576,424.676,469.576Zm6.24-9.312a6.834,6.834,0,0,0,4.7-2.208,11.944,11.944,0,0,0,3.264-6.24l4.608-21.7a3.711,3.711,0,0,0-.96-2.4,3.517,3.517,0,0,0-2.976-1.248q-3.84,0-6.912,4.512a34.652,34.652,0,0,0-4.8,10.752,42,42,0,0,0-1.728,11.04q0,4.8,1.344,6.144A4.887,4.887,0,0,0,430.916,460.264Z"/>
  <path id="Path_3" data-name="Path 3" class="cls-2" d="M44.64,320.3a19,19,0,0,1-7.992-1.584,12.444,12.444,0,0,1-5.328-4.392,11.882,11.882,0,0,1-1.872-6.624,12.7,12.7,0,0,1,1.3-5.76,11.108,11.108,0,0,1,3.6-4.1,9,9,0,0,1,5.04-1.512,6.878,6.878,0,0,1,4.248,1.3,5.287,5.287,0,0,1,2.16,3.456,8.578,8.578,0,0,0-5.976,2.016,6.866,6.866,0,0,0,4.608,12.168,8.354,8.354,0,0,0,6.264-2.52,8.925,8.925,0,0,0,2.52-6.48,11.977,11.977,0,0,0-1.872-6.408A60.324,60.324,0,0,0,45.72,292.5a66.924,66.924,0,0,1-5.9-7.632,13.465,13.465,0,0,1-1.944-7.056,11.313,11.313,0,0,1,2.088-6.7,14.127,14.127,0,0,1,5.76-4.752A19.214,19.214,0,0,1,54,264.64q5.832,0,9.288,2.736a8.815,8.815,0,0,1,3.528,7.344,7.551,7.551,0,0,1-1.512,4.9,4.846,4.846,0,0,1-3.96,1.872,5.205,5.205,0,0,1-4.392-2.232,6.979,6.979,0,0,0,2.16-2.664,7.917,7.917,0,0,0,.792-3.456,4.962,4.962,0,0,0-1.368-3.672,5.059,5.059,0,0,0-3.744-1.368,6.1,6.1,0,0,0-4.752,2.088,7.491,7.491,0,0,0-1.8,5.184,9.655,9.655,0,0,0,1.656,5.4A61.244,61.244,0,0,0,55.08,287.1q2.88,3.1,4.608,5.328a21.025,21.025,0,0,1,3.024,5.184,15.087,15.087,0,0,1,1.3,6.264,14.339,14.339,0,0,1-2.592,8.352,17.264,17.264,0,0,1-6.984,5.9A21.887,21.887,0,0,1,44.64,320.3Zm49.414-.864q-4.392,0-6.48-2.3a8.706,8.706,0,0,1-2.016-5.832,18.08,18.08,0,0,1,.36-3.384q.36-1.944.72-3.744.432-1.8.576-2.3.576-2.52,1.08-4.968a20.6,20.6,0,0,0,.5-3.96q0-3.672-2.592-3.672a4.141,4.141,0,0,0-3.312,1.872,13.714,13.714,0,0,0-2.3,4.752L75.695,319H65.326l10.44-48.96,10.656-1.44-3.888,18.144a10.98,10.98,0,0,1,8.424-4.032,8.206,8.206,0,0,1,5.832,2.016q2.16,2.016,2.16,6.12a24.747,24.747,0,0,1-.5,4.68q-.5,2.52-1.44,6.192-.576,2.232-1.08,4.392a17.329,17.329,0,0,0-.432,3.312,3.435,3.435,0,0,0,.648,2.232,2.739,2.739,0,0,0,2.232.792,4.324,4.324,0,0,0,3.457-1.512,18.864,18.864,0,0,0,2.591-4.824h3.025q-2.664,7.92-6.192,10.656A11.649,11.649,0,0,1,94.054,319.432Zm19,0a9.157,9.157,0,0,1-6.84-2.808q-2.736-2.808-2.736-8.784a33.086,33.086,0,0,1,2.088-11.16,25.984,25.984,0,0,1,6.336-9.936,14.015,14.015,0,0,1,10.08-4.1,7.712,7.712,0,0,1,4.392,1.008,3.107,3.107,0,0,1,1.44,2.664v.5l.792-3.816h10.368l-5.184,24.48a8.912,8.912,0,0,0-.288,2.3q0,3.1,2.952,3.1a4.254,4.254,0,0,0,3.456-1.872,13.708,13.708,0,0,0,2.376-4.9h3.024q-2.664,7.776-6.624,10.584a13.542,13.542,0,0,1-7.848,2.736,7.116,7.116,0,0,1-4.9-1.656,7.829,7.829,0,0,1-2.16-4.968,20.4,20.4,0,0,1-4.68,4.824A10.131,10.131,0,0,1,113.054,319.432Zm4.68-6.984a5.125,5.125,0,0,0,3.528-1.656,8.958,8.958,0,0,0,2.448-4.68l3.456-16.272a2.783,2.783,0,0,0-.72-1.8,2.638,2.638,0,0,0-2.232-.936q-2.88,0-5.184,3.384a25.989,25.989,0,0,0-3.6,8.064,31.5,31.5,0,0,0-1.3,8.28q0,3.6,1.008,4.608A3.665,3.665,0,0,0,117.734,312.448ZM147.209,283h10.368l-.936,4.464a29.986,29.986,0,0,1,4.392-3.312,8.566,8.566,0,0,1,4.32-1.152,4.395,4.395,0,0,1,3.6,1.584,5.641,5.641,0,0,1,1.368,3.816,5.448,5.448,0,0,1-1.368,3.672,4.773,4.773,0,0,1-3.816,1.584,2.653,2.653,0,0,1-2.16-.72,6.641,6.641,0,0,1-.792-2.232,6.61,6.61,0,0,0-.432-1.368.8.8,0,0,0-.792-.432,4.947,4.947,0,0,0-2.592.648,16.606,16.606,0,0,0-2.664,2.088L149.945,319H139.576Zm34.2-3.888a5.7,5.7,0,0,1-4.032-9.72,5.7,5.7,0,1,1,8.064,8.064A5.487,5.487,0,0,1,181.407,279.112Zm-4.9,40.32a7.6,7.6,0,0,1-5.616-2.16q-2.088-2.16-2.088-6.48a24.966,24.966,0,0,1,.576-4.68l4.9-23.112h10.368l-5.184,24.48a8.911,8.911,0,0,0-.288,2.3,2.863,2.863,0,0,0,.648,2.088,3.691,3.691,0,0,0,2.3.576,5.536,5.536,0,0,0,3.888-1.728,10.34,10.34,0,0,0,2.592-4.608h3.024q-2.664,7.776-6.84,10.584A15.047,15.047,0,0,1,176.511,319.432Zm38.059,0q-4.392,0-6.48-2.3a8.706,8.706,0,0,1-2.016-5.832,18.08,18.08,0,0,1,.36-3.384q.36-1.944.72-3.744.432-1.8.576-2.3.576-2.52,1.08-4.968a20.6,20.6,0,0,0,.5-3.96q0-3.672-2.592-3.672a4.141,4.141,0,0,0-3.312,1.872,13.714,13.714,0,0,0-2.3,4.752L196.21,319H185.842l7.632-36h10.368l-.792,3.744a10.98,10.98,0,0,1,8.424-4.032,8.206,8.206,0,0,1,5.832,2.016q2.16,2.016,2.16,6.12a24.747,24.747,0,0,1-.5,4.68q-.5,2.52-1.44,6.192-.576,2.232-1.08,4.392a17.33,17.33,0,0,0-.432,3.312,3.435,3.435,0,0,0,.648,2.232,2.739,2.739,0,0,0,2.232.792,4.323,4.323,0,0,0,3.456-1.512,18.892,18.892,0,0,0,2.592-4.824h3.024q-2.664,7.92-6.192,10.656A11.646,11.646,0,0,1,214.57,319.432ZM237.6,337a8.888,8.888,0,0,1-5.976-2.232,6.971,6.971,0,0,1-2.52-5.544,8.14,8.14,0,0,1,1.584-5.184,10.854,10.854,0,0,1,4.1-3.168,56.535,56.535,0,0,1,6.768-2.448l.648-3.024a11.482,11.482,0,0,1-8.64,4.032,9.157,9.157,0,0,1-6.84-2.808q-2.736-2.808-2.736-8.784a33.085,33.085,0,0,1,2.088-11.16,25.984,25.984,0,0,1,6.336-9.936,14.015,14.015,0,0,1,10.08-4.1,7.712,7.712,0,0,1,4.392,1.008,3.107,3.107,0,0,1,1.44,2.664v.144l.72-3.456h10.44l-8.784,41.76q-1.44,6.912-5.112,9.576A13.121,13.121,0,0,1,237.6,337Zm.648-24.552a5.21,5.21,0,0,0,3.312-1.368,7.787,7.787,0,0,0,2.448-4.032l3.672-17.424a2.825,2.825,0,0,0-2.952-2.52q-2.88,0-5.184,3.384a25.989,25.989,0,0,0-3.6,8.064,31.5,31.5,0,0,0-1.3,8.28q0,3.6,1.008,4.608A3.665,3.665,0,0,0,238.25,312.448Zm-2.3,18.144a3.242,3.242,0,0,0,2.448-1.368,9.533,9.533,0,0,0,1.8-4.248l.864-4.248a18.726,18.726,0,0,0-5.9,3.024,5.528,5.528,0,0,0-2.088,4.464,2.059,2.059,0,0,0,.864,1.584A2.89,2.89,0,0,0,235.946,330.592Z"/>
  <path id="Path_4" data-name="Path 4" class="cls-2" d="M328.456,315.727c6.637,0,11.913-1.949,15.655-5.791a18.423,18.423,0,0,0,2.067-2.552,8.831,8.831,0,0,1,2.115-.765c.315-.073.654-.141,1.006-.222,3.293-.709,8.8-1.9,9.539-7.359a5.7,5.7,0,0,0-1.824-5.541,8.125,8.125,0,0,0-6.566-1.218q.029-1.107,0-2.038h-.037V290.2c0-1.718-.868-4.226-5.006-6.429a1.419,1.419,0,1,0-1.333,2.505c2.259,1.2,3.5,2.6,3.5,3.924,0,3.354-7.862,7.091-19.145,7.091a36.17,36.17,0,0,1-14.882-2.762,1.67,1.67,0,0,0-.167-.075c-2.565-1.243-4.039-2.744-4.086-4.18v-.1c.025-1.729,2.188-3.573,5.8-4.938a1.419,1.419,0,1,0-1-2.654c-4.933,1.862-7.645,4.569-7.645,7.623,0,.032.009.064.009.1-.106,4.839.586,13.745,6.343,19.64C316.549,313.778,321.818,315.727,328.456,315.727Zm26.761-20.035a3.082,3.082,0,0,1,.81,2.969c-.436,3.229-3.442,4.126-7.325,4.963-.194.041-.367.081-.55.122a29.85,29.85,0,0,0,2.1-8.533A5.974,5.974,0,0,1,355.217,295.692Zm-45.685-.295c3.764,2.876,10.652,4.73,18.9,4.73,8.291,0,15.21-1.875,18.96-4.776a21.482,21.482,0,0,1-5.307,12.606c-3.2,3.274-7.78,4.933-13.626,4.933s-10.431-1.659-13.627-4.933A21.43,21.43,0,0,1,309.532,295.4Z"/>
  <path id="Path_5" data-name="Path 5" class="cls-2" d="M319.671,287.972a4.642,4.642,0,0,0-1.878,3.646,1.418,1.418,0,1,0,2.836,0c0-.651.284-.932.959-1.56a4.478,4.478,0,0,0,0-7.292c-.682-.626-.959-.9-.959-1.56s.284-.928.958-1.552a4.638,4.638,0,0,0,1.879-3.636,1.419,1.419,0,0,0-2.837,0c0,.65-.283.928-.958,1.552a4.475,4.475,0,0,0,0,7.289c.682.625.958.906.958,1.56S320.353,287.346,319.671,287.972Z"/>
  <path id="Path_6" data-name="Path 6" class="cls-2" d="M328.18,287.972a4.642,4.642,0,0,0-1.878,3.646,1.418,1.418,0,1,0,2.836,0c0-.651.284-.932.959-1.56a4.478,4.478,0,0,0,0-7.292c-.682-.626-.959-.9-.959-1.56s.284-.928.957-1.552a4.636,4.636,0,0,0,1.88-3.636,1.419,1.419,0,0,0-2.837,0c0,.65-.283.928-.958,1.552a4.475,4.475,0,0,0,0,7.289c.682.625.958.906.958,1.56S328.862,287.346,328.18,287.972Z"/>
  <path id="Path_7" data-name="Path 7" class="cls-2" d="M336.689,287.972a4.642,4.642,0,0,0-1.878,3.646,1.418,1.418,0,0,0,2.836,0c0-.651.284-.932.959-1.56a4.478,4.478,0,0,0,0-7.292c-.682-.626-.959-.9-.959-1.56s.284-.928.957-1.552a4.637,4.637,0,0,0,1.88-3.636,1.419,1.419,0,0,0-2.837,0c0,.65-.283.928-.958,1.552a4.475,4.475,0,0,0,0,7.289c.682.625.958.906.958,1.56S337.371,287.346,336.689,287.972Z"/>
  <path id="Path_8" data-name="Path 8" class="cls-2" d="M321.04,329.083q3.666,3.438,7.575,7.136a2.836,2.836,0,0,0,3.908,0q3.9-3.708,7.576-7.139c19.182-17.992,33.044-30.992,33.044-46.568-.005-13.4-9.46-23.512-22-23.512a31.26,31.26,0,0,0-20.576,7.67A31.265,31.265,0,0,0,309.993,259C297.455,259,288,269.107,288,282.512,288,298.089,301.86,311.089,321.04,329.083Zm-30.2-46.571c0-11.787,8.237-20.676,19.157-20.676A28.469,28.469,0,0,1,329.53,269.6a1.416,1.416,0,0,0,2.076,0,28.3,28.3,0,0,1,19.539-7.759c10.92,0,19.157,8.889,19.157,20.676,0,14.347-13.481,26.995-32.143,44.5q-3.669,3.447-7.591,7.152-3.906-3.714-7.587-7.15C304.32,309.508,290.836,296.865,290.836,282.512Z"/>
  <path id="Path_9" data-name="Path 9" class="cls-2" d="M296.509,282.353a14.685,14.685,0,0,1,7.2-13.256,1.418,1.418,0,1,0-1.37-2.484,17.471,17.471,0,0,0-8.665,15.741,1.418,1.418,0,1,0,2.836,0Z"/>
  <path id="Path_10" data-name="Path 10" class="cls-2" d="M307.866,267.509a1.418,1.418,0,1,0-1.418-1.418A1.418,1.418,0,0,0,307.866,267.509Z"/>
</svg>
