<svg height="512" viewBox="0 0 61 55" width="512" xmlns="http://www.w3.org/2000/svg"><g id="Page-1" fill="none" fill-rule="evenodd"><g id="037---Heart-Coffee" fill="rgb(0,0,0)" fill-rule="nonzero" transform="translate(-1)"><path id="Shape" d="m29.519 40c4.68 0 8.4-1.374 11.039-4.083.538331-.5553872 1.0259381-1.1577844 1.457-1.8.4722543-.242692.9736752-.4238353 1.492-.539.222-.052.461-.1.709-.157 2.322-.5 6.208-1.339 6.726-5.189.3216335-1.43969-.1721347-2.9398084-1.286-3.907-1.3489863-.9364508-3.0348753-1.2492324-4.63-.859.014-.52.014-1 0-1.437h-.026c0-.01 0-.019 0-.029 0-1.211-.612-2.98-3.53-4.533-.4876674-.2595738-1.0934261-.0746674-1.353.413-.2595738.4876674-.0746674 1.0934262.413 1.353 1.593.847 2.47 1.83 2.47 2.767 0 2.365-5.544 5-13.5 5-3.5961784.0985102-7.1725034-.5650218-10.494-1.947-.0381167-.0202593-.0775368-.0379649-.118-.053-1.808-.877-2.848-1.935-2.881-2.948v-.052c.0004641-.007326.0004641-.014674 0-.022.018-1.219 1.543-2.519 4.091-3.482.334222-.1262934.5756791-.4212986.6334168-.77389s-.0770158-.709202-.3535-.9355c-.2764843-.226298-.6526948-.2879034-.9869168-.16161-3.478 1.313-5.391 3.222-5.391 5.375 0 .023.007.045.007.068-.075 3.412.413 9.692 4.472 13.849 2.644 2.709 6.359 4.083 11.04 4.083zm18.87-14.127c.5502683.5457394.7678884 1.3434257.571 2.093-.307 2.277-2.427 2.91-5.165 3.5-.137.029-.259.057-.388.086.7878306-1.9216117 1.286905-3.9492487 1.481-6.017 1.1604799-.4030281 2.4390545-.2795896 3.501.338zm-32.214-.208c2.654 2.028 7.511 3.335 13.325 3.335 5.846 0 10.725-1.322 13.369-3.368-.2453623 3.2916043-1.5593484 6.4129358-3.742 8.889-2.254 2.309-5.486 3.479-9.608 3.479s-7.355-1.17-9.609-3.479c-2.1757795-2.4667525-3.4871588-5.5761435-3.735-8.856z"/><path id="Shape" d="m23.324 20.429c-.8161782.6052868-1.3052787 1.5550431-1.324 2.571 0 .5522847.4477153 1 1 1s1-.4477153 1-1c0-.459.2-.657.676-1.1.8309154-.5926703 1.3241726-1.5503734 1.3241726-2.571s-.4932572-1.9783297-1.3241726-2.571c-.481-.441-.676-.638-.676-1.1s.2-.654.675-1.094c.8152257-.6030797 1.3046459-1.5501539 1.325-2.564 0-.5522847-.4477153-1-1-1s-1 .4477153-1 1c0 .458-.2.654-.676 1.094-.8309032.5922319-1.3242151 1.5496379-1.3242151 2.57s.4933119 1.9777681 1.3242151 2.57c.481.441.676.639.676 1.1s-.195.654-.676 1.095z"/><path id="Shape" d="m29.324 20.429c-.8161782.6052868-1.3052787 1.5550431-1.324 2.571 0 .5522847.4477153 1 1 1s1-.4477153 1-1c0-.459.2-.657.676-1.1.8309154-.5926703 1.3241726-1.5503734 1.3241726-2.571s-.4932572-1.9783297-1.3241726-2.571c-.481-.441-.676-.638-.676-1.1s.2-.654.675-1.094c.8152257-.6030797 1.3046459-1.5501539 1.325-2.564 0-.5522847-.4477153-1-1-1s-1 .4477153-1 1c0 .458-.2.654-.676 1.094-.8309032.5922319-1.3242151 1.5496379-1.3242151 2.57s.4933119 1.9777681 1.3242151 2.57c.481.441.676.639.676 1.1s-.195.654-.676 1.095z"/><path id="Shape" d="m35.324 20.429c-.8161782.6052868-1.3052787 1.5550431-1.324 2.571 0 .5522847.4477153 1 1 1s1-.4477153 1-1c0-.459.2-.657.676-1.1.8309154-.5926703 1.3241726-1.5503734 1.3241726-2.571s-.4932572-1.9783297-1.3241726-2.571c-.481-.441-.676-.638-.676-1.1s.2-.654.675-1.094c.8152257-.6030797 1.3046459-1.5501539 1.325-2.564 0-.5522847-.4477153-1-1-1s-1 .4477153-1 1c0 .458-.2.654-.676 1.094-.8309032.5922319-1.3242151 1.5496379-1.3242151 2.57s.4933119 1.9777681 1.3242151 2.57c.481.441.676.639.676 1.1s-.195.654-.676 1.095z"/><path id="Shape" d="m24.29 49.418c1.7233333 1.616 3.5036667 3.2933333 5.341 5.032.7720652.7339698 1.9839348.7339698 2.756 0 1.8346667-1.7433333 3.6153333-3.4213333 5.342-5.034 13.526-12.687 23.3-21.854 23.3-32.837-.003-9.452-6.67-16.579-15.511-16.579-5.3311467-.01099507-10.4856738 1.91027328-14.509 5.408-4.0234675-3.49748901-9.1779021-5.41872289-14.509-5.408-8.841 0-15.508 7.127-15.508 16.579 0 10.984 9.773 20.151 23.298 32.839zm-21.298-32.839c0-8.311 5.808-14.579 13.508-14.579 5.1219371-.00028805 10.0502589 1.9573032 13.776 5.472.1891202.20336215.4542904.31892128.732.319.2778612-.00033699.5430545-.11626849.732-.32 3.7199744-3.52488154 8.6532721-5.48380677 13.778-5.471 7.7 0 13.508 6.268 13.508 14.579 0 10.117-9.506 19.035-22.665 31.378-1.7246667 1.62-3.509 3.301-5.353 5.043-1.836-1.746-3.6193333-3.4266667-5.35-5.042-13.158-12.343-22.666-21.258-22.666-31.379z"/><path id="Shape" d="m6.992 16.467c-.16032832-3.8126334 1.78945875-7.40440708 5.074-9.347.4838014-.26675353.6597535-.87519856.393-1.359s-.8751986-.65975353-1.359-.393c-3.92870278 2.28924618-6.2773755 6.5560657-6.11 11.1 0 .5522847.44771525 1 1 1s1-.4477153 1-1z"/><circle id="Oval" cx="15" cy="5" r="1"/></g></g></svg>