<?xml version="1.0" encoding="utf-8"?>
<!-- Generator: Adobe Illustrator 23.0.5, SVG Export Plug-In . SVG Version: 6.00 Build 0)  -->
<svg version="1.1" id="Layer_1" xmlns="http://www.w3.org/2000/svg" xmlns:xlink="http://www.w3.org/1999/xlink" x="0px" y="0px"
	 viewBox="0 0 234.4 234.4" style="enable-background:new 0 0 234.4 234.4;" xml:space="preserve">
<style type="text/css">
	.st0{fill:#3D2167;}
</style>
<title>Asset 3</title>
<g>
	<g id="Instagram">
		<path class="st0" d="M164.6,0H69.8C31.3,0,0,31.3,0,69.8v94.8c0,38.6,31.3,69.8,69.8,69.8h94.8c38.6,0,69.8-31.3,69.8-69.8V69.8
			C234.4,31.3,203.2,0,164.6,0z M210.9,164.6c0,25.5-20.7,46.3-46.3,46.3H69.8c-25.5,0-46.2-20.7-46.3-46.3V69.8
			c0-25.5,20.7-46.2,46.3-46.2h94.8c25.5,0,46.3,20.7,46.3,46.2L210.9,164.6z M117.2,56.6c-33.5,0-60.6,27.1-60.6,60.6
			s27.1,60.6,60.6,60.6s60.6-27.1,60.6-60.6c0,0,0,0,0,0C177.8,83.8,150.7,56.6,117.2,56.6L117.2,56.6z M117.2,154.3
			c-20.5,0-37.1-16.6-37.1-37.1c0-20.5,16.6-37.1,37.1-37.1c20.5,0,37.1,16.6,37.1,37.1c0,0,0,0,0,0.1
			C154.2,137.7,137.7,154.3,117.2,154.3L117.2,154.3z M192.5,57.1c0,8-6.5,14.5-14.6,14.5s-14.5-6.5-14.5-14.5
			c0-8,6.5-14.5,14.5-14.5C186,42.5,192.5,49,192.5,57.1L192.5,57.1z"/>
	</g>
</g>
</svg>
