<?xml version="1.0" encoding="utf-8"?>
<!-- Generator: Adobe Illustrator 23.0.5, SVG Export Plug-In . SVG Version: 6.00 Build 0)  -->
<svg version="1.1" id="Layer_1" xmlns="http://www.w3.org/2000/svg" xmlns:xlink="http://www.w3.org/1999/xlink" x="0px" y="0px"
	 viewBox="0 0 512 512" style="enable-background:new 0 0 512 512;" xml:space="preserve">
<style type="text/css">
	.st0{fill:#C7E9B6;}
</style>
<g>
	<g>
		<path class="st0" d="M256,0C153.8,0,70.6,83.2,70.6,185.4c0,126.9,165.9,313.2,173,321c6.6,7.4,18.2,7.4,24.8,0
			c7.1-7.9,173-194.1,173-321C441.4,83.2,358.2,0,256,0z M256,469.7c-55.8-66.3-152-197.2-152-284.3c0-83.8,68.2-152,152-152
			s152,68.2,152,152C408,272.5,311.9,403.4,256,469.7z"/>
	</g>
</g>
<g>
	<g>
		<path class="st0" d="M256,92.1c-51.4,0-93.3,41.9-93.3,93.3s41.9,93.3,93.3,93.3s93.3-41.9,93.3-93.3S307.4,92.1,256,92.1z
			 M256,245.3c-33,0-59.9-26.9-59.9-59.9s26.9-59.9,59.9-59.9s59.9,26.9,59.9,59.9S289,245.3,256,245.3z"/>
	</g>
</g>
</svg>
