<svg xmlns="http://www.w3.org/2000/svg" viewBox="0 0 1920 488"><defs><style>.cls-1,.cls-2,.cls-3{fill:#3d2167;}.cls-1{opacity:0.3;}.cls-2{opacity:0.5;}</style></defs><title>Asset 4</title><g id="Layer_2" data-name="Layer 2"><g id="Layer_3" data-name="Layer 3"><path class="cls-1" d="M1920,488H0q.5-71,1-142C261.75,223.55,492,171.3,654,147c256.65-38.49,487.83-28.7,567-25,159.83,7.48,283.92,26,454-19A968.22,968.22,0,0,0,1920,0Z"/><path class="cls-2" d="M1920,486H0V245.36a1439.13,1439.13,0,0,1,293-38.05c244-6.33,270.1,56,464,32.46,130.94-15.9,160.91-49.42,386-81.71,22.47-3.22,43.1-5.89,62.07-8.14,0,0,52.87-6.32,109.93-10.88,62-5,291.82-19.58,605-37Z"/><path class="cls-3" d="M1920,488H0V278a751.65,751.65,0,0,0,190,83c284.53,79.21,407.82-74.52,835-127,342.79-42.11,612,14.05,730,44,69.35,17.61,126,36.2,165,50Z"/></g></g></svg>