<svg xmlns="http://www.w3.org/2000/svg" viewBox="0 0 342.5 139.63"><defs><style>.cls-1{fill:#c7e9b6;}</style></defs><title>Asset 23</title><g id="Layer_2" data-name="Layer 2"><g id="Layer_1-2" data-name="Layer 1"><g id="Layer_1-2-2" data-name="Layer 1-2"><path class="cls-1" d="M217.29,113.7v-2q.39-5.23-12.56-5.21a69.86,69.86,0,0,0-22.44,4.22c-.2.11-2.4,1-6.59,2.66a39.52,39.52,0,0,1-5.89,2.15c-1.79,0-2.7-.84-2.7-2.53q0-1.32,5.45-4.13a12,12,0,0,0,1.16-.66q6-4.69,6-22.3,0-9.9-.44-14.67c-.8-9.69-1.2-14.27-1.2-13.77a9.11,9.11,0,0,1,1.76-5.56,6.36,6.36,0,0,1,5.33-2.76q2.79,0,7.47,3.44c3.33,2.43,5,4.63,5,6.59a2.25,2.25,0,0,1-2.53,2.55q-1.83,0-4.67-4.51c-1.89-3-3.79-4.51-5.72-4.51q-1.94,0-1.66,5.8,1,20.16,1,20.21l0,15.49a25.52,25.52,0,0,1-3.32,12.66q14.06-5.16,24.87-5.19A20.3,20.3,0,0,1,215,104.2q5.85,3,5.86,7.3C220.79,113,219.63,113.72,217.29,113.7Z"/><path class="cls-1" d="M230.43,139.62q-7.35,0-13.22-6.22-5.15-5.37-5.15-9.78c0-1.43.57-2.14,1.72-2.15.64,0,1.14.5,1.48,1.53.21.74.42,1.48.62,2.28a16.13,16.13,0,0,0,4.79,6.94,13.33,13.33,0,0,0,7.63,3.23q10.81.88,17.08-12a51.55,51.55,0,0,0,5-23A114,114,0,0,0,247.87,79a167.44,167.44,0,0,1-7.12,16.53Q235,106.42,229.5,108.22a6,6,0,0,1-1.83.31q-4.87,0-4.89-7.51,0-6.9,3.56-19.46,3.78-13.22,6.62-13.48a3,3,0,0,1,2.11.74,2.23,2.23,0,0,1,1.1,1.65,1.18,1.18,0,0,1-.1.45,60.29,60.29,0,0,0-5.56,11.7,52.28,52.28,0,0,0-3.56,18c0,2.88.42,4.32,1.27,4.31q1.58,0,5.12-5.39c1.15-1.74,2.29-3.67,3.44-5.8Q244,82.39,245.12,75a17.4,17.4,0,0,0,.11-4.67q-.42-3.46,2.47-3.47T251,72l0,.66q1.25,11.32,2.83,14,.87,1.48.89,14a56.87,56.87,0,0,1-4.95,23Q243,139.6,230.43,139.62Z"/><path class="cls-1" d="M295.18,62.3a2.25,2.25,0,0,1-1.38-1.92c-.1-.88-.21-1.74-.31-2.59a9.65,9.65,0,0,0-1.79-4.32c-1.12-1.65-2.3-2.47-3.56-2.47q-5.28,0-8.15,12.76-1.46,6.45-2.23,19.82c.41-.07,1.33-.28,2.79-.62a13.61,13.61,0,0,1,2.84-.41c3,0,4.94,1.13,5.9,3.39a3.24,3.24,0,0,1,.26,1.27c0,.75-.23,1.2-.71,1.37s-1.14-.16-1.89-1a4.6,4.6,0,0,0-3.62-1.72,11.18,11.18,0,0,0-3.57.72,5.36,5.36,0,0,0-2.6,1.53,7.38,7.38,0,0,0-.3,2.8c0,2.07.27,5.73.79,11s.78,8.28.77,9.06q0,3.34-2.74,3.36t-2.39-3.6V110q0-2.44-.49-20.37c-1.09.55-2.84,1.55-5.28,3a4.82,4.82,0,0,1-1.72.81c-1.19,0-1.78-.84-1.79-2.53a1.53,1.53,0,0,1,.4-1.17c.89-.81,3.48-2.21,7.78-4.18l1-.46q1.49-17.28,2.74-22.26,3.72-15.14,13-15.16,3.25,0,5.75,3.59a11.13,11.13,0,0,1,2.26,6.44Q296.89,61.59,295.18,62.3Z"/><path class="cls-1" d="M323,75.24a8.34,8.34,0,0,1-2-.91,7.09,7.09,0,0,0-2.56-1q-3.47-.3-9.64,5-6.39,5.51-6.37,9.42c0,1.38,2.47,2.07,7.43,2.06q14.31,0,14.34,7.93,0,5.64-6.31,10.13a20.08,20.08,0,0,1-11.5,4.09,8,8,0,0,1-4.72-1.57,5,5,0,0,1-1.91-6.8,5.35,5.35,0,0,1,.36-.56c.77-1.22,1.59-1.83,2.48-1.83a1.69,1.69,0,0,1,.7.15,9.93,9.93,0,0,1-.58,2.74,3.12,3.12,0,0,0-.22,1.17c0,1.53.91,2.28,2.74,2.28a21.63,21.63,0,0,0,9.62-2.77q6-3.06,6-6.41a4.08,4.08,0,0,0-2.1-3.47,7.53,7.53,0,0,0-3.82-1.21l-9.77-.33a14.49,14.49,0,0,1-4.74-1c-2.1-.8-3.15-1.87-3.15-3.23q0-5,7.87-12.74t13.31-7.73a8.24,8.24,0,0,1,3.71,1.16c1.73.94,2.6,2,2.6,3.14C324.74,74.51,324.15,75.24,323,75.24Z"/><path class="cls-1" d="M336,67.64a2.07,2.07,0,0,1-1.27.49c-.85,0-1.28-.4-1.28-1.21a2.16,2.16,0,0,1,1-1.63q2.85-2.19,2.83-8.59a14.27,14.27,0,0,0-.21-2.44c-.07-.54.29-1.11,1.09-1.73a4,4,0,0,1,2.41-.92c1.28,0,1.93.93,1.94,2.79a16.67,16.67,0,0,1-1.87,7A16.65,16.65,0,0,1,336,67.64Z"/><path class="cls-1" d="M93.09,35.3a2.72,2.72,0,0,0,3.83.43h0a2.73,2.73,0,0,0,.43-3.83l-1.46-1.82a9.28,9.28,0,0,1,0-11.61l1.41-1.78A12.51,12.51,0,0,0,97.3,1,2.72,2.72,0,1,0,93,4.42a7.11,7.11,0,0,1,0,8.89l-1.41,1.78a14.71,14.71,0,0,0,0,18.39Z"/><path class="cls-1" d="M78,41.47a2.73,2.73,0,0,0,4.26-3.4L80.8,36.24a9.29,9.29,0,0,1,0-11.6l1.42-1.79a12.51,12.51,0,0,0,0-15.66A2.73,2.73,0,1,0,78,10.59h0a7.1,7.1,0,0,1,0,8.88l-1.42,1.78a14.73,14.73,0,0,0,0,18.38Z"/><path class="cls-1" d="M108.21,41.39a2.73,2.73,0,1,0,4.26-3.4L111,36.17a9.28,9.28,0,0,1,0-11.61l1.4-1.77a12.55,12.55,0,0,0,0-15.67,2.73,2.73,0,1,0-4.26,3.4,7.11,7.11,0,0,1,0,8.89l-1.41,1.78a14.72,14.72,0,0,0,0,18.39Z"/><path class="cls-1" d="M112.48,47.73a2.74,2.74,0,0,0-1.92.82,2.69,2.69,0,0,0-.79,1.93,2.73,2.73,0,0,0,5.45,0,2.73,2.73,0,0,0-2.74-2.75Z"/><path class="cls-1" d="M52.93,71.49a2.73,2.73,0,0,0-2.72,2.73h0A44.53,44.53,0,0,0,63.12,105.3,2.72,2.72,0,0,0,67,101.46,39.06,39.06,0,0,1,55.66,74.21,2.73,2.73,0,0,0,52.93,71.49Z"/><path class="cls-1" d="M75.3,107.79a2.73,2.73,0,1,0-2.66,4.76h0l.06,0a2.72,2.72,0,0,0,2.67-4.75Z"/><path class="cls-1" d="M45.5,103.49c.19.45.39.92.58,1.35A57.66,57.66,0,0,0,58.73,118.9h9.58A51.91,51.91,0,0,1,42.6,74.24l-.05-20.89,56.13-.13a2.73,2.73,0,0,0,2.72-2.74,2.17,2.17,0,0,0,0-.26,2.8,2.8,0,0,0-2.84-2.45l-58.74.14a2.73,2.73,0,0,0-2.72,2.73h0V55.1a16.05,16.05,0,0,0-8.79-2.56,24.34,24.34,0,0,0-13.82,3.52,27.9,27.9,0,0,0-10.2,11A38.26,38.26,0,0,0,0,83.9,23.38,23.38,0,0,0,2.59,96.06,20.29,20.29,0,0,0,11,104.4a29.84,29.84,0,0,0,13.29,3.34,50.85,50.85,0,0,0,9.47-.57,44.87,44.87,0,0,0,9.66-2.57A9.3,9.3,0,0,0,45.5,103.49ZM26.12,100q-8.49-.33-12.66-4.75T9.59,83.09a31.57,31.57,0,0,1,2.9-12.76,19.1,19.1,0,0,1,6.6-7.93,13.69,13.69,0,0,1,8.26-2.47c4.2.16,6.21,2.21,6.06,6.13a16.06,16.06,0,0,1-.5,3.09,17.47,17.47,0,0,0-.34,2.13,3,3,0,0,0,.94,2.51,4.43,4.43,0,0,0,2.82.95,4.72,4.72,0,0,0,1.44-.19l.15,1.28A106.5,106.5,0,0,0,43,96.89a63.42,63.42,0,0,1-8.3,2.4,35.7,35.7,0,0,1-8.56.74Z"/><path class="cls-1" d="M143.64,103.2A57.11,57.11,0,0,0,151.56,74l-.06-23.62a2.71,2.71,0,0,0-2.72-2.71H136.66a2.72,2.72,0,0,0-2.72,2.73,1.93,1.93,0,0,0,0,.24,2.82,2.82,0,0,0,2.86,2.48h9.25L146.11,74a51.92,51.92,0,0,1-25.5,44.75h9.58A57.65,57.65,0,0,0,143.64,103.2Z"/><path class="cls-1" d="M152.05,118.67h-9.66l-9.1,0-71.46.21L36.52,119a2.73,2.73,0,0,0-2.71,2.75,18,18,0,0,0,18,17.92l85-.21a18,18,0,0,0,17.94-18,2.73,2.73,0,0,0-2.72-2.75ZM136.84,134l-85,.21a12.57,12.57,0,0,1-12.26-9.78l31.13-.08,53.77-.13,24.59-.06A12.55,12.55,0,0,1,136.84,134Z"/></g></g></g></svg>