<?xml version="1.0" encoding="utf-8"?>
<!-- Generator: Adobe Illustrator 23.0.5, SVG Export Plug-In . SVG Version: 6.00 Build 0)  -->
<svg version="1.1" id="Capa_1" xmlns="http://www.w3.org/2000/svg" xmlns:xlink="http://www.w3.org/1999/xlink" x="0px" y="0px"
	 viewBox="0 0 124 124" style="enable-background:new 0 0 124 124;" xml:space="preserve">
<style type="text/css">
	.st0{fill:#C7E9B6;}
</style>
<g>
	<path class="st0" d="M80.4,21.4c0,1.5,0.1,2.9,0.4,4.3c-4.4,3.4-8.7,7.5-12.6,12.5c-5.2,6.5-8.9,13-11.1,17.2H41.5
		c-2.8-8.3-10.6-14.3-19.8-14.3C10.2,41.1,0.8,50.5,0.8,62s9.4,20.9,20.9,20.9c9.2,0,17-6,19.8-14.3h15.6
		c2.2,4.2,5.9,10.7,11.1,17.2c4,5,8.2,9.1,12.6,12.5c-0.3,1.4-0.4,2.8-0.4,4.3c0,11.8,9.6,21.4,21.4,21.4s21.4-9.6,21.4-21.4
		s-9.6-21.4-21.4-21.4c-5.1,0-9.8,1.8-13.4,4.8C78.9,78.3,72.7,67.5,70,62c2.7-5.5,8.9-16.3,18.4-24c3.7,3,8.3,4.8,13.4,4.8
		c11.8,0,21.4-9.6,21.4-21.4S113.6,0,101.8,0S80.4,9.6,80.4,21.4z M108.9,102.6c0,2.4-1.2,4.6-3.1,5.9c-1.2,0.8-2.6,1.3-4.1,1.3
		c-2.6,0-4.8-1.4-6.1-3.4c-0.7-1.1-1.1-2.4-1.1-3.7c0-3.9,3.2-7.1,7.1-7.1S108.9,98.7,108.9,102.6z M28.8,62c0,3.2-2.1,5.9-5,6.8
		c-0.7,0.2-1.4,0.3-2.1,0.3c-3.9,0-7.1-3.2-7.1-7.1s3.2-7.1,7.1-7.1c0.7,0,1.4,0.1,2.1,0.3C26.7,56.1,28.8,58.8,28.8,62z
		 M105.9,15.5c1.9,1.3,3.1,3.4,3.1,5.9c0,3.9-3.2,7.1-7.1,7.1s-7.2-3.2-7.2-7.1c0-1.4,0.4-2.6,1.1-3.7c1.3-2,3.5-3.4,6.1-3.4
		C103.3,14.3,104.7,14.7,105.9,15.5z"/>
</g>
</svg>
