<?xml version="1.0" encoding="utf-8"?>
<!-- Generator: Adobe Illustrator 23.0.5, SVG Export Plug-In . SVG Version: 6.00 Build 0)  -->
<svg version="1.1" id="Layer_1" xmlns="http://www.w3.org/2000/svg" xmlns:xlink="http://www.w3.org/1999/xlink" x="0px" y="0px"
	 viewBox="0 0 234.4 195" style="enable-background:new 0 0 234.4 195;" xml:space="preserve">
<style type="text/css">
	.st0{fill:#C7E9B6;}
</style>
<title>Asset 2</title>
<g>
	<g id="Twitter">
		<path class="st0" d="M230.7,22.7c-5.2,2.3-10.6,4.1-16.2,5.5c6.1-5.8,10.7-13.1,13.3-21.1c0.5-1.4-0.3-2.9-1.7-3.4
			c-0.7-0.3-1.6-0.2-2.2,0.2c-7.7,4.6-16,8-24.7,10.2c-0.5,0.1-1,0.2-1.5,0.2c-1.6,0-3.1-0.6-4.3-1.6C184.2,4.5,172.3,0,160,0
			c-5.4,0-10.8,0.8-16,2.5c-16.4,5.1-29,18.5-33,35.3c-1.5,6.1-1.9,12.4-1.2,18.6c0.1,0.5-0.1,1-0.4,1.4c-0.4,0.4-0.9,0.6-1.4,0.6
			h-0.2C72.1,55.2,39.2,37.6,16.6,9.7c-0.9-1.1-2.6-1.3-3.7-0.4c-0.2,0.2-0.5,0.4-0.6,0.7C0.7,30,4.1,55.3,20.5,71.5
			c-4-1-7.9-2.5-11.5-4.5c-1.3-0.7-2.9-0.2-3.6,1c-0.2,0.4-0.3,0.8-0.3,1.3c-0.3,20,11.3,38.3,29.5,46.7h-1.1
			c-2.9,0-5.7-0.3-8.5-0.8c-1.4-0.3-2.8,0.7-3.1,2.1c-0.1,0.4-0.1,0.9,0.1,1.3c5.8,18.1,21.3,31.3,40,34.4
			c-15.4,10.4-33.6,15.9-52.3,15.9H3.9c-1.8,0-3.4,1.2-3.8,2.9c-0.4,1.7,0.3,3.5,1.9,4.4C23.2,188.5,47.2,195,71.8,195
			c21.4,0,41.5-4.3,59.6-12.6c16.6-7.7,31.5-18.9,43.6-32.7c11.6-13.1,20.6-28.3,26.7-44.7c5.9-15.6,9-32.2,9.1-48.9v-0.8
			c0-2.6,1.2-5.1,3.2-6.7c7.8-6.3,14.5-13.7,20.1-22c0.8-1.2,0.5-2.8-0.7-3.7C232.5,22.4,231.6,22.3,230.7,22.7L230.7,22.7z"/>
	</g>
</g>
</svg>
