<svg xmlns="http://www.w3.org/2000/svg" viewBox="0 0 969.22 764.05"><defs><style>.cls-1{fill:#5b3da5;}</style></defs><title>Asset 7</title><g id="Layer_2" data-name="Layer 2"><g id="Layer_4" data-name="Layer 4"><path class="cls-1" d="M111.93,385C74.65,336.28,27,274,37.93,209c9.12-54.22,54.9-86.3,103-120,22.76-15.94,176.9-127.66,325-75,62.34,22.17,80.15,55.65,151,61,49.81,3.76,63.58-11.08,132-10,68.62,1.08,112.75,1.77,139,29,44,45.64-16.8,109.26,2,244,14.68,105.14,60,125.89,42,193-11.62,43.34-41.08,70.56-100,125-67.23,62.13-99.5,94.62-147,105-66.13,14.45-83.24-25.6-200-54-150-36.49-225.77,4.34-259-46-27.78-42.09,19.71-78.91-7-152C199.59,456.07,168.83,459.34,111.93,385Z"/><path class="cls-1" d="M132.36,459.26c1.65-1.71,61.34,29.16,69.38,81.72,5.51,36-18.5,47.84-12.33,89,.56,3.73,8.25,50.48,44.73,72.29,11.87,7.1,20.4,7.73,86.85,10.45,63.23,2.6,77.38,2.93,77.41,4,.05,1.84-37.73,5-77.84,5-46.8-.06-70.58-.29-88.84-10.33-28.14-15.46-49.51-46.47-54.15-78.69-5.69-39.48,18.16-50.07,13.38-88C184.25,491.37,130.78,460.9,132.36,459.26Z"/><path class="cls-1" d="M131.93,67c1.91,2.27-101.6,53.66-116,147C1.69,306.36,83,385.7,80.93,387s-95.4-78.86-79-178C18.16,110.94,130,64.7,131.93,67Z"/><path class="cls-1" d="M908.93,234c-2.63.05-8.87,45.42-3,97,10.39,91.22,48,108.2,46,171-2.34,74-56.79,123.22-54,125s66.08-50.08,71-124c3.88-58.21-32-74.47-50-175C909.42,274.69,911.44,234,908.93,234Z"/></g></g></svg>